<?xml version="1.0" encoding="UTF-8"?>
<svg id="Layer_2" data-name="Layer 2" xmlns="http://www.w3.org/2000/svg" viewBox="0 0 62.32 56.07">
  <defs>
    <style>
      .cls-1 {
        fill: #010101;
      }
    </style>
  </defs>
  <g id="Layer_1-2" data-name="Layer 1">
    <path class="cls-1" d="M7.8,3.47c-.26,0-.52.05-.77.15-.24.1-.46.25-.65.43-.19.19-.33.41-.43.65-.1.24-.15.5-.15.77s.05.52.15.77c.1.24.25.46.43.65l16.81,16.81c-.54.99-.87,2.1-.87,3.3,0,3.84,3.16,7,7,7s7-3.16,7-7-3.16-7-7-7c-1.2,0-2.31.33-3.3.87L9.21,4.06c-.38-.37-.88-.59-1.41-.59ZM29.32,24c1.68,0,3,1.32,3,3s-1.32,3-3,3-3-1.32-3-3c0-.82.32-1.56.84-2.09.01,0,.03-.01.04-.02.02-.02.03-.04.05-.06.54-.51,1.25-.83,2.07-.83ZM55.32,37c-.53,0-1.04.21-1.41.59,0,0-1.39,1.38-2.75,3.43-1.36,2.05-2.84,4.82-2.84,7.98,0,3.84,3.16,7,7,7s7-3.16,7-7c0-3.17-1.47-5.94-2.84-7.98-1.36-2.05-2.75-3.43-2.75-3.43-.37-.38-.88-.59-1.41-.59ZM55.32,42.13c.28.36.53.65.84,1.1,1.14,1.7,2.16,3.93,2.16,5.77,0,1.68-1.32,3-3,3s-3-1.32-3-3c0-1.83,1.03-4.06,2.16-5.77.31-.46.55-.74.84-1.1ZM27.2,0c-.53,0-1.04.21-1.41.59L1.73,24.64s0,0-.01.01c-2.3,2.33-2.3,6.13,0,8.46,0,0,0,0,.01.01l21.23,21.22s0,0,.01.01c2.33,2.3,6.13,2.3,8.46,0,0,0,0,0,.01-.01l24.05-24.05c.38-.38.59-.88.59-1.41s-.21-1.04-.59-1.41L28.61.59c-.38-.38-.88-.59-1.41-.59ZM27.2,4.83l24.05,24.05-22.63,22.63c-.8.79-2.04.79-2.84,0L4.57,30.3c-.79-.8-.79-2.04,0-2.84,0,0,0,0,0,0L27.2,4.83Z"/>
  </g>
</svg>