<?xml version="1.0" encoding="UTF-8"?>
<svg id="Layer_2" data-name="Layer 2" xmlns="http://www.w3.org/2000/svg" viewBox="0 0 44 44">
  <defs>
    <style>
      .cls-1 {
        fill: #010101;
      }
    </style>
  </defs>
  <g id="Layer_1-2" data-name="Layer 1">
    <path class="cls-1" d="M10,0c-.53,0-1.04.21-1.41.59-.38.38-.59.88-.59,1.41v35.17l-4.59-4.59c-.38-.38-.88-.59-1.41-.59s-1.04.21-1.41.59c-.38.37-.59.88-.59,1.41s.21,1.04.59,1.41l8,8c.38.38.88.59,1.41.59s1.04-.21,1.41-.59l8-8c.38-.37.59-.88.59-1.41s-.21-1.04-.59-1.41c-.38-.38-.88-.59-1.41-.59s-1.04.21-1.41.59l-4.59,4.59V2c0-.53-.21-1.04-.59-1.41-.38-.38-.88-.59-1.41-.59ZM34,0c-.53,0-1.04.21-1.41.59l-8,8c-.38.38-.59.88-.59,1.41s.21,1.04.59,1.41c.38.37.88.59,1.41.59s1.04-.21,1.41-.59l4.59-4.59v35.17c0,.53.21,1.04.59,1.41.38.37.88.59,1.41.59s1.04-.21,1.41-.59.59-.88.59-1.41V6.83l4.59,4.59c.37.37.88.59,1.41.59s1.04-.21,1.41-.59c.37-.38.59-.88.59-1.41s-.21-1.04-.59-1.41L35.41.59s-.04-.02-.06-.02c-.36-.35-.85-.55-1.36-.56Z"/>
  </g>
</svg>