<?xml version="1.0" encoding="UTF-8"?>
<svg id="Layer_2" data-name="Layer 2" xmlns="http://www.w3.org/2000/svg" viewBox="0 0 52 44">
  <defs>
    <style>
      .cls-1 {
        fill: #010101;
      }
    </style>
  </defs>
  <g id="Layer_1-2" data-name="Layer 1">
    <path class="cls-1" d="M18,16c0,1.66-1.34,3-3,3s-3-1.34-3-3,1.34-3,3-3,3,1.34,3,3ZM22,16c0-1.1.9-2,2-2h14c1.1,0,2,.9,2,2s-.9,2-2,2h-14c-1.1,0-2-.9-2-2ZM24,26c-1.1,0-2,.9-2,2s.9,2,2,2h14c1.1,0,2-.9,2-2s-.9-2-2-2h-14ZM18,28c0,1.66-1.34,3-3,3s-3-1.34-3-3,1.34-3,3-3,3,1.34,3,3ZM4.18,0C2.23,0,0,1.38,0,3.82v36.36c0,2.43,2.23,3.82,4.18,3.82h43.64c1.95,0,4.18-1.38,4.18-3.82V3.82c0-2.43-2.23-3.82-4.18-3.82H4.18ZM4,39.97V4.03s.1-.03.18-.03h43.64c.08,0,.14.01.18.03v35.94s-.1.03-.18.03H4.18c-.08,0-.14-.01-.18-.03Z"/>
  </g>
</svg>