<?xml version="1.0" encoding="UTF-8"?>
<svg id="Layer_2" data-name="Layer 2" xmlns="http://www.w3.org/2000/svg" viewBox="0 0 48 52">
  <defs>
    <style>
      .cls-1 {
        fill: #010101;
        fill-rule: evenodd;
      }
    </style>
  </defs>
  <g id="Layer_1-2" data-name="Layer 1">
    <path class="cls-1" d="M15,26c-.53,0-1.04.21-1.41.59-.38.38-.59.88-.59,1.41s.21,1.04.59,1.41c.38.38.88.59,1.41.59h2.84l-1.4,1.75c-.24.29-.38.65-.43,1.02-.04.37.02.75.19,1.09.16.34.42.63.74.83.32.2.69.31,1.07.31,1.5,0,2.42,1.38,1.85,2.76,0,0,0,0,0,0-.26.62-.8,1.07-1.46,1.2,0,0,0,0,0,0-.66.13-1.33-.07-1.81-.55-.19-.19-.41-.33-.65-.43-.24-.1-.5-.15-.77-.15-.26,0-.52.05-.77.15-.24.1-.46.25-.65.43-.19.19-.33.41-.43.65-.1.24-.15.5-.15.77,0,.26.05.52.15.77.1.24.25.46.43.65,1.41,1.42,3.45,2.04,5.42,1.65,1.97-.39,3.61-1.74,4.38-3.59,1.13-2.73-.02-5.69-2.24-7.23l2.25-2.82c.24-.29.38-.65.43-1.02.04-.37-.02-.75-.18-1.09-.16-.34-.42-.63-.74-.83-.32-.2-.69-.31-1.06-.31h-7ZM32.19,26.01c-.5-.05-.99.09-1.39.39l-4,3c-.21.16-.39.36-.52.58-.13.23-.22.48-.26.74-.04.26-.02.52.04.78.07.25.18.49.34.7.16.21.36.39.58.52.23.13.48.22.74.26.26.04.52.02.78-.04.25-.07.49-.18.7-.34l.8-.6v9c0,.53.21,1.04.59,1.41.38.37.88.59,1.41.59s1.04-.21,1.41-.59c.37-.38.59-.88.59-1.41v-13c0-.5-.19-.98-.52-1.35-.33-.37-.79-.6-1.29-.65ZM12,0c-.53,0-1.04.21-1.41.59-.38.38-.59.88-.59,1.41v2h-6C1.81,4,0,5.81,0,8v40c0,2.19,1.81,4,4,4h40c2.19,0,4-1.81,4-4V8c0-2.19-1.81-4-4-4h-6v-2c0-.53-.21-1.04-.59-1.41-.38-.38-.88-.59-1.41-.59s-1.04.21-1.41.59c-.37.38-.59.88-.59,1.41v2H14v-2c0-.53-.21-1.04-.59-1.41-.38-.38-.88-.59-1.41-.59ZM4,8h6v2c0,.53.21,1.04.59,1.41.38.38.88.59,1.41.59s1.04-.21,1.41-.59c.38-.38.59-.88.59-1.41v-2h20v2c0,.53.21,1.04.59,1.41.38.38.88.59,1.41.59s1.04-.21,1.41-.59c.37-.38.59-.88.59-1.41v-2h6v8H4v-8ZM4,20h40v28H4v-28Z"/>
  </g>
</svg>