<?xml version="1.0" encoding="UTF-8"?>
<svg id="Layer_2" data-name="Layer 2" xmlns="http://www.w3.org/2000/svg" viewBox="0 0 64 64">
  <defs>
    <style>
      .cls-1 {
        fill: #010101;
        fill-rule: evenodd;
      }
    </style>
  </defs>
  <g id="Layer_1-2" data-name="Layer 1">
    <path class="cls-1" d="M36,2c0-1.1-.9-2-2-2s-2,.9-2,2v60c0,1.1.9,2,2,2s2-.9,2-2v-6h10c3.31,0,6-2.69,6-6v-8c0-3.31-2.69-6-6-6h-10v-8h22c3.31,0,6-2.69,6-6v-8c0-3.31-2.69-6-6-6h-22V2ZM36,12v12h22c1.1,0,2-.9,2-2v-8c0-1.1-.9-2-2-2h-22ZM36,40v12h10c1.1,0,2-.9,2-2v-8c0-1.1-.9-2-2-2h-10ZM18,8h10v4h-10c-1.1,0-2,.9-2,2v8c0,1.1.9,2,2,2h10v4h-10c-3.31,0-6-2.69-6-6v-8c0-3.31,2.69-6,6-6ZM28,36H6c-3.31,0-6,2.69-6,6v8c0,3.31,2.69,6,6,6h22v-4H6c-1.1,0-2-.9-2-2v-8c0-1.1.9-2,2-2h22v-4Z"/>
  </g>
</svg>