<?xml version="1.0" encoding="UTF-8"?>
<svg id="Layer_2" data-name="Layer 2" xmlns="http://www.w3.org/2000/svg" viewBox="0 0 56 56">
  <defs>
    <style>
      .cls-1 {
        fill: #010101;
      }
    </style>
  </defs>
  <g id="Layer_1-2" data-name="Layer 1">
    <path class="cls-1" d="M32,.72c.46-.46,1.09-.72,1.75-.72s1.28.26,1.75.72c.46.46.72,1.09.72,1.74v4.91h4.94c.66,0,1.28.26,1.75.72.46.46.72,1.09.72,1.74s-.26,1.28-.72,1.74c-.46.46-1.09.72-1.75.72h-4.94v4.91c0,.65-.26,1.28-.72,1.74-.46.46-1.09.72-1.75.72s-1.28-.26-1.75-.72c-.46-.46-.72-1.09-.72-1.74v-4.91h-4.94c-.66,0-1.28-.26-1.75-.72-.46-.46-.72-1.09-.72-1.74s.26-1.28.72-1.74c.46-.46,1.09-.72,1.75-.72h4.94V2.46c0-.65.26-1.28.72-1.74ZM46.83,17.92c.46-.46,1.09-.72,1.75-.72s1.28.26,1.75.72.72,1.09.72,1.74v2.46h2.47c.66,0,1.28.26,1.75.72s.72,1.09.72,1.74-.26,1.28-.72,1.74-1.09.72-1.75.72h-2.47v2.46c0,.65-.26,1.28-.72,1.74-.46.46-1.09.72-1.75.72s-1.28-.26-1.75-.72c-.46-.46-.72-1.09-.72-1.74v-2.46h-2.47c-.66,0-1.28-.26-1.75-.72s-.72-1.09-.72-1.74.26-1.28.72-1.74,1.09-.72,1.75-.72h2.47v-2.46c0-.65.26-1.28.72-1.74ZM18.07,22.77l-15.09,6.21c-.84.35-.83,1.53.01,1.86l15.15,5.97c1.33.52,2.81.52,4.15,0l15.15-5.97c.84-.33.85-1.52.01-1.86l-15.09-6.21c-1.38-.57-2.92-.57-4.3,0ZM21.57,54.99v-14.92c0-.41.25-.78.64-.93l16.88-6.51c.66-.26,1.38.22,1.38.93v14.92c0,.41-.25.78-.64.93l-16.88,6.51c-.66.26-1.38-.22-1.38-.93ZM17.62,40.84l-5.52,2.65-10.58,5.04c-.67.32-1.53-.16-1.53-.9v-14c0-.27.14-.5.32-.67.08-.08.16-.14.26-.19.25-.15.61-.19.92-.07l16.04,6.32c.82.32.88,1.46.08,1.84Z"/>
  </g>
</svg>