<?xml version="1.0" encoding="UTF-8"?>
<svg id="Layer_2" data-name="Layer 2" xmlns="http://www.w3.org/2000/svg" viewBox="0 0 56 48">
  <defs>
    <style>
      .cls-1 {
        fill: #010101;
      }
    </style>
  </defs>
  <g id="Layer_1-2" data-name="Layer 1">
    <path class="cls-1" d="M30,32c0-1.1.9-2,2-2h12c1.1,0,2,.9,2,2s-.9,2-2,2h-12c-1.1,0-2-.9-2-2ZM30,18c0-1.1.9-2,2-2h12c1.1,0,2,.9,2,2s-.9,2-2,2h-12c-1.1,0-2-.9-2-2ZM26.47,12.64c.75.81.7,2.08-.11,2.83l-8.68,8c-.77.71-1.95.71-2.71,0l-4.32-4c-.81-.75-.86-2.02-.11-2.83.75-.81,2.02-.86,2.83-.11l2.97,2.75,7.32-6.75c.81-.75,2.08-.7,2.83.11ZM26.47,26.64c.75.81.7,2.08-.11,2.83l-8.68,8c-.77.71-1.95.71-2.71,0l-4.32-4c-.81-.75-.86-2.02-.11-2.83.75-.81,2.02-.86,2.83-.11l2.97,2.75,7.32-6.75c.81-.75,2.08-.7,2.83.11ZM0,6C0,2.69,2.69,0,6,0h44c3.31,0,6,2.69,6,6v36c0,3.31-2.69,6-6,6H6c-3.31,0-6-2.69-6-6V6ZM6,4c-1.1,0-2,.9-2,2v36c0,1.1.9,2,2,2h44c1.1,0,2-.9,2-2V6c0-1.1-.9-2-2-2H6Z"/>
  </g>
</svg>