<?xml version="1.0" encoding="UTF-8"?>
<svg id="Layer_2" data-name="Layer 2" xmlns="http://www.w3.org/2000/svg" viewBox="0 0 52.5 50">
  <defs>
    <style>
      .cls-1 {
        fill: #010101;
      }
    </style>
  </defs>
  <g id="Layer_1-2" data-name="Layer 1">
    <path class="cls-1" d="M26.25,32c-10.72,0-20.62,5.72-25.98,15-.27.46-.34,1.01-.2,1.52.14.51.47.95.93,1.21.46.27,1.01.34,1.52.2.51-.14.95-.47,1.21-.93,4.65-8.05,13.23-13,22.52-13,9.29,0,17.87,4.95,22.52,13,.27.46.7.79,1.21.93.51.14,1.06.07,1.52-.2.46-.27.79-.7.93-1.21.14-.51.07-1.06-.2-1.52-5.36-9.28-15.27-15-25.98-15ZM26.25,0C16.33,0,8.25,8.08,8.25,18s8.08,18,18,18,18-8.08,18-18S36.17,0,26.25,0ZM26.25,4c7.76,0,14,6.24,14,14s-6.24,14-14,14-14-6.24-14-14,6.24-14,14-14Z"/>
  </g>
</svg>