<?xml version="1.0" encoding="UTF-8"?>
<svg id="Layer_2" data-name="Layer 2" xmlns="http://www.w3.org/2000/svg" viewBox="0 0 54.2 54.2">
  <defs>
    <style>
      .cls-1 {
        fill: #010101;
      }
    </style>
  </defs>
  <g id="Layer_1-2" data-name="Layer 1">
    <path class="cls-1" d="M27.1,13.1c-7.71,0-14,6.29-14,14s6.29,14,14,14,14-6.29,14-14-6.29-14-14-14ZM27.1,17.1c5.55,0,10,4.45,10,10s-4.45,10-10,10-10-4.45-10-10,4.45-10,10-10ZM34.42.07c-.29-.08-.6-.09-.9-.03-.3.06-.58.18-.82.36l-4.95,3.72c-.43-.02-.86-.02-1.29,0L21.5.4c-.24-.18-.52-.31-.82-.36-.3-.06-.61-.05-.9.03-2.32.63-4.55,1.55-6.63,2.75-.26.15-.49.36-.66.61-.17.25-.28.54-.32.84l-.88,6.17c-.29.28-.57.57-.86.86l-6.17.88c-.3.04-.59.15-.84.32-.25.17-.46.39-.61.66C1.62,15.23.69,17.46.07,19.78c-.08.29-.09.6-.03.9.06.3.18.58.36.82l3.74,4.98c-.01.51-.03.89-.01,1.26l-3.72,4.96c-.18.24-.31.52-.36.82-.06.3-.05.61.03.9.63,2.32,1.55,4.55,2.75,6.63.15.26.36.49.61.66.25.17.54.28.84.32l6.17.88c.28.29.57.57.86.86l.88,6.17c.04.3.15.59.32.84.17.25.39.46.66.61,2.08,1.2,4.31,2.13,6.63,2.75.29.08.6.09.9.03.3-.06.58-.18.82-.36l4.95-3.72c.43.02.86.02,1.29,0l4.95,3.72c.24.18.52.31.82.36.3.06.61.05.9-.03,2.32-.63,4.55-1.55,6.63-2.75.26-.15.49-.36.66-.61.17-.25.28-.54.32-.84l.88-6.17c.38-.38.63-.62.86-.86l6.17-.88c.3-.04.59-.15.84-.32.25-.17.46-.39.61-.66,1.2-2.08,2.13-4.31,2.75-6.63.08-.29.09-.6.03-.9-.06-.3-.18-.58-.36-.82l-3.74-4.98c.01-.51.03-.89.01-1.26l3.72-4.96c.18-.24.31-.52.36-.82.06-.3.05-.61-.03-.9-.63-2.32-1.55-4.55-2.75-6.63-.15-.26-.36-.49-.61-.66-.25-.17-.54-.28-.84-.32l-6.17-.88c-.28-.29-.56-.57-.85-.85l-.88-6.17c-.04-.3-.15-.59-.32-.84-.17-.25-.39-.46-.66-.61-2.08-1.2-4.31-2.13-6.63-2.75ZM34.26,4.23c1.37.43,2.69.97,3.96,1.64l.83,5.79c.07.46.29.88.63,1.19.58.54,1.15,1.1,1.68,1.68.31.34.73.56,1.19.63l5.79.83c.67,1.27,1.21,2.59,1.64,3.96l-3.52,4.68c-.28.37-.42.83-.4,1.29,0,0,.05,1.78,0,2.29-.04.49.1.98.39,1.38l3.52,4.68c-.43,1.37-.97,2.69-1.64,3.96l-5.79.83c-.44.06-.85.27-1.16.6,0,0-1.21,1.25-1.71,1.71-.34.31-.56.73-.63,1.19l-.83,5.79c-1.27.67-2.59,1.21-3.96,1.64l-4.68-3.52c-.39-.3-.89-.44-1.38-.39-.73.06-1.47.06-2.2,0-.49-.04-.98.1-1.38.39l-4.68,3.52c-1.37-.43-2.69-.97-3.96-1.64l-.83-5.79c-.06-.45-.28-.86-.61-1.17-.59-.56-1.16-1.13-1.72-1.72-.31-.33-.72-.54-1.17-.6l-5.79-.83c-.67-1.27-1.21-2.59-1.64-3.96l3.52-4.68c.28-.37.42-.83.4-1.29,0,0-.05-1.78,0-2.29.04-.49-.1-.98-.39-1.38l-3.52-4.68c.43-1.37.97-2.69,1.64-3.96l5.79-.83c.45-.06.86-.28,1.17-.61.56-.59,1.13-1.16,1.72-1.72.33-.31.54-.72.61-1.17l.83-5.79c1.27-.67,2.59-1.21,3.96-1.64l4.68,3.52c.39.3.89.44,1.38.39.73-.06,1.47-.06,2.2,0,.49.04.98-.1,1.38-.39l4.68-3.52Z"/>
  </g>
</svg>