<?xml version="1.0" encoding="UTF-8"?>
<svg id="Layer_2" data-name="Layer 2" xmlns="http://www.w3.org/2000/svg" viewBox="0 0 52 52">
  <defs>
    <style>
      .cls-1 {
        fill: #010101;
      }
    </style>
  </defs>
  <g id="Layer_1-2" data-name="Layer 1">
    <path class="cls-1" d="M26,14c-.53,0-1.04.21-1.41.59-.38.38-.59.88-.59,1.41v15.17l-5.06-5.06c-.19-.19-.41-.33-.65-.43-.24-.1-.5-.15-.77-.15s-.52.05-.77.15c-.24.1-.46.25-.65.43-.19.19-.33.41-.43.65-.1.24-.15.5-.15.77s.05.52.15.77c.1.24.25.46.43.65l8.48,8.47c.38.37.88.59,1.41.59s1.04-.21,1.41-.59l8.48-8.47c.19-.19.33-.41.43-.65.1-.24.15-.5.15-.77s-.05-.52-.15-.77-.25-.46-.43-.65c-.19-.19-.41-.33-.65-.43-.24-.1-.5-.15-.77-.15s-.52.05-.77.15c-.24.1-.46.25-.65.43l-5.06,5.06v-15.17c0-.53-.21-1.04-.59-1.41-.38-.38-.88-.59-1.41-.59ZM26,0C11.66,0,0,11.66,0,26s11.66,26,26,26,26-11.66,26-26S40.34,0,26,0ZM26,4c12.17,0,22,9.83,22,22s-9.83,22-22,22S4,38.17,4,26,13.83,4,26,4Z"/>
  </g>
</svg>