<?xml version="1.0" encoding="UTF-8"?>
<svg id="Layer_2" data-name="Layer 2" xmlns="http://www.w3.org/2000/svg" viewBox="0 0 56.73 56.73">
  <defs>
    <style>
      .cls-1 {
        fill: #010101;
      }
    </style>
  </defs>
  <g id="Layer_1-2" data-name="Layer 1">
    <path class="cls-1" d="M40.17,19.56c-1.66,0-3-1.34-3-3s1.34-3,3-3,3,1.34,3,3-1.34,3-3,3ZM29.9,0c.33-.02.66,0,.98.07h0s0,0,0,0l20.18,4.02c.39.08.74.27,1.02.55.28.28.47.64.55,1.02l4.03,20.17h0c.26,1.31-.16,2.67-1.1,3.61l-26.08,26.08c-.75.76-1.77,1.19-2.84,1.2h0c-1.07,0-2.09-.43-2.84-1.19L1.2,32.94c-.76-.75-1.19-1.77-1.2-2.84h0c0-1.07.43-2.1,1.2-2.84L27.28,1.17C27.98.47,28.92.06,29.9,0ZM30.11,4h0L4.01,30.1l22.62,22.62,26.1-26.1h0l-3.76-18.86-18.86-3.76Z"/>
  </g>
</svg>