<?xml version="1.0" encoding="UTF-8"?>
<svg id="Layer_2" data-name="Layer 2" xmlns="http://www.w3.org/2000/svg" viewBox="0 0 52 52">
  <defs>
    <style>
      .cls-1 {
        fill: #010101;
      }
    </style>
  </defs>
  <g id="Layer_1-2" data-name="Layer 1">
    <path class="cls-1" d="M16.11,30.07c-.51-.14-1.06-.06-1.52.2-.46.27-.79.7-.93,1.22s-.06,1.06.2,1.52c1.23,2.12,3,3.89,5.13,5.11,6.68,3.84,15.26,1.55,19.13-5.11.13-.23.22-.48.25-.74.03-.26.02-.53-.05-.78-.07-.25-.18-.49-.34-.7-.16-.21-.36-.38-.59-.52-.46-.27-1-.34-1.52-.2-.51.14-.95.47-1.22.93-2.78,4.8-8.87,6.42-13.67,3.65h0c-1.52-.88-2.79-2.14-3.67-3.65-.27-.46-.7-.79-1.22-.93ZM17,24c1.66,0,3-1.34,3-3s-1.34-3-3-3-3,1.34-3,3,1.34,3,3,3ZM35,24c1.66,0,3-1.34,3-3s-1.34-3-3-3-3,1.34-3,3,1.34,3,3,3ZM26,0C11.66,0,0,11.66,0,26s11.66,26,26,26,26-11.66,26-26S40.34,0,26,0ZM26,4c12.17,0,22,9.83,22,22s-9.83,22-22,22S4,38.17,4,26,13.83,4,26,4Z"/>
  </g>
</svg>