<?xml version="1.0" encoding="UTF-8"?>
<svg id="Layer_2" data-name="Layer 2" xmlns="http://www.w3.org/2000/svg" viewBox="0 0 44 44">
  <defs>
    <style>
      .cls-1 {
        fill: #010101;
      }
    </style>
  </defs>
  <g id="Layer_1-2" data-name="Layer 1">
    <path class="cls-1" d="M9,0C4.05,0,0,4.05,0,9s4.05,9,9,9,9-4.05,9-9S13.95,0,9,0ZM9,4c2.79,0,5,2.21,5,5s-2.21,5-5,5-5-2.21-5-5,2.21-5,5-5ZM35,26c-4.95,0-9,4.05-9,9s4.05,9,9,9,9-4.05,9-9-4.05-9-9-9ZM35,30c2.79,0,5,2.21,5,5s-2.21,5-5,5-5-2.21-5-5,2.21-5,5-5ZM40,2c-.53,0-1.04.21-1.41.59L2.59,38.59c-.37.37-.59.88-.59,1.41s.21,1.04.59,1.41c.38.38.88.59,1.41.59s1.04-.21,1.41-.59L41.41,5.41c.38-.38.59-.88.59-1.41s-.21-1.04-.59-1.41c-.37-.38-.88-.59-1.41-.59Z"/>
  </g>
</svg>