<?xml version="1.0" encoding="UTF-8"?>
<svg id="Layer_2" data-name="Layer 2" xmlns="http://www.w3.org/2000/svg" viewBox="0 0 40 52">
  <defs>
    <style>
      .cls-1 {
        fill: #010101;
      }
    </style>
  </defs>
  <g id="Layer_1-2" data-name="Layer 1">
    <path class="cls-1" d="M10,0c-.53,0-1.04.21-1.41.59-.38.38-.59.88-.59,1.41s.21,1.04.59,1.41c.38.38.88.59,1.41.59h26v38c0,.53.21,1.04.59,1.41.38.37.88.59,1.41.59s1.04-.21,1.41-.59c.37-.38.59-.88.59-1.41V4c0-2.19-1.81-4-4-4H10ZM4,8c-2.19,0-4,1.81-4,4v38c0,.37.1.73.29,1.04.19.31.47.57.79.74.33.17.69.24,1.06.22.37-.03.72-.15,1.02-.37l12.84-9.17,12.84,9.17c.3.21.65.34,1.02.37.37.03.73-.05,1.06-.22.33-.17.6-.42.79-.74.19-.31.29-.67.29-1.04V12c0-2.19-1.81-4-4-4H4ZM4,12h24v34.11l-10.84-7.74c-.34-.24-.75-.37-1.16-.37s-.82.13-1.16.37l-10.84,7.74V12Z"/>
  </g>
</svg>