<?xml version="1.0" encoding="UTF-8"?>
<svg id="Layer_2" data-name="Layer 2" xmlns="http://www.w3.org/2000/svg" viewBox="0 0 48 52">
  <defs>
    <style>
      .cls-1 {
        fill: #010101;
      }
    </style>
  </defs>
  <g id="Layer_1-2" data-name="Layer 1">
    <path class="cls-1" d="M2,10c-.53,0-1.04.21-1.41.59-.38.38-.59.88-.59,1.41s.21,1.04.59,1.41c.38.38.88.59,1.41.59h6c.53,0,1.04-.21,1.41-.59.38-.38.59-.88.59-1.41s-.21-1.04-.59-1.41c-.38-.38-.88-.59-1.41-.59H2ZM2,30c-.53,0-1.04.21-1.41.59-.38.38-.59.88-.59,1.41s.21,1.04.59,1.41c.38.38.88.59,1.41.59h6c.53,0,1.04-.21,1.41-.59.38-.38.59-.88.59-1.41s-.21-1.04-.59-1.41c-.38-.38-.88-.59-1.41-.59H2ZM24,8c-4.39,0-8,3.61-8,8s3.61,8,8,8,8-3.61,8-8-3.61-8-8-8ZM24,12c2.23,0,4,1.77,4,4s-1.77,4-4,4-4-1.77-4-4,1.77-4,4-4ZM24,28c-4.39,0-8,3.61-8,8s3.61,8,8,8,8-3.61,8-8-3.61-8-8-8ZM24,32c2.23,0,4,1.77,4,4s-1.77,4-4,4-4-1.77-4-4,1.77-4,4-4ZM10,0c-2.19,0-4,1.81-4,4v44c0,2.19,1.81,4,4,4h28c2.19,0,4-1.81,4-4V4c0-2.19-1.81-4-4-4H10ZM40,10c-.53,0-1.04.21-1.41.59-.37.38-.59.88-.59,1.41s.21,1.04.59,1.41c.38.38.88.59,1.41.59h6c.53,0,1.04-.21,1.41-.59.37-.38.59-.88.59-1.41s-.21-1.04-.59-1.41c-.38-.38-.88-.59-1.41-.59h-6ZM40,30c-.53,0-1.04.21-1.41.59-.37.38-.59.88-.59,1.41s.21,1.04.59,1.41c.38.38.88.59,1.41.59h6c.53,0,1.04-.21,1.41-.59.37-.38.59-.88.59-1.41s-.21-1.04-.59-1.41c-.38-.38-.88-.59-1.41-.59h-6ZM10,4h28v44H10V4Z"/>
  </g>
</svg>