<?xml version="1.0" encoding="UTF-8"?>
<svg id="Layer_2" data-name="Layer 2" xmlns="http://www.w3.org/2000/svg" viewBox="0 0 50.06 48">
  <defs>
    <style>
      .cls-1 {
        fill: #010101;
      }
    </style>
  </defs>
  <g id="Layer_1-2" data-name="Layer 1">
    <path class="cls-1" d="M26.58,0c-6.43-.14-12.78,2.31-17.5,7.03L.59,15.51C.21,15.88,0,16.39,0,16.92c0,.53.21,1.04.58,1.41.19.19.41.33.65.43.24.1.5.15.77.15.26,0,.52-.05.77-.15.24-.1.46-.25.65-.43l8.5-8.48s0,0,0,0c5.72-5.73,14.32-7.44,21.8-4.35,7.48,3.1,12.35,10.38,12.35,18.48s-4.87,15.38-12.35,18.48c-7.48,3.1-16.08,1.38-21.8-4.34-.19-.19-.41-.33-.65-.43-.24-.1-.5-.15-.77-.15-.26,0-.52.05-.77.15-.24.1-.46.25-.65.43-.19.19-.33.41-.43.65-.1.24-.15.5-.15.77,0,.26.05.52.15.77.1.24.25.46.43.65,6.86,6.86,17.19,8.92,26.16,5.21,8.97-3.71,14.82-12.47,14.82-22.17S44.21,5.54,35.24,1.82C32.44.66,29.51.07,26.58,0ZM2,4.92c-.53,0-1.04.21-1.41.59-.38.38-.59.88-.59,1.41v10c0,.53.21,1.04.58,1.41.38.38.88.59,1.41.59h10c.26,0,.52-.05.77-.15.24-.1.46-.25.65-.43.19-.19.33-.41.43-.65.1-.24.15-.5.15-.77,0-.53-.21-1.04-.59-1.41-.38-.38-.88-.59-1.41-.59h-8V6.92c0-.53-.21-1.04-.59-1.41s-.88-.59-1.41-.59ZM26.05,10c-.53,0-1.04.21-1.41.59-.38.38-.59.88-.59,1.41v12c.03.09.06.17.1.25.05.24.15.47.28.68.11.22.26.42.45.59.05.08.11.15.17.21l10.4,6c.23.13.48.22.74.25.26.03.52.02.78-.05.25-.07.49-.19.7-.35.21-.16.38-.36.51-.59s.22-.48.25-.74c.03-.26.02-.52-.05-.78s-.19-.49-.35-.7c-.16-.21-.36-.38-.59-.51l-9.4-5.42v-10.84c0-.53-.21-1.04-.59-1.41-.38-.38-.88-.59-1.41-.59Z"/>
  </g>
</svg>