<?xml version="1.0" encoding="UTF-8"?>
<svg id="Layer_2" data-name="Layer 2" xmlns="http://www.w3.org/2000/svg" viewBox="0 0 52 44">
  <defs>
    <style>
      .cls-1 {
        fill: #010101;
      }
    </style>
  </defs>
  <g id="Layer_1-2" data-name="Layer 1">
    <path class="cls-1" d="M36,12c-11.85,0-22.21,8.03-25.19,19.5-.13.51-.06,1.06.21,1.52.27.46.71.79,1.22.92.51.13,1.06.06,1.52-.21.46-.27.79-.71.92-1.22,2.52-9.72,11.27-16.5,21.31-16.5h14c.53,0,1.04-.21,1.41-.59.37-.38.59-.88.59-1.41s-.21-1.04-.59-1.41c-.38-.38-.88-.59-1.41-.59h-14ZM38,0c-.53,0-1.04.21-1.41.59-.38.38-.59.88-.59,1.41s.21,1.04.59,1.41l10.59,10.59-10.59,10.59c-.38.38-.59.88-.59,1.41s.21,1.04.59,1.41c.37.37.88.59,1.41.59s1.04-.21,1.41-.59l12-12c.37-.38.59-.88.59-1.41s-.21-1.04-.59-1.41L39.41.59c-.37-.38-.88-.59-1.41-.59ZM2,8c-.53,0-1.04.21-1.41.59-.38.38-.59.88-.59,1.41v30h0c0,2.19,1.81,4,4,4h38c.53,0,1.04-.21,1.41-.59.37-.38.59-.88.59-1.41s-.21-1.04-.59-1.41c-.38-.37-.88-.59-1.41-.59H4V10c0-.53-.21-1.04-.59-1.41-.38-.38-.88-.59-1.41-.59Z"/>
  </g>
</svg>