<?xml version="1.0" encoding="UTF-8"?>
<svg id="Layer_2" data-name="Layer 2" xmlns="http://www.w3.org/2000/svg" viewBox="0 0 60 36">
  <defs>
    <style>
      .cls-1 {
        fill: #010101;
      }
    </style>
  </defs>
  <g id="Layer_1-2" data-name="Layer 1">
    <path class="cls-1" d="M20.12,0c-.26-.02-.52.02-.77.11-.25.09-.48.22-.67.39L.67,16.51c-.21.19-.38.42-.5.68-.12.26-.18.54-.18.82s.06.56.18.82c.12.26.28.49.5.68l18,16c.4.35.92.53,1.45.5s1.02-.27,1.38-.67c.35-.4.53-.92.5-1.45-.03-.53-.27-1.03-.67-1.38L5.01,18,21.33,3.49c.4-.35.64-.85.67-1.38.03-.53-.15-1.05-.5-1.45-.35-.4-.85-.64-1.38-.67ZM39.88,0c-.53.03-1.02.27-1.38.67-.35.4-.53.92-.5,1.45.03.53.27,1.02.67,1.38l16.32,14.51-16.32,14.51c-.4.35-.64.85-.67,1.38-.03.53.15,1.05.5,1.45.35.4.85.64,1.38.67.53.03,1.05-.15,1.45-.5l18-16c.21-.19.38-.42.5-.68.12-.26.18-.54.18-.82s-.06-.56-.18-.82c-.12-.26-.28-.49-.5-.68L41.33.51c-.2-.17-.43-.31-.67-.39-.25-.09-.51-.12-.77-.11Z"/>
  </g>
</svg>