<?xml version="1.0" encoding="UTF-8"?>
<svg id="Layer_2" data-name="Layer 2" xmlns="http://www.w3.org/2000/svg" viewBox="0 0 44 52">
  <defs>
    <style>
      .cls-1 {
        fill: #010101;
      }
    </style>
  </defs>
  <g id="Layer_1-2" data-name="Layer 1">
    <path class="cls-1" d="M2,18c-.53,0-1.04.21-1.41.59-.38.38-.59.88-.59,1.41v10c0,.53.21,1.04.59,1.41.38.38.88.59,1.41.59s1.04-.21,1.41-.59c.38-.38.59-.88.59-1.41v-10c0-.53-.21-1.04-.59-1.41-.38-.38-.88-.59-1.41-.59ZM42,36c-.53,0-1.04.21-1.41.59-.37.38-.59.88-.59,1.41v10h-2c-.53,0-1.04.21-1.41.59-.37.38-.59.88-.59,1.41s.21,1.04.59,1.41c.38.37.88.59,1.41.59h2c2.19,0,4-1.81,4-4v-10c0-.53-.21-1.04-.59-1.41-.38-.37-.88-.59-1.41-.59ZM18,48c-.53,0-1.04.21-1.41.59-.38.38-.59.88-.59,1.41s.21,1.04.59,1.41c.38.37.88.59,1.41.59h10c.53,0,1.04-.21,1.41-.59.38-.38.59-.88.59-1.41s-.21-1.04-.59-1.41c-.38-.37-.88-.59-1.41-.59h-10ZM4,0C1.81,0,0,1.81,0,4v6c0,.53.21,1.04.59,1.41.38.38.88.59,1.41.59s1.04-.21,1.41-.59c.38-.38.59-.88.59-1.41v-6h6c.53,0,1.04-.21,1.41-.59.38-.38.59-.88.59-1.41s-.21-1.04-.59-1.41c-.38-.38-.88-.59-1.41-.59h-6ZM20,0c-.53,0-1.04.21-1.41.59-.38.38-.59.88-.59,1.41s.21,1.04.59,1.41c.38.38.88.59,1.41.59h7.17l12.83,12.83v11.17c0,.53.21,1.04.59,1.41.38.38.88.59,1.41.59s1.04-.21,1.41-.59c.37-.38.59-.88.59-1.41v-12c0-.53-.21-1.04-.59-1.41L29.41.59c-.38-.38-.88-.59-1.41-.59h-8ZM28,0c-.53,0-1.04.21-1.41.59-.38.38-.59.88-.59,1.41v14c0,.53.21,1.04.59,1.41.38.38.88.59,1.41.59h14c.53,0,1.04-.21,1.41-.59.37-.38.59-.88.59-1.41s-.21-1.04-.59-1.41c-.38-.38-.88-.59-1.41-.59h-12V2c0-.53-.21-1.04-.59-1.41-.38-.38-.88-.59-1.41-.59ZM2,38c-.53,0-1.04.21-1.41.59-.38.38-.59.88-.59,1.41v8c0,2.19,1.81,4,4,4h4c.53,0,1.04-.21,1.41-.59.38-.38.59-.88.59-1.41s-.21-1.04-.59-1.41c-.38-.37-.88-.59-1.41-.59h-4v-8c0-.53-.21-1.04-.59-1.41-.38-.37-.88-.59-1.41-.59Z"/>
  </g>
</svg>