<?xml version="1.0" encoding="UTF-8"?>
<svg id="Layer_2" data-name="Layer 2" xmlns="http://www.w3.org/2000/svg" viewBox="0 0 29.03 46.68">
  <defs>
    <style>
      .cls-1 {
        fill: #010101;
      }
    </style>
  </defs>
  <g id="Layer_1-2" data-name="Layer 1">
    <path class="cls-1" d="M13.83.49c.65-.65,1.71-.65,2.36,0,.31.31.48.73.49,1.17v3.33h1.67c5.5,0,10,4.5,10,10-.05.92-.83,1.63-1.75,1.58-.86-.04-1.54-.73-1.58-1.58,0-3.7-2.96-6.67-6.67-6.67h-7.5c-3.7,0-6.67,2.97-6.67,6.67s2.97,6.67,6.67,6.67h9.17c3.73,0,7.15,2.08,8.87,5.39.36.69.04,1.5-.63,1.88-.9.52-2.06.02-2.62-.86-1.23-1.92-3.35-3.08-5.63-3.08h-9.17c-5.52-.02-9.99-4.49-10-10.01C.84,9.5,5.33,5,10.84,5h2.5V1.67c0-.44.18-.87.49-1.18ZM10,38.35h5c.92,0,1.67.74,1.67,1.67v5c0,.92-.75,1.67-1.67,1.67s-1.67-.75-1.67-1.67v-3.34h-3.33c-5.52-.01-9.99-4.48-10-10,0-.92.75-1.67,1.67-1.67s1.67.75,1.67,1.67c0,3.7,2.96,6.67,6.67,6.67h0Z"/>
  </g>
</svg>