<?xml version="1.0" encoding="UTF-8"?>
<svg id="Layer_2" data-name="Layer 2" xmlns="http://www.w3.org/2000/svg" viewBox="0 0 48 48">
  <defs>
    <style>
      .cls-1 {
        fill: #010101;
      }
    </style>
  </defs>
  <g id="Layer_1-2" data-name="Layer 1">
    <path class="cls-1" d="M20.02,0c1.13,0,1.96.68,2.43,1.42l9.06,14.31c.47.73.78,1.91.07,3.01-.65,1.01-1.75,1.27-2.52,1.27H10.94c-.79,0-1.91-.27-2.55-1.3-.68-1.09-.36-2.25.1-2.97L17.55,1.42C18.03.67,18.88,0,20.02,0ZM20,5.03l-6.95,10.97h13.9l-6.95-10.97ZM28,27.31c0-1.78,1.46-3.31,3.31-3.31h13.38c1.78,0,3.31,1.46,3.31,3.31v13.38c0,1.78-1.46,3.31-3.31,3.31h-13.38c-1.78,0-3.31-1.46-3.31-3.31v-13.38ZM32,28v12h12v-12h-12ZM0,37c0-6.07,4.93-11,11-11s11,4.93,11,11-4.92,11-11,11S0,43.07,0,37ZM11,30c-3.86,0-7,3.14-7,7s3.14,7,7,7,7-3.14,7-7-3.13-7-7-7Z"/>
  </g>
</svg>