<?xml version="1.0" encoding="UTF-8"?>
<svg id="Layer_2" data-name="Layer 2" xmlns="http://www.w3.org/2000/svg" viewBox="0 0 47.25 54">
  <defs>
    <style>
      .cls-1 {
        fill: #010101;
      }
    </style>
  </defs>
  <g id="Layer_1-2" data-name="Layer 1">
    <path class="cls-1" d="M45.77,18.42c-.26.15-6.4,3.32-6.4,10.36.29,8.03,7.75,10.84,7.87,10.84-.13.15-1.13,3.83-4.08,7.7-2.35,3.33-4.95,6.68-8.9,6.68s-5.11-2.22-9.45-2.22c-4.66,0-5.98,2.22-9.55,2.22-3.95,0-6.75-3.53-9.22-6.83C2.83,42.86.1,36.09,0,29.59c-.06-3.44.64-6.83,2.44-9.7,2.54-4.01,7.07-6.74,12.02-6.83,3.79-.12,7.17,2.43,9.48,2.43s6.36-2.43,11.06-2.43c2.02,0,7.42.57,10.77,5.36ZM23.63,12.37c-.68-3.14,1.19-6.29,2.92-8.3,2.22-2.43,5.72-4.07,8.74-4.07.19,3.14-1.03,6.23-3.21,8.48-1.96,2.43-5.33,4.25-8.45,3.89Z"/>
  </g>
</svg>