<?xml version="1.0" encoding="UTF-8"?>
<svg id="Layer_2" data-name="Layer 2" xmlns="http://www.w3.org/2000/svg" viewBox="0 0 48.86 50">
  <defs>
    <style>
      .cls-1 {
        fill: #010101;
      }
    </style>
  </defs>
  <g id="Layer_1-2" data-name="Layer 1">
    <path class="cls-1" d="M14.15,31.31c-3.07.08-5.49,1.03-7.26,2.33-.43.31-.71.79-.79,1.31-.08.52.05,1.06.37,1.49.16.21.35.39.58.53.22.14.47.23.73.26.26.04.52.03.78-.04.25-.06.5-.18.71-.33,2.36-1.74,6.38-3,14.27.93h0c9.39,4.71,15.77,2.9,19.16.01.2-.17.36-.38.48-.61.12-.23.19-.49.21-.75.02-.26,0-.53-.09-.77-.08-.25-.21-.48-.38-.68-.17-.2-.38-.36-.61-.48-.23-.12-.49-.19-.75-.21-.26-.02-.53,0-.77.09-.25.08-.48.21-.68.38-2.3,1.96-6.33,3.7-14.78-.54h0c-4.38-2.18-8.1-2.98-11.17-2.9ZM14.43,0c-.53,0-1.04.21-1.41.59-.38.38-.59.88-.59,1.41s.21,1.04.59,1.41c.38.38.88.59,1.41.59h2v13.44s0,.03-.01.05L.54,43.95h0c-1.53,2.57.41,6.03,3.4,6.05h40.99c2.99-.03,4.93-3.48,3.4-6.05h0s-15.88-26.47-15.88-26.47c0-.01-.01-.03-.01-.04V4h2c.53,0,1.04-.21,1.41-.59.38-.38.59-.88.59-1.41s-.21-1.04-.59-1.41c-.37-.38-.88-.59-1.41-.59H14.43ZM20.43,4h8v13.46c0,.7.19,1.39.54,2,0,.01.01.03.02.04l15.9,26.5H3.97l15.9-26.5s.02-.03.02-.04c.35-.61.53-1.3.54-2h0V4Z"/>
  </g>
</svg>