<?xml version="1.0" encoding="UTF-8"?>
<svg id="Layer_2" data-name="Layer 2" xmlns="http://www.w3.org/2000/svg" viewBox="0 0 48 54">
  <defs>
    <style>
      .cls-1 {
        fill: #010101;
      }
    </style>
  </defs>
  <g id="Layer_1-2" data-name="Layer 1">
    <path class="cls-1" d="M40,32.01c0-2.13-.83-4.17-2.34-5.67-1.5-1.5-3.55-2.34-5.67-2.34h-15.98c-1.05,0-2.1.2-3.07.6-2.99,1.23-4.95,4.17-4.94,7.41v3.99c0,.53.21,1.04.59,1.41.38.37.88.59,1.41.59s1.04-.21,1.41-.59c.38-.38.59-.88.59-1.41v-4.01c0-1.62.96-3.07,2.46-3.69.49-.2,1.01-.3,1.53-.3h16.02c1.06,0,2.08.41,2.83,1.16.75.75,1.17,1.77,1.16,2.83v4.01c0,.53.21,1.04.59,1.41.38.37.88.59,1.41.59s1.04-.21,1.41-.59c.37-.38.59-.88.59-1.41v-3.99ZM48,38c0-2.19-1.81-4-4-4h-12c-2.19,0-4,1.81-4,4v12c0,2.19,1.81,4,4,4h12c2.19,0,4-1.81,4-4v-12ZM44,38v12h-12v-12h12ZM33,4c0-2.19-1.81-4-4-4h-10c-2.19,0-4,1.81-4,4v10c0,2.19,1.81,4,4,4h3v8c0,.53.21,1.04.59,1.41.38.38.88.59,1.41.59s1.04-.21,1.41-.59c.38-.38.59-.88.59-1.41v-8h3c2.19,0,4-1.81,4-4V4ZM29,4v10h-10V4h10ZM20,38c0-2.19-1.81-4-4-4H4c-2.19,0-4,1.81-4,4v12c0,2.19,1.81,4,4,4h12c2.19,0,4-1.81,4-4v-12ZM16,38v12H4v-12h12Z"/>
  </g>
</svg>