<?xml version="1.0" encoding="UTF-8"?>
<svg id="Layer_2" data-name="Layer 2" xmlns="http://www.w3.org/2000/svg" viewBox="0 0 44 56.01">
  <defs>
    <style>
      .cls-1 {
        fill: #010101;
      }
    </style>
  </defs>
  <g id="Layer_1-2" data-name="Layer 1">
    <path class="cls-1" d="M24.36,8.23c-.26-.04-.52-.04-.78.02-.26.06-.5.17-.71.32-.21.15-.4.34-.54.57-.14.22-.23.47-.28.73s-.04.52.02.78c.06.26.17.5.32.71.15.21.34.4.57.54.22.14.47.23.73.28,4.18.71,7.44,3.96,8.16,8.14.09.52.38.99.82,1.29s.97.43,1.49.34c.52-.09.99-.38,1.29-.82.31-.43.43-.97.34-1.49-1-5.84-5.6-10.42-11.44-11.41ZM21.48,0C9.55.28-.05,10.21,0,22.14c.02,6.72,3.14,13.06,8.44,17.19.98.77,1.55,1.94,1.56,3.19v1.49c0,2.19,1.81,4,4,4,0,0,0,0,0,0h16c2.19,0,4-1.81,4-4v-1.5c0-1.25.58-2.43,1.57-3.2,0,0,0,0,.01,0,7.45-5.85,10.32-15.83,7.12-24.74C39.51,5.66,30.94-.22,21.48,0ZM21.57,4s0,0,0,0c7.76-.18,14.75,4.61,17.37,11.91,2.62,7.3.28,15.45-5.83,20.24h.01c-1.97,1.51-3.12,3.86-3.13,6.34,0,0,0,0,0,0v1.5h-16v-1.5s0,0,0-.01c-.02-2.46-1.15-4.78-3.09-6.31-.34-.26-.76-.41-1.19-.41l1.18.4c-4.34-3.37-6.88-8.55-6.9-14.05,0,0,0,0,0,0-.05-9.77,7.8-17.89,17.57-18.12ZM12,52.01c-.53,0-1.04.21-1.41.59-.38.37-.59.88-.59,1.41s.21,1.04.59,1.41c.38.37.88.59,1.41.59h20c.53,0,1.04-.21,1.41-.59s.59-.88.59-1.41-.21-1.04-.59-1.41c-.37-.38-.88-.59-1.41-.59H12Z"/>
  </g>
</svg>