<?xml version="1.0" encoding="UTF-8"?>
<svg id="Layer_2" data-name="Layer 2" xmlns="http://www.w3.org/2000/svg" viewBox="0 0 50.94 48.25">
  <defs>
    <style>
      .cls-1 {
        fill: #010101;
        fill-rule: evenodd;
      }
    </style>
  </defs>
  <g id="Layer_1-2" data-name="Layer 1">
    <path class="cls-1" d="M3.99,0C2.33,0,.92,1.05.33,2.39c-.59,1.33-.41,3.08.71,4.31l16.42,18.07s0,0,0,0c0,0,0,0,0,0v19.5s0,.01,0,.02c.01,1.46.83,2.8,2.12,3.49,1.29.69,2.86.61,4.08-.19,0,0,0,0,0,0l8-5.32h-.02c1.14-.73,1.82-2,1.81-3.36v-14.13h0S49.89,6.7,49.89,6.7h0c1.07-1.17,1.35-2.87.71-4.31-.64-1.45-2.08-2.39-3.66-2.39,0,0,0,0,0,0H3.99s0,0,0,0ZM3.99,4h42.95s0,0,0,0l-16.41,18.06c-.69.74-1.07,1.72-1.06,2.73v-.02s0,14.15,0,14.15h0s0,0,0,.01l-7.99,5.32s0,0,0,0c0,0,0,0,0,0v-19.46c0-1.01-.37-1.99-1.06-2.73L3.99,4s0,0,0,0Z"/>
  </g>
</svg>