<?xml version="1.0" encoding="UTF-8"?>
<svg id="Layer_2" data-name="Layer 2" xmlns="http://www.w3.org/2000/svg" viewBox="0 0 51.25 56">
  <defs>
    <style>
      .cls-1 {
        fill: #010101;
      }
    </style>
  </defs>
  <g id="Layer_1-2" data-name="Layer 1">
    <path class="cls-1" d="M2.1,0c-.26-.01-.52.03-.77.12-.25.09-.47.23-.67.4C.26.88.03,1.37,0,1.9s.16,1.05.52,1.44l2.99,3.29c-1.12.71-1.88,1.96-1.88,3.37v14.67c0,11.07,4.79,18.67,10,23.47,5.18,4.76,10.71,6.87,12.69,7.53.84.31,1.77.31,2.62,0,2.09-.69,8.14-3.03,13.52-8.38l7.31,8.05c.36.39.85.63,1.38.65.53.03,1.05-.16,1.44-.52.39-.36.63-.86.65-1.38.03-.53-.16-1.05-.52-1.44L3.48.65C3.12.26,2.63.03,2.1,0ZM5.62,10h.94l31.2,34.33c-4.79,4.81-10.43,7.01-12.14,7.57-1.61-.53-6.7-2.48-11.29-6.7-4.59-4.22-8.71-10.59-8.71-20.53v-14.67ZM18.25,6c-.53,0-1.04.21-1.41.59s-.59.88-.59,1.41.21,1.04.59,1.41.88.59,1.41.59h27.38v14.67c0,4.75-.96,8.65-2.45,11.92-.11.24-.17.5-.18.76,0,.26.03.52.13.77.09.25.23.47.41.66.18.19.39.35.63.46.24.11.5.17.76.18.26,0,.52-.03.77-.13.25-.09.47-.23.66-.41.19-.18.35-.39.46-.63,1.71-3.78,2.8-8.28,2.8-13.58v-14.67c0-2.19-1.81-4-4-4h-27.38Z"/>
  </g>
</svg>