<?xml version="1.0" encoding="UTF-8"?>
<svg id="Layer_2" data-name="Layer 2" xmlns="http://www.w3.org/2000/svg" viewBox="0 0 48 48">
  <defs>
    <style>
      .cls-1 {
        fill: #010101;
      }
    </style>
  </defs>
  <g id="Layer_1-2" data-name="Layer 1">
    <path class="cls-1" d="M0,46c0,.53.21,1.04.59,1.41.38.37.88.59,1.41.59h44c.53,0,1.04-.21,1.41-.59.37-.38.59-.88.59-1.41s-.21-1.04-.59-1.41c-.38-.37-.88-.59-1.41-.59h-2v-22c0-.53-.21-1.04-.59-1.41-.37-.38-.88-.59-1.41-.59h-10V2c0-.53-.21-1.04-.59-1.41-.38-.38-.88-.59-1.41-.59h-12c-.53,0-1.04.21-1.41.59-.38.38-.59.88-.59,1.41v10H6c-.53,0-1.04.21-1.41.59-.38.38-.59.88-.59,1.41v30h-2c-.53,0-1.04.21-1.41.59-.38.38-.59.88-.59,1.41ZM8,44v-28h8v28h-8ZM20,44V4h8v40h-8ZM32,44v-20h8v20h-8Z"/>
  </g>
</svg>