<?xml version="1.0" encoding="UTF-8"?>
<svg id="Layer_2" data-name="Layer 2" xmlns="http://www.w3.org/2000/svg" viewBox="0 0 50.35 52.02">
  <defs>
    <style>
      .cls-1 {
        fill: #010101;
      }
    </style>
  </defs>
  <g id="Layer_1-2" data-name="Layer 1">
    <path class="cls-1" d="M25.16,0c-2.27,0-4.53.3-6.74.91-.51.14-.95.48-1.21.94-.26.46-.33,1.01-.19,1.52.07.25.19.49.35.7.16.21.36.38.59.51.23.13.48.21.74.25.26.03.53.01.78-.06,3.72-1.02,7.65-1.02,11.37,0,.25.07.52.09.78.06.26-.03.51-.12.74-.25.23-.13.43-.3.59-.51s.28-.44.35-.7c.14-.51.07-1.06-.19-1.52-.26-.46-.7-.8-1.21-.94-2.21-.6-4.47-.91-6.74-.91ZM8.2,7.03c-.53,0-1.04.21-1.41.59C3.57,10.85,1.25,14.86.07,19.26c-.07.25-.09.52-.05.78.03.26.12.51.25.74.13.23.31.43.51.59.21.16.45.28.7.35.51.14,1.06.07,1.52-.2.46-.26.8-.7.93-1.21,1-3.73,2.96-7.12,5.69-9.86.37-.38.58-.88.58-1.42,0-.53-.21-1.04-.59-1.41-.38-.37-.88-.58-1.42-.58ZM42.15,7.03c-.26,0-.52.05-.77.15-.24.1-.46.25-.65.43-.37.37-.59.88-.59,1.41,0,.53.21,1.04.59,1.41,2.73,2.73,4.69,6.14,5.68,9.87.07.25.18.49.34.7.16.21.36.38.59.52.23.13.48.22.74.25.26.03.53.02.78-.05.51-.14.95-.47,1.22-.93.27-.46.34-1,.2-1.52-1.17-4.42-3.49-8.44-6.72-11.68-.37-.38-.88-.59-1.41-.59ZM1.49,30.28c-.51.14-.95.47-1.22.93-.27.46-.34,1-.2,1.52,1.17,4.42,3.49,8.44,6.72,11.68.37.38.88.59,1.41.59.53,0,1.04-.21,1.41-.59.19-.19.33-.41.43-.65.1-.24.15-.5.15-.77,0-.26-.05-.52-.15-.77-.1-.24-.25-.46-.43-.65-2.73-2.73-4.69-6.14-5.68-9.87-.07-.25-.18-.49-.34-.7-.16-.21-.36-.38-.59-.52-.23-.13-.48-.22-.74-.25-.26-.03-.53-.02-.78.05ZM48.87,30.3c-.51-.14-1.06-.07-1.52.2-.46.26-.8.7-.93,1.21-1,3.73-2.96,7.12-5.69,9.86-.37.38-.58.89-.58,1.42,0,.53.21,1.04.59,1.41.38.37.88.58,1.42.58.53,0,1.04-.21,1.41-.59,3.22-3.23,5.53-7.24,6.71-11.64.14-.51.07-1.06-.2-1.52-.27-.46-.7-.8-1.21-.93ZM19.5,47.25c-.51-.14-1.06-.07-1.52.19-.46.26-.8.7-.94,1.21-.07.25-.09.52-.06.78.03.26.12.51.25.74.13.23.3.43.51.59.21.16.44.28.7.35,4.41,1.21,9.07,1.21,13.48,0,.25-.07.49-.19.7-.35.21-.16.38-.36.51-.59.13-.23.21-.48.25-.74.03-.26.01-.53-.06-.78-.14-.51-.48-.95-.94-1.21-.46-.26-1.01-.33-1.52-.19-3.72,1.02-7.65,1.02-11.37,0Z"/>
  </g>
</svg>