<?xml version="1.0" encoding="UTF-8"?>
<svg id="Layer_2" data-name="Layer 2" xmlns="http://www.w3.org/2000/svg" viewBox="0 0 54 49">
  <defs>
    <style>
      .cls-1 {
        fill: #010101;
      }
    </style>
  </defs>
  <g id="Layer_1-2" data-name="Layer 1">
    <path class="cls-1" d="M42,24c1.66,0,3-1.34,3-3s-1.34-3-3-3-3,1.34-3,3,1.34,3,3,3ZM6.33,10c-3.39,0-6.33,2.62-6.33,6v20c0,.53.21,1.04.59,1.41.38.38.88.59,1.41.59h9c.53,0,1.04-.21,1.41-.59.38-.38.59-.88.59-1.41s-.21-1.04-.59-1.41c-.38-.37-.88-.59-1.41-.59h-7v-18c0-1.02.96-2,2.33-2h41.35c1.36,0,2.33.98,2.33,2v18h-7c-.53,0-1.04.21-1.41.59-.37.38-.59.88-.59,1.41s.21,1.04.59,1.41c.38.37.88.59,1.41.59h9c.53,0,1.04-.21,1.41-.59.38-.37.59-.88.59-1.41v-20c0-3.38-2.94-6-6.33-6H6.33ZM11,0c-.53,0-1.04.21-1.41.59-.38.38-.59.88-.59,1.41v10c0,.53.21,1.04.59,1.41.38.38.88.59,1.41.59s1.04-.21,1.41-.59c.38-.38.59-.88.59-1.41V4h28v8c0,.53.21,1.04.59,1.41.38.38.88.59,1.41.59s1.04-.21,1.41-.59c.37-.38.59-.88.59-1.41V2c0-.53-.21-1.04-.59-1.41-.37-.38-.88-.59-1.41-.59H11ZM11,28c-.53,0-1.04.21-1.41.59-.38.38-.59.88-.59,1.41v17c0,.53.21,1.04.59,1.41.38.38.88.59,1.41.59h32c.53,0,1.04-.21,1.41-.59.38-.37.59-.88.59-1.41v-17c0-.53-.21-1.04-.59-1.41-.37-.38-.88-.59-1.41-.59H11ZM13,32h28v13H13v-13Z"/>
  </g>
</svg>