<?xml version="1.0" encoding="UTF-8"?>
<svg id="Layer_2" data-name="Layer 2" xmlns="http://www.w3.org/2000/svg" viewBox="0 0 57.99 52">
  <defs>
    <style>
      .cls-1 {
        fill: #010101;
      }
    </style>
  </defs>
  <g id="Layer_1-2" data-name="Layer 1">
    <path class="cls-1" d="M34.17,0c-.5-.04-1,.11-1.39.41L15.31,14H4c-2.19,0-4,1.81-4,4v16c0,2.19,1.81,4,4,4h11.31l17.46,13.58c.3.23.65.37,1.02.41.37.04.75-.03,1.08-.19.34-.16.62-.42.82-.74.2-.32.3-.68.3-1.06V2c0-.5-.19-.99-.53-1.35-.34-.37-.81-.6-1.31-.64ZM32,6.09v39.82l-14-10.89v-18.04l14-10.89ZM4,18h10v16H4v-16ZM50.72,11.27c-.26,0-.52.05-.77.15-.24.1-.46.25-.65.43-.19.19-.33.41-.43.65-.1.24-.15.5-.15.77s.05.52.15.77c.1.24.25.46.43.65,6.27,6.26,6.27,16.36,0,22.62-.19.19-.33.41-.43.65-.1.24-.15.5-.15.77,0,.26.05.52.15.77.1.24.25.46.43.65.19.19.41.33.65.43.24.1.5.15.77.15.26,0,.52-.05.77-.15.24-.1.46-.25.65-.43,7.81-7.79,7.81-20.49,0-28.28-.19-.19-.41-.33-.65-.43-.24-.1-.5-.15-.77-.15ZM43.65,18.35c-.53,0-1.04.21-1.41.59-.37.38-.58.88-.58,1.42,0,.53.21,1.04.59,1.41,2.36,2.35,2.36,6.11,0,8.47-.38.37-.59.88-.59,1.41,0,.53.21,1.04.58,1.42.37.38.88.59,1.41.59s1.04-.21,1.42-.58c3.9-3.88,3.9-10.25,0-14.13-.38-.37-.88-.58-1.42-.58Z"/>
  </g>
</svg>