<?xml version="1.0" encoding="UTF-8"?>
<svg id="Layer_2" data-name="Layer 2" xmlns="http://www.w3.org/2000/svg" viewBox="0 0 55.47 50">
  <defs>
    <style>
      .cls-1 {
        fill: #010101;
      }
    </style>
  </defs>
  <g id="Layer_1-2" data-name="Layer 1">
    <path class="cls-1" d="M53.97,16.02c-.57-.63-1.26-1.14-2.04-1.49-.77-.35-1.61-.53-2.46-.54h-13.47v-4c0-2.65-1.06-5.19-2.94-7.06C31.19,1.06,28.65,0,26,0c-.37,0-.74.11-1.05.3-.32.19-.58.47-.75.8l-9.45,18.9H4c-1.06,0-2.08.42-2.83,1.17-.75.75-1.17,1.77-1.17,2.83v22c0,1.06.42,2.08,1.17,2.83.75.75,1.77,1.17,2.83,1.17h42.47c1.46,0,2.87-.54,3.96-1.51,1.09-.97,1.8-2.3,1.99-3.74l3-24c.1-.85.02-1.7-.23-2.52-.25-.81-.67-1.57-1.22-2.21ZM4,24h10v22H4v-22Z"/>
  </g>
</svg>