<?xml version="1.0" encoding="UTF-8"?>
<svg id="Layer_2" data-name="Layer 2" xmlns="http://www.w3.org/2000/svg" viewBox="0 0 64 28">
  <defs>
    <style>
      .cls-1 {
        fill: #010101;
        fill-rule: evenodd;
      }
    </style>
  </defs>
  <g id="Layer_1-2" data-name="Layer 1">
    <path class="cls-1" d="M6.04,23.9c-2.21-2.23-3.51-4.89-3.91-7.9h-.13c-1.1,0-2-.9-2-2s.9-2,2-2h.13c.4-3.01,1.7-5.66,3.91-7.9C8.72,1.38,12.03,0,15.84,0s7.12,1.38,9.81,4.1c.97.98,1.76,2.04,2.39,3.18,1.16-.82,2.49-1.28,3.96-1.28s2.8.46,3.96,1.28c.62-1.14,1.42-2.2,2.39-3.18,2.68-2.72,5.99-4.1,9.81-4.1s7.12,1.38,9.81,4.1c2.21,2.23,3.51,4.89,3.91,7.9h.13c1.1,0,2,.9,2,2s-.9,2-2,2h-.13c-.4,3.01-1.7,5.66-3.91,7.9-2.68,2.72-5.99,4.1-9.81,4.1s-7.12-1.38-9.81-4.1c-2.68-2.72-4.04-6.06-4.04-9.9,0-.91.08-1.79.23-2.64-.01-.01-.02-.03-.04-.04-.88-.99-1.7-1.32-2.5-1.32s-1.62.33-2.5,1.32c-.01.01-.02.03-.04.04.15.85.23,1.73.23,2.64,0,3.84-1.36,7.18-4.04,9.9-2.68,2.72-5.99,4.1-9.81,4.1s-7.12-1.38-9.81-4.1ZM8.88,6.91c1.93-1.96,4.21-2.91,6.96-2.91s5.03.95,6.96,2.91c1.93,1.96,2.88,4.28,2.88,7.09s-.95,5.13-2.88,7.09c-1.93,1.96-4.21,2.91-6.96,2.91s-5.03-.95-6.96-2.91c-1.93-1.96-2.88-4.28-2.88-7.09s.95-5.13,2.88-7.09ZM58,14c0-2.81-.95-5.13-2.88-7.09-1.93-1.96-4.21-2.91-6.96-2.91s-5.03.95-6.96,2.91c-1.93,1.96-2.88,4.28-2.88,7.09s.95,5.13,2.88,7.09c1.93,1.96,4.21,2.91,6.96,2.91s5.03-.95,6.96-2.91c1.93-1.96,2.88-4.28,2.88-7.09Z"/>
  </g>
</svg>