<?xml version="1.0" encoding="UTF-8"?>
<svg id="Layer_2" data-name="Layer 2" xmlns="http://www.w3.org/2000/svg" viewBox="0 0 30 39">
  <defs>
    <style>
      .cls-1 {
        fill: #010101;
      }
    </style>
  </defs>
  <g id="Layer_1-2" data-name="Layer 1">
    <path class="cls-1" d="M1.5,0c-.4,0-.78.16-1.06.44-.28.28-.44.66-.44,1.06v27c0,.4.16.78.44,1.06.28.28.66.44,1.06.44h27c.4,0,.78-.16,1.06-.44.28-.28.44-.66.44-1.06s-.16-.78-.44-1.06c-.28-.28-.66-.44-1.06-.44H3V1.5c0-.4-.16-.78-.44-1.06-.28-.28-.66-.44-1.06-.44ZM19.5,18c-.4,0-.78.16-1.06.44-.28.28-.44.66-.44,1.06s.16.78.44,1.06l7.94,7.94-7.94,7.94c-.28.28-.44.66-.44,1.06s.16.78.44,1.06c.28.28.66.44,1.06.44s.78-.16,1.06-.44l9-9c.28-.28.44-.66.44-1.06s-.16-.78-.44-1.06l-9-9c-.28-.28-.66-.44-1.06-.44Z"/>
  </g>
</svg>