<?xml version="1.0" encoding="UTF-8"?>
<svg id="Layer_2" data-name="Layer 2" xmlns="http://www.w3.org/2000/svg" viewBox="0 0 52 40">
  <defs>
    <style>
      .cls-1 {
        fill: #010101;
        fill-rule: evenodd;
      }
    </style>
  </defs>
  <g id="Layer_1-2" data-name="Layer 1">
    <path class="cls-1" d="M0,6C0,2.71,2.71,0,6,0h40c3.29,0,6,2.71,6,6v28c0,3.29-2.71,6-6,6H6c-3.29,0-6-2.71-6-6V6ZM4,12v4h12.19c1.89-.01,3.55,1.35,3.92,3.2.6,2.78,3.04,4.75,5.89,4.75,2.85,0,5.29-1.97,5.89-4.75.37-1.86,2.03-3.21,3.92-3.2h12.19v-4H4ZM48,8H4v-2c0-1.13.87-2,2-2h40c1.13,0,2,.87,2,2v2ZM48,20h-12.19v.02c-.98,4.62-5.09,7.94-9.81,7.94-4.72,0-8.83-3.32-9.81-7.94v-.02H4v14c0,1.13.87,2,2,2h40c1.13,0,2-.87,2-2v-14Z"/>
  </g>
</svg>