<?xml version="1.0" encoding="UTF-8"?>
<svg id="Layer_2" data-name="Layer 2" xmlns="http://www.w3.org/2000/svg" viewBox="0 0 60 52">
  <defs>
    <style>
      .cls-1 {
        fill: #010101;
      }
    </style>
  </defs>
  <g id="Layer_1-2" data-name="Layer 1">
    <path class="cls-1" d="M52,0c-4.39,0-8,3.61-8,8,0,2.3,1,4.37,2.58,5.84l-6.67,12.42c-.61-.15-1.25-.26-1.91-.26-1.47,0-2.84.43-4.03,1.14l-5.11-5.11c.71-1.19,1.14-2.56,1.14-4.03,0-4.39-3.61-8-8-8s-8,3.61-8,8c0,2.3,1,4.37,2.58,5.84l-6.67,12.42c-.61-.15-1.25-.26-1.91-.26-4.39,0-8,3.61-8,8s3.61,8,8,8,8-3.61,8-8c0-2.3-1-4.37-2.58-5.83l6.67-12.42c.61.15,1.25.26,1.91.26,1.47,0,2.84-.43,4.03-1.14l5.11,5.11c-.71,1.19-1.14,2.56-1.14,4.03,0,4.39,3.61,8,8,8s8-3.61,8-8c0-2.3-1-4.37-2.58-5.83l6.67-12.42c.61.15,1.25.26,1.91.26,4.39,0,8-3.61,8-8S56.39,0,52,0ZM52,4c2.23,0,4,1.77,4,4s-1.77,4-4,4-4-1.77-4-4,1.77-4,4-4ZM22,14c2.23,0,4,1.77,4,4,0,1.12-.44,2.11-1.16,2.83h0s0,0,0,0c-.72.72-1.72,1.16-2.83,1.16-2.23,0-4-1.77-4-4s1.77-4,4-4ZM38,30c2.23,0,4,1.77,4,4s-1.77,4-4,4-4-1.77-4-4c0-1.12.44-2.11,1.16-2.83h0s0,0,0,0c.72-.72,1.72-1.16,2.83-1.16ZM8,40c2.23,0,4,1.77,4,4s-1.77,4-4,4-4-1.77-4-4,1.77-4,4-4Z"/>
  </g>
</svg>