<?xml version="1.0" encoding="UTF-8"?>
<svg id="Layer_2" data-name="Layer 2" xmlns="http://www.w3.org/2000/svg" viewBox="0 0 50 48">
  <defs>
    <style>
      .cls-1 {
        fill: #010101;
      }
    </style>
  </defs>
  <g id="Layer_1-2" data-name="Layer 1">
    <path class="cls-1" d="M2,0C1.47,0,.96.21.59.59c-.38.38-.59.88-.59,1.41v44c0,.53.21,1.04.59,1.41.38.37.88.59,1.41.59s1.04-.21,1.41-.59c.38-.38.59-.88.59-1.41V2c0-.53-.21-1.04-.59-1.41-.38-.38-.88-.59-1.41-.59ZM28,4c-.53,0-1.04.21-1.41.59L8.59,22.59c-.38.38-.59.88-.59,1.41,0,.53.21,1.04.59,1.41l18,18c.38.38.88.59,1.41.59s1.04-.21,1.41-.59c.37-.37.59-.88.59-1.41s-.21-1.04-.59-1.41l-14.59-14.59h33.17c.53,0,1.04-.21,1.41-.59.37-.38.59-.88.59-1.41s-.21-1.04-.59-1.41c-.38-.38-.88-.59-1.41-.59H14.83l14.59-14.59c.37-.38.59-.88.59-1.41s-.21-1.04-.59-1.41c-.38-.38-.88-.59-1.41-.59Z"/>
  </g>
</svg>