<?xml version="1.0" encoding="UTF-8"?>
<svg id="Layer_2" data-name="Layer 2" xmlns="http://www.w3.org/2000/svg" viewBox="0 0 57.68 51.13">
  <defs>
    <style>
      .cls-1 {
        fill: #010101;
        fill-rule: evenodd;
      }
    </style>
  </defs>
  <g id="Layer_1-2" data-name="Layer 1">
    <path class="cls-1" d="M4.06,14.45l3.11,11.59c.29,1.07-.35,2.16-1.41,2.45-1.07.29-2.16-.35-2.45-1.41L.13,15.24c-.48-1.8.38-3.99,2.48-4.55L42.07.12c2.1-.56,3.94.9,4.42,2.7l3.17,11.83c.29,1.07-.35,2.16-1.41,2.45-1.07.29-2.16-.35-2.45-1.41l-3.11-11.59L4.06,14.45ZM33.68,27.13c-4.42,0-8,3.58-8,8s3.58,8,8,8,8-3.58,8-8-3.58-8-8-8ZM29.68,35.13c0-2.21,1.79-4,4-4s4,1.79,4,4-1.79,4-4,4-4-1.79-4-4ZM13.25,19.13c-2.17,0-3.57,1.89-3.57,3.75v24.5c0,1.86,1.4,3.75,3.57,3.75h40.86c2.17,0,3.57-1.89,3.57-3.75v-24.5c0-1.86-1.4-3.75-3.57-3.75H13.25ZM13.68,28.3v-5.17h5.17l-5.17,5.17ZM13.68,33.96v2.34l10.83,10.83h18.34l10.83-10.83v-2.34l-10.83-10.83h-18.34l-10.83,10.83ZM13.68,47.13v-5.17l5.17,5.17h-5.17ZM48.51,23.13l5.17,5.17v-5.17h-5.17ZM53.68,47.13h-5.17l5.17-5.17v5.17Z"/>
  </g>
</svg>