<?xml version="1.0" encoding="UTF-8"?>
<svg id="Layer_2" data-name="Layer 2" xmlns="http://www.w3.org/2000/svg" viewBox="0 0 60 36">
  <defs>
    <style>
      .cls-1 {
        fill: #010101;
      }
    </style>
  </defs>
  <g id="Layer_1-2" data-name="Layer 1">
    <path class="cls-1" d="M3.25.15c-.24.1-.46.24-.65.43-.19.18-.34.4-.44.65s-.16.5-.16.76c0,.26.05.52.15.77l5.38,13.25H2c-.53,0-1.04.21-1.41.59-.38.38-.59.88-.59,1.41s.21,1.04.59,1.41c.38.38.88.59,1.41.59h7.15l5.99,14.75c.15.37.41.68.74.91s.72.34,1.12.34.79-.12,1.12-.34.59-.54.74-.91l5.99-14.75h10.31l5.99,14.75c.15.37.41.68.74.91.33.22.72.34,1.12.34s.79-.12,1.12-.34c.33-.22.59-.54.74-.91l5.99-14.75h7.15c.53,0,1.04-.21,1.41-.59.37-.38.59-.88.59-1.41s-.21-1.04-.59-1.41c-.38-.38-.88-.59-1.41-.59h-5.53l5.38-13.25c.1-.24.15-.5.15-.77,0-.26-.06-.52-.16-.76-.1-.24-.25-.46-.44-.65-.19-.18-.41-.33-.65-.43-.24-.1-.5-.15-.77-.15-.26,0-.52.06-.76.16s-.46.25-.65.44c-.18.19-.33.41-.43.65l-5.99,14.75h-10.31L31.85,1.25c-.15-.37-.41-.68-.74-.91C30.79.12,30.4,0,30,0s-.79.12-1.12.34c-.33.22-.59.54-.74.91l-5.99,14.75h-10.31L5.85,1.25c-.1-.24-.24-.46-.43-.65-.18-.19-.4-.34-.65-.44C4.54.06,4.28,0,4.01,0c-.26,0-.52.05-.77.15ZM30,7.31l3.53,8.69h-7.06l3.53-8.69ZM13.47,20h7.06l-3.53,8.69-3.53-8.69ZM39.47,20h7.06l-3.53,8.69-3.53-8.69Z"/>
  </g>
</svg>