<?xml version="1.0" encoding="UTF-8"?>
<svg id="Layer_2" data-name="Layer 2" xmlns="http://www.w3.org/2000/svg" viewBox="0 0 56 56">
  <defs>
    <style>
      .cls-1 {
        fill: #010101;
      }
    </style>
  </defs>
  <g id="Layer_1-2" data-name="Layer 1">
    <path class="cls-1" d="M39.05,20c-.53-.01-1.04.19-1.43.55l-13.29,12.68-5.94-5.68c-.38-.37-.9-.57-1.43-.55-.53.01-1.03.23-1.4.62-.37.38-.57.9-.55,1.43.01.53.23,1.03.62,1.4l7.33,7c.37.36.87.55,1.38.55.51,0,1.01-.2,1.38-.55l14.67-14c.19-.18.34-.4.45-.64.11-.24.16-.5.17-.76,0-.26-.04-.52-.13-.77-.09-.24-.24-.47-.42-.66-.18-.19-.4-.34-.64-.45-.24-.11-.5-.16-.76-.17ZM28,0c-2.52,0-4.26,1.6-5.69,2.94-1.43,1.34-2.74,2.57-3.5,2.89-.76.31-2.51.34-4.46.4-1.95.06-4.33.18-6.13,1.98-1.8,1.8-1.91,4.17-1.96,6.1-.05,1.93-.07,3.66-.42,4.49-.35.84-1.58,2.12-2.91,3.54-1.33,1.42-2.92,3.14-2.92,5.66s1.6,4.26,2.94,5.69c1.34,1.43,2.57,2.74,2.89,3.5.31.76.34,2.51.4,4.46s.18,4.33,1.98,6.13c1.8,1.8,4.17,1.91,6.1,1.96,1.93.05,3.66.07,4.49.42.84.35,2.12,1.58,3.54,2.91,1.42,1.33,3.14,2.92,5.66,2.92s4.26-1.6,5.69-2.94c1.43-1.34,2.74-2.57,3.5-2.89.76-.31,2.51-.34,4.46-.4,1.95-.06,4.33-.18,6.13-1.98,1.8-1.8,1.91-4.17,1.96-6.1.05-1.93.07-3.66.42-4.49.35-.84,1.58-2.12,2.91-3.54,1.33-1.42,2.92-3.14,2.92-5.66s-1.6-4.26-2.94-5.69c-1.34-1.43-2.57-2.74-2.89-3.5-.31-.76-.34-2.51-.4-4.46-.06-1.95-.18-4.33-1.98-6.13-1.8-1.8-4.17-1.91-6.1-1.96-1.93-.05-3.66-.07-4.49-.42-.84-.35-2.12-1.58-3.54-2.91-1.42-1.33-3.14-2.92-5.66-2.92ZM28,4c.61,0,1.64.64,2.92,1.84,1.28,1.2,2.65,2.81,4.73,3.68,2.1.88,4.2.68,5.93.73,1.74.04,2.87.29,3.38.79.5.5.76,1.68.81,3.42.05,1.74-.15,3.81.71,5.88.86,2.06,2.46,3.4,3.66,4.7,1.21,1.29,1.86,2.36,1.86,2.96s-.64,1.64-1.84,2.92c-1.2,1.28-2.81,2.65-3.68,4.73-.88,2.1-.68,4.2-.73,5.93-.04,1.74-.29,2.87-.79,3.38s-1.68.76-3.42.81c-1.74.05-3.81-.15-5.88.71-2.06.86-3.4,2.46-4.7,3.66-1.29,1.21-2.36,1.86-2.96,1.86s-1.64-.64-2.92-1.84c-1.28-1.2-2.65-2.81-4.73-3.68-2.1-.88-4.2-.68-5.93-.73-1.74-.04-2.87-.29-3.38-.79-.5-.5-.76-1.68-.81-3.42-.05-1.74.15-3.81-.71-5.88-.86-2.06-2.46-3.4-3.66-4.7-1.21-1.29-1.86-2.36-1.86-2.96s.64-1.64,1.84-2.92c1.2-1.28,2.81-2.65,3.68-4.73.88-2.1.68-4.2.73-5.93.04-1.74.29-2.87.79-3.38.5-.5,1.68-.76,3.42-.81,1.74-.05,3.81.15,5.88-.71,2.06-.86,3.4-2.46,4.7-3.66,1.29-1.21,2.36-1.86,2.96-1.86Z"/>
  </g>
</svg>