<?xml version="1.0" encoding="UTF-8"?>
<svg id="Layer_2" data-name="Layer 2" xmlns="http://www.w3.org/2000/svg" viewBox="0 0 60 49.17">
  <defs>
    <style>
      .cls-1 {
        fill: #010101;
      }
    </style>
  </defs>
  <g id="Layer_1-2" data-name="Layer 1">
    <path class="cls-1" d="M14,19.17c-1.1,0-2,.9-2,2s.9,2,2,2h8c1.1,0,2-.9,2-2s-.9-2-2-2h-8ZM14,27.17c-1.1,0-2,.9-2,2s.9,2,2,2h8c1.1,0,2-.9,2-2s-.9-2-2-2h-8ZM12,37.17c0-1.1.9-2,2-2h8c1.1,0,2,.9,2,2s-.9,2-2,2h-8c-1.1,0-2-.9-2-2ZM36,21.17c0-1.1.9-2,2-2h8c1.1,0,2,.9,2,2s-.9,2-2,2h-8c-1.1,0-2-.9-2-2ZM38,27.17c-1.1,0-2,.9-2,2s.9,2,2,2h8c1.1,0,2-.9,2-2s-.9-2-2-2h-8ZM36,37.17c0-1.1.9-2,2-2h8c1.1,0,2,.9,2,2s-.9,2-2,2h-8c-1.1,0-2-.9-2-2ZM20.83,1.17c-1.56-1.56-4.09-1.56-5.66,0L5.17,11.17c-.75.75-1.17,1.77-1.17,2.83v31.17h-2c-1.1,0-2,.9-2,2s.9,2,2,2h56c1.1,0,2-.9,2-2s-.9-2-2-2h-2V14c0-1.06-.42-2.08-1.17-2.83L44.83,1.17c-1.56-1.56-4.09-1.56-5.66,0l-9.17,9.17L20.83,1.17ZM28,14v31.17H8V14L18,4l10,10ZM32,45.17V14l10-10,10,10v31.17h-20Z"/>
  </g>
</svg>