<?xml version="1.0" encoding="UTF-8"?>
<svg id="Layer_2" data-name="Layer 2" xmlns="http://www.w3.org/2000/svg" viewBox="0 0 56 36">
  <defs>
    <style>
      .cls-1 {
        fill: #010101;
      }
    </style>
  </defs>
  <g id="Layer_1-2" data-name="Layer 1">
    <path class="cls-1" d="M0,8C0,3.58,3.58,0,8,0h40c4.42,0,8,3.58,8,8v8c0,4.42-3.58,8-8,8h-2c-1.1,0-2-.9-2-2s.9-2,2-2h2c2.21,0,4-1.79,4-4v-8c0-2.21-1.79-4-4-4H8c-2.21,0-4,1.79-4,4v8c0,2.21,1.79,4,4,4h4c1.1,0,2,.9,2,2s-.9,2-2,2h-4c-4.42,0-8-3.58-8-8v-8ZM38.1,18.99l-18.14-6.8c-.53-.2-1.1-.24-1.65-.12-.55.12-1.06.39-1.45.79-.4.4-.67.9-.79,1.45-.12.55-.08,1.12.12,1.65l6.8,18.13h0c.21.57.59,1.05,1.08,1.39.49.34,1.08.52,1.68.51.6,0,1.18-.19,1.67-.54.49-.35.86-.83,1.07-1.4l1.8-4.95,6.29,6.3c.78.78,2.05.78,2.83,0,.78-.78.78-2.05,0-2.83l-6.3-6.29,4.95-1.8c.56-.2,1.05-.58,1.4-1.07.35-.49.53-1.07.54-1.67,0-.6-.18-1.19-.51-1.68-.34-.49-.82-.87-1.38-1.08ZM33.99,21.72l-13.23-4.96,4.96,13.23,1.74-4.79c.15-.4.38-.76.68-1.06.3-.3.66-.53,1.06-.68l4.79-1.74Z"/>
  </g>
</svg>