<?xml version="1.0" encoding="UTF-8"?>
<svg id="Layer_2" data-name="Layer 2" xmlns="http://www.w3.org/2000/svg" viewBox="0 0 48 48">
  <defs>
    <style>
      .cls-1 {
        fill: #010101;
      }
    </style>
  </defs>
  <g id="Layer_1-2" data-name="Layer 1">
    <path class="cls-1" d="M2,0C.9,0,0,.9,0,2v16c0,1.1.9,2,2,2h16c1.1,0,2-.9,2-2V2c0-1.1-.9-2-2-2H2ZM4,16V4h12v12H4ZM26,0c-1.1,0-2,.9-2,2v16c0,1.1.9,2,2,2h16c1.1,0,2-.9,2-2V2c0-1.1-.9-2-2-2h-16ZM28,16V4h12v12h-12ZM2,24c-1.1,0-2,.9-2,2v16c0,1.1.9,2,2,2h16c1.1,0,2-.9,2-2v-16c0-1.1-.9-2-2-2H2ZM4,40v-12h12v12H4ZM36.59,24.34c-5.33-1.43-10.82,1.74-12.24,7.07-1.43,5.33,1.74,10.82,7.07,12.24,2.88.77,5.8.2,8.1-1.32.02.03.05.05.07.07l5,5c.78.78,2.05.78,2.83,0,.78-.78.78-2.05,0-2.83l-5-5s-.05-.05-.07-.07c.58-.88,1.03-1.86,1.32-2.93,1.43-5.33-1.74-10.82-7.07-12.24ZM28.21,32.45c.86-3.2,4.15-5.1,7.35-4.24,3.2.86,5.1,4.15,4.24,7.35-.86,3.2-4.15,5.1-7.35,4.24-3.2-.86-5.1-4.15-4.24-7.35Z"/>
  </g>
</svg>