<?xml version="1.0" encoding="UTF-8"?>
<svg id="Layer_2" data-name="Layer 2" xmlns="http://www.w3.org/2000/svg" viewBox="0 0 54 54">
  <defs>
    <style>
      .cls-1 {
        fill: #010101;
      }
    </style>
  </defs>
  <g id="Layer_1-2" data-name="Layer 1">
    <path class="cls-1" d="M39,18c1.66,0,3-1.34,3-3s-1.34-3-3-3-3,1.34-3,3,1.34,3,3,3ZM35.02.03c-2.91-.15-5.87.33-8.67,1.49-7.47,3.09-12.35,10.39-12.35,18.48,0,2.1.34,4.18,1,6.18L.59,40.59c-.38.37-.59.88-.59,1.41v10c0,.53.21,1.04.59,1.41.38.38.88.59,1.41.59h10c.53,0,1.04-.21,1.41-.59.38-.37.59-.88.59-1.41v-4h4c.53,0,1.04-.21,1.41-.59.38-.37.59-.88.59-1.41v-4h4c.53,0,1.04-.21,1.41-.59l2.41-2.41c1.99.66,4.07,1.01,6.18,1,8.08,0,15.38-4.88,18.48-12.35,3.09-7.47,1.38-16.08-4.34-21.8C44.57,2.28,39.87.28,35.02.03ZM34.82,4.02c3.88.2,7.63,1.81,10.5,4.67,4.58,4.58,5.95,11.45,3.47,17.44-2.48,5.98-8.31,9.88-14.78,9.88h0c-2.04,0-4.05-.38-5.94-1.15-.36-.15-.76-.19-1.15-.11-.39.08-.74.27-1.02.55l-2.71,2.71h-5.17c-.53,0-1.04.21-1.41.59-.38.37-.59.88-.59,1.41v4h-4c-.53,0-1.04.21-1.41.59-.38.37-.59.88-.59,1.41v4h-6v-7.17l14.71-14.71c.28-.28.47-.63.55-1.02.08-.39.04-.79-.11-1.15-.77-1.88-1.16-3.9-1.15-5.94h0c0-6.48,3.89-12.31,9.88-14.79,2.24-.93,4.61-1.32,6.94-1.2Z"/>
  </g>
</svg>