<?xml version="1.0" encoding="UTF-8"?>
<svg id="Layer_2" data-name="Layer 2" xmlns="http://www.w3.org/2000/svg" viewBox="0 0 60 38.67">
  <defs>
    <style>
      .cls-1 {
        fill: #010101;
        fill-rule: evenodd;
      }
    </style>
  </defs>
  <g id="Layer_1-2" data-name="Layer 1">
    <path class="cls-1" d="M24,4c0-2.21,1.79-4,4-4h28c2.21,0,4,1.79,4,4v9.33c0,2.21-1.79,4-4,4h-28c-2.21,0-4-1.79-4-4V4ZM28,4h28v9.33h-28V4ZM24,25.33c0-2.21,1.79-4,4-4h28c2.21,0,4,1.79,4,4v9.33c0,2.21-1.79,4-4,4h-28c-2.21,0-4-1.79-4-4v-9.33ZM28,25.33h28v9.33h-28v-9.33ZM0,8.33c0-1.1.9-2,2-2h12c1.1,0,2,.9,2,2s-.9,2-2,2H2c-1.1,0-2-.9-2-2ZM2,28.33c-1.1,0-2,.9-2,2s.9,2,2,2h12c1.1,0,2-.9,2-2s-.9-2-2-2H2Z"/>
  </g>
</svg>