<?xml version="1.0" encoding="UTF-8"?>
<svg id="Layer_2" data-name="Layer 2" xmlns="http://www.w3.org/2000/svg" viewBox="0 0 52.38 46">
  <defs>
    <style>
      .cls-1 {
        fill: #010101;
      }
    </style>
  </defs>
  <g id="Layer_1-2" data-name="Layer 1">
    <path class="cls-1" d="M26.17,0C11.77-.1,0,11.6,0,26v14c0,3.29,2.71,6,6,6h4c3.29,0,6-2.71,6-6v-10c0-3.29-2.71-6-6-6h-5.9C5.11,12.71,14.6,3.92,26.16,4c.01,0,.02,0,.03,0,2.9-.02,5.78.53,8.47,1.62,5.43,2.21,9.76,6.5,12.02,11.92.86,2.06,1.39,4.24,1.59,6.46h-5.9c-3.29,0-6,2.71-6,6v10c0,3.29,2.71,6,6,6h4c3.29,0,6-2.71,6-6v-14h0c0-3.43-.68-6.83-2-10h0c-2.67-6.4-7.78-11.47-14.2-14.08C33,.63,29.6-.03,26.17,0ZM42.38,28h6v12c0,1.13-.87,2-2,2h-4c-1.13,0-2-.87-2-2v-10c0-1.13.87-2,2-2ZM4,28h6c1.13,0,2,.87,2,2h0v10c0,1.13-.87,2-2,2h-4c-1.13,0-2-.87-2-2v-12Z"/>
  </g>
</svg>