<?xml version="1.0" encoding="UTF-8"?>
<svg id="Layer_2" data-name="Layer 2" xmlns="http://www.w3.org/2000/svg" viewBox="0 0 46.79 46.79">
  <defs>
    <style>
      .cls-1 {
        fill: #010101;
      }
    </style>
  </defs>
  <g id="Layer_1-2" data-name="Layer 1">
    <path class="cls-1" d="M4.23,0C3.06-.06,1.93.4,1.17,1.17.15,2.19-.33,3.86.25,5.4l14.55,38.8s0,0,0,0c.62,1.64,2.24,2.59,3.77,2.58,1.52,0,3.13-.98,3.73-2.63,0,0,0,0,0,0l5.07-13.96,15.78,15.78c.37.38.88.59,1.41.59s1.04-.21,1.41-.59.59-.88.59-1.41-.21-1.04-.59-1.41l-15.78-15.78,13.95-5.07c1.65-.6,2.62-2.21,2.63-3.73,0-1.52-.94-3.15-2.58-3.77,0,0,0,0,0,0L5.4.25c-.38-.14-.78-.22-1.17-.24ZM4,3.99l38.79,14.55-16.03,5.82s0,0,0,0c-1.11.41-1.98,1.28-2.39,2.39,0,0,0,0,0,0l-5.82,16.02s0,0,0,0c0,0,0,0,0,0,0,0,0,0,0,0,0,0,0,0,0,0,.01,0,0,.03,0,0,0,0,0,0,0,0L4,3.99Z"/>
  </g>
</svg>