<?xml version="1.0" encoding="UTF-8"?>
<svg id="Layer_2" data-name="Layer 2" xmlns="http://www.w3.org/2000/svg" viewBox="0 0 52 52">
  <defs>
    <style>
      .cls-1 {
        fill: #010101;
      }
    </style>
  </defs>
  <g id="Layer_1-2" data-name="Layer 1">
    <path class="cls-1" d="M26.29,12.01c-1.29-.04-2.57.2-3.74.68-3.11,1.29-5.56,4.39-5.56,8.31,0,.53.21,1.04.59,1.41.38.38.88.59,1.41.59.26,0,.52-.05.77-.15.24-.1.46-.25.65-.43.19-.19.33-.41.43-.65.1-.24.15-.5.15-.77,0-2.31,1.32-3.89,3.09-4.62,1.76-.73,3.81-.55,5.45,1.08,1.43,1.43,1.86,3.57,1.08,5.45-.78,1.87-2.59,3.09-4.62,3.09-.26,0-.52.05-.77.15-.24.1-.46.25-.65.43-.19.19-.33.41-.43.65-.1.24-.15.5-.15.77v2c0,.53.21,1.04.59,1.41.38.38.88.59,1.41.59s1.04-.21,1.41-.59c.38-.38.59-.88.59-1.41v-.25c2.8-.64,5.19-2.58,6.32-5.31,1.39-3.36.62-7.24-1.95-9.81-1.73-1.73-3.92-2.57-6.07-2.63ZM26,42c1.66,0,3-1.34,3-3s-1.34-3-3-3-3,1.34-3,3,1.34,3,3,3ZM26,0C11.66,0,0,11.66,0,26s11.66,26,26,26,26-11.66,26-26S40.34,0,26,0ZM26,4c12.17,0,22,9.83,22,22s-9.83,22-22,22S4,38.17,4,26,13.83,4,26,4Z"/>
  </g>
</svg>