<?xml version="1.0" encoding="UTF-8"?>
<svg id="Layer_2" data-name="Layer 2" xmlns="http://www.w3.org/2000/svg" viewBox="0 0 50.46 50.47">
  <defs>
    <style>
      .cls-1 {
        fill: #010101;
      }
    </style>
  </defs>
  <g id="Layer_1-2" data-name="Layer 1">
    <path class="cls-1" d="M43.87.01c-3.69.15-9.06,1.48-14.24,6.66l-2.24,2.24h-15.32s-.02,0-.03,0c-1.05.02-2.06.45-2.8,1.2L1.16,18.17h0c-1.59,1.6-1.53,4.28.15,5.79.54.49,1.19.82,1.9.96l9.88,1.98,10.47,10.47,1.98,9.88c.14.71.47,1.37.96,1.91.49.54,1.11.93,1.8,1.14,1.41.43,2.95.04,3.99-1l8.06-8.09c.75-.74,1.19-1.75,1.2-2.8v-15.35l2.24-2.24c6.89-6.89,6.97-14.12,6.52-17.28-.24-1.75-1.63-3.15-3.39-3.39-.79-.11-1.82-.19-3.05-.14ZM44.03,3.98c.94-.02,1.72.05,2.31.14.34,2.35.55,7.94-5.39,13.88l-15.56,15.56-8.5-8.5,15.56-15.56c4.46-4.46,8.73-5.45,11.57-5.52ZM12.1,12.92h11.29l-9.98,9.98-9.43-1.89,8.09-8.07.02-.02ZM37.55,27.07v11.29l-.02.02-8.07,8.1-1.89-9.43,9.98-9.98ZM10.61,31.64c-4.99,1.68-7.5,5.89-8.68,9.41-1.17,3.52-1.16,6.64-1.16,6.64,0,.53.21,1.04.59,1.41.38.38.88.59,1.41.59,0,0,3.12,0,6.64-1.16,3.52-1.17,7.73-3.68,9.41-8.68.08-.25.12-.51.1-.77-.02-.26-.09-.52-.2-.75-.12-.24-.28-.45-.48-.62-.2-.17-.43-.3-.68-.39-.25-.08-.51-.12-.77-.1-.26.02-.52.09-.75.2-.24.12-.45.28-.62.48-.17.2-.3.43-.39.68-1.17,3.48-4.04,5.21-6.88,6.16-1.17.39-2.24.6-3.15.73.14-.91.34-1.98.73-3.15.95-2.84,2.67-5.71,6.16-6.88.25-.08.48-.22.68-.39.2-.17.36-.38.48-.62.12-.24.19-.49.2-.75.02-.26-.02-.53-.1-.77-.08-.25-.22-.48-.39-.68-.17-.2-.38-.36-.62-.48-.24-.12-.49-.19-.75-.2-.26-.02-.53.02-.77.1Z"/>
  </g>
</svg>