<?xml version="1.0" encoding="UTF-8"?>
<svg id="Layer_2" data-name="Layer 2" xmlns="http://www.w3.org/2000/svg" viewBox="0 0 52 46">
  <defs>
    <style>
      .cls-1 {
        fill: #010101;
      }
    </style>
  </defs>
  <g id="Layer_1-2" data-name="Layer 1">
    <path class="cls-1" d="M26,14c-6.05,0-11,4.95-11,11s4.95,11,11,11,11-4.95,11-11-4.95-11-11-11ZM26,18c3.89,0,7,3.11,7,7s-3.11,7-7,7-7-3.11-7-7,3.11-7,7-7ZM18,0c-.33,0-.65.08-.94.24s-.54.38-.72.65l-3.41,5.11h-6.93c-3.29,0-6,2.71-6,6v28c0,3.29,2.71,6,6,6h40c1.59,0,3.12-.63,4.24-1.76,1.12-1.12,1.76-2.65,1.76-4.24V12h0c0-3.29-2.71-6-6-6h-6.93l-3.41-5.11c-.18-.27-.43-.5-.72-.65-.29-.16-.61-.24-.94-.24h-16ZM19.07,4h13.86l3.41,5.11c.18.27.43.5.72.65.29.16.61.24.94.24h8c1.13,0,2,.87,2,2v28c0,.53-.21,1.04-.59,1.41s-.88.59-1.41.59H6c-1.13,0-2-.87-2-2V12c0-1.13.87-2,2-2h8c.33,0,.65-.08.94-.24.29-.16.54-.38.72-.65l3.41-5.11Z"/>
  </g>
</svg>