<?xml version="1.0" encoding="UTF-8"?>
<svg id="Layer_2" data-name="Layer 2" xmlns="http://www.w3.org/2000/svg" viewBox="0 0 56 56">
  <defs>
    <style>
      .cls-1 {
        fill: #010101;
      }
    </style>
  </defs>
  <g id="Layer_1-2" data-name="Layer 1">
    <path class="cls-1" d="M56,28c0-4.39-3.61-8-8-8h-10.76L27.79,1.11c-.17-.33-.42-.61-.74-.81C26.74.1,26.37,0,26,0h-8c-.3,0-.59.07-.86.19-.27.13-.5.31-.69.54-.19.23-.32.5-.39.78-.07.29-.08.59-.02.88l3.52,17.61h-4.73l-3.41-3.41c-.38-.38-.88-.59-1.41-.59H2c-.33,0-.65.08-.94.23-.29.15-.54.37-.72.65-.18.27-.3.58-.33.91-.04.32.01.65.13.96l3.7,9.26L.14,37.26c-.12.3-.17.63-.13.96.04.32.15.64.33.91.18.27.43.49.72.65.29.15.61.23.94.23h8c.53,0,1.04-.21,1.41-.59l3.41-3.41h4.73l-3.52,17.61c-.06.29-.05.59.02.88.07.29.21.55.39.78.19.23.42.41.69.54.27.13.56.19.86.19h8c.37,0,.74-.1,1.05-.3.32-.2.57-.47.74-.81l9.45-18.89h10.76c4.39,0,8-3.61,8-8h0ZM52,28c0,2.23-1.77,4-4,4h-12c-.37,0-.74.1-1.05.3-.32.2-.57.47-.74.81l-9.45,18.89h-4.32l3.52-17.61c.06-.29.05-.59-.02-.88-.07-.29-.21-.55-.39-.78-.19-.23-.42-.41-.69-.54-.27-.13-.56-.19-.86-.19h-8c-.53,0-1.04.21-1.41.59l-3.41,3.41h-4.22l2.9-7.26c.19-.48.19-1.01,0-1.49l-2.9-7.26h4.22l3.41,3.41c.38.38.88.59,1.41.59h8c.3,0,.59-.07.86-.19.27-.13.5-.31.69-.54.19-.23.32-.5.39-.78.07-.29.08-.59.02-.88l-3.52-17.61h4.32l9.45,18.89c.17.33.42.61.74.81.32.2.68.3,1.05.3h12c2.23,0,4,1.77,4,4Z"/>
  </g>
</svg>