<?xml version="1.0" encoding="UTF-8"?>
<svg id="Layer_2" data-name="Layer 2" xmlns="http://www.w3.org/2000/svg" viewBox="0 0 44 52">
  <defs>
    <style>
      .cls-1 {
        fill: #010101;
      }
    </style>
  </defs>
  <g id="Layer_1-2" data-name="Layer 1">
    <path class="cls-1" d="M4,0C1.82,0,0,1.82,0,4v44c0,2.18,1.82,4,4,4h36c2.18,0,4-1.82,4-4V4c0-2.18-1.82-4-4-4H4ZM4,4h36v44H4V4ZM14,8c-1.1,0-2,.9-2,2s.9,2,2,2h16c1.1,0,2-.9,2-2s-.9-2-2-2H14ZM22.42,34.01c-5.5-.14-10.72,2.39-14.02,6.79-.66.88-.48,2.14.4,2.8.88.66,2.14.48,2.8-.4,4.29-5.74,12.42-6.92,18.17-2.63,1,.75,1.89,1.63,2.63,2.63.66.88,1.92,1.06,2.8.4.88-.66,1.06-1.92.4-2.8-1.58-2.11-3.64-3.82-6-5-2.23-1.12-4.68-1.73-7.18-1.79ZM22,18c-5.52.02-9.98,4.48-10,10,0,5.5,4.5,10,10,10s10-4.5,10-10-4.5-10-10-10ZM22,22c3.34,0,6,2.66,6,6s-2.66,6-6,6-6-2.66-6-6,2.66-6,6-6Z"/>
  </g>
</svg>