<?xml version="1.0" encoding="UTF-8"?>
<svg id="Layer_2" data-name="Layer 2" xmlns="http://www.w3.org/2000/svg" viewBox="0 0 60 48">
  <defs>
    <style>
      .cls-1 {
        fill: #010101;
      }
    </style>
  </defs>
  <g id="Layer_1-2" data-name="Layer 1">
    <path class="cls-1" d="M30,4c-1.84,0-3.69.15-5.51.45-.26.04-.51.14-.73.28-.22.14-.42.32-.57.53-.15.21-.26.46-.32.71-.06.26-.07.52-.02.78.09.52.38.99.81,1.3.43.31.97.43,1.49.34,1.6-.27,3.22-.4,4.84-.4,0,0,0,0,0,0,16.34,0,24.03,12.67,25.77,16-.84,1.58-3.04,5.29-6.95,8.79-.2.18-.36.39-.47.62-.11.24-.18.49-.19.76-.01.26.02.52.11.77.09.25.22.48.4.67.35.4.85.63,1.38.66.53.03,1.05-.15,1.44-.51,5.78-5.17,8.34-10.95,8.34-10.95.11-.26.17-.53.17-.81s-.06-.56-.17-.81c0,0-8.63-19.19-29.83-19.19ZM32.25,12.21c-.52-.1-1.06.01-1.5.31s-.74.76-.84,1.28c-.05.26-.05.52,0,.78.05.26.16.5.31.72.15.22.34.4.56.55.22.14.47.24.72.29,3.5.66,6.12,3.55,6.46,7.1.02.26.1.52.22.75.12.23.29.44.49.61.2.17.44.29.69.37.25.08.51.1.78.08.53-.05,1.02-.31,1.35-.71.34-.41.5-.93.45-1.46-.49-5.31-4.46-9.66-9.69-10.65ZM10.1,0c-.53-.03-1.05.16-1.44.52-.39.36-.63.85-.65,1.38-.03.53.16,1.05.52,1.44l12.05,13.25c-2.58,3.29-3.3,7.74-1.76,11.73,1.78,4.62,6.24,7.67,11.19,7.67,2.31,0,4.55-.67,6.47-1.91l12.05,13.25c.36.39.85.63,1.38.65.53.03,1.05-.16,1.44-.52s.63-.85.65-1.38c.03-.53-.16-1.05-.52-1.44L24.76,15.27s0,0,0-.01c0,0,0,0,0,0L11.48.65C11.12.26,10.63.03,10.1,0ZM17.13,7.25c-.5-.17-1.05-.12-1.53.11C4.7,12.87.17,23.19.17,23.19.06,23.45,0,23.72,0,24c0,.28.06.56.17.81,0,0,8.63,19.18,29.82,19.19,5,.04,9.94-1.11,14.41-3.36.23-.12.44-.28.61-.48.17-.2.3-.43.38-.68.08-.25.11-.51.1-.77-.02-.26-.09-.52-.21-.75-.12-.23-.28-.44-.48-.62-.2-.17-.43-.3-.68-.38-.25-.08-.51-.11-.77-.1-.26.02-.52.09-.75.21-3.9,1.97-8.22,2.97-12.58,2.94h-.02c-16.31,0-24-12.63-25.76-15.98.96-1.88,4.91-8.92,13.16-13.08.23-.12.44-.28.61-.48s.3-.43.38-.68c.08-.25.11-.51.09-.77-.02-.26-.09-.52-.21-.75-.24-.47-.66-.83-1.16-1ZM23.32,19.63l10.39,11.43c-1.14.6-2.4.95-3.7.94h0c-3.31,0-6.27-2.03-7.46-5.12-.95-2.45-.61-5.13.79-7.26Z"/>
  </g>
</svg>