<?xml version="1.0" encoding="UTF-8"?>
<svg id="Layer_2" data-name="Layer 2" xmlns="http://www.w3.org/2000/svg" viewBox="0 0 64 48">
  <defs>
    <style>
      .cls-1 {
        fill: #010101;
      }
    </style>
  </defs>
  <g id="Layer_1-2" data-name="Layer 1">
    <path class="cls-1" d="M0,6C0,2.69,2.69,0,6,0h40c3.31,0,6,2.69,6,6v8c0,3.31-2.69,6-6,6h-28v12c0,2.21,1.79,4,4,4h8v-2c0-3.31,2.69-6,6-6h22c3.31,0,6,2.69,6,6v8c0,3.31-2.69,6-6,6h-22c-3.31,0-6-2.69-6-6v-2h-8c-4.42,0-8-3.58-8-8v-12H6c-3.31,0-6-2.69-6-6V6ZM34,42c0,1.1.9,2,2,2h22c1.1,0,2-.9,2-2v-8c0-1.1-.9-2-2-2h-22c-1.1,0-2,.9-2,2v8ZM6,4c-1.1,0-2,.9-2,2v8c0,1.1.9,2,2,2h40c1.1,0,2-.9,2-2V6c0-1.1-.9-2-2-2H6Z"/>
  </g>
</svg>