<?xml version="1.0" encoding="UTF-8"?>
<svg id="Layer_2" data-name="Layer 2" xmlns="http://www.w3.org/2000/svg" viewBox="0 0 54 50.14">
  <defs>
    <style>
      .cls-1 {
        fill: #010101;
      }
    </style>
  </defs>
  <g id="Layer_1-2" data-name="Layer 1">
    <path class="cls-1" d="M4.48.01C2.29-.17.02,1.49,0,3.91v38.93c.02,2.36,2.16,4.24,4.51,3.94,0,0,0,0,0,0,.75-.1,1.46-.4,2.04-.89,0,0,0,0,0,0,12.58-10.54,25.44-10.51,25.44-10.51h10c6.6,0,12-5.4,12-12s-5.4-12-12-12h-10s-12.86.03-25.44-10.51c0,0,0,0,0,0C5.93.35,5.21.08,4.48.01ZM4,3.94s0,0,0,0c13.62,11.41,28,11.44,28,11.44h10c4.44,0,8,3.56,8,8s-3.56,8-8,8h-10s-14.38.03-28,11.43c0,0-.01,0,0,0,0,0,0,0,0,0,0,0,0,0,0,0V3.94ZM32,11.38c-.53,0-1.04.21-1.41.59-.38.38-.59.88-.59,1.41v30.91c-.01,1.36.67,2.63,1.81,3.37l2.73,1.81s0,0,0,0c1.08.72,2.45.87,3.66.41,0,0,0,0,0,0,1.21-.47,2.13-1.5,2.44-2.76,0,0,0,0,0,0l3.3-13.25c.06-.26.08-.52.04-.78-.04-.26-.13-.51-.26-.73-.14-.23-.31-.42-.52-.58-.21-.16-.45-.27-.71-.33-.26-.06-.52-.08-.78-.04-.26.04-.51.13-.73.26-.23.14-.42.31-.58.52-.16.21-.27.45-.33.71l-3.3,13.24s0,0,0,0c0,0,0,0,0,0l-2.75-1.83s0,0,0,0h0V13.38c0-.53-.21-1.04-.59-1.41-.38-.38-.88-.59-1.41-.59Z"/>
  </g>
</svg>