<?xml version="1.0" encoding="UTF-8"?>
<svg id="Layer_2" data-name="Layer 2" xmlns="http://www.w3.org/2000/svg" viewBox="0 0 60 36">
  <defs>
    <style>
      .cls-1 {
        fill: #010101;
      }
    </style>
  </defs>
  <g id="Layer_1-2" data-name="Layer 1">
    <path class="cls-1" d="M42,8c-5.5,0-10,4.5-10,10s4.5,10,10,10,10-4.5,10-10-4.5-10-10-10ZM42,12c3.34,0,6,2.66,6,6s-2.66,6-6,6-6-2.66-6-6,2.66-6,6-6ZM18,0C8.08,0,0,8.08,0,18s8.08,18,18,18h24c9.92,0,18-8.08,18-18S51.92,0,42,0h-24ZM18,4h24c7.76,0,14,6.24,14,14s-6.24,14-14,14h-24c-7.76,0-14-6.24-14-14s6.24-14,14-14Z"/>
  </g>
</svg>