<?xml version="1.0" encoding="UTF-8"?>
<svg id="Layer_2" data-name="Layer 2" xmlns="http://www.w3.org/2000/svg" viewBox="0 0 44 44">
  <defs>
    <style>
      .cls-1 {
        fill: #010101;
      }
    </style>
  </defs>
  <g id="Layer_1-2" data-name="Layer 1">
    <path class="cls-1" d="M22,0c-.53,0-1.04.21-1.41.59L.59,20.59c-.37.38-.59.88-.59,1.41s.21,1.04.59,1.41l20,20c.38.38.88.59,1.41.59s1.04-.21,1.41-.59c.37-.37.59-.88.59-1.41s-.21-1.04-.59-1.41L4.83,22,23.41,3.41c.37-.38.59-.88.59-1.41s-.21-1.04-.59-1.41c-.38-.38-.88-.59-1.41-.59ZM42,0c-.53,0-1.04.21-1.41.59l-20,20c-.37.38-.59.88-.59,1.41s.21,1.04.59,1.41l20,20c.38.38.88.59,1.41.59s1.04-.21,1.41-.59c.38-.37.59-.88.59-1.41s-.21-1.04-.59-1.41l-18.59-18.59L43.41,3.41c.38-.38.59-.88.59-1.41s-.21-1.04-.59-1.41c-.37-.38-.88-.59-1.41-.59Z"/>
  </g>
</svg>