<?xml version="1.0" encoding="UTF-8"?>
<svg id="Layer_2" data-name="Layer 2" xmlns="http://www.w3.org/2000/svg" viewBox="0 0 55.98 52.05">
  <defs>
    <style>
      .cls-1 {
        fill: #010101;
      }
    </style>
  </defs>
  <g id="Layer_1-2" data-name="Layer 1">
    <path class="cls-1" d="M21.25.04C13.85-.42,6.79,3.25,2.92,9.58c-3.71,6.06-3.87,13.61-.55,19.84l-1.56,5.48h0c-.71,2.54,1.78,5.03,4.32,4.32h0s5.48-1.57,5.48-1.57c6.23,3.32,13.78,3.16,19.84-.55,6.33-3.87,10-10.93,9.54-18.33C39.36,8.72,31.31.67,21.25.04ZM37.06,12.08c-.26-.01-.52.02-.77.11-.25.09-.48.22-.67.4-.2.18-.35.39-.47.63-.11.24-.18.49-.19.76-.01.26.02.52.11.77.09.25.22.48.4.67.18.2.39.35.63.47.24.11.49.18.76.19,8.65.45,15.34,7.67,15.13,16.33-.06,2.75-.84,5.44-2.25,7.8-.14.23-.23.49-.26.76-.04.27-.02.55.06.81l1.53,5.36-5.36-1.53c-.26-.07-.54-.1-.81-.06-.27.04-.53.13-.76.26-2.03,1.21-4.31,1.95-6.67,2.17-7.32.69-14.14-3.68-16.57-10.62-.18-.5-.54-.91-1.02-1.14-.48-.23-1.03-.26-1.53-.08-.5.18-.91.54-1.14,1.02-.23.48-.26,1.03-.08,1.53,3.03,8.65,11.6,14.14,20.72,13.28,2.64-.25,5.19-1.05,7.53-2.3l5.46,1.56h0c1.22.34,2.53,0,3.42-.89.89-.89,1.24-2.21.89-3.42h0s-1.56-5.48-1.56-5.48c1.47-2.75,2.32-5.8,2.39-8.94.25-10.78-8.15-19.85-18.92-20.41ZM21,4.03c8.08.51,14.49,6.92,14.99,14.99.37,5.93-2.56,11.57-7.63,14.67-5.07,3.1-11.43,3.14-16.54.11-.23-.14-.49-.23-.76-.26-.27-.04-.54-.01-.81.06l-5.35,1.53,1.53-5.36c.07-.26.1-.54.06-.81-.03-.27-.12-.53-.26-.76-3.03-5.11-2.99-11.47.11-16.54,3.1-5.07,8.74-8.01,14.67-7.63Z"/>
  </g>
</svg>