<?xml version="1.0" encoding="UTF-8"?>
<svg id="Layer_2" data-name="Layer 2" xmlns="http://www.w3.org/2000/svg" viewBox="0 0 50 46">
  <defs>
    <style>
      .cls-1 {
        fill: #010101;
      }
    </style>
  </defs>
  <g id="Layer_1-2" data-name="Layer 1">
    <path class="cls-1" d="M0,2C0,.9.9,0,2,0h30c1.1,0,2,.9,2,2s-.9,2-2,2H2c-1.1,0-2-.9-2-2ZM0,18c0-1.1.9-2,2-2h16c1.1,0,2,.9,2,2s-.9,2-2,2H2c-1.1,0-2-.9-2-2ZM0,34c0-1.1.9-2,2-2h12c1.1,0,2,.9,2,2s-.9,2-2,2H2c-1.1,0-2-.9-2-2ZM41.67,6.2c.81.39,1.26,1.28,1.09,2.17l-2.1,11.25,8.08,3.25c.6.24,1.05.76,1.2,1.39.15.63-.01,1.29-.44,1.78l-16.8,19.29c-.59.68-1.57.88-2.38.49-.81-.39-1.26-1.28-1.1-2.17l2.1-11.25-8.08-3.25c-.6-.24-1.05-.76-1.2-1.39-.15-.63.01-1.29.44-1.78L39.29,6.69c.59-.68,1.57-.88,2.38-.49ZM27.36,26.48l6.99,2.81c.88.36,1.4,1.29,1.22,2.22l-1.05,5.64,10.13-11.63-6.99-2.81c-.88-.36-1.4-1.29-1.22-2.22l1.05-5.64-10.13,11.63Z"/>
  </g>
</svg>