<?xml version="1.0" encoding="UTF-8"?>
<svg id="Layer_2" data-name="Layer 2" xmlns="http://www.w3.org/2000/svg" viewBox="0 0 48 38">
  <defs>
    <style>
      .cls-1 {
        fill: #010101;
      }
    </style>
  </defs>
  <g id="Layer_1-2" data-name="Layer 1">
    <path class="cls-1" d="M18,0c-.53,0-1.04.21-1.41.59-.38.38-.59.88-.59,1.41v12c0,.53.21,1.04.59,1.41.38.38.88.59,1.41.59s1.04-.21,1.41-.59c.38-.38.59-.88.59-1.41v-4h26c.53,0,1.04-.21,1.41-.59.37-.38.59-.88.59-1.41s-.21-1.04-.59-1.41c-.38-.38-.88-.59-1.41-.59h-26V2c0-.53-.21-1.04-.59-1.41-.38-.38-.88-.59-1.41-.59ZM2,6c-.53,0-1.04.21-1.41.59-.38.38-.59.88-.59,1.41s.21,1.04.59,1.41c.38.38.88.59,1.41.59h8c.53,0,1.04-.21,1.41-.59.38-.38.59-.88.59-1.41s-.21-1.04-.59-1.41c-.38-.38-.88-.59-1.41-.59H2ZM34,22c-.53,0-1.04.21-1.41.59-.37.38-.59.88-.59,1.41v12c0,.53.21,1.04.59,1.41.38.37.88.59,1.41.59s1.04-.21,1.41-.59c.37-.38.59-.88.59-1.41v-4h10c.53,0,1.04-.21,1.41-.59.37-.38.59-.88.59-1.41s-.21-1.04-.59-1.41c-.38-.37-.88-.59-1.41-.59h-10v-4c0-.53-.21-1.04-.59-1.41-.38-.38-.88-.59-1.41-.59ZM2,28c-.53,0-1.04.21-1.41.59-.38.38-.59.88-.59,1.41s.21,1.04.59,1.41c.38.37.88.59,1.41.59h24c.53,0,1.04-.21,1.41-.59.38-.38.59-.88.59-1.41s-.21-1.04-.59-1.41c-.38-.37-.88-.59-1.41-.59H2Z"/>
  </g>
</svg>