<?xml version="1.0" encoding="UTF-8"?>
<svg id="Layer_2" data-name="Layer 2" xmlns="http://www.w3.org/2000/svg" viewBox="0 0 44 44">
  <defs>
    <style>
      .cls-1 {
        fill: #010101;
      }
    </style>
  </defs>
  <g id="Layer_1-2" data-name="Layer 1">
    <path class="cls-1" d="M42.83,6.83c1.56-1.56,1.56-4.09,0-5.66-1.56-1.56-4.09-1.56-5.66,0l-15.17,15.17L6.83,1.17C5.27-.39,2.73-.39,1.17,1.17-.39,2.73-.39,5.27,1.17,6.83l15.17,15.17L1.17,37.17c-1.56,1.56-1.56,4.09,0,5.66,1.56,1.56,4.09,1.56,5.66,0l15.17-15.17,15.17,15.17c1.56,1.56,4.09,1.56,5.66,0s1.56-4.09,0-5.66l-15.17-15.17,15.17-15.17Z"/>
  </g>
</svg>