<?xml version="1.0" encoding="UTF-8"?>
<svg id="Layer_2" data-name="Layer 2" xmlns="http://www.w3.org/2000/svg" viewBox="0 0 57.13 56">
  <defs>
    <style>
      .cls-1 {
        fill: #010101;
        fill-rule: evenodd;
      }
    </style>
  </defs>
  <g id="Layer_1-2" data-name="Layer 1">
    <path class="cls-1" d="M14,20V4c-1.1,0-2-.9-2-2s.9-2,2-2h14c1.1,0,2,.9,2,2s-.9,2-2,2h-3.23c.67,1.84,1.73,4.46,3.17,7.16,1.8,3.39,4.13,6.76,6.91,8.97l19.08,3.95c4.25.88,4.25,6.95,0,7.83l-19.08,3.95c-2.79,2.21-5.11,5.59-6.91,8.97-1.44,2.71-2.5,5.32-3.17,7.16h3.23c1.1,0,2,.9,2,2s-.9,2-2,2h-14c-1.1,0-2-.9-2-2s.9-2,2-2v-16h-3.17l-2.83,2.83c-.75.75-1.77,1.17-2.83,1.17h-1.17c-2.21,0-4-1.79-4-4v-16c0-2.21,1.79-4,4-4h1.17c1.06,0,2.08.42,2.83,1.17l2.83,2.83h3.17ZM53.13,28l-19.1-3.95c-.07-.01-.14-.03-.21-.05H10.83c-1.06,0-2.08-.42-2.83-1.17l-2.83-2.83h-1.17v16h1.17l2.83-2.83c.75-.75,1.77-1.17,2.83-1.17h22.99c.07-.02.14-.03.21-.05l19.1-3.95ZM18,4h2.49s.01,0,.03.01c.02.01.03.03.04.06.64,1.89,1.92,5.34,3.85,8.97,1.24,2.32,2.77,4.78,4.62,6.96h-11.04V4ZM20.56,51.93s-.03.05-.04.06c-.02.01-.03.01-.03.01h-2.49v-16h11.04c-1.85,2.18-3.39,4.64-4.62,6.96-1.93,3.63-3.22,7.09-3.85,8.97Z"/>
  </g>
</svg>