<?xml version="1.0" encoding="UTF-8"?>
<svg id="Layer_2" data-name="Layer 2" xmlns="http://www.w3.org/2000/svg" viewBox="0 0 60.37 39.35">
  <defs>
    <style>
      .cls-1 {
        fill: #010101;
      }
    </style>
  </defs>
  <g id="Layer_1-2" data-name="Layer 1">
    <path class="cls-1" d="M40.37,0c-1.37,0-2.72.19-4.04.54-.51.14-.95.48-1.21.94-.26.46-.33,1.01-.2,1.52.14.51.48.95.94,1.21.46.26,1.01.33,1.52.2.98-.27,1.99-.4,3-.4,6.1,0,11,4.9,11,11s-4.9,11-11,11h0c-.26.05-.51.15-.73.3-.24.05-.48.15-.69.28-.14.21-.23.44-.28.69-.15.22-.25.47-.3.73.05.26.15.51.3.73.05.24.15.48.28.68.21.14.44.23.69.28.22.15.47.25.73.3h0c6.52,0,12.62,3.17,16.36,8.5.15.21.34.4.56.54.22.14.47.24.73.28.26.05.52.04.78-.02.26-.06.5-.16.71-.32.43-.3.73-.77.82-1.29.09-.52-.03-1.06-.33-1.49-2.84-4.05-6.83-7.05-11.35-8.72,4.04-2.69,6.71-7.29,6.71-12.48,0-8.26-6.74-15-15-15h0ZM20,0C11.74,0,5,6.74,5,15s6.74,15,15,15,15-6.74,15-15S28.26,0,20,0ZM20,26c-7.81,0-15.14,3.81-19.64,10.2-.3.43-.43.97-.33,1.49.09.52.39.99.82,1.29.43.3.97.42,1.49.33.52-.09.99-.39,1.29-.82,3.75-5.33,9.85-8.5,16.36-8.5,6.52,0,12.62,3.17,16.36,8.5.31.43.77.73,1.29.82.52.09,1.06-.03,1.49-.33.43-.31.73-.77.82-1.29.09-.52-.03-1.06-.33-1.49-4.49-6.39-11.82-10.2-19.64-10.2ZM20,4c6.1,0,11,4.9,11,11s-4.9,11-11,11-11-4.9-11-11,4.9-11,11-11Z"/>
  </g>
</svg>