<?xml version="1.0" encoding="UTF-8"?>
<svg id="Layer_2" data-name="Layer 2" xmlns="http://www.w3.org/2000/svg" viewBox="0 0 52 48">
  <defs>
    <style>
      .cls-1 {
        fill: #010101;
      }
    </style>
  </defs>
  <g id="Layer_1-2" data-name="Layer 1">
    <path class="cls-1" d="M22,32c-.53,0-1.04.21-1.41.59-.38.38-.59.88-.59,1.41v8h-8c-.53,0-1.04.21-1.41.59-.38.38-.59.88-.59,1.41s.21,1.04.59,1.41c.38.37.88.59,1.41.59h10c.53,0,1.04-.21,1.41-.59.38-.37.59-.88.59-1.41v-10c0-.53-.21-1.04-.59-1.41-.38-.37-.88-.59-1.41-.59ZM9,0C4.05,0,0,4.05,0,9c0,4.26,3.01,7.84,7,8.76v8.27h0c0,3.72,1.48,7.28,4.11,9.91h0l9.48,9.48c.38.38.88.59,1.41.59s1.04-.21,1.41-.59c.38-.37.59-.88.59-1.41,0-.53-.21-1.04-.59-1.41l-9.47-9.47c-1.88-1.88-2.94-4.43-2.94-7.09v-8.27c3.99-.92,7-4.5,7-8.76C18,4.05,13.95,0,9,0ZM9,4c2.79,0,5,2.21,5,5s-2.21,5-5,5-5-2.21-5-5,2.21-5,5-5ZM30,2c-.53,0-1.04.21-1.41.59-.38.38-.59.88-.59,1.41v10c0,.53.21,1.04.59,1.41.38.38.88.59,1.41.59s1.04-.21,1.41-.59c.38-.38.59-.88.59-1.41V6h8c.53,0,1.04-.21,1.41-.59.37-.38.59-.88.59-1.41s-.21-1.04-.59-1.41c-.38-.38-.88-.59-1.41-.59h-10ZM30,2c-.53,0-1.04.21-1.41.59-.38.38-.59.88-.59,1.41,0,.53.21,1.04.59,1.41l9.47,9.48c1.88,1.88,2.94,4.43,2.94,7.09v8.27c-3.99.92-7,4.5-7,8.76,0,4.95,4.05,9,9,9s9-4.05,9-9c0-4.26-3.01-7.84-7-8.76v-8.27h0c0-3.72-1.48-7.28-4.11-9.91h0L31.41,2.59c-.38-.38-.88-.59-1.41-.59ZM43,34c2.79,0,5,2.21,5,5s-2.21,5-5,5-5-2.21-5-5,2.21-5,5-5Z"/>
  </g>
</svg>