<?xml version="1.0" encoding="UTF-8"?>
<svg id="Layer_2" data-name="Layer 2" xmlns="http://www.w3.org/2000/svg" viewBox="0 0 52 43.32">
  <defs>
    <style>
      .cls-1 {
        fill: #010101;
      }
    </style>
  </defs>
  <g id="Layer_1-2" data-name="Layer 1">
    <path class="cls-1" d="M47.84,0c2.18-.07,4.16,1.72,4.16,4v34.65c0,2.61-2.59,4.57-5.1,3.85h-.01S2.89,29.67,2.89,29.67h0C1.19,29.18,0,27.6,0,25.82v-9c0-1.78,1.19-3.36,2.9-3.85L46.89.15h.01c.31-.09.63-.14.94-.15ZM24,6.9c.53,0,1.04.21,1.41.59.38.38.59.88.59,1.41v30.43c0,2.19-1.81,4-4,4h-8c-2.18,0-4-1.81-4-4v-9.08c0-.53.21-1.04.59-1.41.38-.38.88-.59,1.41-.59s1.04.21,1.41.59c.38.38.59.88.59,1.41v9.07s0,.02,0,0h8s0-30.42,0-30.42c0-.53.21-1.04.59-1.41.38-.38.88-.59,1.41-.59ZM48,4L4.01,16.82h0v9h0s43.99,12.83,43.99,12.83h0V4h0Z"/>
  </g>
</svg>