<?xml version="1.0" encoding="UTF-8"?>
<svg id="Layer_2" data-name="Layer 2" xmlns="http://www.w3.org/2000/svg" viewBox="0 0 44 52">
  <defs>
    <style>
      .cls-1 {
        fill: #010101;
        fill-rule: evenodd;
      }
    </style>
  </defs>
  <g id="Layer_1-2" data-name="Layer 1">
    <path class="cls-1" d="M12,0c-1.06,0-2.08.42-2.83,1.17-.75.75-1.17,1.77-1.17,2.83v4h-4c-1.06,0-2.08.42-2.83,1.17-.75.75-1.17,1.77-1.17,2.83v36c0,1.06.42,2.08,1.17,2.83.75.75,1.77,1.17,2.83,1.17h28c1.06,0,2.08-.42,2.83-1.17s1.17-1.77,1.17-2.83v-4h4c1.06,0,2.08-.42,2.83-1.17s1.17-1.77,1.17-2.83V12c0-.53-.21-1.04-.59-1.41L33.41.59c-.38-.38-.88-.59-1.41-.59H12ZM36,40h4V12.83l-8.83-8.83H12v4h12c.53,0,1.04.21,1.41.59l10,10c.37.38.59.88.59,1.41v20ZM4,12v36h28v-27.17l-8.83-8.83H4Z"/>
  </g>
</svg>