<?xml version="1.0" encoding="UTF-8"?>
<svg id="Layer_2" data-name="Layer 2" xmlns="http://www.w3.org/2000/svg" viewBox="0 0 52 44">
  <defs>
    <style>
      .cls-1 {
        fill: #010101;
      }
    </style>
  </defs>
  <g id="Layer_1-2" data-name="Layer 1">
    <path class="cls-1" d="M16,16c-.53,0-1.04.21-1.41.59-.38.38-.59.88-.59,1.41,0,3.18,1.26,6.24,3.51,8.48,4.67,4.67,12.3,4.67,16.97,0,2.25-2.25,3.51-5.3,3.51-8.48,0-.53-.21-1.04-.59-1.41-.38-.38-.88-.59-1.41-.59s-1.04.21-1.41.59c-.37.38-.59.88-.59,1.41,0,2.12-.84,4.16-2.34,5.66-3.14,3.14-8.17,3.14-11.31,0-1.5-1.5-2.34-3.53-2.34-5.66,0-.53-.21-1.04-.59-1.41-.38-.38-.88-.59-1.41-.59ZM4,0C1.81,0,0,1.81,0,4v36c0,2.19,1.81,4,4,4h44c2.19,0,4-1.81,4-4V4c0-2.19-1.81-4-4-4H4ZM4,4h44v4H4v-4ZM4,12h44v28H4V12Z"/>
  </g>
</svg>