<?xml version="1.0" encoding="UTF-8"?>
<svg id="Layer_2" data-name="Layer 2" xmlns="http://www.w3.org/2000/svg" viewBox="0 0 52 48">
  <defs>
    <style>
      .cls-1 {
        fill: #010101;
      }
    </style>
  </defs>
  <g id="Layer_1-2" data-name="Layer 1">
    <path class="cls-1" d="M0,6C0,2.69,2.69,0,6,0h12c3.31,0,6,2.69,6,6v10c0,3.31-2.69,6-6,6H6c-3.31,0-6-2.69-6-6V6ZM6,4c-1.1,0-2,.9-2,2v10c0,1.1.9,2,2,2h12c1.1,0,2-.9,2-2V6c0-1.1-.9-2-2-2H6ZM28,6c0-3.31,2.69-6,6-6h12c3.31,0,6,2.69,6,6v10c0,3.31-2.69,6-6,6h-12c-3.31,0-6-2.69-6-6V6ZM34,4c-1.1,0-2,.9-2,2v10c0,1.1.9,2,2,2h12c1.1,0,2-.9,2-2V6c0-1.1-.9-2-2-2h-12ZM0,32c0-3.31,2.69-6,6-6h12c3.31,0,6,2.69,6,6v10c0,3.31-2.69,6-6,6H6c-3.31,0-6-2.69-6-6v-10ZM6,30c-1.1,0-2,.9-2,2v10c0,1.1.9,2,2,2h12c1.1,0,2-.9,2-2v-10c0-1.1-.9-2-2-2H6ZM28,32c0-3.31,2.69-6,6-6h12c3.31,0,6,2.69,6,6v10c0,3.31-2.69,6-6,6h-12c-3.31,0-6-2.69-6-6v-10ZM34,30c-1.1,0-2,.9-2,2v10c0,1.1.9,2,2,2h12c1.1,0,2-.9,2-2v-10c0-1.1-.9-2-2-2h-12Z"/>
  </g>
</svg>