<?xml version="1.0" encoding="UTF-8"?>
<svg id="Layer_2" data-name="Layer 2" xmlns="http://www.w3.org/2000/svg" viewBox="0 0 47.94 47.94">
  <defs>
    <style>
      .cls-1 {
        fill: #010101;
      }
    </style>
  </defs>
  <g id="Layer_1-2" data-name="Layer 1">
    <path class="cls-1" d="M19.73,15.21c-3.45,0-6.76,1.37-9.19,3.82l-7.07,7.04s-.04.05-.07.07C1.14,28.62-.07,31.87,0,35.22c.12,5.1,3.21,9.67,7.9,11.67,4.69,2.01,10.13,1.09,13.9-2.35.02-.02.05-.04.07-.06l4.95-4.95c.19-.19.33-.41.43-.65.1-.24.15-.5.15-.77s-.05-.52-.15-.77c-.1-.24-.25-.46-.43-.65-.38-.38-.88-.59-1.41-.59s-1.04.21-1.41.59l-4.9,4.9c-2.62,2.38-6.37,3.01-9.62,1.62-3.26-1.39-5.39-4.55-5.47-8.09-.05-2.32.79-4.56,2.34-6.28l7.02-6.99s0,0,0,0c1.68-1.69,3.97-2.64,6.36-2.64,2.39,0,4.67.95,6.36,2.64.19.19.41.33.65.43.24.1.5.15.77.15.26,0,.52-.05.77-.15.24-.1.46-.25.65-.43.38-.37.59-.88.59-1.41,0-.53-.21-1.04-.58-1.42-2.43-2.44-5.74-3.82-9.19-3.82ZM35.23,0c-3.24-.07-6.51,1.05-9.08,3.39-.02.02-.05.04-.07.06l-4.95,4.95c-.19.19-.33.41-.43.65-.1.24-.15.5-.15.77s.05.52.15.77c.1.24.25.46.43.65.19.19.41.33.65.43.24.1.5.15.77.15s.52-.05.77-.15c.24-.1.46-.25.65-.43l4.9-4.9c3.58-3.25,9.03-3.12,12.45.3,3.42,3.42,3.55,8.87.3,12.45l-7.02,6.99s0,0,0,0c-2.57,2.58-6.43,3.35-9.8,1.95,0,0,0,0,0,0-1.09-.45-2.08-1.12-2.92-1.95-.37-.38-.88-.59-1.41-.59-.53,0-1.04.21-1.42.58-.19.19-.33.41-.43.65-.1.24-.15.5-.15.77,0,.26.05.52.15.77.1.24.25.46.43.65,1.21,1.21,2.64,2.17,4.22,2.82,4.85,2.02,10.46.9,14.17-2.83l7.07-7.04s.04-.05.07-.07c4.68-5.13,4.49-13.08-.41-17.99C41.69,1.35,38.47.08,35.23,0Z"/>
  </g>
</svg>