<?xml version="1.0" encoding="UTF-8"?>
<svg id="Layer_2" data-name="Layer 2" xmlns="http://www.w3.org/2000/svg" viewBox="0 0 52 48">
  <defs>
    <style>
      .cls-1 {
        fill: #010101;
      }
    </style>
  </defs>
  <g id="Layer_1-2" data-name="Layer 1">
    <path class="cls-1" d="M6,0C2.71,0,0,2.71,0,6v28c0,3.29,2.71,6,6,6h18v4h-6c-.53,0-1.04.21-1.41.59-.38.38-.59.88-.59,1.41s.21,1.04.59,1.41c.38.37.88.59,1.41.59h16c.53,0,1.04-.21,1.41-.59.37-.38.59-.88.59-1.41s-.21-1.04-.59-1.41c-.38-.37-.88-.59-1.41-.59h-6v-4h18c3.29,0,6-2.71,6-6V6c0-3.29-2.71-6-6-6H6ZM6,4h40c1.13,0,2,.87,2,2v20H4V6c0-1.13.87-2,2-2ZM4,30h44v4c0,1.13-.87,2-2,2H6c-1.13,0-2-.87-2-2v-4Z"/>
  </g>
</svg>