<?xml version="1.0" encoding="UTF-8"?>
<svg id="Layer_2" data-name="Layer 2" xmlns="http://www.w3.org/2000/svg" viewBox="0 0 52 44">
  <defs>
    <style>
      .cls-1 {
        fill: #010101;
      }
    </style>
  </defs>
  <g id="Layer_1-2" data-name="Layer 1">
    <path class="cls-1" d="M33,18c1.66,0,3-1.34,3-3s-1.34-3-3-3-3,1.34-3,3,1.34,3,3,3ZM16,16.84c-1.04,0-2.07.39-2.85,1.18L.59,30.59c-.19.19-.33.41-.43.65C.05,31.48,0,31.74,0,32s.05.52.15.77c.1.24.25.46.43.65.38.38.88.59,1.41.59s1.04-.21,1.41-.59l12.59-12.59s.02-.02,0,0h.01s11.14,11.15,11.14,11.15c1.14,1.16,2.89,1.51,4.39.88.49-.2.93-.51,1.31-.88l5.14-5.14h.01s.01,0,.01,0l10.58,10.58c.38.38.88.59,1.41.59s1.04-.21,1.41-.59c.19-.19.33-.41.43-.65.1-.24.15-.5.15-.77s-.05-.52-.15-.77c-.1-.24-.25-.46-.43-.65l-10.56-10.56c-.37-.38-.82-.68-1.3-.88-1.5-.63-3.25-.28-4.4.88l-5.14,5.14h-.01s-.01,0-.01,0l-11.14-11.14c-.77-.79-1.81-1.18-2.85-1.18ZM4,0C1.81,0,0,1.81,0,4v36c0,2.19,1.81,4,4,4h44c2.19,0,4-1.81,4-4V4c0-2.19-1.81-4-4-4H4ZM4,4h44v36H4V4Z"/>
  </g>
</svg>