<?xml version="1.0" encoding="UTF-8"?>
<svg id="Layer_2" data-name="Layer 2" xmlns="http://www.w3.org/2000/svg" viewBox="0 0 48 52">
  <defs>
    <style>
      .cls-1 {
        fill: #010101;
      }
    </style>
  </defs>
  <g id="Layer_1-2" data-name="Layer 1">
    <path class="cls-1" d="M18,20c-.53,0-1.04.21-1.41.59-.38.38-.59.88-.59,1.41v16c0,.53.21,1.04.59,1.41.38.37.88.59,1.41.59s1.04-.21,1.41-.59c.38-.38.59-.88.59-1.41v-16c0-.53-.21-1.04-.59-1.41-.38-.38-.88-.59-1.41-.59ZM30,20c-.53,0-1.04.21-1.41.59-.38.38-.59.88-.59,1.41v16c0,.53.21,1.04.59,1.41.38.37.88.59,1.41.59s1.04-.21,1.41-.59c.38-.38.59-.88.59-1.41v-16c0-.53-.21-1.04-.59-1.41-.38-.38-.88-.59-1.41-.59ZM18,0c-3.29,0-6,2.71-6,6v2H2c-.53,0-1.04.21-1.41.59-.38.38-.59.88-.59,1.41s.21,1.04.59,1.41c.38.38.88.59,1.41.59h2v36c0,2.19,1.81,4,4,4h32c2.19,0,4-1.81,4-4V12h2c.53,0,1.04-.21,1.41-.59.37-.38.59-.88.59-1.41s-.21-1.04-.59-1.41c-.38-.38-.88-.59-1.41-.59h-10v-2c0-3.29-2.71-6-6-6h-12ZM18,4h12c1.13,0,2,.87,2,2v2h-16v-2c0-1.13.87-2,2-2ZM8,12h32v36H8V12Z"/>
  </g>
</svg>