<?xml version="1.0" encoding="UTF-8"?>
<svg id="Layer_2" data-name="Layer 2" xmlns="http://www.w3.org/2000/svg" viewBox="0 0 52 50">
  <defs>
    <style>
      .cls-1 {
        fill: #010101;
      }
    </style>
  </defs>
  <g id="Layer_1-2" data-name="Layer 1">
    <path class="cls-1" d="M14,26c1.1,0,2,.9,2,2v12c0,1.1-.9,2-2,2s-2-.9-2-2v-12c0-1.1.9-2,2-2ZM22,26c1.1,0,2,.9,2,2v12c0,1.1-.9,2-2,2s-2-.9-2-2v-12c0-1.1.9-2,2-2ZM30,26c1.1,0,2,.9,2,2v12c0,1.1-.9,2-2,2s-2-.9-2-2v-12c0-1.1.9-2,2-2ZM22,0c-3.23,0-6.19,1.17-8.37,3.12-1.26-.56-2.66-.87-4.13-.87C4.46,2.25,0,5.97,0,11c0,2.07.76,3.92,2,5.38v25.62c0,4.42,3.58,8,8,8h24c4.42,0,8-3.58,8-8v-4c2.65,0,5.2-1.05,7.07-2.93,1.88-1.88,2.93-4.42,2.93-7.07v-2c0-2.65-1.05-5.2-2.93-7.07-1.8-1.8-4.23-2.85-6.77-2.92,1.06-1.4,1.7-3.11,1.7-5,0-5.03-4.46-8.75-9.5-8.75-1.47,0-2.87.31-4.13.87-2.18-1.95-5.15-3.12-8.37-3.12ZM15.54,6.88c1.43-1.72,3.77-2.88,6.46-2.88s5.03,1.17,6.46,2.88c.66.79,1.81.95,2.66.38.92-.62,2.09-1.01,3.38-1.01,3.24,0,5.5,2.32,5.5,4.75s-2.26,4.75-5.5,4.75c-1.29,0-2.46-.38-3.38-1.01-.85-.57-2-.41-2.66.38-1.43,1.72-3.77,2.88-6.46,2.88s-5.03-1.17-6.46-2.88c-.66-.79-1.81-.95-2.66-.38-.92.62-2.09,1.01-3.38,1.01-3.24,0-5.5-2.32-5.5-4.75s2.26-4.75,5.5-4.75c1.29,0,2.46.38,3.38,1.01.85.57,2,.41,2.66-.38ZM6,42v-22.87c1.1.4,2.28.62,3.5.62,1.47,0,2.87-.31,4.13-.87,2.18,1.95,5.15,3.12,8.37,3.12s6.19-1.17,8.37-3.12c1.25.56,2.66.87,4.13.87,1.22,0,2.4-.22,3.5-.62v22.87c0,2.21-1.79,4-4,4H10c-2.21,0-4-1.79-4-4ZM42,34v-14c1.59,0,3.12.63,4.24,1.76,1.13,1.13,1.76,2.65,1.76,4.24v2c0,1.59-.63,3.12-1.76,4.24-1.13,1.13-2.65,1.76-4.24,1.76Z"/>
  </g>
</svg>