<?xml version="1.0" encoding="UTF-8"?>
<svg id="Layer_2" data-name="Layer 2" xmlns="http://www.w3.org/2000/svg" viewBox="0 0 52.03 25.18">
  <defs>
    <style>
      .cls-1 {
        fill: #010101;
      }
    </style>
  </defs>
  <g id="Layer_1-2" data-name="Layer 1">
    <path class="cls-1" d="M2.24.01c-.53-.06-1.06.1-1.47.43C.36.78.09,1.26.04,1.79c-.06.53.1,1.06.43,1.47,1.24,1.54,2.83,3.19,4.69,4.78L.27,16.53c-.13.23-.22.48-.25.74-.03.26-.02.53.05.78.07.25.19.49.35.7s.36.38.59.51c.23.13.48.22.74.25.26.03.53.02.78-.05.25-.07.49-.19.7-.35.21-.16.38-.36.51-.59l4.65-8.07c2.51,1.67,5.4,3.15,8.77,4.11l-1.45,8.27c-.09.52.03,1.06.33,1.49.3.43.77.73,1.29.82.52.09,1.06-.03,1.49-.33.43-.3.73-.77.82-1.29l1.43-8.12c1.57.24,3.22.37,4.95.37s3.36-.14,4.92-.37l1.43,8.12c.05.26.14.51.28.73s.32.41.54.56c.22.15.46.26.71.31.26.06.52.06.78.02.26-.05.51-.14.73-.28.22-.14.41-.32.56-.54.15-.22.26-.46.31-.71.06-.26.06-.52.02-.78l-1.45-8.26c3.38-.96,6.27-2.44,8.78-4.11l4.65,8.01c.13.23.31.43.52.59.21.16.45.28.7.34.25.07.52.08.78.05s.51-.12.74-.25c.23-.13.43-.31.59-.52.16-.21.28-.45.34-.7.07-.25.08-.52.05-.78-.03-.26-.12-.51-.25-.74l-4.88-8.42c1.87-1.6,3.46-3.25,4.71-4.8.33-.41.49-.94.43-1.47-.06-.53-.32-1.01-.73-1.34-.41-.33-.94-.49-1.47-.43-.53.06-1.01.32-1.34.73-3.97,4.91-11.07,11.03-22.44,11.03-2.22,0-4.27-.24-6.17-.65-.02,0-.04-.01-.06-.02h-.01C11.97,9.4,6.76,4.69,3.58.74,3.25.33,2.76.07,2.24.01Z"/>
  </g>
</svg>