<?xml version="1.0" encoding="UTF-8"?>
<svg id="Layer_2" data-name="Layer 2" xmlns="http://www.w3.org/2000/svg" viewBox="0 0 50 38">
  <defs>
    <style>
      .cls-1 {
        fill: #010101;
      }
    </style>
  </defs>
  <g id="Layer_1-2" data-name="Layer 1">
    <path class="cls-1" d="M12,0c-.53,0-1.04.21-1.41.59L.59,10.59c-.37.38-.59.88-.59,1.41s.21,1.04.59,1.41l10,10c.38.37.88.59,1.41.59s1.04-.21,1.41-.59c.38-.38.59-.88.59-1.41s-.21-1.04-.59-1.41L4.83,12,13.41,3.41c.38-.38.59-.88.59-1.41s-.21-1.04-.59-1.41S12.53,0,12,0ZM22,2c-.53,0-1.04.21-1.41.59-.38.38-.59.88-.59,1.41s.21,1.04.59,1.41c.38.38.88.59,1.41.59h26c.53,0,1.04-.21,1.41-.59.38-.38.59-.88.59-1.41s-.21-1.04-.59-1.41c-.37-.38-.88-.59-1.41-.59h-26ZM22,18c-.53,0-1.04.21-1.41.59-.38.38-.59.88-.59,1.41s.21,1.04.59,1.41c.38.38.88.59,1.41.59h26c.53,0,1.04-.21,1.41-.59.38-.38.59-.88.59-1.41s-.21-1.04-.59-1.41c-.37-.38-.88-.59-1.41-.59h-26ZM4,34c-.53,0-1.04.21-1.41.59-.38.38-.59.88-.59,1.41s.21,1.04.59,1.41c.38.37.88.59,1.41.59h44c.53,0,1.04-.21,1.41-.59s.59-.88.59-1.41-.21-1.04-.59-1.41-.88-.59-1.41-.59H4Z"/>
  </g>
</svg>