<?xml version="1.0" encoding="UTF-8"?>
<svg id="Layer_2" data-name="Layer 2" xmlns="http://www.w3.org/2000/svg" viewBox="0 0 52 52">
  <defs>
    <style>
      .cls-1 {
        fill: #010101;
      }
    </style>
  </defs>
  <g id="Layer_1-2" data-name="Layer 1">
    <path class="cls-1" d="M26,0c-.53,0-1.04.21-1.41.59-.38.38-.59.88-.59,1.41v8c0,.53.21,1.04.59,1.41.38.38.88.59,1.41.59s1.04-.21,1.41-.59c.38-.38.59-.88.59-1.41V2c0-.53-.21-1.04-.59-1.41-.38-.38-.88-.59-1.41-.59ZM9.02,7.03c-.53,0-1.04.21-1.41.59-.19.19-.33.41-.43.65-.1.24-.15.5-.15.77s.05.52.15.77c.1.24.25.46.43.65l5.65,5.65c.19.19.41.33.65.43.24.1.5.15.77.15s.52-.05.77-.15c.24-.1.46-.25.65-.43.19-.19.33-.41.43-.65.1-.24.15-.5.15-.77s-.05-.52-.15-.77c-.1-.24-.25-.46-.43-.65l-5.65-5.65c-.19-.19-.41-.33-.65-.43s-.5-.15-.77-.15ZM2,24c-.53,0-1.04.21-1.41.59-.38.38-.59.88-.59,1.41s.21,1.04.59,1.41c.38.38.88.59,1.41.59h8c.53,0,1.04-.21,1.41-.59.38-.38.59-.88.59-1.41s-.21-1.04-.59-1.41c-.38-.38-.88-.59-1.41-.59H2ZM42,24c-.53,0-1.04.21-1.41.59-.37.38-.59.88-.59,1.41s.21,1.04.59,1.41c.38.38.88.59,1.41.59h8c.53,0,1.04-.21,1.41-.59.37-.38.59-.88.59-1.41s-.21-1.04-.59-1.41c-.38-.38-.88-.59-1.41-.59h-8ZM14.67,35.33c-.53,0-1.04.21-1.41.59l-5.65,5.65c-.19.19-.33.41-.43.65-.1.24-.15.5-.15.77s.05.52.15.77c.1.24.25.46.43.65.19.19.41.33.65.43.24.1.5.15.77.15s.52-.05.77-.15c.24-.1.46-.25.65-.43l5.65-5.65c.37-.38.59-.88.59-1.41s-.21-1.04-.59-1.41c-.19-.19-.41-.33-.65-.43-.24-.1-.5-.15-.77-.15ZM37.33,35.33c-.53,0-1.04.21-1.41.59-.38.37-.59.88-.59,1.41s.21,1.04.59,1.41l5.65,5.65c.19.19.41.33.65.43.24.1.5.15.77.15s.52-.05.77-.15c.24-.1.46-.25.65-.43s.33-.41.43-.65c.1-.24.15-.5.15-.77s-.05-.52-.15-.77c-.1-.24-.25-.46-.43-.65l-5.65-5.65c-.37-.38-.88-.59-1.41-.59ZM26,40c-.53,0-1.04.21-1.41.59-.38.38-.59.88-.59,1.41v8c0,.53.21,1.04.59,1.41.38.37.88.59,1.41.59s1.04-.21,1.41-.59c.38-.38.59-.88.59-1.41v-8c0-.53-.21-1.04-.59-1.41-.38-.37-.88-.59-1.41-.59Z"/>
  </g>
</svg>