<?xml version="1.0" encoding="UTF-8"?>
<svg id="Layer_2" data-name="Layer 2" xmlns="http://www.w3.org/2000/svg" viewBox="0 0 60 42">
  <defs>
    <style>
      .cls-1 {
        fill: #010101;
        fill-rule: evenodd;
      }
    </style>
  </defs>
  <g id="Layer_1-2" data-name="Layer 1">
    <path class="cls-1" d="M22,8c1.1,0,2,.9,2,2v4h4c1.1,0,2,.9,2,2s-.9,2-2,2h-4v4c0,1.1-.9,2-2,2s-2-.9-2-2v-4h-4c-1.1,0-2-.9-2-2s.9-2,2-2h4v-4c0-1.1.9-2,2-2ZM1.17,1.17c.75-.75,1.77-1.17,2.83-1.17h38c1.1,0,2,.9,2,2v2h8.64c.8,0,1.58.23,2.24.68.66.45,1.18,1.09,1.47,1.83h0s3.48,8.7,3.48,8.7c.06.13.1.27.12.41.03.14.04.28.04.42v15.95c0,1.06-.42,2.08-1.17,2.83s-1.77,1.17-2.83,1.17h-3.25c-.89,3.45-4.02,6-7.75,6s-6.86-2.55-7.75-6h-14.5c-.89,3.45-4.02,6-7.75,6s-6.86-2.55-7.75-6h-3.25c-1.06,0-2.08-.42-2.83-1.17s-1.17-1.77-1.17-2.83V4C0,2.94.42,1.92,1.17,1.17ZM52.65,8h-8.65v6h11.05l-2.4-6ZM4,4h36v23.75c-1.33,1.07-2.31,2.55-2.75,4.25h-14.5c-.89-3.45-4.02-6-7.75-6s-6.86,2.55-7.75,6h-3.25V4ZM52.75,32h3.25v-14h-12v8.06c.33-.04.66-.06,1-.06,3.73,0,6.86,2.55,7.75,6ZM15,38c-2.21,0-4-1.79-4-4s1.79-4,4-4,4,1.79,4,4-1.79,4-4,4ZM41,34c0,2.21,1.79,4,4,4s4-1.79,4-4-1.79-4-4-4-4,1.79-4,4Z"/>
  </g>
</svg>