<?xml version="1.0" encoding="UTF-8"?>
<svg id="Layer_2" data-name="Layer 2" xmlns="http://www.w3.org/2000/svg" viewBox="0 0 62 52">
  <defs>
    <style>
      .cls-1 {
        fill: #010101;
      }
    </style>
  </defs>
  <g id="Layer_1-2" data-name="Layer 1">
    <path class="cls-1" d="M38,20c1.66,0,3-1.34,3-3s-1.34-3-3-3-3,1.34-3,3,1.34,3,3,3ZM24,20c1.66,0,3-1.34,3-3s-1.34-3-3-3-3,1.34-3,3,1.34,3,3,3ZM31,0C22.35,0,14.88,5.03,11.28,12.31l-5.26-3.04c-.46-.27-1-.34-1.52-.2-.51.14-.95.47-1.22.93-.13.23-.22.48-.25.74-.03.26-.02.53.05.78.07.25.18.49.34.7.16.21.36.38.59.52l5.81,3.36c-.53,1.88-.83,3.86-.83,5.91v2H2c-.53,0-1.04.21-1.41.59-.38.38-.59.88-.59,1.41s.21,1.04.59,1.41c.38.38.88.59,1.41.59h7v2c0,2.02.3,4,.83,5.91l-5.81,3.36c-.23.13-.43.31-.59.52s-.28.45-.34.7c-.07.25-.08.52-.05.78.03.26.12.51.25.74.27.46.7.79,1.22.93.51.14,1.06.06,1.52-.2l5.25-3.04c1.06,2.15,2.44,4.14,4.17,5.86,4.28,4.28,9.9,6.42,15.52,6.43.01,0,.02.01.04.01.01,0,.02,0,.04-.01,5.62,0,11.24-2.15,15.52-6.43,1.72-1.72,3.11-3.72,4.17-5.86l5.25,3.04c.46.27,1.01.34,1.52.2.51-.14.95-.47,1.21-.93.13-.23.22-.48.25-.74.03-.26.02-.52-.05-.78-.07-.25-.18-.49-.34-.7-.16-.21-.36-.38-.59-.52l-5.8-3.36c.53-1.91.83-3.89.83-5.91v-2h7c.53,0,1.04-.21,1.41-.59.37-.38.59-.88.59-1.41s-.21-1.04-.59-1.41c-.38-.38-.88-.59-1.41-.59h-7v-2c0-2.05-.3-4.03-.83-5.91l5.81-3.36c.23-.13.43-.31.59-.51.16-.21.28-.45.34-.7.07-.25.08-.52.05-.78s-.12-.51-.25-.74c-.27-.46-.7-.79-1.21-.93-.51-.14-1.06-.06-1.52.2l-5.26,3.04C47.12,5.03,39.65,0,31,0ZM31,4c9.96,0,18,8.04,18,18v2H13v-2c0-9.96,8.04-18,18-18ZM13,28h16v19.89c-3.91-.44-7.72-2.15-10.73-5.16-3.38-3.38-5.27-7.95-5.27-12.73v-2ZM33,28h16v2c0,4.77-1.9,9.35-5.27,12.73-3.01,3.01-6.81,4.72-10.73,5.16v-19.89Z"/>
  </g>
</svg>