<?xml version="1.0" encoding="UTF-8"?>
<svg id="Layer_2" data-name="Layer 2" xmlns="http://www.w3.org/2000/svg" viewBox="0 0 51.1 54.3">
  <defs>
    <style>
      .cls-1 {
        fill: #010101;
        fill-rule: evenodd;
      }
    </style>
  </defs>
  <g id="Layer_1-2" data-name="Layer 1">
    <path class="cls-1" d="M26.4,3.63c8.26,1.02,15.5,1.91,21.4-3.15.59-.51,1.43-.62,2.14-.3.71.33,1.16,1.04,1.16,1.82v28c0,.45-.15.88-.43,1.23-3.38,4.3-7.05,6.24-10.89,6.84-3.64.57-7.3-.12-10.57-.72l-.15-.03c-3.44-.64-6.47-1.18-9.38-.73-2.56.4-5.14,1.59-7.73,4.6l2.84,10.6c.29,1.07-.35,2.16-1.41,2.45-1.07.29-2.16-.35-2.45-1.41l-3.1-11.55s-.01-.05-.02-.08l-3.98-14.87s-.02-.06-.02-.09L.08,12.29c-.03-.11-.06-.23-.07-.34-.02-.14-.02-.28,0-.42.04-.36.17-.72.42-1.03C7.36,1.67,16.76,2.46,25.17,3.48c.41.05.82.1,1.22.15ZM7.96,26.24l2.8,10.45c2.64-2.4,5.43-3.61,8.32-4.06.64-.1,1.29-.16,1.93-.19l-2.98-11.1c-.62.03-1.24.1-1.84.19-2.88.46-5.64,1.73-8.23,4.71ZM29.65,33.36c-1.42-.26-2.91-.54-4.45-.73l-2.99-11.16c1.45.14,2.95.35,4.52.58l.15.02c2.35.34,4.84.7,7.36.75l.81,11.38c-1.66-.15-3.39-.47-5.24-.81l-.15-.03ZM39.05,34.14s.09-.01.13-.02c2.62-.41,5.27-1.66,7.93-4.83v-10.78c-2.69,2.36-5.61,3.56-8.64,4.04-.08.01-.16.03-.24.04l.83,11.55ZM37.94,18.59c3.07-.51,6.01-1.96,8.75-5.45.12-.16.26-.29.42-.4v-6.93c-3.15,1.74-6.51,2.43-9.89,2.58l.73,10.19ZM33.2,8.36c-2.35-.13-4.67-.42-6.9-.71-.54-.07-1.07-.14-1.6-.2-2.23-.27-4.36-.5-6.39-.56l2.81,10.48c2.06.12,4.1.42,6.04.7l.15.02c2.34.34,4.55.65,6.65.72l-.75-10.45ZM4.2,12.21c2.89-3.31,6.24-4.72,10-5.17l2.78,10.36c-.48.04-.95.1-1.42.18-3.09.49-6.06,1.73-8.8,4.18l-2.56-9.55Z"/>
  </g>
</svg>