<?xml version="1.0" encoding="UTF-8"?>
<svg id="Layer_2" data-name="Layer 2" xmlns="http://www.w3.org/2000/svg" viewBox="0 0 52 44">
  <defs>
    <style>
      .cls-1 {
        fill: #010101;
        fill-rule: evenodd;
      }
    </style>
  </defs>
  <g id="Layer_1-2" data-name="Layer 1">
    <path class="cls-1" d="M22.41,21.41c.78-.78.78-2.05,0-2.83-.78-.78-2.05-.78-2.83,0l-6,6c-.78.78-.78,2.05,0,2.83l6,6c.78.78,2.05.78,2.83,0,.78-.78.78-2.05,0-2.83l-4.59-4.59,4.59-4.59ZM29.59,18.59c.78-.78,2.05-.78,2.83,0l6,6c.78.78.78,2.05,0,2.83l-6,6c-.78.78-2.05.78-2.83,0-.78-.78-.78-2.05,0-2.83l4.59-4.59-4.59-4.59c-.78-.78-.78-2.05,0-2.83ZM0,4C0,1.79,1.79,0,4,0h44c2.21,0,4,1.79,4,4v36c0,2.21-1.79,4-4,4H4c-2.21,0-4-1.79-4-4V4ZM48,4v4H4v-4h44ZM48,12H4v28h44V12Z"/>
  </g>
</svg>