<?xml version="1.0" encoding="UTF-8"?>
<svg id="Layer_2" data-name="Layer 2" xmlns="http://www.w3.org/2000/svg" viewBox="0 0 56 42">
  <defs>
    <style>
      .cls-1 {
        fill: #010101;
      }
    </style>
  </defs>
  <g id="Layer_1-2" data-name="Layer 1">
    <path class="cls-1" d="M24,8c-.53,0-1.04.21-1.41.59-.38.38-.59.88-.59,1.41s.21,1.04.59,1.41c.38.38.88.59,1.41.59h8c.53,0,1.04-.21,1.41-.59.38-.38.59-.88.59-1.41s-.21-1.04-.59-1.41c-.38-.38-.88-.59-1.41-.59h-8ZM10,0c-3.29,0-6,2.71-6,6v24h-2c-.53,0-1.04.21-1.41.59-.38.37-.59.88-.59,1.41v4c0,3.29,2.71,6,6,6,0,0,0,0,0,0h44c1.59,0,3.12-.63,4.24-1.76,1.12-1.12,1.76-2.65,1.76-4.24v-4c0-.53-.21-1.04-.59-1.41-.37-.38-.88-.59-1.41-.59h-2V6s0,0,0,0c0-3.29-2.71-6-6-6H10ZM10,4h36c1.13,0,2,.87,2,2v24H8V6c0-1.13.87-2,2-2ZM4,34h48v2c0,.53-.21,1.04-.59,1.41s-.88.59-1.41.59H6c-1.13,0-2-.87-2-2v-2Z"/>
  </g>
</svg>