<?xml version="1.0" encoding="UTF-8"?>
<svg id="Layer_2" data-name="Layer 2" xmlns="http://www.w3.org/2000/svg" viewBox="0 0 44 51">
  <defs>
    <style>
      .cls-1 {
        fill: #010101;
      }
    </style>
  </defs>
  <g id="Layer_1-2" data-name="Layer 1">
    <path class="cls-1" d="M1.17,1.17c.75-.75,1.77-1.17,2.83-1.17h24c.53,0,1.04.21,1.41.59l14,14c.36.36.59.86.59,1.41v10c0,1.1-.9,2-2,2s-2-.9-2-2v-8h-12c-1.1,0-2-.9-2-2V4H4v22c0,1.1-.9,2-2,2s-2-.9-2-2V4C0,2.94.42,1.92,1.17,1.17ZM30,14v-7.17l7.17,7.17h-7.17ZM36,35c0-1.1-.9-2-2-2s-2,.9-2,2v9.17l-4.59-4.59c-.78-.78-2.05-.78-2.83,0-.78.78-.78,2.05,0,2.83l8,8c.19.19.41.34.65.43.23.1.49.15.75.15h.02c.51,0,1.01-.2,1.4-.59l8-8c.78-.78.78-2.05,0-2.83-.78-.78-2.05-.78-2.83,0l-4.59,4.59v-9.17ZM3.54,34.72c-.54-.65-1.43-.89-2.22-.6-.79.29-1.32,1.04-1.32,1.88v12c0,1.1.9,2,2,2s2-.9,2-2v-6.48l3.46,4.16c.38.46.94.72,1.54.72s1.16-.26,1.54-.72l3.46-4.16v6.48c0,1.1.9,2,2,2s2-.9,2-2v-12c0-.84-.53-1.59-1.32-1.88-.79-.29-1.68-.05-2.22.6l-5.46,6.56-5.46-6.56Z"/>
  </g>
</svg>