<?xml version="1.0" encoding="UTF-8"?>
<svg id="Layer_2" data-name="Layer 2" xmlns="http://www.w3.org/2000/svg" viewBox="0 0 53.38 51.85">
  <defs>
    <style>
      .cls-1 {
        fill: #010101;
      }
    </style>
  </defs>
  <g id="Layer_1-2" data-name="Layer 1">
    <path class="cls-1" d="M27.36,8c-.74,0-1.49.05-2.23.14-.26.03-.51.11-.74.24-.23.13-.43.3-.59.51-.16.21-.28.44-.35.7-.07.25-.09.52-.06.78.03.26.11.51.24.74.13.23.3.43.51.59.21.16.44.28.7.35.25.07.52.09.78.06.59-.07,1.18-.11,1.77-.11,7.75,0,13.99,6.25,13.99,14,0,2.59-.16,5.18-.49,7.75-.03.26-.01.53.06.78.07.25.19.49.35.7.16.21.36.38.59.51.23.13.48.21.74.25.26.03.53.01.78-.06.25-.07.49-.19.7-.35.21-.16.38-.36.51-.59.13-.23.21-.48.25-.74.34-2.74.51-5.49.52-8.25,0,0,0,0,0,0,0-9.92-8.08-18-18-18h-.01ZM41.84,40.06c-.25-.06-.52-.08-.78-.04-.26.04-.51.13-.74.26-.23.13-.42.31-.58.52-.16.21-.27.45-.34.7-.36,1.43-.78,2.86-1.23,4.24-.08.25-.12.51-.1.77.02.26.09.52.21.75.12.23.28.44.48.62.2.17.43.3.68.39.25.08.51.12.77.1.26-.02.52-.09.75-.21.23-.12.44-.28.62-.48s.3-.43.39-.68c.49-1.48.93-3,1.32-4.51.13-.51.05-1.06-.22-1.52-.27-.46-.71-.79-1.23-.92ZM27.37,0C13.04,0,1.37,11.66,1.37,26h0c0,2.5-.42,4.98-1.26,7.33-.18.5-.15,1.05.08,1.53.23.48.64.85,1.13,1.03.5.18,1.05.15,1.53-.08.48-.23.85-.64,1.03-1.13.99-2.78,1.5-5.72,1.49-8.67C5.37,13.83,15.2,4,27.37,4c12.17,0,22,9.83,22,22,0,4.57-.44,9.13-1.31,13.62-.05.26-.05.52,0,.78.05.26.15.5.3.72.15.22.34.4.55.55.22.15.46.25.72.3.52.1,1.06,0,1.5-.31.44-.3.74-.76.84-1.28.92-4.74,1.38-9.55,1.39-14.38,0,0,0,0,0,0C53.38,11.67,41.71,0,27.37,0ZM18.98,32.04c-.52-.11-1.06,0-1.5.29-.44.29-.75.75-.86,1.27-.82,4-2.27,7.84-4.3,11.38-.13.23-.21.48-.25.74-.03.26-.02.53.05.78.07.25.19.49.35.7.16.21.36.38.59.51.23.13.48.21.74.25.26.03.53.01.78-.05.25-.07.49-.19.7-.35.21-.16.38-.36.51-.59,2.24-3.91,3.84-8.15,4.75-12.57.05-.26.05-.52,0-.78-.05-.26-.15-.5-.29-.72-.14-.22-.33-.41-.55-.56-.22-.15-.46-.25-.72-.3ZM27.37,16c-5.5,0-10,4.5-10,10,0,.53.21,1.04.59,1.41.38.38.88.59,1.41.59s1.04-.21,1.41-.59c.38-.38.59-.88.59-1.41,0-3.34,2.66-6,6-6,3.34,0,6,2.66,6,6,0,0,0,0,0,0,.02,7.95-1.74,15.81-5.13,23-.23.48-.25,1.03-.07,1.53.18.5.55.91,1.03,1.13.48.23,1.03.25,1.53.07.5-.18.91-.55,1.13-1.03,3.65-7.72,5.53-16.16,5.52-24.7,0-5.5-4.5-10-10-10ZM17.59,11.51c-.26-.03-.53,0-.78.07-.25.07-.49.2-.69.36-4.26,3.42-6.74,8.59-6.75,14.06h0c0,4.63-1.06,9.19-3.12,13.34-.24.47-.27,1.02-.1,1.53.17.5.53.92,1.01,1.15.24.12.49.19.75.2.26.02.53-.02.77-.1.25-.08.48-.22.68-.39.2-.17.36-.38.48-.62,2.33-4.7,3.54-9.87,3.53-15.12h0c0-4.25,1.93-8.27,5.25-10.94.2-.16.38-.37.5-.6s.21-.48.23-.74c.03-.26,0-.53-.07-.78-.07-.25-.2-.49-.36-.69-.16-.2-.37-.38-.6-.5-.23-.13-.48-.21-.74-.23ZM27.37,24c-.26,0-.52.05-.77.15-.24.1-.46.25-.65.43-.19.19-.33.41-.43.65-.1.24-.15.5-.15.77.01,7.79-1.97,15.46-5.75,22.28-.13.23-.21.48-.24.74-.03.26,0,.53.06.78.07.25.19.49.36.69.16.21.37.38.6.5.23.13.48.21.74.24.26.03.53,0,.78-.06.25-.07.49-.19.69-.36.21-.16.38-.37.5-.6,4.11-7.41,6.26-15.75,6.25-24.22,0-.26-.05-.52-.15-.77-.1-.24-.25-.46-.43-.65-.19-.19-.41-.33-.65-.43-.24-.1-.5-.15-.77-.15Z"/>
  </g>
</svg>