<?xml version="1.0" encoding="UTF-8"?>
<svg id="Layer_2" data-name="Layer 2" xmlns="http://www.w3.org/2000/svg" viewBox="0 0 50.06 47.97">
  <defs>
    <style>
      .cls-1 {
        fill: #010101;
      }
    </style>
  </defs>
  <g id="Layer_1-2" data-name="Layer 1">
    <path class="cls-1" d="M24.23,0C16.48-.06,8.76,3.58,4.04,10.64c-6.85,10.25-4.8,24.07,4.73,31.89,9.53,7.82,23.49,7.13,32.2-1.59.37-.38.59-.88.58-1.41,0-.53-.21-1.04-.59-1.41-.38-.37-.88-.59-1.41-.58-.53,0-1.04.21-1.41.59-7.28,7.29-18.87,7.86-26.84,1.33C3.34,32.9,1.64,21.43,7.37,12.86h0C14.4,2.34,29.2.89,38.14,9.84h0l8.5,8.48c.19.19.41.33.65.43.24.1.5.15.77.15.26,0,.52-.05.77-.15.24-.1.46-.25.65-.43.37-.38.58-.88.58-1.41,0-.53-.21-1.04-.59-1.41l-8.5-8.47C36.3,2.34,30.26.05,24.23,0ZM48.06,2.9c-.53,0-1.04.21-1.41.59-.38.38-.59.88-.59,1.41v10h-10c-.53,0-1.04.21-1.41.59-.38.38-.59.88-.59,1.41,0,.26.05.52.15.77.1.24.25.46.43.65.19.19.41.33.65.43.24.1.5.15.77.15h12c.53,0,1.04-.21,1.41-.59.37-.38.58-.88.58-1.41V4.9c0-.53-.21-1.04-.59-1.41-.38-.38-.88-.59-1.41-.59Z"/>
  </g>
</svg>