<?xml version="1.0" encoding="UTF-8"?>
<svg id="Layer_2" data-name="Layer 2" xmlns="http://www.w3.org/2000/svg" viewBox="0 0 60.35 48">
  <defs>
    <style>
      .cls-1 {
        fill: #010101;
      }
    </style>
  </defs>
  <g id="Layer_1-2" data-name="Layer 1">
    <path class="cls-1" d="M51.08,3.83c-2.21.12-4.68.57-7.38,1.31-.51.14-.95.48-1.21.94-.26.46-.33,1.01-.19,1.52.07.25.19.49.35.7.16.21.36.38.59.51.23.13.48.21.74.25.26.03.53.01.78-.06,3.32-.91,6.19-1.29,8.21-1.18,2.01.12,2.91.68,3.21,1.18.25.44.32,1.3-.34,2.82-.67,1.53-2.03,3.5-3.99,5.63-3.92,4.25-10.16,9.14-17.66,13.47-7.5,4.33-14.86,7.29-20.5,8.56-2.82.63-5.21.83-6.87.65-1.65-.18-2.36-.68-2.62-1.12-.28-.49-.32-1.55.58-3.35.91-1.81,2.67-4.1,5.12-6.53.38-.37.59-.88.59-1.41,0-.53-.21-1.04-.58-1.42-.37-.38-.88-.59-1.41-.59-.53,0-1.04.21-1.42.58-2.65,2.63-4.66,5.16-5.88,7.57-1.21,2.42-1.72,4.98-.47,7.14h0c1.13,1.95,3.29,2.83,5.64,3.1,2.35.26,5.09-.02,8.19-.72,6.2-1.39,13.82-4.5,21.62-8.99,7.8-4.5,14.29-9.55,18.6-14.22,2.15-2.34,3.77-4.57,4.72-6.74.95-2.16,1.26-4.48.14-6.42h0c-1.26-2.16-3.73-3.01-6.43-3.17-.68-.04-1.38-.04-2.12,0ZM30.18,0C16.95,0,6.18,10.77,6.18,24s10.77,24,24,24,24-10.77,24-24S43.41,0,30.18,0ZM30.18,4c11.07,0,20,8.93,20,20s-8.93,20-20,20-20-8.93-20-20S19.11,4,30.18,4Z"/>
  </g>
</svg>