<?xml version="1.0" encoding="UTF-8"?>
<svg id="Layer_2" data-name="Layer 2" xmlns="http://www.w3.org/2000/svg" viewBox="0 0 49 50">
  <defs>
    <style>
      .cls-1 {
        fill: #010101;
      }
    </style>
  </defs>
  <g id="Layer_1-2" data-name="Layer 1">
    <path class="cls-1" d="M1.17,1.17c.75-.75,1.77-1.17,2.83-1.17h24c.53,0,1.04.21,1.42.59l14,14c.36.36.58.86.58,1.41v10c0,1.1-.9,2-2,2s-2-.9-2-2v-8h-12c-1.1,0-2-.9-2-2V4H4v22c0,1.1-.9,2-2,2s-2-.9-2-2V4C0,2.94.42,1.92,1.17,1.17ZM30,14v-7.17l7.17,7.17h-7.17ZM4.6,34.8c-.66-.88-1.92-1.06-2.8-.4-.88.66-1.06,1.92-.4,2.8l3.6,4.8-3.6,4.8c-.66.88-.48,2.14.4,2.8.88.66,2.14.48,2.8-.4l2.9-3.87,2.9,3.87c.66.88,1.92,1.06,2.8.4.88-.66,1.06-1.92.4-2.8l-3.6-4.8,3.6-4.8c.66-.88.48-2.14-.4-2.8-.88-.66-2.14-.48-2.8.4l-2.9,3.87-2.9-3.87ZM40,34c1.1,0,2,.9,2,2v10h5c1.1,0,2,.9,2,2s-.9,2-2,2h-7c-1.1,0-2-.9-2-2v-12c0-1.1.9-2,2-2ZM19.39,34.1c.83-.27,1.73.03,2.24.74l4.37,6.12,4.37-6.12c.51-.71,1.41-1.01,2.24-.74.83.27,1.39,1.04,1.39,1.9v12c0,1.1-.9,2-2,2s-2-.9-2-2v-5.76l-2.37,3.32c-.38.53-.98.84-1.63.84s-1.25-.31-1.63-.84l-2.37-3.32v5.76c0,1.1-.9,2-2,2s-2-.9-2-2v-12c0-.87.56-1.64,1.39-1.9Z"/>
  </g>
</svg>