<?xml version="1.0" encoding="UTF-8"?>
<svg id="Layer_2" data-name="Layer 2" xmlns="http://www.w3.org/2000/svg" viewBox="0 0 63.61 44.52">
  <defs>
    <style>
      .cls-1 {
        fill: #010101;
        fill-rule: evenodd;
      }
    </style>
  </defs>
  <g id="Layer_1-2" data-name="Layer 1">
    <path class="cls-1" d="M41.01,19.42c.23.35.35.84.35,1.47s-.12,1.13-.35,1.48c-.23.35-.58.52-1.06.52s-.83-.17-1.05-.52c-.23-.35-.35-.85-.35-1.48s.12-1.13.34-1.47c.23-.35.57-.51,1.06-.51s.83.17,1.06.51ZM55.92,20.29h-2.63c.05-.35.15-.64.3-.87.23-.35.57-.53,1.06-.53s.8.19,1.03.53c.15.23.22.53.25.87ZM23.77,20.29h2.63c-.03-.34-.09-.64-.24-.87-.23-.35-.55-.53-1.03-.53s-.83.19-1.05.53c-.15.23-.24.52-.3.87ZM16.88,22.92c-.75.05-1.08-.22-1.08-.21-.14-.12-.16-.14-.21-.22-.07-.11-.11-.27-.11-.48,0-.32.11-.56.33-.71,0,0,.32-.28,1.07-.27.53,0,1,.08,1,.08v1.68s-.47.1-.99.13ZM26.47,4.86c2.05-2.14,4.91-3.46,8.07-3.46,4.2,0,7.86,2.34,9.81,5.82,1.75-.78,3.64-1.18,5.55-1.18,7.57,0,13.71,6.19,13.71,13.83s-6.14,13.83-13.71,13.83c-.93,0-1.83-.09-2.7-.27-1.72,3.06-4.99,5.13-8.75,5.13-1.57,0-3.06-.36-4.38-1.01-1.74,4.1-5.8,6.97-10.53,6.97s-9.12-3.12-10.73-7.49c-.72.15-1.45.23-2.18.23C4.75,37.26,0,32.46,0,26.54c0-1.88.48-3.72,1.41-5.35.93-1.63,2.27-2.99,3.89-3.94-.67-1.55-1.02-3.22-1.02-4.91C4.29,5.52,9.82,0,16.65,0c1.9,0,3.78.43,5.48,1.28,1.7.84,3.19,2.07,4.34,3.58ZM9.21,23.09l.26-.71c.04-.12.13-.08.17-.06.03.02.06.04.09.06.04.02.08.05.13.08.76.48,1.46.48,1.68.48.57,0,.92-.3.92-.71v-.02c0-.44-.54-.61-1.17-.8l-.14-.04c-.86-.24-1.78-.6-1.78-1.69v-.02c0-1.03.83-1.76,2.03-1.76h.13c.7,0,1.38.2,1.87.5.04.03.09.08.06.15l-.26.71c-.05.12-.17.04-.17.04-.51-.27-1.08-.41-1.66-.43-.51,0-.83.27-.83.63v.02c0,.42.56.61,1.2.82l.11.03c.86.27,1.77.65,1.77,1.68v.02c0,1.12-.81,1.81-2.12,1.81-.64,0-1.25-.1-1.9-.44l-.09-.05c-.09-.05-.18-.1-.27-.17,0,0,0,0,0-.01-.02-.02-.05-.05-.02-.13ZM28.31,23.09l.26-.71c.04-.12.15-.07.17-.06l.08.05s.08.05.14.09c.76.48,1.46.48,1.68.48.57,0,.92-.3.92-.71v-.02c0-.44-.54-.61-1.17-.8l-.14-.04c-.86-.24-1.78-.6-1.78-1.69v-.02c0-1.03.83-1.76,2.03-1.76h.13c.7,0,1.38.2,1.87.5.04.03.09.08.06.15-.02.06-.24.65-.26.71-.05.12-.17.04-.17.04-.51-.27-1.08-.41-1.66-.43-.51,0-.83.27-.83.63v.02c0,.43.56.61,1.2.82l.11.03c.86.27,1.77.65,1.77,1.68v.02c0,1.12-.81,1.81-2.11,1.81-.64,0-1.25-.1-1.9-.44l-.09-.05c-.09-.05-.18-.1-.27-.17,0,0,0,0,0-.01-.02-.02-.05-.05-.02-.13ZM42.44,19.73c.11.36.16.75.16,1.17s-.05.81-.16,1.17c-.1.35-.27.67-.49.95-.23.27-.51.49-.84.63-.33.15-.73.23-1.17.23s-.83-.08-1.17-.23c-.32-.14-.61-.36-.84-.63-.23-.28-.4-.6-.49-.95-.11-.38-.16-.77-.16-1.17,0-.42.05-.81.16-1.17.11-.36.27-.68.49-.95.23-.27.52-.49.84-.64.33-.16.72-.23,1.17-.23s.83.08,1.17.23c.33.16.61.37.84.64.22.27.39.58.49.95ZM51.39,22.73l.27.74c.03.09-.04.13-.04.13-.41.16-.99.27-1.54.27-.94,0-1.67-.27-2.15-.81-.48-.54-.72-1.26-.72-2.17,0-.42.06-.81.18-1.17.12-.36.3-.68.53-.95.24-.27.54-.49.88-.64.35-.16.76-.23,1.21-.23.31,0,.58.02.82.05.25.04.59.13.73.18.03,0,.1.04.07.13-.06.18-.12.32-.17.47h0s-.1.27-.1.27c-.04.11-.13.08-.13.08-.36-.11-.7-.16-1.15-.16-.54,0-.94.18-1.21.53-.27.35-.42.82-.42,1.44,0,.68.17,1.18.47,1.49.3.31.72.47,1.25.47.21,0,.42-.01.6-.04.18-.03.35-.08.51-.15,0,0,.1-.04.14.07ZM57.07,21.1h0c0,.11-.11.11-.11.11h-3.69c.02.56.16.95.43,1.22.27.26.69.43,1.26.43.8,0,1.18-.14,1.44-.24l.07-.03s.1-.04.14.06l.24.68c.05.11,0,.15-.03.18-.23.13-.79.37-1.86.37-.52,0-.97-.07-1.34-.22-.35-.13-.67-.34-.93-.61-.25-.27-.43-.59-.53-.94-.11-.38-.17-.78-.17-1.18,0-.42.05-.81.16-1.18.11-.37.28-.69.5-.96.23-.28.52-.5.85-.65.34-.16.76-.24,1.22-.24.39,0,.75.08,1.05.21.23.1.46.28.7.53.15.16.38.51.47.86.22.78.13,1.46.11,1.57ZM27.54,21.1h0c0,.11-.11.11-.11.11h-3.69c.02.56.16.95.43,1.22.27.26.69.43,1.26.43.8,0,1.18-.14,1.44-.24l.07-.03s.1-.04.14.06l.24.68c.05.11,0,.15-.03.18-.23.13-.79.37-1.86.37-.52,0-.97-.07-1.34-.22-.35-.13-.67-.34-.93-.61-.25-.27-.43-.59-.53-.94-.11-.38-.17-.78-.17-1.18,0-.42.05-.81.16-1.18.1-.35.27-.68.5-.96.23-.28.52-.5.85-.65.34-.16.76-.24,1.22-.24.36,0,.72.07,1.06.21.23.1.46.28.7.53.15.16.38.51.47.86.22.78.13,1.46.11,1.57ZM17.26,20.12s.29.03.61.07v-.16c0-.49-.1-.72-.3-.88-.21-.16-.51-.24-.91-.24,0,0-.9-.01-1.61.37-.03.02-.06.03-.06.03,0,0-.09.03-.12-.06l-.26-.7c-.04-.1.03-.15.03-.15.33-.26,1.14-.42,1.14-.42.33-.06.66-.09.99-.09.74,0,1.31.17,1.69.51.39.34.59.89.59,1.63v3.37s0,.1-.08.12c0,0-.14.04-.26.07-.12.03-.57.12-.93.18-.37.06-.74.09-1.12.09s-.69-.03-.98-.1c-.27-.06-.53-.17-.75-.33-.21-.15-.37-.35-.48-.58-.11-.23-.17-.51-.17-.84s.07-.61.2-.85c.13-.24.31-.45.54-.61.23-.16.49-.28.77-.36.29-.08.59-.12.91-.12.23,0,.43,0,.58.02ZM47,18.22c-.03.1-.21.61-.28.77-.02.06-.06.11-.13.1,0,0-.21-.05-.4-.05-.13,0-.32.02-.49.07-.17.05-.33.15-.45.27-.13.13-.24.31-.32.54-.08.23-.12.6-.12.97v2.75s0,.03,0,.04c0,.01-.01.03-.02.04-.01.01-.02.02-.04.02-.01,0-.03,0-.04,0h-.97s-.03,0-.04,0c-.01,0-.03-.01-.04-.02-.01-.01-.02-.02-.02-.04,0-.01,0-.03,0-.04v-5.5c0-.06.05-.11.11-.11h.94c.06,0,.11.05.11.11v.45c.14-.19.39-.36.62-.46.23-.1.49-.18.95-.15.24.01.56.08.62.11.01,0,.02.01.03.02,0,0,.02.02.02.03,0,.01,0,.03,0,.04,0,.01,0,.03,0,.04ZM37.91,15.67s.1.04.07.13l-.28.77c-.02.06-.04.09-.16.06-.16-.05-.32-.08-.49-.08-.15,0-.28.02-.4.06-.12.04-.22.1-.31.19-.11.11-.2.24-.26.39-.11.33-.17.67-.19.79v.04s1.17,0,1.17,0c.1,0,.13.05.12.12l-.14.77c-.02.11-.12.11-.12.11h-1.21l-.83,4.7c-.07.42-.18.84-.32,1.24-.13.34-.26.59-.48.83-.18.21-.42.38-.68.47-.26.09-.57.14-.9.14-.16,0-.34,0-.54-.05-.11-.03-.23-.06-.34-.1-.05-.02-.08-.07-.06-.15.03-.07.24-.67.27-.75.04-.09.13-.06.13-.06.07.03.11.05.2.06.09.02.21.03.3.03.16,0,.31-.02.43-.06.15-.05.24-.14.34-.26.1-.13.18-.3.26-.53.08-.23.16-.54.22-.91l.83-4.61h-.81c-.1,0-.13-.05-.12-.12l.14-.77c.02-.11.13-.11.13-.11h.84l.05-.25c.13-.74.37-1.3.74-1.67.37-.37.89-.56,1.56-.56.19,0,.36.01.5.04.14.03.25.05.36.09ZM21.44,23.64c0,.06-.04.11-.11.11h-.98c-.06,0-.11-.05-.11-.11v-7.87c0-.06.04-.11.1-.11h.98c.06,0,.11.05.11.11v7.87Z"/>
  </g>
</svg>