<?xml version="1.0" encoding="UTF-8"?>
<svg id="Layer_2" data-name="Layer 2" xmlns="http://www.w3.org/2000/svg" viewBox="0 0 56 40">
  <defs>
    <style>
      .cls-1 {
        fill: #010101;
      }
    </style>
  </defs>
  <g id="Layer_1-2" data-name="Layer 1">
    <path class="cls-1" d="M26,28c-.53,0-1.04.21-1.41.59-.38.38-.59.88-.59,1.41s.21,1.04.59,1.41c.38.37.88.59,1.41.59h4c.53,0,1.04-.21,1.41-.59.38-.38.59-.88.59-1.41s-.21-1.04-.59-1.41c-.38-.37-.88-.59-1.41-.59h-4ZM38,28c-.53,0-1.04.21-1.41.59-.37.38-.59.88-.59,1.41s.21,1.04.59,1.41c.38.37.88.59,1.41.59h8c.53,0,1.04-.21,1.41-.59.37-.38.59-.88.59-1.41s-.21-1.04-.59-1.41c-.38-.37-.88-.59-1.41-.59h-8ZM4,0C1.81,0,0,1.81,0,4v32c0,2.19,1.81,4,4,4h48c2.19,0,4-1.81,4-4V4c0-2.19-1.81-4-4-4H4ZM4,4h48v6.22H4v-6.22ZM4,14.22h48v21.78H4V14.22Z"/>
  </g>
</svg>