<?xml version="1.0" encoding="UTF-8"?>
<svg id="Layer_2" data-name="Layer 2" xmlns="http://www.w3.org/2000/svg" viewBox="0 0 57.99 52">
  <defs>
    <style>
      .cls-1 {
        fill: #010101;
      }
    </style>
  </defs>
  <g id="Layer_1-2" data-name="Layer 1">
    <path class="cls-1" d="M34.16,0c-.5-.04-1,.11-1.39.42l-9.95,7.75c-.42.33-.69.8-.76,1.33-.07.53.08,1.06.41,1.48.16.21.36.38.59.51.23.13.48.21.74.25.26.03.53.01.78-.06.25-.07.49-.19.7-.35l6.72-5.23v14.61c0,.53.21,1.04.59,1.41.38.38.88.59,1.41.59s1.04-.21,1.41-.59c.37-.38.59-.88.59-1.41V2c0-.5-.19-.99-.53-1.35-.34-.37-.81-.6-1.31-.64ZM8.1,2c-.53-.03-1.05.16-1.44.52-.39.36-.63.85-.65,1.38-.03.53.16,1.05.52,1.44l7.87,8.65H4c-2.19,0-4,1.81-4,4v16h0c0,2.19,1.81,4,4,4h11.31l17.46,13.58c.3.23.65.37,1.02.41s.75-.03,1.08-.19c.34-.16.62-.42.82-.74.2-.32.3-.68.3-1.06v-12.23l10.52,11.57c.36.39.85.63,1.38.65.53.03,1.05-.16,1.44-.52.39-.36.63-.85.65-1.38s-.16-1.05-.52-1.44L9.48,2.65c-.36-.39-.85-.63-1.38-.65ZM18,17.97l14,15.4v12.54l-14-10.89v-17.05ZM4,18h10v16H4v-16ZM50.72,11.28c-.26,0-.52.05-.77.15-.24.1-.46.25-.65.43-.19.19-.33.41-.43.65-.1.24-.15.5-.15.77,0,.26.05.52.15.77.1.24.25.46.43.65,6.27,6.26,6.27,16.36,0,22.62-.19.19-.33.41-.43.65-.1.24-.15.5-.15.77,0,.26.05.52.15.77.1.24.25.46.43.65s.41.33.65.43.5.15.77.15c.26,0,.52-.05.77-.15.24-.1.46-.25.65-.43,7.81-7.79,7.81-20.49,0-28.28-.19-.19-.41-.33-.65-.43-.24-.1-.5-.15-.77-.15ZM43.65,18.35c-.53,0-1.04.21-1.41.59-.37.38-.58.88-.58,1.42,0,.53.21,1.04.59,1.41,2.36,2.35,2.36,6.11,0,8.47-.38.37-.59.88-.59,1.41,0,.53.21,1.04.58,1.42.37.38.88.59,1.41.59s1.04-.21,1.42-.58c3.9-3.88,3.9-10.25,0-14.13-.38-.37-.88-.58-1.41-.58Z"/>
  </g>
</svg>