<?xml version="1.0" encoding="UTF-8"?>
<svg id="Layer_2" data-name="Layer 2" xmlns="http://www.w3.org/2000/svg" viewBox="0 0 55.82 51.99">
  <defs>
    <style>
      .cls-1 {
        fill: #010101;
      }
    </style>
  </defs>
  <g id="Layer_1-2" data-name="Layer 1">
    <path class="cls-1" d="M27.91,4.1C15.45,4.1,5.09,13.59,4,26h47.82c-1.09-12.41-11.45-21.9-23.91-21.9ZM27.91,0c.45,0,.89.15,1.25.44,0,0,2.82,2.28,5.47,6.8,2.66,4.52,5.28,11.39,5.28,20.76,0,.53-.21,1.04-.59,1.41-.38.38-.88.59-1.41.59s-1.04-.21-1.41-.59c-.38-.38-.59-.88-.59-1.41,0-8.63-2.38-14.75-4.72-18.74-1.29-2.19-2.42-3.57-3.28-4.48-.85.91-1.99,2.29-3.28,4.48-2.34,3.98-4.72,10.11-4.72,18.74,0,.53-.21,1.04-.59,1.41-.38.38-.88.59-1.41.59s-1.04-.21-1.41-.59c-.38-.38-.59-.88-.59-1.41,0-9.37,2.62-16.25,5.28-20.76C23.84,2.72,26.66.44,26.66.44c.35-.28.8-.44,1.25-.44ZM27.91.1c14.49,0,26.61,11.1,27.89,25.53.05.55,0,1.11-.18,1.63-.54,1.63-2.08,2.74-3.8,2.73h.01s-47.85,0-47.85,0h0c-2.33.01-4.2-2.05-3.97-4.37C1.3,11.2,13.42.1,27.91.1ZM27.91,26c.53,0,1.04.21,1.41.59.38.38.59.88.59,1.41v16c0,2.12-.84,4.16-2.34,5.66h0c-3.11,3.11-8.21,3.11-11.31,0h0c-1.5-1.5-2.34-3.54-2.34-5.66,0-.53.21-1.04.59-1.41.38-.37.88-.59,1.41-.59s1.04.21,1.41.59c.38.38.59.88.59,1.41,0,1.06.42,2.08,1.17,2.83,1.58,1.58,4.08,1.58,5.66,0,.75-.75,1.17-1.77,1.17-2.83v-16c0-.53.21-1.04.59-1.41.38-.38.88-.59,1.41-.59Z"/>
  </g>
</svg>