<?xml version="1.0" encoding="UTF-8"?>
<svg id="Layer_2" data-name="Layer 2" xmlns="http://www.w3.org/2000/svg" viewBox="0 0 54 48">
  <defs>
    <style>
      .cls-1 {
        fill: #010101;
      }
    </style>
  </defs>
  <g id="Layer_1-2" data-name="Layer 1">
    <path class="cls-1" d="M39,0c-2.33,0-4.63.54-6.71,1.58-2.08,1.04-3.89,2.55-5.29,4.42-1.89-2.52-4.52-4.38-7.53-5.32-3.01-.94-6.23-.91-9.22.09-2.99,1-5.58,2.91-7.43,5.46C.99,8.78,0,11.85,0,15c0,17.98,24.98,32.15,26.02,32.75.3.17.63.25.98.25.34,0,.68-.08.97-.25,4.6-2.69,8.91-5.84,12.88-9.4,8.72-7.85,13.15-15.7,13.15-23.35,0-3.98-1.58-7.79-4.39-10.61-2.81-2.81-6.63-4.39-10.61-4.39Z"/>
  </g>
</svg>