<?xml version="1.0" encoding="UTF-8"?>
<svg id="Layer_2" data-name="Layer 2" xmlns="http://www.w3.org/2000/svg" viewBox="0 0 48 48">
  <defs>
    <style>
      .cls-1 {
        fill: #010101;
      }
    </style>
  </defs>
  <g id="Layer_1-2" data-name="Layer 1">
    <path class="cls-1" d="M24,48c-1.18,0-2.14-.81-2.4-1.96l-.41-1.88c-1.85-8.68-8.68-15.51-17.35-17.35l-1.88-.41c-1.14-.26-1.96-1.22-1.96-2.4s.81-2.14,1.96-2.4l1.88-.41c8.68-1.85,15.51-8.68,17.35-17.35l.41-1.88c.26-1.14,1.22-1.96,2.4-1.96s2.14.81,2.4,1.96l.41,1.88c1.85,8.68,8.68,15.51,17.35,17.35l1.88.41c1.14.26,1.96,1.22,1.96,2.4s-.81,2.14-1.96,2.4l-1.88.41c-8.68,1.85-15.51,8.68-17.35,17.35l-.41,1.88c-.26,1.14-1.22,1.96-2.4,1.96ZM7.53,24c7.75,2.62,13.85,8.75,16.47,16.47,2.62-7.75,8.75-13.85,16.47-16.47-7.75-2.62-13.85-8.75-16.47-16.47-2.62,7.75-8.75,13.85-16.47,16.47Z"/>
  </g>
</svg>