<?xml version="1.0" encoding="UTF-8"?>
<svg id="Layer_2" data-name="Layer 2" xmlns="http://www.w3.org/2000/svg" viewBox="0 0 56 56">
  <defs>
    <style>
      .cls-1 {
        fill: #010101;
      }
    </style>
  </defs>
  <g id="Layer_1-2" data-name="Layer 1">
    <path class="cls-1" d="M35.4,43.76c.47.28,1.03.44,1.58.44.63,0,1.27-.2,1.78-.6.96-.72,1.4-2,1.12-3.16l-2.16-8.48,6.68-5.56c.96-.76,1.32-2.08.96-3.24-.4-1.2-1.44-2.04-2.68-2.12l-8.68-.56-3.24-8.16c-.4-1.16-1.56-1.92-2.76-1.92s-2.32.76-2.76,1.92l-3.24,8.16-8.68.56c-1.24.08-2.32.92-2.68,2.12-.36,1.16.04,2.48.96,3.24l6.64,5.56-2,7.84c-.32,1.28.16,2.64,1.2,3.44,1.08.8,2.56.88,3.68.16l6.88-4.36,7.4,4.72ZM29.64,35.96c-.48-.28-1.04-.44-1.6-.44v.04c-.56,0-1.12.12-1.6.44l-6.72,4.24,1.96-7.68c.28-1.12-.12-2.36-1-3.08l-6.08-5.08,7.92-.52c1.16-.08,2.2-.84,2.6-1.92l2.92-7.36,2.92,7.36c.4,1.12,1.44,1.84,2.6,1.92l7.92.52-6.08,5.08c-.92.72-1.32,1.92-1.04,2.96l2,7.8-6.72-4.28ZM28,0C12.54,0,0,12.54,0,28s12.54,28,28,28,28-12.54,28-28S43.46,0,28,0ZM4,28C4,14.75,14.75,4,28,4s24,10.75,24,24-10.75,24-24,24S4,41.25,4,28Z"/>
  </g>
</svg>