<?xml version="1.0" encoding="UTF-8"?>
<svg id="Layer_2" data-name="Layer 2" xmlns="http://www.w3.org/2000/svg" viewBox="0 0 54.01 52.01">
  <defs>
    <style>
      .cls-1 {
        fill: #010101;
      }
    </style>
  </defs>
  <g id="Layer_1-2" data-name="Layer 1">
    <path class="cls-1" d="M31.72,0c-.43.01-.87.06-1.31.14-4.02.73-7.06,4.11-7.36,8.19-.04.56-.02,1.12.04,1.68h-9.08c-2.19,0-4,1.81-4,4v8.05c-2.93-.33-5.93.8-7.91,3.15-2.63,3.13-2.81,7.68-.43,11.01,1.55,2.18,4,3.55,6.66,3.75.56.04,1.12.02,1.68-.04v8.08c0,2.19,1.82,4,4,4h36c2.19,0,4-1.82,4-4v-10.67c0-.34-.09-.67-.25-.97-.16-.3-.4-.55-.68-.73-.29-.18-.61-.29-.95-.31-.34-.02-.67.05-.98.19-2.86,1.37-6.17-.17-6.98-3.23-.81-3.07,1.3-6.04,4.47-6.27h.01c.86-.07,1.72.09,2.5.46.3.15.64.21.98.19.34-.02.66-.12.95-.31.29-.18.52-.43.68-.73s.25-.63.25-.97v-10.67c0-2.19-1.81-4-4-4h-9.07C41.49,4.78,37.19-.18,31.72,0ZM32.61,4.01c3.33.32,5.5,3.82,3.92,7.14-.15.3-.21.64-.19.98.02.34.12.66.31.95.18.29.43.52.73.68.3.16.63.25.97.25h11.67v8.08c-.56-.06-1.11-.09-1.68-.04-5.58.41-9.47,5.87-8.04,11.28,1.17,4.41,5.44,7.05,9.71,6.58v8.11H14.01v-10.67c0-.34-.09-.67-.25-.97-.16-.3-.4-.55-.68-.73-.29-.18-.61-.29-.95-.31s-.67.05-.98.19c-.78.37-1.64.53-2.5.46h-.01c-1.49-.11-2.84-.87-3.71-2.09-1.33-1.86-1.23-4.36.24-6.12h0c1.47-1.75,3.92-2.28,5.98-1.3.3.15.64.21.98.19.34-.02.66-.12.95-.31.29-.18.52-.43.68-.73.16-.3.25-.63.25-.97v-10.67h11.67c.34,0,.67-.09.97-.25.3-.16.55-.4.73-.68.18-.29.29-.61.31-.95.02-.34-.05-.67-.19-.98-.37-.78-.53-1.64-.46-2.5h0c.17-2.3,1.84-4.16,4.09-4.57.52-.09,1.02-.11,1.49-.07Z"/>
  </g>
</svg>