<?xml version="1.0" encoding="UTF-8"?>
<svg id="Layer_2" data-name="Layer 2" xmlns="http://www.w3.org/2000/svg" viewBox="0 0 50.66 54">
  <defs>
    <style>
      .cls-1 {
        fill: #010101;
      }
    </style>
  </defs>
  <g id="Layer_1-2" data-name="Layer 1">
    <path class="cls-1" d="M1.98,14.53c-.3,0-.6-.08-.88-.2-.99-.49-1.39-1.69-.9-2.68C2.49,7,6.02,3.07,10.41.3c.94-.59,2.18-.3,2.76.64.59.94.3,2.18-.64,2.76-3.75,2.37-6.77,5.73-8.75,9.7-.33.69-1.03,1.13-1.8,1.12ZM33.33,50h-16c-1.1,0-2,.9-2,2s.9,2,2,2h16c1.1,0,2-.9,2-2s-.9-2-2-2ZM45.28,24c.04-10.99-8.82-19.93-19.8-20h-.15c-11.03.02-19.96,8.97-19.95,20,0,8.58-1.78,13.42-3.25,15.98-.72,1.24-.73,2.77-.02,4.02.71,1.24,2.04,2.01,3.47,2h39.5c1.43,0,2.76-.76,3.48-2,.71-1.25.7-2.78-.02-4.02-1.48-2.55-3.25-7.4-3.25-15.98ZM50.46,11.66c-2.28-4.66-5.81-8.59-10.2-11.35-.94-.59-2.18-.3-2.76.64-.59.94-.3,2.18.64,2.76,3.75,2.37,6.78,5.73,8.75,9.7.33.69,1.03,1.13,1.8,1.12.3,0,.6-.08.88-.2.98-.49,1.38-1.69.89-2.68h0Z"/>
  </g>
</svg>