<?xml version="1.0" encoding="UTF-8"?>
<svg id="Layer_2" data-name="Layer 2" xmlns="http://www.w3.org/2000/svg" viewBox="0 0 52 52">
  <defs>
    <style>
      .cls-1 {
        fill: #010101;
        fill-rule: evenodd;
      }
    </style>
  </defs>
  <g id="Layer_1-2" data-name="Layer 1">
    <path class="cls-1" d="M0,26C0,11.64,11.64,0,26,0s26,11.64,26,26-11.64,26-26,26S0,40.36,0,26ZM28,22.53V4.09c6.59.59,12.35,4.1,15.97,9.22l-15.97,9.23ZM26.95,27.76s.07-.04.1-.06l18.93-10.93c1.3,2.81,2.02,5.93,2.02,9.23,0,12.15-9.85,22-22,22-7.42,0-13.99-3.68-17.97-9.31l18.92-10.93ZM24,24.84V4.09C12.79,5.1,4,14.52,4,26c0,3.3.72,6.42,2.02,9.23l17.98-10.38Z"/>
  </g>
</svg>