<?xml version="1.0" encoding="UTF-8"?>
<svg id="Layer_2" data-name="Layer 2" xmlns="http://www.w3.org/2000/svg" viewBox="0 0 50 50">
  <defs>
    <style>
      .cls-1 {
        fill: #010101;
      }
    </style>
  </defs>
  <g id="Layer_1-2" data-name="Layer 1">
    <path class="cls-1" d="M25,0C11.22,0,0,11.22,0,25s11.22,25,25,25,25-11.22,25-25S38.78,0,25,0ZM23,4.1v7.9c0,.53.21,1.04.59,1.41.38.38.88.59,1.41.59s1.04-.21,1.41-.59c.38-.38.59-.88.59-1.41v-7.9c10.02.94,17.96,8.88,18.9,18.9h-7.9c-.53,0-1.04.21-1.41.59-.37.38-.59.88-.59,1.41s.21,1.04.59,1.41c.38.38.88.59,1.41.59h7.9c-.94,10.02-8.88,17.96-18.9,18.9v-7.9c0-.53-.21-1.04-.59-1.41-.38-.37-.88-.59-1.41-.59s-1.04.21-1.41.59c-.38.38-.59.88-.59,1.41v7.9c-10.02-.94-17.96-8.88-18.9-18.9h7.9c.53,0,1.04-.21,1.41-.59.38-.38.59-.88.59-1.41s-.21-1.04-.59-1.41c-.38-.38-.88-.59-1.41-.59h-7.9C5.04,12.98,12.98,5.04,23,4.1Z"/>
  </g>
</svg>