<?xml version="1.0" encoding="UTF-8"?>
<svg id="Layer_2" data-name="Layer 2" xmlns="http://www.w3.org/2000/svg" viewBox="0 0 52 50">
  <defs>
    <style>
      .cls-1 {
        fill: #010101;
        fill-rule: evenodd;
      }
    </style>
  </defs>
  <g id="Layer_1-2" data-name="Layer 1">
    <path class="cls-1" d="M4,0C2.94,0,1.92.42,1.17,1.17s-1.17,1.77-1.17,2.83v32c0,.77.44,1.47,1.14,1.8.7.33,1.52.24,2.12-.25l8.74-7.06v7.51c0,1.06.42,2.08,1.17,2.83.75.75,1.77,1.17,2.83,1.17h23.39l9.35,7.56c.6.48,1.42.58,2.12.25.7-.33,1.14-1.03,1.14-1.8V16c0-1.06-.42-2.08-1.17-2.83-.75-.75-1.77-1.17-2.83-1.17h-8V4c0-1.06-.42-2.08-1.17-2.83-.75-.75-1.77-1.17-2.83-1.17H4ZM36,4H4v27.81l6.64-5.37c.36-.29.8-.44,1.26-.44h24.1V4ZM16,30h20c1.06,0,2.08-.42,2.83-1.17.75-.75,1.17-1.77,1.17-2.83v-10h8v27.81l-6.64-5.37c-.36-.29-.8-.44-1.26-.44h-24.1v-8Z"/>
  </g>
</svg>