<?xml version="1.0" encoding="UTF-8"?>
<svg id="Layer_2" data-name="Layer 2" xmlns="http://www.w3.org/2000/svg" viewBox="0 0 48 54">
  <defs>
    <style>
      .cls-1 {
        fill: #010101;
      }
    </style>
  </defs>
  <g id="Layer_1-2" data-name="Layer 1">
    <path class="cls-1" d="M24,0c-3.84,0-7,3.16-7,7,0,3.14,2.13,5.8,5,6.67v6.33h-8c-.53,0-1.04.21-1.41.59-.38.38-.59.88-.59,1.41s.21,1.04.59,1.41c.38.38.88.59,1.41.59h8v19.12c-2.2-1.98-5.03-3.12-8-3.12-5.55,0-10-4.45-10-10,0-.53-.21-1.04-.59-1.41-.38-.38-.88-.59-1.41-.59s-1.04.21-1.41.59c-.38.38-.59.88-.59,1.41,0,7.71,6.29,14,14,14,2.12,0,4.16.84,5.66,2.34,1.5,1.5,2.34,3.53,2.34,5.66,0,.53.21,1.04.59,1.41.38.37.88.59,1.41.59s1.04-.21,1.41-.59c.38-.38.59-.88.59-1.41,0-2.12.84-4.16,2.34-5.66,1.5-1.5,3.53-2.34,5.66-2.34,7.71,0,14-6.29,14-14,0-.53-.21-1.04-.59-1.41-.38-.38-.88-.59-1.41-.59s-1.04.21-1.41.59c-.37.38-.59.88-.59,1.41,0,5.55-4.45,10-10,10-2.97,0-5.8,1.14-8,3.12v-19.12h8c.53,0,1.04-.21,1.41-.59.37-.38.59-.88.59-1.41s-.21-1.04-.59-1.41c-.38-.38-.88-.59-1.41-.59h-8v-6.33c2.87-.87,5-3.53,5-6.67,0-3.84-3.16-7-7-7ZM24,4c1.68,0,3,1.32,3,3s-1.32,3-3,3-3-1.32-3-3,1.32-3,3-3Z"/>
  </g>
</svg>