<?xml version="1.0" encoding="UTF-8"?>
<svg id="Layer_2" data-name="Layer 2" xmlns="http://www.w3.org/2000/svg" viewBox="0 0 56 52">
  <defs>
    <style>
      .cls-1 {
        fill: #010101;
      }
    </style>
  </defs>
  <g id="Layer_1-2" data-name="Layer 1">
    <path class="cls-1" d="M16,0c-.53,0-1.04.21-1.41.59-.38.38-.59.88-.59,1.41v8c0,.53.21,1.04.59,1.41.38.38.88.59,1.41.59s1.04-.21,1.41-.59c.38-.38.59-.88.59-1.41V2c0-.53-.21-1.04-.59-1.41-.38-.38-.88-.59-1.41-.59ZM24,0c-.53,0-1.04.21-1.41.59-.38.38-.59.88-.59,1.41v8c0,.53.21,1.04.59,1.41.38.38.88.59,1.41.59s1.04-.21,1.41-.59c.38-.38.59-.88.59-1.41V2c0-.53-.21-1.04-.59-1.41-.38-.38-.88-.59-1.41-.59ZM32,0c-.53,0-1.04.21-1.41.59-.38.38-.59.88-.59,1.41v8c0,.53.21,1.04.59,1.41.38.38.88.59,1.41.59s1.04-.21,1.41-.59c.38-.38.59-.88.59-1.41V2c0-.53-.21-1.04-.59-1.41-.38-.38-.88-.59-1.41-.59ZM2,16c-.53,0-1.04.21-1.41.59C.21,16.96,0,17.47,0,18v12c0,6.99,3.05,13.51,8.13,18H2c-.53,0-1.04.21-1.41.59C.21,48.96,0,49.47,0,50s.21,1.04.59,1.41c.38.37.88.59,1.41.59h44c.53,0,1.04-.21,1.41-.59.37-.38.59-.88.59-1.41s-.21-1.04-.59-1.41c-.38-.37-.88-.59-1.41-.59h-6.13c5.08-4.49,8.13-11.01,8.13-18v-12c0-.53-.21-1.04-.59-1.41-.37-.38-.88-.59-1.41-.59H2ZM46,16c-.53,0-1.04.21-1.41.59-.37.38-.59.88-.59,1.41s.21,1.04.59,1.41c.38.38.88.59,1.41.59,3.34,0,6,2.66,6,6v2c0,3.34-2.66,6-6,6h-.85c-.53,0-1.04.21-1.41.59-.37.38-.59.88-.59,1.41s.21,1.04.59,1.41c.38.37.88.59,1.41.59h.85c5.5,0,10-4.5,10-10v-2c0-5.5-4.5-10-10-10ZM4,20h40v10h0c0,7.7-4.42,14.67-11.33,18H15.33c-6.91-3.33-11.33-10.3-11.33-18h0v-10Z"/>
  </g>
</svg>