<?xml version="1.0" encoding="UTF-8"?>
<svg id="Layer_2" data-name="Layer 2" xmlns="http://www.w3.org/2000/svg" viewBox="0 0 48 49.44">
  <defs>
    <style>
      .cls-1 {
        fill: #010101;
      }
    </style>
  </defs>
  <g id="Layer_1-2" data-name="Layer 1">
    <path class="cls-1" d="M46.9,3.64c-.34-.16-.71-.23-1.08-.19-.37.04-.72.17-1.02.39-7.08,5.3-13.08,2.75-20-.22C17.88.64,9.73-2.86.8,3.84h-.03l-.1.08-.2.2-.05.07-.07.07s-.03.05-.05.07l-.05.1s-.02.05-.02.07c-.03.03-.04.06-.05.1-.03.02-.03.05-.05.1q-.02.05-.02.08s-.03.07-.03.1-.02.05-.02.07-.03.08-.03.1v.12s-.02.07-.02.1v42.15c0,.53.21,1.04.59,1.41.38.38.88.59,1.41.59s1.04-.21,1.41-.59c.38-.37.59-.88.59-1.41v-10.98c6.73-4.52,12.52-2.05,19.2.83,4.08,1.72,8.45,3.6,13.15,3.6,3.45,0,7.08-1,10.85-3.85.25-.19.45-.43.59-.71.14-.28.21-.58.21-.89V5.44c0-.37-.11-.74-.3-1.05-.19-.32-.47-.58-.8-.75Z"/>
  </g>
</svg>