<?xml version="1.0" encoding="UTF-8"?>
<svg id="Layer_2" data-name="Layer 2" xmlns="http://www.w3.org/2000/svg" viewBox="0 0 56 48">
  <defs>
    <style>
      .cls-1 {
        fill: #010101;
        fill-rule: evenodd;
      }
    </style>
  </defs>
  <g id="Layer_1-2" data-name="Layer 1">
    <path class="cls-1" d="M48,20c0-1.1-.9-2-2-2s-2,.9-2,2v18c0,1.1.9,2,2,2s2-.9,2-2v-18ZM40,30c0-1.1-.9-2-2-2s-2,.9-2,2v8c0,1.1.9,2,2,2s2-.9,2-2v-8ZM30,34c1.1,0,2,.9,2,2v2c0,1.1-.9,2-2,2s-2-.9-2-2v-2c0-1.1.9-2,2-2ZM0,6C0,2.69,2.69,0,6,0h44c3.31,0,6,2.69,6,6v36c0,3.31-2.69,6-6,6H6c-3.31,0-6-2.69-6-6V6ZM4,32.83l8-8,6.59,6.59c.78.78,2.05.78,2.83,0l12.59-12.59v1.17c0,1.1.9,2,2,2s2-.9,2-2v-6s0-.06,0-.1c-.02-.48-.22-.95-.58-1.32-.19-.19-.41-.34-.65-.43-.24-.1-.49-.15-.77-.15h-6c-1.1,0-2,.9-2,2s.9,2,2,2h1.17l-11.17,11.17-6.59-6.59c-.78-.78-2.05-.78-2.83,0l-6.59,6.59V6c0-1.1.9-2,2-2h44c1.1,0,2,.9,2,2v36c0,1.1-.9,2-2,2H6c-1.1,0-2-.9-2-2v-9.17Z"/>
  </g>
</svg>