<?xml version="1.0" encoding="UTF-8"?>
<svg id="Layer_2" data-name="Layer 2" xmlns="http://www.w3.org/2000/svg" viewBox="0 0 48.12 52">
  <defs>
    <style>
      .cls-1 {
        fill: #010101;
      }
    </style>
  </defs>
  <g id="Layer_1-2" data-name="Layer 1">
    <path class="cls-1" d="M.64,45.46c.04-.1.09-.2.14-.3.53-1.05,1.22-1.98,2.04-2.8,1.25-1.25,2.93-2.27,4.76-3.14.05-.02.1-.04.14-.07.56-.24,1.62-.69,3.19-1.36,1.46-.62,2.58-1.11,3.39-1.47.4-.23.71-.44.94-.63-.61-.11-1.2-.23-1.77-.38-.94-.19-1.85-.45-2.7-.81-1.01-.43-1.8-1.27-2.18-2.3-.38-1.03-.32-2.17.17-3.15,0,0,.04-.1.11-.36.07-.3.15-.71.21-1.27,0-.05.01-.1.02-.16.19-1.19.3-2.91.3-5.23-.08-5.7.62-10.62,2.52-14.36,1.03-2.23,2.52-4.14,4.56-5.47,2.25-1.53,4.86-2.2,7.63-2.2,1.38,0,2.78.23,4.1.82.18.08.36.18.53.29.16.07.36.17.58.3.02,0,.04.01.06.02.96.04,1.93.22,2.87.6,1.83.65,3.24,1.88,4.26,3.4l.03.05c1.33,2.06,2.03,4.71,2.37,7.54.27,1.97.39,4.44.39,7.33v1.65c0,2.04.07,3.64.2,4.84.1.56.19,1.06.26,1.51.08.19.17.38.25.58.31.69.41,1.41.34,2.07-.14,1.34-.91,2.17-1.03,2.3h-.01c-.24.27-.45.43-.54.5-.2.15-.37.25-.42.28-.08.04-.15.08-.19.1-.15.07-.29.14-.37.17-.19.08-.42.18-.65.27-.34.14-1.04.41-1.48.54-.03,0-.05.01-.08.02-.75.19-1.57.37-2.47.55.04.03.07.05.11.08.02.02.05.03.07.05.62.41,1.81,1.03,3.77,1.86,3.02,1.21,5.6,2.43,7.18,3.72,1.19.88,2.22,1.99,2.93,3.35.46.8.76,1.66.91,2.56.19,1.16-.13,2.35-.89,3.24-.76.9-1.88,1.41-3.05,1.41H4c-1.23,0-2.39-.57-3.15-1.54-.76-.97-1.03-2.24-.73-3.43.13-.53.31-1.06.52-1.57ZM40.95,44c-1.16-.74-2.97-1.61-5.42-2.59-2.04-.86-3.53-1.61-4.47-2.24-.86-.55-1.53-1.22-2-2-.63-.94-.94-2.04-.94-3.29v-1.53l1.53-.24h.47c.16,0,.55-.04,1.18-.12.42-.08.83-.16,1.22-.24h.02c.75-.16,1.44-.31,2.06-.47.32-.09,1.68-.63,1.76-.7h0c-.16-.4-.31-.75-.47-1.07-.08-.55-.2-1.25-.35-2.12-.16-1.41-.24-3.22-.24-5.41v-1.65c0-2.82-.12-5.1-.35-6.82-.31-2.59-.9-4.55-1.76-5.88-.63-.94-1.41-1.57-2.35-1.88-.55-.24-1.18-.35-1.88-.35-.31,0-.63-.08-.94-.24-.16,0-.35-.08-.59-.24-.08-.08-.22-.16-.41-.24-.2-.08-.33-.16-.41-.24-.71-.31-1.53-.47-2.47-.47-2.12,0-3.92.51-5.41,1.53-1.33.86-2.39,2.16-3.18,3.88-1.49,2.9-2.2,7.1-2.12,12.59,0,2.43-.12,4.39-.35,5.88-.13,1.07-.3,1.92-.53,2.53-.06.15-.11.29-.17.41.55.24,1.22.43,2,.59.6.15,1.25.28,1.92.4.73.12,1.5.23,2.31.31h.12l1.53.24v1.53c.08,1.41-.35,2.67-1.29,3.76-.63.78-1.57,1.53-2.82,2.24-.86.39-2.08.92-3.65,1.59-1.57.67-2.63,1.12-3.18,1.35-.82.39-1.54.78-2.15,1.18-.61.39-1.11.78-1.5,1.18-.55.55-.98,1.14-1.29,1.76-.16.39-.27.75-.35,1.06h40.12c-.08-.47-.24-.9-.47-1.29-.39-.78-1.02-1.49-1.88-2.12-.22-.19-.49-.38-.81-.59Z"/>
  </g>
</svg>