<?xml version="1.0" encoding="UTF-8"?>
<svg id="Layer_2" data-name="Layer 2" xmlns="http://www.w3.org/2000/svg" viewBox="0 0 42.44 51.75">
  <defs>
    <style>
      .cls-1 {
        fill: #010101;
      }
    </style>
  </defs>
  <g id="Layer_1-2" data-name="Layer 1">
    <path class="cls-1" d="M21.22,0C12.91,0,6.05,5.81,4.91,13.5h-.05l-.02.42c-.08.59-.12,1.2-.12,1.83v2.25C2.11,18,.02,20.02,0,22.5v24.75c0,2.47,2.11,4.5,4.72,4.5h33c2.61,0,4.72-2.02,4.72-4.5v-24.75c-.02-2.48-2.11-4.5-4.72-4.5v-2.24c0-.63-.05-1.24-.12-1.83l-.02-.42h-.05C36.39,5.76,29.42-.02,21.22,0ZM21.22,6.75c5.2.02,9.41,4.04,9.42,9v2.25H11.8v-2.24c.01-1.46.4-2.88,1.12-4.16.13-.23.22-.45.36-.65.14-.22.32-.42.47-.63.93-1.15,2.12-2.07,3.47-2.67.17-.08.33-.17.5-.23.39-.14.8-.25,1.19-.34.17-.05.34-.11.52-.14.58-.11,1.19-.17,1.8-.17h0Z"/>
  </g>
</svg>