<?xml version="1.0" encoding="UTF-8"?>
<svg id="Layer_2" data-name="Layer 2" xmlns="http://www.w3.org/2000/svg" viewBox="0 0 52 52">
  <defs>
    <style>
      .cls-1 {
        fill: #010101;
      }
    </style>
  </defs>
  <g id="Layer_1-2" data-name="Layer 1">
    <path class="cls-1" d="M26,0c-5.14,0-10.17,1.52-14.44,4.38C7.28,7.24,3.95,11.3,1.98,16.05.01,20.8-.5,26.03.5,31.07c1,5.04,3.48,9.68,7.12,13.31s8.27,6.11,13.31,7.12c5.04,1,10.27.49,15.02-1.48,4.75-1.97,8.81-5.3,11.67-9.58,2.86-4.28,4.38-9.3,4.38-14.44-.01-6.89-2.76-13.5-7.63-18.37C39.5,2.76,32.89.01,26,0h0ZM31.35,33.53c.39.36.62.86.65,1.39.02.53-.16,1.05-.52,1.44-.19.21-.41.37-.67.48-.25.11-.53.17-.81.17-.5,0-.98-.19-1.35-.53l-10-9c-.2-.19-.37-.42-.48-.67-.11-.25-.17-.53-.17-.81s.06-.55.17-.81c.11-.25.28-.48.48-.67l10-9c.19-.18.42-.33.67-.42.25-.09.51-.14.78-.13.27,0,.53.07.77.18.24.11.46.27.64.47.18.2.32.43.41.68.09.25.13.52.11.78-.01.27-.08.53-.2.77-.12.24-.28.45-.48.63l-8.35,7.52,8.35,7.53Z"/>
  </g>
</svg>