<?xml version="1.0" encoding="UTF-8"?>
<svg id="Layer_2" data-name="Layer 2" xmlns="http://www.w3.org/2000/svg" viewBox="0 0 48 44">
  <defs>
    <style>
      .cls-1 {
        fill: #010101;
      }
    </style>
  </defs>
  <g id="Layer_1-2" data-name="Layer 1">
    <path class="cls-1" d="M48,2c0-1.1-.9-2-2-2s-2,.9-2,2v6h-6c-1.1,0-2,.9-2,2s.9,2,2,2h6c1.06,0,2.08-.42,2.83-1.17.75-.75,1.17-1.77,1.17-2.83V2ZM18,10c0-1.1.9-2,2-2h8c1.1,0,2,.9,2,2s-.9,2-2,2h-8c-1.1,0-2-.9-2-2ZM1.17,33.17c.75-.75,1.77-1.17,2.83-1.17h6c1.1,0,2,.9,2,2s-.9,2-2,2h-6v6c0,1.1-.9,2-2,2s-2-.9-2-2v-6c0-1.06.42-2.08,1.17-2.83ZM18,34c0-1.1.9-2,2-2h8c1.1,0,2,.9,2,2s-.9,2-2,2h-8c-1.1,0-2-.9-2-2ZM38,32c-1.1,0-2,.9-2,2s.9,2,2,2h6v6c0,1.1.9,2,2,2s2-.9,2-2v-6c0-1.06-.42-2.08-1.17-2.83s-1.77-1.17-2.83-1.17h-6ZM2,0c1.1,0,2,.9,2,2v6h6c1.1,0,2,.9,2,2s-.9,2-2,2h-6c-1.06,0-2.08-.42-2.83-1.17-.75-.75-1.17-1.77-1.17-2.83V2C0,.9.9,0,2,0ZM0,22c0-1.1.9-2,2-2h44c1.1,0,2,.9,2,2s-.9,2-2,2H2c-1.1,0-2-.9-2-2Z"/>
  </g>
</svg>