<?xml version="1.0" encoding="UTF-8"?>
<svg id="Layer_2" data-name="Layer 2" xmlns="http://www.w3.org/2000/svg" viewBox="0 0 48 44">
  <defs>
    <style>
      .cls-1 {
        fill: #010101;
      }
    </style>
  </defs>
  <g id="Layer_1-2" data-name="Layer 1">
    <path class="cls-1" d="M15.08,0c-.26-.01-.52.03-.77.12-.25.09-.47.23-.67.41l-7.32,6.75-2.97-2.75c-.39-.36-.91-.55-1.44-.53-.53.02-1.03.25-1.39.64C.17,5.03-.02,5.55,0,6.08c.02.53.25,1.03.64,1.39l4.32,4c.37.34.85.53,1.36.53.5,0,.99-.19,1.36-.53l8.68-8c.19-.18.35-.39.46-.63.11-.24.17-.5.18-.76.01-.26-.03-.52-.12-.77-.09-.25-.23-.47-.41-.67C16.11.25,15.61.02,15.08,0ZM24,4c-.53,0-1.04.21-1.41.59s-.59.88-.59,1.41.21,1.04.59,1.41c.38.38.88.59,1.41.59h22c.53,0,1.04-.21,1.41-.59.37-.38.59-.88.59-1.41s-.21-1.04-.59-1.41c-.38-.38-.88-.59-1.41-.59h-22ZM15.08,16c-.26-.01-.52.03-.77.12-.25.09-.47.23-.67.41l-7.32,6.75-2.97-2.75c-.39-.36-.91-.55-1.44-.53-.53.02-1.03.25-1.39.64-.36.39-.55.91-.53,1.44.02.53.25,1.03.64,1.39l4.32,4c.37.34.85.53,1.36.53.5,0,.99-.19,1.36-.53l8.68-8c.19-.18.35-.39.46-.63.11-.24.17-.5.18-.76.01-.26-.03-.52-.12-.77-.09-.25-.23-.47-.41-.67-.36-.39-.86-.62-1.39-.64ZM24,20c-.53,0-1.04.21-1.41.59s-.59.88-.59,1.41.21,1.04.59,1.41c.38.38.88.59,1.41.59h22c.53,0,1.04-.21,1.41-.59.37-.38.59-.88.59-1.41s-.21-1.04-.59-1.41c-.38-.38-.88-.59-1.41-.59h-22ZM15.08,32c-.26-.01-.52.03-.77.12-.25.09-.47.23-.67.41l-7.32,6.75-2.97-2.75c-.39-.36-.91-.55-1.44-.53-.53.02-1.03.25-1.39.64-.36.39-.55.91-.53,1.44.02.53.25,1.03.64,1.39l4.32,4c.37.34.85.53,1.36.53.5,0,.99-.19,1.36-.53l8.68-8c.19-.18.35-.39.46-.63.11-.24.17-.5.18-.76.01-.26-.03-.52-.12-.77-.09-.25-.23-.47-.41-.67-.36-.39-.86-.62-1.39-.64ZM24,36c-.53,0-1.04.21-1.41.59-.38.38-.59.88-.59,1.41s.21,1.04.59,1.41c.38.38.88.59,1.41.59h22c.53,0,1.04-.21,1.41-.59s.59-.88.59-1.41-.21-1.04-.59-1.41c-.38-.37-.88-.59-1.41-.59h-22Z"/>
  </g>
</svg>