<?xml version="1.0" encoding="UTF-8"?>
<svg id="Layer_2" data-name="Layer 2" xmlns="http://www.w3.org/2000/svg" viewBox="0 0 48 49.29">
  <defs>
    <style>
      .cls-1 {
        fill: #010101;
      }
    </style>
  </defs>
  <g id="Layer_1-2" data-name="Layer 1">
    <path class="cls-1" d="M24,0c-.97,0-1.94.35-2.7,1.04L1.3,19.21s-.02.02-.03.03C.48,19.99.02,21.04,0,22.13c0,.01,0,.02,0,.03v23.13c0,2.19,1.81,4,4,4,0,0,0,0,0,0h12c2.19,0,4-1.81,4-4v-12h8v12c0,2.19,1.81,4,4,4h12c2.19,0,4-1.81,4-4v-23.13s0-.02,0-.03c-.02-1.1-.48-2.14-1.28-2.9,0,0-.02-.02-.03-.03L26.7,1.04c-.76-.69-1.73-1.04-2.7-1.04ZM24,3.99s0,0,0,0l19.97,18.15s.02.03.02.05v23.09h-12v-12c0-2.19-1.81-4-4-4h-8c-2.19,0-4,1.81-4,4v12H4v-23.09s0-.04.02-.05L24,4s0,0,0,0Z"/>
  </g>
</svg>