<?xml version="1.0" encoding="UTF-8"?>
<svg id="Layer_2" data-name="Layer 2" xmlns="http://www.w3.org/2000/svg" viewBox="0 0 48 49.46">
  <defs>
    <style>
      .cls-1 {
        fill: #010101;
      }
    </style>
  </defs>
  <g id="Layer_1-2" data-name="Layer 1">
    <path class="cls-1" d="M12.05,0C8.45-.06,4.61,1,.8,3.86c-.03.04-.05.09-.08.13-.17.19-.29.41-.38.64-.14.21-.24.45-.29.69-.02.05-.04.09-.06.14v42c0,.53.21,1.04.59,1.41.38.38.88.59,1.41.59s1.04-.21,1.41-.59c.38-.37.59-.88.59-1.41v-10.95c3.31-2.24,6.2-2.74,9.17-2.43,3.21.33,6.54,1.72,10.04,3.22,3.5,1.5,7.17,3.11,11.21,3.53,4.04.42,8.43-.5,12.78-3.76.25-.19.45-.43.59-.71.14-.28.21-.58.21-.89V5.46c0-.37-.1-.74-.3-1.05-.2-.32-.47-.57-.81-.74-.33-.17-.7-.24-1.07-.2-.37.03-.72.17-1.02.39-3.65,2.74-6.76,3.32-9.97,2.99-3.21-.33-6.54-1.72-10.04-3.22C21.29,2.12,17.62.51,13.58.09c-.5-.05-1.01-.08-1.53-.09ZM10.77,4.02c.8-.05,1.6-.02,2.4.06,3.21.33,6.54,1.72,10.04,3.22,3.5,1.5,7.17,3.11,11.21,3.53,3.05.32,6.3-.13,9.58-1.78v25.36c-3.31,2.24-6.2,2.74-9.17,2.43-3.21-.33-6.54-1.72-10.04-3.22-3.5-1.5-7.17-3.11-11.21-3.53-3.05-.32-6.3.14-9.58,1.78V6.51c2.41-1.64,4.61-2.36,6.77-2.49Z"/>
  </g>
</svg>