<?xml version="1.0" encoding="UTF-8"?>
<svg id="Layer_2" data-name="Layer 2" xmlns="http://www.w3.org/2000/svg" viewBox="0 0 54 54">
  <defs>
    <style>
      .cls-1 {
        fill: #010101;
      }
    </style>
  </defs>
  <g id="Layer_1-2" data-name="Layer 1">
    <path class="cls-1" d="M2,0C1.47,0,.96.21.59.59c-.38.38-.59.88-.59,1.41s.21,1.04.59,1.41c.38.38.88.59,1.41.59h4.51s6.87,37.79,6.87,37.79c-1.45,1.29-2.38,3.14-2.38,5.21,0,3.84,3.16,7,7,7s7-3.16,7-7c0-1.08-.27-2.09-.71-3h13.42c-.44.91-.71,1.92-.71,3,0,3.84,3.16,7,7,7s7-3.16,7-7-3.16-7-7-7h-26.88L10.44,3.3c-.33-1.88-1.99-3.28-3.9-3.3H2ZM10,10c-.53,0-1.04.21-1.41.59-.38.38-.59.88-.59,1.41s.21,1.04.59,1.41c.38.38.88.59,1.41.59h39.6l-2.62,14.37h0c-.17.96-.98,1.64-1.95,1.63H13.62c-.53,0-1.04.21-1.41.59-.38.38-.59.88-.59,1.41s.21,1.04.59,1.41c.38.38.88.59,1.41.59h31.39c2.89,0,5.39-2.08,5.9-4.92l3.05-16.72c.05-.29.04-.58-.03-.87-.07-.28-.21-.55-.4-.77-.19-.23-.42-.41-.69-.53-.27-.12-.55-.19-.85-.19H10ZM18,44c1.68,0,3,1.32,3,3s-1.32,3-3,3-3-1.32-3-3,1.32-3,3-3ZM44,44c1.68,0,3,1.32,3,3s-1.32,3-3,3-3-1.32-3-3,1.32-3,3-3Z"/>
  </g>
</svg>