<?xml version="1.0" encoding="UTF-8"?>
<svg id="Layer_2" data-name="Layer 2" xmlns="http://www.w3.org/2000/svg" viewBox="0 0 45.5 31.5">
  <defs>
    <style>
      .cls-1 {
        fill: #010101;
      }
    </style>
  </defs>
  <g id="Layer_1-2" data-name="Layer 1">
    <path class="cls-1" d="M7,1.75c0-.97.78-1.75,1.75-1.75h35c.97,0,1.75.78,1.75,1.75s-.78,1.75-1.75,1.75H8.75c-.97,0-1.75-.78-1.75-1.75ZM7,29.75c0-.97.78-1.75,1.75-1.75h9.86c.97,0,1.75.78,1.75,1.75s-.78,1.75-1.75,1.75h-9.86c-.97,0-1.75-.78-1.75-1.75ZM26.07,15.75c0-.97.78-1.75,1.75-1.75h4.91c.97,0,1.75.78,1.75,1.75s-.78,1.75-1.75,1.75h-4.91c-.97,0-1.75-.78-1.75-1.75ZM13.46,9.26c.68-.68,1.79-.68,2.47,0l5.25,5.25c.17.17.29.36.38.57.08.2.13.43.13.66h0s0,.02,0,.02c0,.23-.05.46-.13.66-.09.21-.21.4-.38.57l-5.25,5.25c-.68.68-1.79.68-2.47,0-.68-.68-.68-1.79,0-2.47l2.26-2.26H1.75c-.97,0-1.75-.78-1.75-1.75s.78-1.75,1.75-1.75h13.97l-2.26-2.26c-.68-.68-.68-1.79,0-2.47Z"/>
  </g>
</svg>