<?xml version="1.0" encoding="UTF-8"?>
<svg id="Layer_2" data-name="Layer 2" xmlns="http://www.w3.org/2000/svg" viewBox="0 0 48 54">
  <defs>
    <style>
      .cls-1 {
        fill: #010101;
      }
    </style>
  </defs>
  <g id="Layer_1-2" data-name="Layer 1">
    <path class="cls-1" d="M24,39c1.66,0,3-1.34,3-3s-1.34-3-3-3-3,1.34-3,3,1.34,3,3,3ZM24,0c-6.05,0-11,4.95-11,11v7H4c-2.19,0-4,1.81-4,4v28c0,2.19,1.81,4,4,4h40c2.19,0,4-1.81,4-4v-28c0-2.19-1.81-4-4-4h-9v-7c0-6.05-4.95-11-11-11ZM24,4c3.89,0,7,3.11,7,7v7h-14v-7c0-3.89,3.11-7,7-7ZM4,22h40v28H4v-28Z"/>
  </g>
</svg>