<?xml version="1.0" encoding="UTF-8"?>
<svg id="Layer_2" data-name="Layer 2" xmlns="http://www.w3.org/2000/svg" viewBox="0 0 48 48">
  <defs>
    <style>
      .cls-1 {
        fill: #010101;
      }
    </style>
  </defs>
  <g id="Layer_1-2" data-name="Layer 1">
    <path class="cls-1" d="M4,0C1.81,0,0,1.81,0,4v40c0,2.19,1.81,4,4,4h40c2.19,0,4-1.81,4-4V4c0-2.19-1.81-4-4-4H4ZM2,30c-.53,0-1.04.21-1.41.59-.38.38-.59.88-.59,1.41s.21,1.04.59,1.41c.38.37.88.59,1.41.59h9.17l4.84,4.84h0c.75.75,1.76,1.16,2.82,1.16h10.34c1.05,0,2.07-.41,2.82-1.16h0s4.84-4.84,4.84-4.84h9.17c.53,0,1.04-.21,1.41-.59.37-.38.59-.88.59-1.41s-.21-1.04-.59-1.41c-.38-.38-.88-.59-1.41-.59h-9.17c-1.05,0-2.07.41-2.82,1.16h0s-4.84,4.84-4.84,4.84h-10.34l-4.84-4.84c-.75-.74-1.76-1.16-2.82-1.16H2ZM4,4h40v40H4V4Z"/>
  </g>
</svg>