<?xml version="1.0" encoding="UTF-8"?>
<svg id="Layer_2" data-name="Layer 2" xmlns="http://www.w3.org/2000/svg" viewBox="0 0 60 42">
  <defs>
    <style>
      .cls-1 {
        fill: #010101;
      }
    </style>
  </defs>
  <g id="Layer_1-2" data-name="Layer 1">
    <path class="cls-1" d="M4,0C1.81,0,0,1.81,0,4v28c0,2.19,1.81,4,4,4h5c.53,0,1.04-.21,1.41-.59.38-.38.59-.88.59-1.41s-.21-1.04-.59-1.41c-.38-.37-.88-.59-1.41-.59h-5V4s36,0,36,0v24.8c0,.53.21,1.04.59,1.41.38.38.88.59,1.41.59s1.04-.21,1.41-.59c.38-.38.59-.88.59-1.41v-10.8h12v14h-5c-.53,0-1.04.21-1.41.59-.37.38-.59.88-.59,1.41s.21,1.04.59,1.41c.38.37.88.59,1.41.59h5c2.19,0,4-1.81,4-4v-16c0-.53-.21-1.04-.59-1.41-.37-.38-.88-.59-1.41-.59h-14V2c0-.53-.21-1.04-.59-1.41-.37-.38-.88-.59-1.41-.59H4ZM42,4c-.53,0-1.04.21-1.41.59-.37.38-.59.88-.59,1.41s.21,1.04.59,1.41c.38.38.88.59,1.41.59h10.65l3.5,8.74c.2.49.58.89,1.07,1.1.49.21,1.04.22,1.53.02.49-.2.89-.58,1.1-1.07.21-.49.22-1.04.02-1.53l-3.5-8.74c-.6-1.52-2.09-2.53-3.72-2.52h-10.64ZM2,20c-.53,0-1.04.21-1.41.59-.38.38-.59.88-.59,1.41s.21,1.04.59,1.41c.38.38.88.59,1.41.59h40c.53,0,1.04-.21,1.41-.59.37-.38.59-.88.59-1.41s-.21-1.04-.59-1.41c-.38-.38-.88-.59-1.41-.59H2ZM15,26c-4.39,0-8,3.61-8,8s3.61,8,8,8,8-3.61,8-8-3.61-8-8-8ZM21,32c-.53,0-1.04.21-1.41.59-.38.38-.59.88-.59,1.41s.21,1.04.59,1.41c.38.37.88.59,1.41.59h18c.53,0,1.04-.21,1.41-.59.37-.38.59-.88.59-1.41s-.21-1.04-.59-1.41c-.38-.37-.88-.59-1.41-.59h-18ZM15,30c2.23,0,4,1.77,4,4s-1.77,4-4,4-4-1.77-4-4,1.77-4,4-4ZM45,26c-4.39,0-8,3.61-8,8s3.61,8,8,8,8-3.61,8-8-3.61-8-8-8ZM45,30c2.23,0,4,1.77,4,4s-1.77,4-4,4-4-1.77-4-4,1.77-4,4-4Z"/>
  </g>
</svg>