<?xml version="1.0" encoding="UTF-8"?>
<svg id="Layer_2" data-name="Layer 2" xmlns="http://www.w3.org/2000/svg" viewBox="0 0 52 40">
  <defs>
    <style>
      .cls-1 {
        fill: #010101;
      }
    </style>
  </defs>
  <g id="Layer_1-2" data-name="Layer 1">
    <path class="cls-1" d="M30,18c-2.19,0-4,1.81-4,4v16c0,.53.21,1.04.59,1.41.38.37.88.59,1.41.59s1.04-.21,1.41-.59c.38-.38.59-.88.59-1.41v-16h20c.53,0,1.04-.21,1.41-.59.38-.38.59-.88.59-1.41s-.21-1.04-.59-1.41c-.38-.38-.88-.59-1.41-.59h-20ZM4,0C1.81,0,0,1.81,0,4v32c0,2.19,1.81,4,4,4h44c2.19,0,4-1.81,4-4V4c0-2.19-1.81-4-4-4H4ZM4,4h44v32H4V4Z"/>
  </g>
</svg>