<?xml version="1.0" encoding="UTF-8"?>
<svg id="Layer_2" data-name="Layer 2" xmlns="http://www.w3.org/2000/svg" viewBox="0 0 55.61 48">
  <defs>
    <style>
      .cls-1 {
        fill: #010101;
      }
    </style>
  </defs>
  <g id="Layer_1-2" data-name="Layer 1">
    <path class="cls-1" d="M49.56,2c0-1.1-.9-2-2-2s-2,.9-2,2v1.34c-.7.25-1.34.62-1.9,1.1l-1.14-.67c-.95-.56-2.18-.23-2.74.72-.56.95-.23,2.18.72,2.73l1.16.67c-.07.36-.1.72-.1,1.1s.03.74.1,1.1l-1.16.67c-.95.56-1.28,1.78-.72,2.73.56.95,1.78,1.28,2.74.72l1.14-.67c.55.47,1.2.85,1.9,1.1v1.34c0,1.1.9,2,2,2s2-.9,2-2v-1.34c.7-.25,1.34-.62,1.9-1.1l1.14.67c.95.56,2.18.23,2.73-.72.56-.95.23-2.18-.72-2.73l-1.16-.67c.07-.36.1-.72.1-1.1s-.03-.74-.1-1.1l1.16-.67c.95-.56,1.28-1.78.72-2.73-.56-.95-1.78-1.28-2.73-.72l-1.14.67c-.55-.47-1.2-.85-1.9-1.1v-1.34ZM49.56,9c0,1.1-.9,2-2,2s-2-.9-2-2,.9-2,2-2,2,.9,2,2ZM13.51,24c0-4.42,3.58-8,8-8s8,3.58,8,8-3.58,8-8,8-8-3.58-8-8ZM21.51,20c-2.21,0-4,1.79-4,4s1.79,4,4,4,4-1.79,4-4-1.79-4-4-4ZM17.15,4.22c-.51-.68-1.4-.96-2.21-.7-2.92.94-5.61,2.5-7.88,4.57-.63.57-.83,1.48-.49,2.26l1.73,4.06c-.27.45-.58.97-.87,1.47-.29.5-.59,1.03-.84,1.49l-4.39.53c-.85.1-1.53.73-1.72,1.56-.66,3-.65,6.11.02,9.11.18.83.87,1.45,1.71,1.55l4.37.53c.25.46.55.99.84,1.49.29.5.6,1.03.87,1.48l-1.73,4.04c-.34.78-.14,1.69.49,2.27,2.27,2.07,4.97,3.63,7.91,4.55.81.26,1.69-.03,2.2-.71l2.64-3.52c1.01.02,2.4.02,3.41,0l2.66,3.54c.51.68,1.4.96,2.21.7,2.92-.94,5.61-2.5,7.88-4.57.63-.57.83-1.48.49-2.26l-1.73-4.06c.27-.45.58-.97.87-1.47.29-.5.59-1.03.84-1.49l4.39-.53c.85-.1,1.53-.73,1.72-1.56.66-3,.65-6.11-.02-9.11-.18-.83-.87-1.45-1.71-1.55l-4.37-.53c-.25-.46-.55-.99-.84-1.49-.29-.5-.6-1.02-.87-1.47l1.73-4.06c.33-.78.14-1.69-.49-2.26-2.27-2.07-4.97-3.63-7.91-4.55-.81-.26-1.69.03-2.2.71l-2.64,3.52c-1.01-.02-2.4-.02-3.41,0l-2.66-3.54ZM12.39,13.8l-1.56-3.66c1.23-.95,2.58-1.74,4.02-2.33l2.39,3.18c.41.54,1.06.84,1.74.79.69-.05,4.39-.05,5.08,0,.68.05,1.33-.25,1.74-.79l2.38-3.17c1.44.59,2.8,1.37,4.03,2.32l-1.56,3.66c-.27.63-.2,1.36.2,1.93.17.24.71,1.13,1.29,2.15.59,1.02,1.09,1.93,1.22,2.19.29.62.89,1.05,1.57,1.14l3.94.47c.21,1.54.22,3.09.01,4.63l-3.95.47c-.69.08-1.28.51-1.57,1.14-.12.26-.63,1.18-1.22,2.19-.59,1.02-1.13,1.91-1.29,2.15-.4.57-.47,1.3-.2,1.93l1.56,3.66c-1.23.95-2.58,1.74-4.02,2.33l-2.39-3.18c-.41-.54-1.06-.84-1.74-.79-.69.05-4.39.05-5.08,0-.68-.05-1.33.25-1.74.79l-2.38,3.17c-1.44-.59-2.8-1.37-4.03-2.32l1.56-3.64c.27-.63.2-1.35-.19-1.92-.17-.25-.71-1.16-1.3-2.18-.59-1.02-1.1-1.94-1.22-2.21-.29-.62-.89-1.05-1.57-1.13l-3.94-.47c-.21-1.54-.22-3.09-.01-4.63l3.95-.47c.69-.08,1.28-.51,1.57-1.14.12-.26.63-1.18,1.22-2.19.59-1.02,1.13-1.91,1.29-2.15.4-.57.47-1.3.2-1.93ZM49.56,44.66c.7-.25,1.34-.62,1.9-1.1l1.14.67c.95.56,2.18.23,2.73-.72.56-.95.23-2.18-.72-2.73l-1.16-.67c.07-.36.1-.72.1-1.1s-.03-.74-.1-1.1l1.16-.67c.95-.56,1.28-1.78.72-2.74-.56-.95-1.78-1.28-2.73-.72l-1.14.67c-.55-.47-1.2-.85-1.9-1.1v-1.34c0-1.1-.9-2-2-2s-2,.9-2,2v1.34c-.7.25-1.34.62-1.9,1.1l-1.14-.67c-.95-.56-2.18-.23-2.74.72-.56.95-.23,2.18.72,2.74l1.16.67c-.07.36-.1.72-.1,1.1s.03.74.1,1.1l-1.16.67c-.95.56-1.28,1.78-.72,2.73.56.95,1.78,1.28,2.74.72l1.14-.67c.55.47,1.2.85,1.9,1.1v1.34c0,1.1.9,2,2,2s2-.9,2-2v-1.34ZM45.56,39c0-1.1.9-2,2-2s2,.9,2,2-.9,2-2,2-2-.9-2-2Z"/>
  </g>
</svg>