<?xml version="1.0" encoding="UTF-8"?>
<svg id="Layer_2" data-name="Layer 2" xmlns="http://www.w3.org/2000/svg" viewBox="0 0 54.9 51.45">
  <defs>
    <style>
      .cls-1 {
        fill: #010101;
      }
    </style>
  </defs>
  <g id="Layer_1-2" data-name="Layer 1">
    <path class="cls-1" d="M10.48,0c-.53,0-1.04.21-1.41.59L.59,9.06c-.19.19-.33.41-.43.65-.1.24-.15.5-.15.77s.05.52.15.77c.1.24.25.46.43.65.19.19.41.33.65.43.24.1.5.15.77.15s.52-.05.77-.15c.24-.1.46-.25.65-.43L11.89,3.41c.19-.19.33-.41.43-.65.1-.24.15-.5.15-.77s-.05-.52-.15-.77c-.1-.24-.25-.46-.43-.65-.19-.19-.41-.33-.65-.43-.24-.1-.5-.15-.77-.15ZM44.43,0c-.26,0-.52.05-.77.15-.24.1-.46.25-.65.43-.19.19-.33.41-.43.65-.1.24-.15.5-.15.77s.05.52.15.77c.1.24.25.46.43.65l8.48,8.48c.19.19.41.33.65.43.24.1.5.15.77.15s.52-.05.77-.15c.24-.1.46-.25.65-.43.19-.19.33-.41.43-.65.1-.24.15-.5.15-.77s-.05-.52-.15-.77c-.1-.24-.25-.46-.43-.65L45.84.59c-.38-.38-.88-.59-1.41-.59ZM27.45,11.45c-.53,0-1.04.21-1.41.59-.38.38-.59.88-.59,1.41v14c0,.53.21,1.04.59,1.41.38.38.88.59,1.41.59h14c.53,0,1.04-.21,1.41-.59.38-.38.59-.88.59-1.41s-.21-1.04-.59-1.41c-.37-.38-.88-.59-1.41-.59h-12v-12c0-.53-.21-1.04-.59-1.41-.38-.38-.88-.59-1.41-.59ZM27.45,3.45C14.22,3.45,3.45,14.22,3.45,27.45s10.77,24,24,24,24-10.77,24-24S40.68,3.45,27.45,3.45ZM27.45,7.45c11.07,0,20,8.93,20,20s-8.93,20-20,20S7.45,38.52,7.45,27.45,16.38,7.45,27.45,7.45Z"/>
  </g>
</svg>