<?xml version="1.0" encoding="UTF-8"?>
<svg id="Layer_2" data-name="Layer 2" xmlns="http://www.w3.org/2000/svg" viewBox="0 0 52 52">
  <defs>
    <style>
      .cls-1 {
        fill: #010101;
      }
    </style>
  </defs>
  <g id="Layer_1-2" data-name="Layer 1">
    <path class="cls-1" d="M26,12c-6.6,0-12,5.4-12,12,0,3.84,1.85,7.23,4.68,9.43-4.47,1.77-8.26,5.08-10.51,9.52-.24.47-.28,1.02-.12,1.53.16.5.52.92,1,1.16.23.12.49.19.75.21.26.02.53-.01.77-.09.25-.08.48-.21.68-.38.2-.17.36-.38.48-.61,2.73-5.37,8.23-8.75,14.25-8.76h.02s.02,0,.02,0c6.02,0,11.52,3.39,14.25,8.76.24.47.66.83,1.16,1,.5.16,1.05.12,1.53-.12.47-.24.83-.66,1-1.16.16-.5.12-1.05-.12-1.53-2.25-4.43-6.04-7.75-10.51-9.52,2.82-2.2,4.68-5.59,4.68-9.43,0-6.6-5.4-12-12-12ZM26,16c4.44,0,8,3.56,8,8s-3.55,7.99-7.99,8h-.01s-.01,0-.01,0c-4.44,0-7.99-3.56-7.99-8s3.56-8,8-8ZM26,0C11.66,0,0,11.66,0,26s11.66,26,26,26,26-11.66,26-26S40.34,0,26,0ZM26,4c12.17,0,22,9.83,22,22s-9.83,22-22,22S4,38.17,4,26,13.83,4,26,4Z"/>
  </g>
</svg>