<?xml version="1.0" encoding="UTF-8"?>
<svg id="Layer_2" data-name="Layer 2" xmlns="http://www.w3.org/2000/svg" viewBox="0 0 46 50.25">
  <defs>
    <style>
      .cls-1 {
        fill: #010101;
      }
    </style>
  </defs>
  <g id="Layer_1-2" data-name="Layer 1">
    <path class="cls-1" d="M29,0c-.53,0-1.04.21-1.41.59-.38.38-.59.88-.59,1.41v14c0,.53.21,1.04.59,1.41.38.38.88.59,1.41.59h14c.53,0,1.04-.21,1.41-.59.37-.38.59-.88.59-1.41s-.21-1.04-.59-1.41c-.38-.38-.88-.59-1.41-.59h-12V2c0-.53-.21-1.04-.59-1.41-.38-.38-.88-.59-1.41-.59ZM5,0C2.81,0,1,1.81,1,4v22c0,.53.21,1.04.59,1.41.38.38.88.59,1.41.59s1.04-.21,1.41-.59c.38-.38.59-.88.59-1.41V4h23.17l12.83,12.83v9.17c0,.53.21,1.04.59,1.41.38.38.88.59,1.41.59s1.04-.21,1.41-.59c.37-.38.59-.88.59-1.41v-10c0-.53-.21-1.04-.59-1.41L30.41.59c-.38-.38-.88-.59-1.41-.59H5ZM22.75,33.75c-1.5,0-2.93.42-4.02,1.36-1.09.94-1.73,2.39-1.73,3.89,0,1.65,1.15,3.06,2.26,3.7,1.11.63,2.23.88,3.22,1.14.99.26,1.85.54,2.22.77.38.23.29.06.29.39,0,.72-.08.7-.36.88-.28.18-.99.37-1.89.37-.92,0-1.82-.3-2.56-.85-.43-.32-.96-.45-1.48-.38-.52.08-1,.36-1.32.78-.32.43-.45.96-.38,1.48.08.52.36,1,.78,1.32,1.43,1.06,3.16,1.64,4.94,1.65h0c1.35,0,2.76-.18,4.05-1,1.28-.82,2.2-2.46,2.2-4.25,0-1.67-1.09-3.12-2.21-3.81-1.12-.68-2.27-.95-3.28-1.22-1.01-.27-1.89-.54-2.28-.76-.39-.22-.24,0-.24-.22,0-.5.11-.67.33-.86.22-.19.66-.39,1.41-.39.92,0,1.82.3,2.56.85.43.32.96.45,1.48.38.52-.08,1-.36,1.32-.78.32-.43.45-.96.38-1.48-.08-.52-.36-1-.78-1.32-1.43-1.06-3.16-1.64-4.94-1.65h0ZM7.5,34c-4.22,0-7.5,3.69-7.5,8s3.28,8,7.5,8h.02c1.79-.01,3.51-.69,4.83-1.9.19-.18.35-.39.46-.63.11-.24.17-.5.19-.76.01-.26-.03-.52-.12-.77-.09-.25-.23-.47-.4-.67-.18-.19-.39-.35-.63-.46-.24-.11-.5-.17-.76-.19-.26-.01-.52.03-.77.12-.25.09-.47.23-.67.4-.59.54-1.36.84-2.16.85-1.88,0-3.49-1.66-3.49-4s1.61-3.99,3.49-4c.8,0,1.57.31,2.16.85.19.18.42.31.67.4.25.09.51.13.77.12.26-.01.52-.08.76-.19.24-.11.45-.27.63-.46.18-.19.31-.42.4-.67.09-.25.13-.51.12-.77-.01-.26-.08-.52-.19-.76-.11-.24-.27-.45-.46-.63-1.32-1.21-3.04-1.88-4.83-1.9,0,0-.01,0-.02,0ZM34.76,34.15c-.24-.1-.5-.15-.77-.15-.26,0-.52.05-.77.15-.49.2-.88.59-1.08,1.08-.2.49-.2,1.04,0,1.53l5,12c.15.36.41.68.74.89.33.22.71.34,1.11.34s.78-.12,1.11-.34c.33-.22.59-.53.74-.89l5-12c.2-.49.21-1.04,0-1.53-.2-.49-.59-.88-1.08-1.08-.49-.2-1.04-.21-1.53,0-.49.2-.88.59-1.08,1.08l-3.15,7.57-3.15-7.57c-.2-.49-.59-.88-1.08-1.08Z"/>
  </g>
</svg>