<?xml version="1.0" encoding="UTF-8"?>
<svg id="Layer_2" data-name="Layer 2" xmlns="http://www.w3.org/2000/svg" viewBox="0 0 48 49.3">
  <defs>
    <style>
      .cls-1 {
        fill: #010101;
        fill-rule: evenodd;
      }
    </style>
  </defs>
  <g id="Layer_1-2" data-name="Layer 1">
    <path class="cls-1" d="M26,22.3c0-1.1-.9-2-2-2s-2,.9-2,2v5h-5c-1.1,0-2,.9-2,2s.9,2,2,2h5v5c0,1.1.9,2,2,2s2-.9,2-2v-5h5c1.1,0,2-.9,2-2s-.9-2-2-2h-5v-5ZM24,0c-1,0-1.96.37-2.7,1.05L1.3,19.22l-.03.03c-.4.37-.71.82-.93,1.32C.13,21.06,0,21.6,0,22.14v.03s0,23.12,0,23.12c0,1.06.42,2.08,1.17,2.83.75.75,1.77,1.17,2.83,1.17h40c1.06,0,2.08-.42,2.83-1.17.75-.75,1.17-1.77,1.17-2.83v-23.16c0-.54-.13-1.08-.35-1.58-.22-.5-.54-.95-.93-1.32l-.03-.03L26.7,1.05c-.74-.67-1.7-1.05-2.7-1.05ZM44,45.3v-23.1s0-.02,0-.02v-.02S24,4,24,4h0S4.02,22.16,4.02,22.16v.02s-.02.02-.02.02v23.1h40Z"/>
  </g>
</svg>