<?xml version="1.0" encoding="UTF-8"?>
<svg id="Layer_2" data-name="Layer 2" xmlns="http://www.w3.org/2000/svg" viewBox="0 0 24 46">
  <defs>
    <style>
      .cls-1 {
        fill: #010101;
      }
    </style>
  </defs>
  <g id="Layer_1-2" data-name="Layer 1">
    <path class="cls-1" d="M11,17.78c4.01-.91,7-4.49,7-8.78C18,4.03,13.97,0,9,0S0,4.03,0,9c0,4.28,2.99,7.87,7,8.78v8.25c0,3.72,1.48,7.28,4.11,9.91l6.06,6.06h-5.17c-1.1,0-2,.9-2,2s.9,2,2,2h10c1.1,0,2-.9,2-2v-10c0-1.1-.9-2-2-2s-2,.9-2,2v5.17l-6.06-6.06c-1.88-1.88-2.94-4.43-2.94-7.09v-8.25ZM4,9c0-2.76,2.24-5,5-5s5,2.24,5,5-2.24,5-5,5-5-2.24-5-5Z"/>
  </g>
</svg>