<?xml version="1.0" encoding="UTF-8"?>
<svg id="Layer_2" data-name="Layer 2" xmlns="http://www.w3.org/2000/svg" viewBox="0 0 54.63 48">
  <defs>
    <style>
      .cls-1 {
        fill: #010101;
      }
    </style>
  </defs>
  <g id="Layer_1-2" data-name="Layer 1">
    <path class="cls-1" d="M34.78,0c-6.62-.09-12.15,5.38-12.15,12v1.52C12.52,10.86,4.05,2.59,4.05,2.59c-.26-.26-.58-.44-.94-.53-.35-.09-.73-.08-1.07.03-.35.11-.66.31-.9.58-.24.27-.4.61-.47.97C-1.43,15.15,1.75,23.32,5.52,28.44c2.21,2.99,4.54,4.9,6.18,6.05-3.77,4.24-9.77,6.65-9.77,6.65-.28.11-.54.27-.74.49-.21.22-.36.48-.46.77-.09.29-.12.59-.08.89.04.3.15.58.32.83,0,0,.32.45.76.85s1.1.88,2.01,1.33c1.82.91,4.64,1.71,8.89,1.71,17.64,0,32.3-13.52,33.83-31l7.58-7.58c.28-.28.47-.64.55-1.02.08-.39.04-.79-.11-1.16-.15-.37-.41-.68-.74-.9-.33-.22-.72-.34-1.11-.34h-7.62C42.91,2.37,39.04.05,34.78,0ZM34.73,4h0c3.15.04,5.98,1.91,7.24,4.8.16.36.41.66.74.87.33.21.71.33,1.1.33h4l-4.66,4.66c-.34.34-.55.8-.58,1.29-1.02,15.8-14.09,28.06-29.93,28.05,0,0,0,0,0,0-2.66,0-4.49-.36-5.78-.77,2.85-1.53,6.8-4.17,9.44-8.12.16-.24.26-.5.31-.78.05-.28.03-.57-.04-.84-.07-.27-.2-.53-.38-.75-.18-.22-.4-.4-.66-.53,0,0-3.56-1.77-6.78-6.15-2.84-3.85-5.36-9.61-4.63-18.08,3.89,3.22,11.36,8.51,20.19,9.99.29.05.58.03.86-.04.28-.08.54-.21.76-.4.22-.19.4-.42.52-.68.12-.26.19-.55.19-.84v-4c0-4.38,3.72-8.06,8.1-8Z"/>
  </g>
</svg>