<?xml version="1.0" encoding="UTF-8"?>
<svg id="Layer_2" data-name="Layer 2" xmlns="http://www.w3.org/2000/svg" viewBox="0 0 52 52">
  <defs>
    <style>
      .cls-1 {
        fill: #010101;
      }
    </style>
  </defs>
  <g id="Layer_1-2" data-name="Layer 1">
    <path class="cls-1" d="M16,0c-2.19,0-4,1.81-4,4v20H2c-.4,0-.78.12-1.11.34-.33.22-.59.53-.74.9-.15.37-.19.77-.11,1.16.08.39.27.74.55,1.02l24,24c.38.37.88.59,1.41.59s1.04-.21,1.41-.59l24-24c.28-.28.47-.64.55-1.02.08-.39.04-.79-.11-1.16s-.41-.68-.74-.9c-.33-.22-.72-.34-1.11-.34h-10V4h0c0-2.19-1.81-4-4-4H16ZM16,4h20v22c0,.53.21,1.04.59,1.41.37.38.88.59,1.41.59h7.17l-19.17,19.17L6.83,28h7.17c.53,0,1.04-.21,1.41-.59.38-.38.59-.88.59-1.41V4Z"/>
  </g>
</svg>