<?xml version="1.0" encoding="UTF-8"?>
<svg id="Layer_2" data-name="Layer 2" xmlns="http://www.w3.org/2000/svg" viewBox="0 0 44 56.01">
  <defs>
    <style>
      .cls-1 {
        fill: #010101;
      }
    </style>
  </defs>
  <g id="Layer_1-2" data-name="Layer 1">
    <path class="cls-1" d="M14,22.01c-.53,0-1.04.21-1.41.59-.38.38-.59.88-.59,1.41s.21,1.04.59,1.41l7.41,7.41v13.17c0,.53.21,1.04.59,1.41.38.37.88.59,1.41.59s1.04-.21,1.41-.59c.38-.38.59-.88.59-1.41v-13.17l7.41-7.41c.38-.38.59-.88.59-1.41s-.21-1.04-.59-1.41c-.38-.38-.88-.59-1.41-.59s-1.04.21-1.41.59l-6.59,6.59-6.59-6.59c-.38-.38-.88-.59-1.41-.59ZM21.48,0C9.55.28-.05,10.21,0,22.14c.02,6.72,3.14,13.06,8.44,17.19.98.77,1.55,1.94,1.56,3.19v1.49c0,2.19,1.81,4,4,4h16c2.19,0,4-1.81,4-4v-1.5c0-1.25.58-2.43,1.57-3.2h.01c7.45-5.86,10.32-15.84,7.12-24.75C39.51,5.66,30.94-.22,21.48,0ZM21.57,4h0c7.76-.18,14.75,4.61,17.37,11.91,2.62,7.3.28,15.45-5.83,20.24h.01c-1.97,1.51-3.12,3.86-3.13,6.34h0v1.5h-16v-1.5h0c-.02-2.47-1.15-4.8-3.09-6.32-.34-.26-.76-.41-1.19-.41l1.18.4c-4.34-3.37-6.88-8.55-6.9-14.05h0c-.05-9.77,7.8-17.89,17.57-18.12ZM12,52.01c-.53,0-1.04.21-1.41.59-.38.37-.59.88-.59,1.41s.21,1.04.59,1.41c.38.37.88.59,1.41.59h20c.53,0,1.04-.21,1.41-.59s.59-.88.59-1.41-.21-1.04-.59-1.41c-.37-.38-.88-.59-1.41-.59H12Z"/>
  </g>
</svg>