<?xml version="1.0" encoding="UTF-8"?>
<svg id="Layer_2" data-name="Layer 2" xmlns="http://www.w3.org/2000/svg" viewBox="0 0 24 44">
  <defs>
    <style>
      .cls-1 {
        fill: #010101;
      }
    </style>
  </defs>
  <g id="Layer_1-2" data-name="Layer 1">
    <path class="cls-1" d="M8.75,1.74c1.6-2.32,4.9-2.32,6.49,0l8,11.64c.93,1.35.94,2.98.36,4.25-.58,1.27-1.87,2.37-3.61,2.37H4c-1.74,0-3.02-1.1-3.61-2.37-.58-1.27-.57-2.9.36-4.25L8.75,1.74ZM12,4.08l7.95,11.56s.05.1.05.15c0,.06,0,.12-.03.17,0,.02-.01.03-.02.04H4.05s-.01-.02-.02-.04c-.02-.05-.04-.11-.03-.17,0-.05.02-.1.05-.15l7.95-11.56ZM.4,26.37c.58-1.27,1.87-2.37,3.61-2.37h15.99c1.74,0,3.02,1.1,3.61,2.37.58,1.27.57,2.9-.36,4.25l-8,11.64c-1.6,2.32-4.9,2.32-6.49,0L.75,30.62c-.93-1.36-.94-2.98-.36-4.25ZM4.05,28.36l7.95,11.56,7.95-11.56s.05-.1.05-.15c0-.06,0-.12-.03-.17,0-.02-.01-.03-.02-.04H4.05s-.01.02-.02.04c-.02.05-.04.11-.03.17,0,.05.02.1.05.15Z"/>
  </g>
</svg>