<?xml version="1.0" encoding="UTF-8"?>
<svg id="Layer_2" data-name="Layer 2" xmlns="http://www.w3.org/2000/svg" viewBox="0 0 56 48">
  <defs>
    <style>
      .cls-1 {
        fill: #010101;
        fill-rule: evenodd;
      }
    </style>
  </defs>
  <g id="Layer_1-2" data-name="Layer 1">
    <path class="cls-1" d="M17,24c3.87,0,7-3.13,7-7s-3.13-7-7-7-7,3.13-7,7,3.13,7,7,7ZM17,20c1.66,0,3-1.34,3-3s-1.34-3-3-3-3,1.34-3,3,1.34,3,3,3ZM6,0C2.69,0,0,2.69,0,6v36c0,3.31,2.69,6,6,6h44c3.31,0,6-2.69,6-6V6c0-3.31-2.69-6-6-6H6ZM52,31.59V6c0-1.1-.9-2-2-2H6c-1.1,0-2,.9-2,2v36c0,1.1.9,2,2,2h7.03l10.98-14,.03-.04c.35-.43.8-.74,1.27-.95.47-.21.98-.31,1.48-.31s1.01.1,1.48.31c.47.21.92.52,1.27.95l.03.04,3.08,3.92,7.03-8.64c.34-.43.78-.75,1.24-.96.47-.21.99-.32,1.49-.32s1.02.1,1.49.32c.42.19.81.46,1.13.83l6.97,6.45ZM18.11,44h31.89c1.1,0,2-.9,2-2v-4.96l-9.55-8.83-7.08,8.71h0c-.35.44-.8.75-1.28.96-.48.2-.99.3-1.49.29-.5,0-1.01-.11-1.48-.33-.47-.21-.91-.54-1.25-.98l-3.07-3.92-8.67,11.06Z"/>
  </g>
</svg>