<?xml version="1.0" encoding="UTF-8"?>
<svg id="Layer_2" data-name="Layer 2" xmlns="http://www.w3.org/2000/svg" viewBox="0 0 48 48">
  <defs>
    <style>
      .cls-1 {
        fill: #010101;
        fill-rule: evenodd;
      }
    </style>
  </defs>
  <g id="Layer_1-2" data-name="Layer 1">
    <path class="cls-1" d="M4,0C1.79,0,0,1.79,0,4v40c0,2.21,1.79,4,4,4h27.17c.51,0,1.01-.1,1.47-.28.12-.04.24-.1.35-.16.37-.19.71-.43,1-.73l12.83-12.83c.3-.3.54-.64.73-1,.06-.11.12-.23.16-.35.18-.47.28-.96.28-1.47V4c0-2.21-1.79-4-4-4H4ZM44,30V4H4v40h26v-12c0-1.1.9-2,2-2h12ZM34,41.17l7.17-7.17h-7.17v7.17Z"/>
  </g>
</svg>