<?xml version="1.0" encoding="UTF-8"?>
<svg id="Layer_2" data-name="Layer 2" xmlns="http://www.w3.org/2000/svg" viewBox="0 0 56 52">
  <defs>
    <style>
      .cls-1 {
        fill: #010101;
      }
    </style>
  </defs>
  <g id="Layer_1-2" data-name="Layer 1">
    <path class="cls-1" d="M0,6C0,2.69,2.69,0,6,0h24c3.31,0,6,2.69,6,6s-2.69,6-6,6H6c-3.31,0-6-2.69-6-6ZM6,4c-1.1,0-2,.9-2,2s.9,2,2,2h24c1.1,0,2-.9,2-2s-.9-2-2-2H6ZM0,22c0-3.31,2.69-6,6-6h14c3.31,0,6,2.69,6,6v24c0,3.31-2.69,6-6,6H6c-3.31,0-6-2.69-6-6v-24ZM6,20c-1.1,0-2,.9-2,2v24c0,1.1.9,2,2,2h14c1.1,0,2-.9,2-2v-24c0-1.1-.9-2-2-2H6ZM30,22c0-3.31,2.69-6,6-6h14c3.31,0,6,2.69,6,6v24c0,3.31-2.69,6-6,6h-14c-3.31,0-6-2.69-6-6v-24ZM36,20c-1.1,0-2,.9-2,2v24c0,1.1.9,2,2,2h14c1.1,0,2-.9,2-2v-24c0-1.1-.9-2-2-2h-14Z"/>
  </g>
</svg>