<?xml version="1.0" encoding="UTF-8"?>
<svg id="Layer_2" data-name="Layer 2" xmlns="http://www.w3.org/2000/svg" viewBox="0 0 56 48">
  <defs>
    <style>
      .cls-1 {
        fill: #010101;
      }
    </style>
  </defs>
  <g id="Layer_1-2" data-name="Layer 1">
    <path class="cls-1" d="M34,12c0-1.1.9-2,2-2h8c1.1,0,2,.9,2,2v8c0,1.1-.9,2-2,2s-2-.9-2-2v-6h-6c-1.1,0-2-.9-2-2ZM14,28c0-1.1-.9-2-2-2s-2,.9-2,2v8c0,1.1.9,2,2,2h8c1.1,0,2-.9,2-2s-.9-2-2-2h-6v-6ZM6,0C2.69,0,0,2.69,0,6v36c0,3.31,2.69,6,6,6h44c3.31,0,6-2.69,6-6V6c0-3.31-2.69-6-6-6H6ZM4,6c0-1.1.9-2,2-2h44c1.1,0,2,.9,2,2v36c0,1.1-.9,2-2,2H6c-1.1,0-2-.9-2-2V6Z"/>
  </g>
</svg>