<?xml version="1.0" encoding="UTF-8"?>
<svg id="Layer_2" data-name="Layer 2" xmlns="http://www.w3.org/2000/svg" viewBox="0 0 41.74 29.04">
  <defs>
    <style>
      .cls-1 {
        fill: #010101;
      }
    </style>
  </defs>
  <g id="Layer_1-2" data-name="Layer 1">
    <path class="cls-1" d="M32.39.38c-.75-.6-1.85-.48-2.45.27s-.48,1.85.27,2.45h0l4.35,3.48c.64.51,1.54.51,2.17,0l4.34-3.48c.73-.63.81-1.73.18-2.45-.6-.69-1.62-.81-2.35-.26l-3.26,2.61-3.26-2.61ZM1.74,1.74C.78,1.74,0,2.52,0,3.48c0,.96.78,1.74,1.74,1.74h19.13c.96,0,1.74-.78,1.74-1.74,0-.96-.78-1.74-1.74-1.74H1.74ZM1.74,13.65c-.96,0-1.74.78-1.74,1.74,0,.96.78,1.74,1.74,1.74h19.13c.96,0,1.74-.78,1.74-1.74,0-.96-.78-1.74-1.74-1.74H1.74ZM0,27.3c0-.96.78-1.74,1.74-1.74h14.33c.96-.05,1.78.69,1.82,1.65.05.96-.69,1.78-1.65,1.82-.06,0-.11,0-.17,0H1.74C.78,29.04,0,28.26,0,27.3h0ZM29.94,12.56c.6-.75,1.69-.87,2.44-.27l3.26,2.61,3.26-2.61c.75-.6,1.85-.48,2.45.27.6.75.48,1.85-.27,2.45l-4.34,3.48c-.64.51-1.54.51-2.17,0l-4.35-3.48c-.75-.6-.87-1.69-.27-2.44h0Z"/>
  </g>
</svg>