<?xml version="1.0" encoding="UTF-8"?>
<svg id="Layer_2" data-name="Layer 2" xmlns="http://www.w3.org/2000/svg" viewBox="0 0 50 50">
  <defs>
    <style>
      .cls-1 {
        fill: #010101;
      }
    </style>
  </defs>
  <g id="Layer_1-2" data-name="Layer 1">
    <path class="cls-1" d="M17,20c-.53,0-1.04.21-1.41.59s-.59.88-.59,1.41.21,1.04.59,1.41c.38.38.88.59,1.41.59h15c.53,0,1.04-.21,1.41-.59.38-.38.59-.88.59-1.41s-.21-1.04-.59-1.41c-.37-.38-.88-.59-1.41-.59h-15ZM17,28c-.53,0-1.04.21-1.41.59s-.59.88-.59,1.41.21,1.04.59,1.41c.38.38.88.59,1.41.59h15c.53,0,1.04-.21,1.41-.59.38-.38.59-.88.59-1.41s-.21-1.04-.59-1.41c-.37-.38-.88-.59-1.41-.59h-15ZM24.45,0c-3.04.07-6.1.69-9.02,1.9C6.1,5.77,0,14.89,0,25v21.05c-.01,1.05.4,2.07,1.14,2.81,0,0,0,0,0,0,.74.74,1.76,1.16,2.81,1.14h21.05c10.11,0,19.23-6.1,23.1-15.43,3.87-9.34,1.73-20.1-5.42-27.24C37.76,2.41,31.14-.14,24.45,0ZM26.07,4.02c5.09.26,10.02,2.37,13.78,6.13,6.01,6.01,7.81,15.03,4.55,22.89-3.25,7.85-10.9,12.96-19.4,12.96H4v-21c0-8.5,5.11-16.15,12.96-19.4,2.94-1.22,6.05-1.73,9.11-1.57Z"/>
  </g>
</svg>