<?xml version="1.0" encoding="UTF-8"?>
<svg id="Layer_2" data-name="Layer 2" xmlns="http://www.w3.org/2000/svg" viewBox="0 0 51.58 48.38">
  <defs>
    <style>
      .cls-1 {
        fill: #010101;
      }
    </style>
  </defs>
  <g id="Layer_1-2" data-name="Layer 1">
    <path class="cls-1" d="M34.28,0c-1.59,0-3.12.64-4.25,1.77l-14.1,14.1s-.03.01-.04.02c0,.01-.01.03-.02.04L1.77,30.03C.64,31.15,0,32.68,0,34.28c0,1.59.64,3.13,1.77,4.25l9.27,9.27c.19.19.41.33.65.43.24.1.5.15.77.15h35.97c.53,0,1.04-.21,1.41-.59s.59-.88.59-1.41-.21-1.04-.59-1.41c-.37-.38-.88-.59-1.41-.59h-21.42l22.83-22.81h.01c2.3-2.35,2.3-6.15,0-8.49h-.01S38.52,1.76,38.52,1.76h0C37.4.64,35.87,0,34.28,0ZM34.28,4c.53,0,1.03.21,1.4.59h0s11.31,11.29,11.31,11.29c.8.81.8,2.06,0,2.87l-12.72,12.7-14.14-14.14,12.72-12.72h0c.37-.38.88-.59,1.4-.59ZM17.32,20.14l14.14,14.14-10.1,10.09h-8.07l-8.69-8.69h0c-.38-.38-.59-.88-.58-1.41,0-.53.21-1.03.59-1.4h0s12.72-12.73,12.72-12.73Z"/>
  </g>
</svg>