<?xml version="1.0" encoding="UTF-8"?>
<svg id="Layer_2" data-name="Layer 2" xmlns="http://www.w3.org/2000/svg" viewBox="0 0 56 20">
  <defs>
    <style>
      .cls-1 {
        fill: #010101;
      }
    </style>
  </defs>
  <g id="Layer_1-2" data-name="Layer 1">
    <path class="cls-1" d="M10,0c-.53,0-1.04.21-1.41.59L.59,8.59c-.37.38-.59.88-.59,1.41s.21,1.04.59,1.41l8,8c.38.38.88.59,1.41.59s1.04-.21,1.41-.59c.37-.37.59-.88.59-1.41s-.21-1.04-.59-1.41l-4.59-4.59h42.34l-4.59,4.59c-.38.38-.59.88-.59,1.41s.21,1.04.59,1.41c.38.38.88.59,1.41.59s1.04-.21,1.41-.59l8-8c.35-.36.55-.85.56-1.35,0-.02.02-.04.02-.06,0-.05-.01-.11-.02-.16,0-.1-.02-.2-.05-.3-.02-.1-.06-.2-.1-.3-.04-.09-.09-.19-.14-.27-.06-.09-.12-.18-.19-.26-.03-.04-.06-.08-.09-.12L47.41.59C47.04.21,46.53,0,46,0s-1.04.21-1.41.59c-.38.38-.59.88-.59,1.41s.21,1.04.59,1.41l4.59,4.59H6.83l4.59-4.59c.37-.38.59-.88.59-1.41s-.21-1.04-.59-1.41C11.04.21,10.53,0,10,0Z"/>
  </g>
</svg>