<?xml version="1.0" encoding="UTF-8"?>
<svg id="Layer_2" data-name="Layer 2" xmlns="http://www.w3.org/2000/svg" viewBox="0 0 52.54 51.24">
  <defs>
    <style>
      .cls-1 {
        fill: #010101;
      }
    </style>
  </defs>
  <g id="Layer_1-2" data-name="Layer 1">
    <path class="cls-1" d="M26.27,0C11.76,0,0,11.76,0,26.27c0,11.61,7.53,21.45,17.97,24.93,1.31.24,1.79-.57,1.79-1.27,0-.62-.02-2.28-.04-4.47-7.31,1.59-8.85-3.52-8.85-3.52-1.2-3.04-2.92-3.84-2.92-3.84-2.39-1.63.18-1.6.18-1.6,2.64.19,4.02,2.71,4.02,2.71,2.34,4.01,6.15,2.85,7.65,2.18.24-1.7.92-2.85,1.67-3.51-5.83-.66-11.97-2.92-11.97-12.98,0-2.87,1.02-5.21,2.7-7.05-.27-.66-1.17-3.34.26-6.95,0,0,2.2-.71,7.22,2.69,2.09-.58,4.34-.87,6.58-.88,2.23,0,4.48.3,6.58.88,5.02-3.4,7.22-2.69,7.22-2.69,1.43,3.62.53,6.29.26,6.95,1.68,1.84,2.7,4.18,2.7,7.05,0,10.09-6.14,12.31-11.99,12.96.94.81,1.78,2.41,1.78,4.87,0,3.51-.03,6.34-.03,7.21,0,.7.47,1.52,1.81,1.26,10.43-3.48,17.95-13.32,17.95-24.92C52.54,11.76,40.78,0,26.27,0Z"/>
  </g>
</svg>