<?xml version="1.0" encoding="UTF-8"?>
<svg id="Layer_2" data-name="Layer 2" xmlns="http://www.w3.org/2000/svg" viewBox="0 0 50 52">
  <defs>
    <style>
      .cls-1 {
        fill: #010101;
      }
    </style>
  </defs>
  <g id="Layer_1-2" data-name="Layer 1">
    <path class="cls-1" d="M28,12c-5.5,0-10,4.5-10,10,0,2.93,1.31,5.56,3.34,7.39-2.71,1.16-5.12,2.99-6.94,5.41-.16.21-.27.45-.34.7-.07.25-.08.52-.04.78.04.26.13.51.26.74.13.23.31.42.52.58.21.16.45.27.7.34.25.07.52.08.78.04.26-.04.51-.12.74-.26.23-.13.42-.31.58-.52,2.46-3.27,6.31-5.2,10.4-5.2,4.09,0,7.94,1.93,10.4,5.2.16.21.35.39.58.52.23.13.48.22.74.26.26.04.52.02.78-.04.25-.07.49-.18.7-.34.21-.16.39-.35.52-.58.13-.23.22-.48.26-.74.04-.26.02-.52-.04-.78-.07-.25-.18-.49-.34-.7-1.81-2.42-4.23-4.25-6.94-5.41,2.03-1.83,3.34-4.46,3.34-7.39,0-5.5-4.5-10-10-10ZM28,16c3.34,0,6,2.66,6,6s-2.66,6-6,6-6-2.66-6-6,2.66-6,6-6ZM10,0c-2.19,0-4,1.81-4,4v44c0,2.19,1.81,4,4,4h36c2.19,0,4-1.81,4-4V4c0-2.19-1.81-4-4-4H10ZM10,4h36v44H10V4ZM2,9c-.53,0-1.04.21-1.41.59-.38.38-.59.88-.59,1.41s.21,1.04.59,1.41c.38.38.88.59,1.41.59h6c.53,0,1.04-.21,1.41-.59.38-.38.59-.88.59-1.41s-.21-1.04-.59-1.41c-.38-.38-.88-.59-1.41-.59H2ZM2,19c-.53,0-1.04.21-1.41.59-.38.38-.59.88-.59,1.41s.21,1.04.59,1.41c.38.38.88.59,1.41.59h6c.53,0,1.04-.21,1.41-.59.38-.38.59-.88.59-1.41s-.21-1.04-.59-1.41c-.38-.38-.88-.59-1.41-.59H2ZM2,29c-.53,0-1.04.21-1.41.59-.38.38-.59.88-.59,1.41s.21,1.04.59,1.41c.38.38.88.59,1.41.59h6c.53,0,1.04-.21,1.41-.59.38-.38.59-.88.59-1.41s-.21-1.04-.59-1.41c-.38-.38-.88-.59-1.41-.59H2ZM2,39c-.53,0-1.04.21-1.41.59-.38.38-.59.88-.59,1.41s.21,1.04.59,1.41c.38.37.88.59,1.41.59h6c.53,0,1.04-.21,1.41-.59.38-.38.59-.88.59-1.41s-.21-1.04-.59-1.41c-.38-.37-.88-.59-1.41-.59H2Z"/>
  </g>
</svg>