<?xml version="1.0" encoding="UTF-8"?>
<svg id="Layer_2" data-name="Layer 2" xmlns="http://www.w3.org/2000/svg" viewBox="0 0 50.32 50.32">
  <defs>
    <style>
      .cls-1 {
        fill: #010101;
      }
    </style>
  </defs>
  <g id="Layer_1-2" data-name="Layer 1">
    <path class="cls-1" d="M4.18,0C1.56-.07-.72,2.65.21,5.31h0s14.65,42.31,14.65,42.31c.59,1.72,2.28,2.72,3.85,2.69,1.57-.03,3.21-1.09,3.75-2.82h0s5.89-19.13,5.89-19.13h.01s19.13-5.9,19.13-5.9h0c1.74-.54,2.79-2.19,2.83-3.75.03-1.57-.97-3.26-2.69-3.85L5.3.21h0C4.93.08,4.55.01,4.18,0ZM3.99,3.99h0s42.31,14.65,42.31,14.65c0,0,.04,0,0,0l-19.12,5.9.08-.02c-1.32.35-2.36,1.37-2.74,2.69v-.04s-5.89,19.15-5.89,19.15c-.01.04,0,0,0,0L3.99,4h0Z"/>
  </g>
</svg>