<?xml version="1.0" encoding="UTF-8"?>
<svg id="Layer_2" data-name="Layer 2" xmlns="http://www.w3.org/2000/svg" viewBox="0 0 40 40">
  <defs>
    <style>
      .cls-1 {
        fill: #010101;
        fill-rule: evenodd;
      }
    </style>
  </defs>
  <g id="Layer_1-2" data-name="Layer 1">
    <path class="cls-1" d="M13.33,0c-.44,0-.87.18-1.18.49-.31.31-.49.74-.49,1.18v10H1.67c-.44,0-.87.18-1.18.49-.31.31-.49.74-.49,1.18s.18.87.49,1.18c.31.31.74.49,1.18.49h10v10H1.67c-.44,0-.87.18-1.18.49s-.49.74-.49,1.18.18.87.49,1.18c.31.31.74.49,1.18.49h10v10c0,.44.18.87.49,1.18.31.31.74.49,1.18.49s.87-.18,1.18-.49c.31-.31.49-.74.49-1.18v-10h10c1.84,0,3.33-1.49,3.33-3.33v-10h10c.44,0,.87-.18,1.18-.49.31-.31.49-.74.49-1.18s-.18-.87-.49-1.18c-.31-.31-.74-.49-1.18-.49h-10V1.67c0-.44-.18-.87-.49-1.18-.31-.31-.74-.49-1.18-.49s-.87.18-1.18.49-.49.74-.49,1.18v10h-10V1.67c0-.44-.18-.87-.49-1.18-.31-.31-.74-.49-1.18-.49ZM25,15h-10v10h10v-10Z"/>
  </g>
</svg>