<?xml version="1.0" encoding="UTF-8"?>
<svg id="Layer_2" data-name="Layer 2" xmlns="http://www.w3.org/2000/svg" viewBox="0 0 48 48">
  <defs>
    <style>
      .cls-1 {
        fill: #010101;
      }
    </style>
  </defs>
  <g id="Layer_1-2" data-name="Layer 1">
    <path class="cls-1" d="M24,0c-.53,0-1.04.21-1.41.59l-10.5,10.5c-.37.38-.59.88-.59,1.41s.21,1.04.59,1.41c.38.37.88.59,1.41.59s1.04-.21,1.41-.59l7.09-7.09v23.17c0,.53.21,1.04.59,1.41.38.38.88.59,1.41.59s1.04-.21,1.41-.59c.38-.38.59-.88.59-1.41V6.83l7.09,7.09c.37.37.88.59,1.41.59s1.04-.21,1.41-.59c.38-.38.59-.88.59-1.41s-.21-1.04-.59-1.41L25.41.59s-.04-.02-.06-.02c-.36-.35-.85-.55-1.36-.56ZM2,28c-.53,0-1.04.21-1.41.59-.38.38-.59.88-.59,1.41v14c0,2.19,1.81,4,4,4,0,0,0,0,0,0h40c2.19,0,4-1.81,4-4v-14c0-.53-.21-1.04-.59-1.41-.38-.38-.88-.59-1.41-.59s-1.04.21-1.41.59c-.37.38-.59.88-.59,1.41v14H4v-14c0-.53-.21-1.04-.59-1.41-.38-.38-.88-.59-1.41-.59Z"/>
  </g>
</svg>