<?xml version="1.0" encoding="UTF-8"?>
<svg id="Layer_2" data-name="Layer 2" xmlns="http://www.w3.org/2000/svg" viewBox="0 0 48.33 52">
  <defs>
    <style>
      .cls-1 {
        fill: #010101;
      }
    </style>
  </defs>
  <g id="Layer_1-2" data-name="Layer 1">
    <path class="cls-1" d="M.92,50.55c-.76-.92-1.07-2.12-.85-3.29.38-2.03,1.34-3.8,2.77-5.25,1.64-1.74,4.21-3.05,7.02-4.15,1.56-.63,2.78-1.16,3.69-1.59.46-.22.82-.4,1.08-.54.13-.07.23-.13.31-.18.04-.02.06-.04.08-.05.02-.01.03-.02.03-.02.06-.05.13-.09.19-.13.29-.19.45-.34.54-.44.08-.09.1-.14.1-.14.03-.08.07-.15.1-.23,0,0,.05-.14.11-.47.07-.38.13-.92.16-1.64v-1.06s-.06-.06-.09-.09c-.17-.17-.51-.52-.81-1.02-.73-1.14-1.21-2.53-1.54-4-.44-.34-.83-.74-1.15-1.18-.89-1.22-1.22-2.6-1.22-3.9,0-.86.17-1.99.73-3.02-.52-2.52-.84-4.62-.84-6.14,0-2.42.48-4.78,1.75-6.81C15.24,1.73,18.97.29,22.97,0c.09,0,.19,0,.28,0h.8c1.38,0,2.76.21,4.06.72.85.31,1.7.78,2.45,1.46,2.02.47,3.76,1.66,4.9,3.6,1.26,1.92,1.64,4.25,1.64,6.47,0,2.1-.29,4.16-.86,6.18.35.59.63,1.36.63,2.3v.46c0,1.11-.24,2.32-.91,3.43-.09.15-.19.3-.31.44-.33.41-.71.78-1.14,1.08-.43,1.8-1.15,3.47-2.23,4.91,0,.41-.03.96-.06,1.58-.04.68-.05,1.08-.05,1.27,0,.2.01.33.02.42,0,.03,0,.05.01.06.01.04.02.08.04.11.01.02.05.08.12.17.14.17.4.43.84.76.61.39,1.53.87,2.87,1.41.03.01.05.02.08.03,1.81.77,3.27,1.41,4.35,1.91.87.41,1.82.86,2.46,1.29,2.56,1.62,4.39,3.92,5.21,6.85.34,1.2.09,2.5-.66,3.5-.76,1-1.94,1.58-3.19,1.58H4c-1.19,0-2.32-.53-3.08-1.45ZM40.78,43.42c-.53-.38-2.6-1.34-6.19-2.86-1.53-.61-2.75-1.22-3.67-1.83-1.38-.99-2.22-2.02-2.52-3.09-.15-.46-.23-1.03-.23-1.72,0-.31.02-.8.06-1.49.04-.69.06-1.18.06-1.49,0-.46-.04-.84-.11-1.15v-.11l.11-.11c1.45-1.38,2.33-3.4,2.64-6.07v-.34h.46c.46,0,.84-.19,1.15-.57.23-.38.34-.84.34-1.38v-.46c0-.15-.08-.31-.23-.46-.08-.08-.17-.15-.29-.23-.11-.08-.21-.15-.29-.23-.15-.23-.23-.42-.23-.57v-.23c.84-2.22,1.26-4.47,1.26-6.76,0-1.91-.34-3.36-1.03-4.35-.69-1.22-1.79-1.87-3.32-1.95h-.23l-.11-.11c-.31-.61-.88-1.07-1.72-1.38-.76-.31-1.64-.46-2.64-.46h-.8c-3.28.23-5.54,1.34-6.76,3.32-.76,1.22-1.15,2.79-1.15,4.7,0,1.38.38,3.74,1.15,7.1v.34l-.23.11c-.53.23-.8.76-.8,1.6,0,.61.15,1.13.46,1.55.31.42.69.63,1.15.63h.23l.11.23c.31,2.14.76,3.67,1.38,4.58.08.15.31.38.69.69.31.31.5.57.57.8.15.31.23.76.23,1.38v1.49c-.08,1.76-.31,3.02-.69,3.78-.38.92-1.11,1.72-2.18,2.41-.84.61-2.86,1.57-6.07,2.86-2.07.81-3.64,1.61-4.72,2.42-.35.26-.65.53-.9.79-.92.92-1.49,1.99-1.72,3.21h40.33c-.45-1.6-1.35-2.94-2.72-4-.26-.2-.54-.4-.84-.58Z"/>
  </g>
</svg>