<?xml version="1.0" encoding="UTF-8"?>
<svg id="Layer_2" data-name="Layer 2" xmlns="http://www.w3.org/2000/svg" viewBox="0 0 41.53 56">
  <defs>
    <style>
      .cls-1 {
        fill: #010101;
      }
    </style>
  </defs>
  <g id="Layer_1-2" data-name="Layer 1">
    <path class="cls-1" d="M9.56,17.39c-3.31.15-5.83,1.1-7.37,1.93-.47.25-.82.68-.97,1.19-.15.51-.1,1.06.15,1.52.12.23.29.44.5.6.2.17.44.29.69.37.25.08.52.1.78.07.26-.03.51-.1.75-.23,2.22-1.19,7.51-3.17,15.79.95,9.99,4.99,17.28,2.22,20.01.61.23-.13.42-.31.58-.52.16-.21.27-.45.34-.7s.08-.52.04-.78c-.04-.26-.12-.51-.26-.74-.27-.46-.71-.79-1.22-.92-.51-.13-1.06-.05-1.52.22-1.92,1.13-7.38,3.66-16.19-.74-4.69-2.34-8.79-2.98-12.1-2.82ZM8.76,0c-.43,0-.85.14-1.2.4-.35.26-.6.62-.72,1.04L.32,23.52c-.54,1.84-.39,3.81.4,5.56,3.28,7.26,10.22,12.08,18.05,12.79v10.13h-8c-.53,0-1.04.21-1.41.59-.38.38-.59.88-.59,1.41s.21,1.04.59,1.41c.38.37.88.59,1.41.59h20c.53,0,1.04-.21,1.41-.59.37-.38.59-.88.59-1.41s-.21-1.04-.59-1.41c-.38-.37-.88-.59-1.41-.59h-8v-10.13c7.83-.72,14.77-5.54,18.05-12.79.79-1.75.93-3.72.4-5.56h0S34.68,1.43,34.68,1.43c-.12-.41-.38-.78-.72-1.04-.35-.26-.77-.4-1.2-.4H8.76ZM10.26,4h21.01l6.1,20.63c.27.92.2,1.91-.2,2.79h0c-2.91,6.44-9.29,10.56-16.35,10.59-.02,0-.04,0-.06,0,0,0-.02,0-.03.01-7.07-.01-13.46-4.14-16.38-10.58-.4-.88-.47-1.87-.2-2.79L10.26,4Z"/>
  </g>
</svg>