<?xml version="1.0" encoding="UTF-8"?>
<svg id="Layer_2" data-name="Layer 2" xmlns="http://www.w3.org/2000/svg" viewBox="0 0 52 52">
  <defs>
    <style>
      .cls-1 {
        fill: #010101;
      }
    </style>
  </defs>
  <g id="Layer_1-2" data-name="Layer 1">
    <path class="cls-1" d="M26,0c-5.14,0-10.17,1.52-14.44,4.38C7.28,7.24,3.95,11.3,1.98,16.05.01,20.8-.5,26.03.5,31.07c1,5.04,3.48,9.68,7.12,13.31s8.27,6.11,13.31,7.12c5.04,1,10.27.49,15.02-1.48,4.75-1.97,8.81-5.3,11.67-9.58,2.86-4.28,4.38-9.3,4.38-14.44-.01-6.89-2.76-13.5-7.63-18.37C39.5,2.76,32.89.01,26,0ZM36.48,24.35l-9,10c-.19.2-.42.37-.67.48-.25.11-.53.17-.81.17s-.55-.06-.81-.17c-.25-.11-.48-.27-.67-.48l-9-10c-.34-.39-.52-.91-.49-1.43.03-.52.26-1.01.65-1.37.39-.35.89-.54,1.42-.52.52.02,1.02.24,1.38.62l7.52,8.35,7.53-8.35c.18-.2.39-.36.63-.48.24-.12.5-.18.77-.2.27-.01.53.02.78.11s.48.23.68.41c.2.18.35.4.47.64.11.24.17.5.18.77,0,.27-.04.53-.13.78-.09.25-.24.48-.42.67Z"/>
  </g>
</svg>