<?xml version="1.0" encoding="UTF-8"?>
<svg id="Layer_2" data-name="Layer 2" xmlns="http://www.w3.org/2000/svg" viewBox="0 0 50.68 50.68">
  <defs>
    <style>
      .cls-1 {
        fill: #010101;
      }
    </style>
  </defs>
  <g id="Layer_1-2" data-name="Layer 1">
    <path class="cls-1" d="M36.64,0c-3.61.01-7.21,1.4-9.92,4.17l-7.06,7.06c-.37.38-.59.88-.59,1.41s.21,1.04.59,1.41c.38.38.88.59,1.41.59.53,0,1.04-.21,1.41-.59l7.08-7.08h.01c3.91-3.99,10.26-4.01,14.2-.07,3.95,3.95,3.92,10.29-.05,14.2h-.01s-7.08,7.09-7.08,7.09c-.19.19-.33.41-.43.65-.1.24-.15.5-.15.77s.05.52.15.77c.1.24.25.46.43.65.19.19.41.33.65.43.24.1.5.15.77.15s.52-.05.77-.15c.24-.1.46-.25.65-.43l7.06-7.06c5.52-5.44,5.56-14.4.08-19.88C43.85,1.35,40.24-.01,36.64,0ZM33.79,14.87c-.26,0-.52.05-.77.15-.24.1-.46.25-.65.43l-16.95,16.98c-.37.38-.58.88-.58,1.41,0,.53.21,1.04.59,1.41.19.19.41.33.65.43.24.1.5.15.77.15.26,0,.52-.05.77-.15.24-.1.46-.25.65-.43l16.95-16.98c.37-.38.59-.88.58-1.41s-.21-1.04-.59-1.41c-.38-.37-.88-.59-1.41-.58ZM12.59,19.12c-.53,0-1.04.21-1.41.59l-7.08,7.07C.1,30.78-1.1,36.81,1.06,42.04c2.17,5.23,7.28,8.64,12.94,8.64,3.71,0,7.28-1.48,9.9-4.1l7.08-7.08c.19-.19.33-.41.43-.65.1-.24.15-.5.15-.77s-.05-.52-.15-.77c-.1-.24-.25-.46-.43-.65-.19-.19-.41-.33-.65-.43-.24-.1-.5-.15-.77-.15s-.52.05-.77.15c-.24.1-.46.25-.65.43l-7.07,7.08c-1.88,1.88-4.42,2.93-7.07,2.93-4.05,0-7.69-2.43-9.24-6.18-1.55-3.74-.7-8.04,2.17-10.9l7.08-7.08c.38-.38.59-.88.59-1.41s-.21-1.04-.59-1.41c-.19-.19-.41-.33-.65-.43-.24-.1-.5-.15-.77-.15Z"/>
  </g>
</svg>