<?xml version="1.0" encoding="UTF-8"?>
<svg id="Layer_2" data-name="Layer 2" xmlns="http://www.w3.org/2000/svg" viewBox="0 0 52 49.05">
  <defs>
    <style>
      .cls-1 {
        fill: #010101;
      }
    </style>
  </defs>
  <g id="Layer_1-2" data-name="Layer 1">
    <path class="cls-1" d="M33.07,0c-2.05,0-4.1.76-5.66,2.3h-.01c-.59.6-1.03,1.28-1.4,1.99-.37-.71-.82-1.38-1.4-1.97,0,0-.01-.01-.02-.02-3.12-3.06-8.18-3.03-11.27.06-3.09,3.09-3.12,8.15-.06,11.27,0,0,.01.01.02.02,2.13,2.11,5.22,2.66,7.86,3.03,2.63.38,4.88.37,4.88.37,0,0,2.24,0,4.88-.37,2.63-.38,5.73-.92,7.86-3.03h.01c3.08-3.13,3.07-8.21-.03-11.31C37.17.78,35.12,0,33.07,0ZM33.06,3.98c1.02,0,2.04.4,2.82,1.19,1.57,1.57,1.58,4.06.02,5.64-.73.71-3.29,1.58-5.6,1.91-.84.12-1.51.16-2.19.21.05-.67.09-1.35.21-2.19.33-2.31,1.2-4.87,1.91-5.6.79-.78,1.81-1.17,2.82-1.16ZM18.95,4c1.01,0,2.02.38,2.81,1.14.71.73,1.58,3.29,1.91,5.6.12.84.16,1.51.21,2.19-.67-.05-1.35-.09-2.19-.21-2.31-.33-4.87-1.19-5.6-1.91-1.54-1.59-1.52-4.06.04-5.62.79-.79,1.8-1.18,2.81-1.19ZM4,13.05c-2.19,0-4,1.81-4,4v8c0,2.19,1.81,4,4,4v16c0,2.19,1.81,4,4,4h36c2.19,0,4-1.81,4-4v-16c2.19,0,4-1.81,4-4v-8c0-2.19-1.81-4-4-4H4ZM4,17.05h20v8H4v-8ZM28,17.05h20v8h-20v-8ZM8,29.05h16v16h-16v-16ZM28,29.05h16v16h-16v-16Z"/>
  </g>
</svg>