<?xml version="1.0" encoding="UTF-8"?>
<svg id="Layer_2" data-name="Layer 2" xmlns="http://www.w3.org/2000/svg" viewBox="0 0 51.91 51.91">
  <defs>
    <style>
      .cls-1 {
        fill: #010101;
      }
    </style>
  </defs>
  <g id="Layer_1-2" data-name="Layer 1">
    <path class="cls-1" d="M17.98,19.94c-.53,0-1.04.21-1.41.59s-.59.88-.59,1.41.21,1.04.59,1.41c.38.38.88.59,1.41.59h16c.53,0,1.04-.21,1.41-.59.38-.38.59-.88.59-1.41s-.21-1.04-.59-1.41c-.37-.38-.88-.59-1.41-.59h-16ZM17.98,27.94c-.53,0-1.04.21-1.41.59s-.59.88-.59,1.41.21,1.04.59,1.41c.38.38.88.59,1.41.59h16c.53,0,1.04-.21,1.41-.59.38-.38.59-.88.59-1.41s-.21-1.04-.59-1.41c-.37-.38-.88-.59-1.41-.59h-16ZM25.27,0c-5.37.14-10.73,1.93-15.25,5.44C-.07,13.28-2.9,27.28,3.19,38.41l-2.13,7.51c-.85,2.91,2.02,5.78,4.93,4.93l7.51-2.13c11.13,6.09,25.13,3.25,32.97-6.84,8.02-10.33,7.09-25.05-2.16-34.29C39.11,2.4,32.18-.17,25.27,0ZM25.38,3.99c5.84-.15,11.69,2.03,16.11,6.44,7.84,7.84,8.63,20.25,1.83,29.01-6.8,8.76-19.02,11.08-28.56,5.43-.23-.14-.49-.23-.76-.26-.27-.04-.54-.02-.8.06l-8.27,2.34,2.34-8.27c.07-.26.09-.53.06-.8-.04-.27-.12-.53-.26-.76C1.39,27.63,3.71,15.41,12.47,8.61c3.83-2.97,8.36-4.5,12.9-4.61Z"/>
  </g>
</svg>