<?xml version="1.0" encoding="UTF-8"?>
<svg id="Layer_2" data-name="Layer 2" xmlns="http://www.w3.org/2000/svg" viewBox="0 0 48 48">
  <defs>
    <style>
      .cls-1 {
        fill: #010101;
      }
    </style>
  </defs>
  <g id="Layer_1-2" data-name="Layer 1">
    <path class="cls-1" d="M0,46c0,1.1.9,2,2,2s2-.9,2-2V4h42c1.1,0,2-.9,2-2s-.9-2-2-2H4C1.79,0,0,1.79,0,4v42ZM28,38c2.65,0,5.2-1.05,7.07-2.93,1.88-1.88,2.93-4.42,2.93-7.07v-9.17l-2.59,2.59c-.78.78-2.05.78-2.83,0-.78-.78-.78-2.05,0-2.83l6-6c.38-.38.88-.59,1.41-.59s1.05.22,1.41.59l6,6c.78.78.78,2.05,0,2.83-.78.78-2.05.78-2.83,0l-2.59-2.59v9.17c0,3.71-1.47,7.27-4.1,9.9-2.63,2.63-6.19,4.1-9.9,4.1h-9.17l2.59,2.59c.78.78.78,2.05,0,2.83-.78.78-2.05.78-2.83,0l-6-6c-.78-.78-.78-2.05,0-2.83l6-6c.78-.78,2.05-.78,2.83,0,.78.78.78,2.05,0,2.83l-2.59,2.59h9.17Z"/>
  </g>
</svg>