<?xml version="1.0" encoding="UTF-8"?>
<svg id="Layer_2" data-name="Layer 2" xmlns="http://www.w3.org/2000/svg" viewBox="0 0 55.82 47.55">
  <defs>
    <style>
      .cls-1 {
        fill: #010101;
      }
    </style>
  </defs>
  <g id="Layer_1-2" data-name="Layer 1">
    <path class="cls-1" d="M41.39,0c-4.12-.11-8.1,1.47-11.02,4.38h0s-2.38,2.4-2.38,2.4l-1.86-1.87h0C20.42-.76,11.05-1.62,4.98,3.84c-6.39,5.72-6.67,15.71-.6,21.78h0l20.78,20.78h0c1.55,1.54,4.11,1.54,5.67,0h0s20.25-20.26,20.25-20.26h0c5.68-5.71,6.53-15.08,1.07-21.15C49.4,1.92,45.51.12,41.39,0ZM41.28,4c3.02.08,5.87,1.41,7.89,3.66h0c3.94,4.38,3.34,11.36-.93,15.66l-20.24,20.24s0,.03-.03,0L7.2,22.79c-4.48-4.48-4.28-11.74.44-15.97h0c4.38-3.94,11.36-3.35,15.65.93l3.27,3.29c.19.19.41.34.65.44.24.1.5.15.77.15.26,0,.53-.05.77-.15.24-.1.46-.25.65-.44l3.8-3.82c2.14-2.14,5.06-3.3,8.08-3.21Z"/>
  </g>
</svg>