<?xml version="1.0" encoding="UTF-8"?>
<svg id="Layer_2" data-name="Layer 2" xmlns="http://www.w3.org/2000/svg" viewBox="0 0 45.67 51.67">
  <defs>
    <style>
      .cls-1 {
        fill: #010101;
      }
    </style>
  </defs>
  <g id="Layer_1-2" data-name="Layer 1">
    <path class="cls-1" d="M35.92,0c-2.57-.06-5.06.86-6.96,2.59-.03.03-.06.05-.08.08L4.06,27.84h0c-5.41,5.45-5.4,14.32.03,19.75,5.44,5.44,14.3,5.45,19.75.03h0l20.53-20.48c.19-.19.33-.41.43-.65.1-.24.15-.5.15-.77,0-.26-.05-.52-.15-.77-.1-.24-.25-.46-.43-.65-.19-.19-.41-.33-.65-.43-.24-.1-.5-.15-.77-.15-.26,0-.52.05-.77.15-.24.1-.46.25-.65.43l-20.53,20.48c-3.92,3.9-10.19,3.89-14.1-.02-3.91-3.91-3.92-10.18-.02-14.1h0S31.66,5.54,31.66,5.54c1.14-1.03,2.63-1.58,4.16-1.54,2.35.06,4.44,1.47,5.37,3.63.92,2.16.51,4.64-1.06,6.38l-24.71,25.06c-.8.72-1.98.69-2.75-.07-.77-.77-.8-1.95-.07-2.75l20.77-21.12c.37-.38.58-.89.57-1.42,0-.53-.22-1.04-.6-1.41-.38-.37-.89-.58-1.42-.57-.53,0-1.04.22-1.41.6l-20.83,21.17s-.04.04-.05.06c-2.14,2.36-2.05,6.03.2,8.28,2.25,2.25,5.92,2.34,8.28.2.03-.02.05-.05.08-.08l24.83-25.18s.04-.04.06-.06c2.62-2.89,3.32-7.07,1.78-10.66C43.32,2.47,39.82.1,35.92,0Z"/>
  </g>
</svg>