<?xml version="1.0" encoding="UTF-8"?>
<svg id="Layer_2" data-name="Layer 2" xmlns="http://www.w3.org/2000/svg" viewBox="0 0 64 59.16">
  <defs>
    <style>
      .cls-1 {
        fill: #010101;
      }
    </style>
  </defs>
  <g id="Layer_1-2" data-name="Layer 1">
    <path class="cls-1" d="M50.08,31.32c-7.69,0-13.92,6.23-13.92,13.92s6.23,13.92,13.92,13.92,13.92-6.23,13.92-13.92-6.23-13.92-13.92-13.92ZM13.92,31.32c-7.69,0-13.92,6.23-13.92,13.92s6.23,13.92,13.92,13.92,13.92-6.23,13.92-13.92-6.23-13.92-13.92-13.92ZM45.92,13.92c0,7.69-6.23,13.92-13.92,13.92s-13.92-6.23-13.92-13.92S24.31,0,32,0s13.92,6.23,13.92,13.92Z"/>
  </g>
</svg>