<?xml version="1.0" encoding="UTF-8"?>
<svg id="Layer_2" data-name="Layer 2" xmlns="http://www.w3.org/2000/svg" viewBox="0 0 50 52">
  <defs>
    <style>
      .cls-1 {
        fill: #010101;
      }
    </style>
  </defs>
  <g id="Layer_1-2" data-name="Layer 1">
    <path class="cls-1" d="M8,0C3.58,0,0,3.58,0,8v42c0,1.1.9,2,2,2h24c1.1,0,2-.9,2-2s-.9-2-2-2H4c0-.53.1-1.05.3-1.54.2-.49.49-.93.86-1.3.37-.37.81-.67,1.3-.87.49-.2,1.01-.3,1.53-.3h18.01c1.1,0,2-.9,2-2s-.9-2-2-2H8c-1.05,0-2.09.2-3.07.6-.32.13-.64.29-.94.46V8c0-2.21,1.79-4,4-4h32v20c0,1.1.9,2,2,2s2-.9,2-2V2c0-1.1-.9-2-2-2H8ZM36,40c-1.1,0-2,.9-2,2s.9,2,2,2h12c1.1,0,2-.9,2-2s-.9-2-2-2h-12Z"/>
  </g>
</svg>