<?xml version="1.0" encoding="UTF-8"?>
<svg id="Layer_2" data-name="Layer 2" xmlns="http://www.w3.org/2000/svg" viewBox="0 0 52 52">
  <defs>
    <style>
      .cls-1 {
        fill: #010101;
      }
    </style>
  </defs>
  <g id="Layer_1-2" data-name="Layer 1">
    <path class="cls-1" d="M44,12c-2.12,0-4.16.83-5.66,2.33-1.5,1.5-2.34,3.55-2.34,5.67v5.99c0,.53.21,1.04.59,1.41.37.38.88.59,1.41.59h5.99c2.13,0,4.17-.83,5.67-2.34,1.5-1.5,2.34-3.54,2.34-5.66.01-4.4-3.6-8.01-8-8ZM43.99,16s.01,0,.02,0c2.23,0,4,1.76,3.99,3.99v.02c0,1.06-.41,2.08-1.16,2.83,0,0,0,0,0,0-.75.75-1.77,1.17-2.83,1.16h-4.01v-4h0c0-1.07.41-2.09,1.16-2.84.75-.75,1.77-1.17,2.83-1.16ZM32,0c-4.39,0-8,3.61-8,8,0,0,0,0,0,0v18c0,.53.21,1.04.59,1.41.38.38.88.59,1.41.59h6c2.12,0,4.16-.84,5.66-2.34,0,0,0,0,0,0,1.5-1.5,2.34-3.54,2.34-5.66v-12c0-4.39-3.61-8-8-8,0,0,0,0,0,0ZM26,24c-.53,0-1.04.21-1.41.59-.38.38-.59.88-.59,1.41v6c0,2.12.84,4.16,2.34,5.66,0,0,0,0,0,0,1.5,1.5,3.54,2.34,5.66,2.34h12c2.12,0,4.16-.84,5.66-2.34,3.11-3.11,3.11-8.21,0-11.31,0,0,0,0,0,0-1.5-1.5-3.54-2.34-5.66-2.34h-18ZM32,4c2.23,0,4,1.77,4,4v12c0,1.06-.42,2.08-1.17,2.83-.75.75-1.77,1.17-2.83,1.17h-4v-16c0-2.23,1.77-4,4-4ZM20,0c-4.4-.01-8.01,3.6-8,8-.01,4.4,3.6,8.02,8.01,8h5.99c.53,0,1.04-.21,1.41-.59.38-.38.59-.88.59-1.41v-5.99C28.02,3.61,24.4-.01,20,0ZM19.99,4s.01,0,.02,0c2.23,0,4,1.76,3.99,3.99h0v4.01h-4.01c-2.23,0-4-1.76-3.99-3.99,0,0,0-.01,0-.02,0-2.23,1.76-4,3.99-3.99ZM8.01,24C3.6,23.98-.01,27.6,0,32c0,2.12.83,4.16,2.33,5.66,1.5,1.5,3.54,2.34,5.66,2.34,4.4.01,8.02-3.6,8-8.01v-5.99c0-.53-.21-1.04-.59-1.41s-.88-.59-1.41-.59h-5.99ZM7.99,28h4.01v4h0c0,2.24-1.76,4.01-3.99,4h-.02c-1.06,0-2.08-.41-2.83-1.16,0,0,0,0,0,0-.75-.75-1.17-1.77-1.16-2.83,0,0,0-.01,0-.02,0-2.23,1.76-4,3.99-3.99ZM28,40h4.01c1.06,0,2.08.41,2.83,1.16.75.75,1.17,1.77,1.16,2.83v.02c0,1.06-.41,2.08-1.16,2.83,0,0,0,0,0,0-.75.75-1.77,1.17-2.83,1.16h-.02c-1.62,0-3.07-.96-3.69-2.46-.2-.49-.3-1.01-.3-1.53h0v-4.01ZM20,24c-4.39,0-8,3.61-8,8v12c0,2.12.84,4.16,2.34,5.66,0,0,0,0,0,0,3.11,3.11,8.21,3.11,11.31,0,0,0,0,0,0,0,1.5-1.5,2.34-3.54,2.34-5.66v-18c0-.53-.21-1.04-.59-1.41-.38-.38-.88-.59-1.41-.59h-6ZM20,28h4v16c0,1.06-.42,2.08-1.17,2.83-1.58,1.58-4.08,1.58-5.66,0-.75-.75-1.17-1.77-1.17-2.83v-12c0-2.23,1.77-4,4-4ZM26,36c-.53,0-1.04.21-1.41.59-.38.37-.59.88-.59,1.41v5.99c0,1.05.2,2.1.6,3.07,1.23,2.99,4.16,4.95,7.4,4.94,2.12,0,4.16-.83,5.67-2.34,1.5-1.5,2.34-3.54,2.34-5.66,0-2.12-.83-4.16-2.34-5.66-1.5-1.5-3.55-2.34-5.67-2.34h-5.99ZM28,28h16c1.06,0,2.08.42,2.83,1.17,1.58,1.58,1.58,4.08,0,5.66-.75.75-1.77,1.17-2.83,1.17h-12c-1.06,0-2.08-.42-2.83-1.17-.75-.75-1.17-1.77-1.17-2.83v-4ZM8,12C3.61,12,0,15.61,0,20c0,0,0,0,0,0,0,4.39,3.61,8,8,8,0,0,0,0,0,0h18c.53,0,1.04-.21,1.41-.59.38-.38.59-.88.59-1.41v-6c0-4.39-3.61-8-8-8h-12ZM8,16h12c2.23,0,4,1.77,4,4v4h-16c-2.23,0-4-1.77-4-4,0-2.23,1.77-4,4-4Z"/>
  </g>
</svg>