<?xml version="1.0" encoding="UTF-8"?>
<svg id="Layer_2" data-name="Layer 2" xmlns="http://www.w3.org/2000/svg" viewBox="0 0 52 44">
  <defs>
    <style>
      .cls-1 {
        fill: #010101;
      }
    </style>
  </defs>
  <g id="Layer_1-2" data-name="Layer 1">
    <path class="cls-1" d="M8,30c0,.53.21,1.04.59,1.41.38.37.88.59,1.41.59s1.04-.21,1.41-.59c.38-.38.59-.88.59-1.41V14c0-.53-.21-1.04-.59-1.41-.38-.38-.88-.59-1.41-.59s-1.04.21-1.41.59c-.38.38-.59.88-.59,1.41v16ZM0,38c0,3.29,2.71,6,6,6h40c3.29,0,6-2.71,6-6V6c0-3.29-2.71-6-6-6H6C2.71,0,0,2.71,0,6v32ZM4,38V6c0-1.13.87-2,2-2h40c1.13,0,2,.87,2,2v32c0,1.13-.87,2-2,2H6c-1.13,0-2-.87-2-2Z"/>
  </g>
</svg>