<?xml version="1.0" encoding="UTF-8"?>
<svg id="Layer_2" data-name="Layer 2" xmlns="http://www.w3.org/2000/svg" viewBox="0 0 56 48">
  <defs>
    <style>
      .cls-1 {
        fill: #010101;
        fill-rule: evenodd;
      }
    </style>
  </defs>
  <g id="Layer_1-2" data-name="Layer 1">
    <path class="cls-1" d="M18,18c0-3.31,2.69-6,6-6h8c3.31,0,6,2.69,6,6v12c0,3.31-2.69,6-6,6h-8c-3.31,0-6-2.69-6-6v-12ZM24,16c-1.1,0-2,.9-2,2v12c0,1.1.9,2,2,2h8c1.1,0,2-.9,2-2v-12c0-1.1-.9-2-2-2h-8ZM0,6C0,2.69,2.69,0,6,0h44c3.31,0,6,2.69,6,6v36c0,3.31-2.69,6-6,6H6c-3.31,0-6-2.69-6-6V6ZM52,6v6h-4c-3.31,0-6,2.69-6,6v12c0,3.31,2.69,6,6,6h4v6c0,1.1-.9,2-2,2H6c-1.1,0-2-.9-2-2v-6h4c3.31,0,6-2.69,6-6v-12c0-3.31-2.69-6-6-6h-4v-6c0-1.1.9-2,2-2h44c1.1,0,2,.9,2,2ZM52,16v16h-4c-1.1,0-2-.9-2-2v-12c0-1.1.9-2,2-2h4ZM8,32h-4v-16h4c1.1,0,2,.9,2,2v12c0,1.1-.9,2-2,2Z"/>
  </g>
</svg>