<?xml version="1.0" encoding="UTF-8"?>
<svg id="Layer_2" data-name="Layer 2" xmlns="http://www.w3.org/2000/svg" viewBox="0 0 52 52">
  <defs>
    <style>
      .cls-1 {
        fill: #010101;
      }
    </style>
  </defs>
  <g id="Layer_1-2" data-name="Layer 1">
    <path class="cls-1" d="M37.63,12.73c-.4-.07-.81-.02-1.18.15l-15.53,7.05c-.45.21-.82.58-1.01,1.04l-6.35,14.85c-.16.37-.2.77-.12,1.17.08.39.27.75.55,1.04.28.28.64.47,1.04.55.39.08.8.03,1.17-.12l14.85-6.35-.1-.07c.49-.16.9-.5,1.14-.95l7.02-15.55c.13-.28.19-.58.18-.88,0-.3-.09-.6-.23-.87-.14-.27-.34-.5-.59-.68-.24-.18-.53-.3-.83-.36ZM33.27,18.72l-4.52,10-9.55,4.08,4.08-9.55,9.98-4.53ZM26,0C11.66,0,0,11.66,0,26s11.66,26,26,26,26-11.66,26-26S40.34,0,26,0ZM26,4c12.17,0,22,9.83,22,22s-9.83,22-22,22S4,38.17,4,26,13.83,4,26,4Z"/>
  </g>
</svg>