<?xml version="1.0" encoding="UTF-8"?>
<svg id="Layer_2" data-name="Layer 2" xmlns="http://www.w3.org/2000/svg" viewBox="0 0 48.82 58">
  <defs>
    <style>
      .cls-1 {
        fill: #010101;
      }
    </style>
  </defs>
  <g id="Layer_1-2" data-name="Layer 1">
    <path class="cls-1" d="M21.82,0c-3.84,0-7,3.16-7,7v22.85l-1.74-3.02c-1.52-2.63-4.39-3.79-6.98-3.45-2.59.34-5.07,2.2-5.86,5.13-.48,1.79-.23,3.71.7,5.32l-.07-.14c4.1,8.65,7.42,14.61,11.38,18.58,3.96,3.97,8.69,5.73,14.58,5.73,8.89,0,16.92-5.37,20.33-13.58h0c1.11-2.67,1.67-5.53,1.67-8.42v-10c0-3.84-3.16-7-7-7-1.35,0-2.6.41-3.67,1.07-1.12-2.39-3.54-4.07-6.33-4.07-1.08,0-2.09.27-3,.71V7c0-3.84-3.16-7-7-7ZM21.82,4c1.68,0,3,1.32,3,3v16c0,.53.22,1.03.6,1.4.37.37.88.58,1.4.58s1.03-.21,1.4-.58.59-.87.6-1.4c0-1.68,1.32-3,3-3s3,1.32,3,3v3c0,.53.22,1.03.6,1.4.37.37.88.58,1.4.58s1.03-.21,1.4-.58c.37-.37.59-.87.6-1.4,0-1.68,1.32-3,3-3s3,1.32,3,3v10c0,2.36-.47,4.7-1.37,6.89-2.79,6.73-9.34,11.11-16.63,11.11-5.16,0-8.43-1.24-11.75-4.56-3.31-3.32-6.55-8.95-10.6-17.47-.02-.05-.05-.1-.07-.14-.4-.69-.51-1.51-.3-2.28h0c.37-1.38,1.36-2.05,2.51-2.2,1.15-.15,2.28.25,3,1.48h0l5.48,9.5c.22.38.56.68.97.85.41.17.86.2,1.28.08.43-.11.8-.36,1.07-.71.27-.35.41-.78.41-1.22V7c0-1.68,1.32-3,3-3Z"/>
  </g>
</svg>