<?xml version="1.0" encoding="UTF-8"?>
<svg id="Layer_2" data-name="Layer 2" xmlns="http://www.w3.org/2000/svg" viewBox="0 0 55.46 50">
  <defs>
    <style>
      .cls-1 {
        fill: #010101;
      }
    </style>
  </defs>
  <g id="Layer_1-2" data-name="Layer 1">
    <path class="cls-1" d="M4,0C1.81,0,0,1.81,0,4v22c0,2.19,1.81,4,4,4h10.76l9.45,18.89c.17.33.42.61.74.81.32.2.68.3,1.05.3,2.65,0,5.2-1.05,7.07-2.93,1.87-1.87,2.93-4.42,2.93-7.07v-4h13.47c3.58,0,6.41-3.21,5.94-6.76l-3-23.98c-.37-2.97-2.93-5.24-5.93-5.25H4ZM4,4h10v22H4V4ZM18,4h28.47c1.02,0,1.85.74,1.97,1.75l3,24.01c.16,1.22-.73,2.24-1.96,2.24h-15.48c-.53,0-1.04.21-1.41.59-.38.37-.59.88-.59,1.41v6c0,1.59-.63,3.12-1.76,4.24-.84.84-1.91,1.41-3.06,1.64l-9.18-18.36V4Z"/>
  </g>
</svg>