<?xml version="1.0" encoding="UTF-8"?>
<svg id="Layer_2" data-name="Layer 2" xmlns="http://www.w3.org/2000/svg" viewBox="0 0 44 56">
  <defs>
    <style>
      .cls-1 {
        fill: #010101;
      }
    </style>
  </defs>
  <g id="Layer_1-2" data-name="Layer 1">
    <path class="cls-1" d="M22,12c-5.5,0-10,4.5-10,10s4.5,10,10,10,10-4.5,10-10-4.5-10-10-10ZM22,16c3.34,0,6,2.66,6,6s-2.66,6-6,6-6-2.66-6-6,2.66-6,6-6ZM22,0C9.87,0,0,9.87,0,22c0,19.48,20.85,33.64,20.85,33.64.34.24.74.36,1.15.36s.81-.13,1.15-.36c0,0,20.85-14.16,20.85-33.64C44,9.87,34.13,0,22,0ZM22,4c9.96,0,18,8.04,18,18,0,14.94-15,27.13-18,29.43-3-2.31-18-14.5-18-29.43C4,12.04,12.04,4,22,4Z"/>
  </g>
</svg>