<?xml version="1.0" encoding="UTF-8"?>
<svg id="Layer_2" data-name="Layer 2" xmlns="http://www.w3.org/2000/svg" viewBox="0 0 52 52">
  <defs>
    <style>
      .cls-1 {
        fill: #010101;
      }
    </style>
  </defs>
  <g id="Layer_1-2" data-name="Layer 1">
    <path class="cls-1" d="M26,0c-.53,0-1.04.21-1.41.59L.59,24.59c-.28.28-.47.64-.55,1.02-.08.39-.04.79.11,1.16.15.37.41.68.74.9.33.22.72.34,1.11.34h10v20c0,2.19,1.81,4,4,4h20c2.19,0,4-1.81,4-4v-20h10c.4,0,.78-.12,1.11-.34.33-.22.59-.53.74-.9s.19-.77.11-1.16c-.08-.39-.27-.74-.55-1.02L27.41.59c-.38-.38-.88-.59-1.41-.59ZM26,4.83l19.17,19.17h-7.17c-.53,0-1.04.21-1.41.59-.38.38-.59.88-.59,1.41v22H16v-22c0-.53-.21-1.04-.59-1.41-.38-.38-.88-.59-1.41-.59h-7.17L26,4.83Z"/>
  </g>
</svg>