<?xml version="1.0" encoding="UTF-8"?>
<svg id="Layer_2" data-name="Layer 2" xmlns="http://www.w3.org/2000/svg" viewBox="0 0 48 48">
  <defs>
    <style>
      .cls-1 {
        fill: #010101;
      }
    </style>
  </defs>
  <g id="Layer_1-2" data-name="Layer 1">
    <path class="cls-1" d="M11,0C4.95,0,0,4.95,0,11s4.95,11,11,11,11-4.95,11-11S17.05,0,11,0ZM11,4c3.89,0,7,3.11,7,7s-3.11,7-7,7-7-3.11-7-7,3.11-7,7-7ZM37,0c-6.05,0-11,4.95-11,11s4.95,11,11,11,11-4.95,11-11S43.05,0,37,0ZM37,4c3.89,0,7,3.11,7,7s-3.11,7-7,7-7-3.11-7-7,3.11-7,7-7ZM11,26c-6.05,0-11,4.95-11,11s4.95,11,11,11,11-4.95,11-11-4.95-11-11-11ZM11,30c3.89,0,7,3.11,7,7s-3.11,7-7,7-7-3.11-7-7,3.11-7,7-7ZM37,28c-.53,0-1.04.21-1.41.59-.37.38-.59.88-.59,1.41v5h-5c-.53,0-1.04.21-1.41.59-.38.38-.59.88-.59,1.41s.21,1.04.59,1.41c.38.37.88.59,1.41.59h5v5c0,.53.21,1.04.59,1.41.38.37.88.59,1.41.59s1.04-.21,1.41-.59c.37-.38.59-.88.59-1.41v-5h5c.53,0,1.04-.21,1.41-.59.37-.38.59-.88.59-1.41s-.21-1.04-.59-1.41c-.38-.37-.88-.59-1.41-.59h-5v-5c0-.53-.21-1.04-.59-1.41-.38-.38-.88-.59-1.41-.59Z"/>
  </g>
</svg>