<?xml version="1.0" encoding="UTF-8"?>
<svg id="Layer_2" data-name="Layer 2" xmlns="http://www.w3.org/2000/svg" viewBox="0 0 56 56">
  <defs>
    <style>
      .cls-1 {
        fill: #010101;
      }
    </style>
  </defs>
  <g id="Layer_1-2" data-name="Layer 1">
    <path class="cls-1" d="M47.85,1.23c-.1-.24-.24-.46-.43-.65-.19-.19-.41-.34-.65-.43-.24-.1-.49-.15-.77-.15h-15c-1.1,0-2,.9-2,2s.9,2,2,2h10.17l-14.59,14.59c-.78.78-.78,2.05,0,2.83.78.78,2.05.78,2.83,0l14.59-14.59v10.17c0,1.1.9,2,2,2s2-.9,2-2V1.99c0-.27-.06-.52-.15-.75ZM1.17,9.17c.75-.75,1.77-1.17,2.83-1.17h16c1.1,0,2,.9,2,2s-.9,2-2,2H4v32h26c1.1,0,2,.9,2,2s-.9,2-2,2H4c-1.06,0-2.08-.42-2.83-1.17-.75-.75-1.17-1.77-1.17-2.83V12c0-1.06.42-2.08,1.17-2.83ZM50.07,28.2c.81.39,1.26,1.28,1.09,2.17l-1.3,6.96,4.88,1.96c.6.24,1.05.76,1.2,1.39.15.63-.01,1.29-.44,1.78l-11.2,12.86c-.59.68-1.57.88-2.38.49s-1.26-1.28-1.1-2.17l1.3-6.96-4.88-1.96c-.6-.24-1.05-.76-1.2-1.39-.15-.63.01-1.29.44-1.78l11.2-12.86c.59-.68,1.57-.88,2.38-.49ZM41.36,42.05l3.79,1.52c.88.36,1.4,1.29,1.22,2.22l-.25,1.36,4.53-5.2-3.79-1.52c-.88-.36-1.4-1.29-1.22-2.22l.25-1.36-4.53,5.2Z"/>
  </g>
</svg>