<?xml version="1.0" encoding="UTF-8"?>
<svg id="Layer_2" data-name="Layer 2" xmlns="http://www.w3.org/2000/svg" viewBox="0 0 52 47.99">
  <defs>
    <style>
      .cls-1 {
        fill: #010101;
      }
    </style>
  </defs>
  <g id="Layer_1-2" data-name="Layer 1">
    <path class="cls-1" d="M17.57.05s-.02.01-.03.02c0,0-.02,0-.03,0L1.52,4.06c-.43.11-.82.36-1.09.71-.27.35-.42.78-.42,1.23v36c0,.3.07.6.2.88.13.27.33.51.57.7.24.19.52.32.82.38.3.06.61.06.9-.02l15.28-3.82,15.34,7.67c.42.2.9.26,1.35.15,0,0,.02,0,.03,0l16-4c.43-.11.82-.36,1.09-.71.27-.35.42-.78.42-1.23V6c0-.3-.07-.6-.2-.88-.13-.27-.33-.51-.57-.7-.24-.19-.52-.32-.82-.38-.3-.06-.61-.06-.9.02l-15.28,3.82L18.89.21c-.41-.2-.87-.26-1.32-.17ZM16,4.56v31.88l-12,3V7.56l12-3ZM20,5.24l12,6v31.53l-12-6V5.24ZM48,8.56v31.88l-12,3V11.56l12-3Z"/>
  </g>
</svg>