<?xml version="1.0" encoding="UTF-8"?>
<svg id="Layer_2" data-name="Layer 2" xmlns="http://www.w3.org/2000/svg" viewBox="0 0 48 48">
  <defs>
    <style>
      .cls-1 {
        fill: #010101;
      }
    </style>
  </defs>
  <g id="Layer_1-2" data-name="Layer 1">
    <path class="cls-1" d="M14,11c1.1,0,2,.9,2,2v9h16v-9c0-1.1.9-2,2-2s2,.9,2,2v23c0,1.1-.9,2-2,2s-2-.9-2-2v-10h-16v10c0,1.1-.9,2-2,2s-2-.9-2-2V13c0-1.1.9-2,2-2ZM0,4C0,1.79,1.79,0,4,0h40c2.21,0,4,1.79,4,4v40c0,2.21-1.79,4-4,4H4c-2.21,0-4-1.79-4-4V4ZM44,4H4v40h40V4Z"/>
  </g>
</svg>