<?xml version="1.0" encoding="UTF-8"?>
<svg id="Layer_2" data-name="Layer 2" xmlns="http://www.w3.org/2000/svg" viewBox="0 0 56 50">
  <defs>
    <style>
      .cls-1 {
        fill: #010101;
      }
    </style>
  </defs>
  <g id="Layer_1-2" data-name="Layer 1">
    <path class="cls-1" d="M18,0c-.53,0-1.04.21-1.41.59-.38.38-.59.88-.59,1.41v4H2c-.53,0-1.04.21-1.41.59-.38.38-.59.88-.59,1.41s.21,1.04.59,1.41c.38.38.88.59,1.41.59h21.9c-.45,5.06-2.61,9.6-5.9,13.08-2.06-2.18-3.7-4.8-4.74-7.75-.09-.25-.22-.48-.4-.67-.18-.2-.39-.35-.62-.47-.24-.11-.49-.18-.76-.19-.26-.01-.52.02-.77.11-.25.09-.48.22-.67.4-.2.18-.35.39-.47.62-.11.24-.18.49-.19.76-.01.26.02.52.11.77,1.22,3.44,3.13,6.5,5.52,9.06-3.64,2.67-8.13,4.27-13.01,4.27-.53,0-1.04.21-1.41.59-.38.38-.59.88-.59,1.41s.21,1.04.59,1.41c.38.38.88.59,1.41.59,6.03,0,11.57-2.08,15.99-5.54,3.68,2.88,8.11,4.75,12.88,5.33l-6.66,13.31c-.12.23-.19.49-.21.75-.02.26.01.52.1.77s.21.48.39.68c.17.2.38.36.62.48.23.12.49.19.75.21.26.02.53-.01.77-.1.25-.08.48-.21.68-.39s.36-.38.48-.62l3.45-6.89h17.53l3.45,6.89c.12.24.28.44.48.62.2.17.43.3.68.39.25.08.51.12.77.1.26-.02.52-.09.75-.21.24-.12.44-.28.62-.48.17-.2.3-.43.39-.68.08-.25.12-.51.1-.77-.02-.26-.09-.52-.21-.75l-14-28c-.17-.33-.42-.61-.74-.81-.32-.2-.68-.3-1.05-.3s-.74.1-1.05.3c-.32.2-.57.47-.74.81l-5.42,10.85c-4.35-.24-8.43-1.75-11.81-4.23,3.92-4.19,6.46-9.66,6.92-15.72h6.1c.53,0,1.04-.21,1.41-.59.38-.38.59-.88.59-1.41s-.21-1.04-.59-1.41c-.38-.38-.88-.59-1.41-.59h-14V2c0-.53-.21-1.04-.59-1.41-.38-.38-.88-.59-1.41-.59ZM40,24.47l6.76,13.53h-13.53l6.76-13.53Z"/>
  </g>
</svg>