<?xml version="1.0" encoding="UTF-8"?>
<svg id="Layer_2" data-name="Layer 2" xmlns="http://www.w3.org/2000/svg" viewBox="0 0 52 48">
  <defs>
    <style>
      .cls-1 {
        fill: #010101;
      }
    </style>
  </defs>
  <g id="Layer_1-2" data-name="Layer 1">
    <path class="cls-1" d="M18,14c-.53,0-1.04.21-1.41.59-.38.38-.59.88-.59,1.41v4c0,2.65,1.05,5.2,2.93,7.07,3.89,3.89,10.25,3.89,14.14,0,1.87-1.87,2.93-4.42,2.93-7.07v-4c0-.53-.21-1.04-.59-1.41-.38-.38-.88-.59-1.41-.59s-1.04.21-1.41.59c-.38.38-.59.88-.59,1.41v4c0,1.59-.63,3.12-1.76,4.24-2.36,2.36-6.13,2.36-8.48,0-1.13-1.13-1.76-2.65-1.76-4.24v-4c0-.53-.21-1.04-.59-1.41-.38-.38-.88-.59-1.41-.59ZM34,14c-.53,0-1.04.21-1.41.59-.38.38-.59.88-.59,1.41v4c0,2.65,1.05,5.2,2.93,7.07,3.89,3.89,10.25,3.89,14.14,0,1.87-1.87,2.93-4.42,2.93-7.07v-4c0-.53-.21-1.04-.59-1.41-.38-.38-.88-.59-1.41-.59s-1.04.21-1.41.59c-.37.38-.59.88-.59,1.41v4c0,1.59-.63,3.12-1.76,4.24-2.36,2.36-6.13,2.36-8.48,0-1.13-1.13-1.76-2.65-1.76-4.24v-4c0-.53-.21-1.04-.59-1.41-.38-.38-.88-.59-1.41-.59ZM7.48,0c-1.76.01-3.33,1.19-3.83,2.88v.02S.08,15.45.08,15.45c-.08.3-.1.61-.04.91.06.3.18.59.37.84.19.25.43.45.7.59.28.14.58.21.89.21h48c.31,0,.61-.07.89-.21.28-.14.52-.34.7-.59.19-.25.31-.53.37-.84.06-.3.04-.62-.04-.91l-3.57-12.55v-.02c-.51-1.69-2.07-2.87-3.83-2.88H7.48ZM2,14c-.53,0-1.04.21-1.41.59-.38.38-.59.88-.59,1.41v4c0,2.65,1.05,5.2,2.93,7.07,2.86,2.86,7.17,3.71,10.9,2.17,3.73-1.55,6.17-5.2,6.17-9.24v-4c0-.53-.21-1.04-.59-1.41-.38-.38-.88-.59-1.41-.59s-1.04.21-1.41.59c-.38.38-.59.88-.59,1.41v4c0,2.43-1.46,4.61-3.7,5.54-2.25.93-4.82.42-6.54-1.3-1.13-1.13-1.76-2.65-1.76-4.24v-4c0-.53-.21-1.04-.59-1.41-.38-.38-.88-.59-1.41-.59ZM7.52,4h36.97s.02,0,.02.02l2.84,9.98H4.65l2.84-9.98s0-.02.02-.02ZM6,24.9c-.53,0-1.04.21-1.41.59-.38.38-.59.88-.59,1.41v17.1c0,2.19,1.81,4,4,4h36c2.19,0,4-1.81,4-4v-17.1c0-.53-.21-1.04-.59-1.41-.38-.38-.88-.59-1.41-.59s-1.04.21-1.41.59c-.37.38-.59.88-.59,1.41v17.1H8v-17.1c0-.53-.21-1.04-.59-1.41-.38-.38-.88-.59-1.41-.59Z"/>
  </g>
</svg>