<?xml version="1.0" encoding="UTF-8"?>
<svg id="Layer_2" data-name="Layer 2" xmlns="http://www.w3.org/2000/svg" viewBox="0 0 54 44">
  <defs>
    <style>
      .cls-1 {
        fill: #010101;
      }
    </style>
  </defs>
  <g id="Layer_1-2" data-name="Layer 1">
    <path class="cls-1" d="M44.22,6c-5.8,0-11.25,2.82-14.62,7.54h0s-.3.43-.3.43c-.31.43-.43.97-.34,1.49.09.52.38.99.82,1.29.43.31.97.43,1.49.34.52-.09.99-.38,1.29-.82l.29-.42c2.63-3.67,6.86-5.86,11.37-5.86h7.77c.53,0,1.04-.21,1.41-.59.38-.38.59-.88.59-1.41s-.21-1.04-.59-1.41c-.37-.38-.88-.59-1.41-.59h-7.78ZM20.74,26.9c-.26.04-.51.14-.73.28-.22.14-.41.32-.57.54l-.29.42c-2.63,3.67-6.86,5.86-11.37,5.86H2c-.53,0-1.04.21-1.41.59-.38.38-.59.88-.59,1.41s.21,1.04.59,1.41c.38.37.88.59,1.41.59h5.77c5.8,0,11.25-2.81,14.63-7.54h0s.3-.43.3-.43c.31-.43.43-.97.34-1.49-.09-.52-.38-.99-.82-1.29-.43-.31-.97-.43-1.49-.34ZM46,28c-.53,0-1.04.21-1.41.59-.38.38-.59.88-.59,1.41s.21,1.04.59,1.41l4.59,4.59-4.59,4.59c-.38.37-.59.88-.59,1.41s.21,1.04.59,1.41c.37.38.88.59,1.41.59s1.04-.21,1.41-.59l6-6c.37-.38.59-.88.59-1.41s-.21-1.04-.59-1.41l-6-6c-.37-.38-.88-.59-1.41-.59ZM46,0c-.53,0-1.04.21-1.41.59-.38.38-.59.88-.59,1.41s.21,1.04.59,1.41l4.59,4.59-4.59,4.59c-.38.38-.59.88-.59,1.41s.21,1.04.59,1.41c.37.37.88.59,1.41.59s1.04-.21,1.41-.59l6-6c.38-.38.59-.88.59-1.41s-.21-1.04-.59-1.41l-6-6c-.37-.38-.88-.59-1.41-.59ZM2,6c-.53,0-1.04.21-1.41.59-.38.38-.59.88-.59,1.41s.21,1.04.59,1.41c.38.38.88.59,1.41.59h5.77c4.52,0,8.75,2.19,11.37,5.86h0l10.45,14.6c1.66,2.33,3.86,4.23,6.4,5.54,2.54,1.31,5.36,2,8.22,2h7.78c.53,0,1.04-.21,1.41-.59.37-.38.59-.88.59-1.41s-.21-1.04-.59-1.41c-.38-.38-.88-.59-1.41-.59h-7.77c-2.22,0-4.42-.54-6.4-1.56-1.98-1.02-3.68-2.5-4.98-4.31h0l-10.45-14.6c-3.37-4.72-8.82-7.53-14.62-7.54H2Z"/>
  </g>
</svg>