<?xml version="1.0" encoding="UTF-8"?>
<svg id="Layer_2" data-name="Layer 2" xmlns="http://www.w3.org/2000/svg" viewBox="0 0 32.87 45.99">
  <defs>
    <style>
      .cls-1 {
        fill: #010101;
      }
    </style>
  </defs>
  <g id="Layer_1-2" data-name="Layer 1">
    <path class="cls-1" d="M31.53,23.35c1.04.37,1.59,1.51,1.22,2.55,0,0,0,0,0,0l-6.68,18.75c-.37,1.04-1.51,1.58-2.55,1.21-.53-.19-.96-.59-1.17-1.11l-6.04-14.38-6.05,14.37c-.43,1.02-1.6,1.49-2.62,1.06-.52-.22-.93-.65-1.11-1.19L.09,25.88c-.32-1.06.28-2.17,1.33-2.49,1-.3,2.07.22,2.45,1.19l4.74,13.79,5.86-13.92c.43-1.02,1.6-1.5,2.62-1.07.48.2.87.59,1.07,1.07l5.89,14,4.95-13.9c.37-1.04,1.51-1.58,2.55-1.22h0ZM30.48,15.35c-1.05,0-1.9-.81-2.15-1.83-1.63-6.7-8.39-10.8-15.08-9.16-4.53,1.1-8.06,4.64-9.16,9.16-.24,1.02-1.1,1.82-2.15,1.82-1.17,0-2.11-1-1.88-2.14C1.87,4.28,10.57-1.48,19.49.33c6.48,1.32,11.55,6.38,12.87,12.87.23,1.14-.7,2.14-1.88,2.14Z"/>
  </g>
</svg>