<?xml version="1.0" encoding="UTF-8"?>
<svg id="Layer_2" data-name="Layer 2" xmlns="http://www.w3.org/2000/svg" viewBox="0 0 52 40">
  <defs>
    <style>
      .cls-1 {
        fill: #010101;
      }
    </style>
  </defs>
  <g id="Layer_1-2" data-name="Layer 1">
    <path class="cls-1" d="M4,4h44v32H4V4ZM2,0C1.47,0,.96.21.59.59.21.96,0,1.47,0,2v34c0,2.19,1.81,4,4,4,0,0,0,0,0,0h44c2.19,0,4-1.81,4-4V2c0-.53-.21-1.04-.59-1.41-.37-.38-.88-.59-1.41-.59H2ZM1.91,0C1.38.02.88.26.53.65.17,1.04-.02,1.56,0,2.09c.02.53.26,1.03.65,1.39l24,22c.37.34.85.53,1.35.53s.98-.19,1.35-.53L51.35,3.47c.39-.36.62-.86.65-1.39.02-.53-.17-1.05-.52-1.44-.36-.39-.86-.62-1.39-.65-.53-.02-1.05.17-1.44.52l-22.65,20.76L3.35.53c-.19-.18-.42-.32-.67-.41C2.44.03,2.18,0,1.91,0Z"/>
  </g>
</svg>