<?xml version="1.0" encoding="UTF-8"?>
<svg id="Layer_2" data-name="Layer 2" xmlns="http://www.w3.org/2000/svg" viewBox="0 0 48 41">
  <defs>
    <style>
      .cls-1 {
        fill: #010101;
      }
    </style>
  </defs>
  <g id="Layer_1-2" data-name="Layer 1">
    <path class="cls-1" d="M6.43.05c-.45-.1-.91-.04-1.32.17L1.11,2.21c-.23.12-.44.28-.62.48-.17.2-.3.43-.39.68-.08.25-.12.51-.1.77.02.26.09.52.21.75.12.23.28.44.48.62.2.17.43.3.68.39s.51.12.77.1c.26-.02.52-.09.75-.21l1.11-.55v10.76c0,.53.21,1.04.59,1.41.38.38.88.59,1.41.59s1.04-.21,1.41-.59.59-.88.59-1.41V2c0-.46-.16-.9-.44-1.25-.29-.36-.69-.6-1.13-.7ZM5.93,22.98c-.76-.06-1.54.05-2.27.31,0,0,0,0,0,0-1.47.53-2.65,1.67-3.23,3.11-.2.49-.19,1.04.01,1.53.21.49.6.87,1.09,1.07.49.2,1.04.19,1.53-.01.49-.21.87-.6,1.07-1.09.16-.4.48-.7.88-.85.4-.15.85-.11,1.22.09.81.44,1.05,1.41.52,2.17L.4,37.8c-.22.3-.36.65-.39,1.02-.03.37.04.74.2,1.07.17.33.42.61.74.81.32.2.68.3,1.05.3h7c.53,0,1.04-.21,1.41-.59.38-.38.59-.88.59-1.41s-.21-1.04-.59-1.41c-.38-.38-.88-.59-1.41-.59h-3l4.01-5.35s.03-.04.04-.06c1.84-2.67.94-6.43-1.92-7.97,0,0,0,0,0,0-.69-.37-1.44-.59-2.2-.64ZM18,35c-.53,0-1.04.21-1.41.59-.38.37-.59.88-.59,1.41s.21,1.04.59,1.41c.38.37.88.59,1.41.59h28c.53,0,1.04-.21,1.41-.59s.59-.88.59-1.41-.21-1.04-.59-1.41c-.37-.38-.88-.59-1.41-.59h-28ZM18,3c-.53,0-1.04.21-1.41.59s-.59.88-.59,1.41.21,1.04.59,1.41c.38.38.88.59,1.41.59h28c.53,0,1.04-.21,1.41-.59.38-.38.59-.88.59-1.41s-.21-1.04-.59-1.41c-.37-.38-.88-.59-1.41-.59h-28ZM18,19c-.53,0-1.04.21-1.41.59s-.59.88-.59,1.41.21,1.04.59,1.41c.38.38.88.59,1.41.59h28c.53,0,1.04-.21,1.41-.59.38-.38.59-.88.59-1.41s-.21-1.04-.59-1.41c-.37-.38-.88-.59-1.41-.59h-28Z"/>
  </g>
</svg>