<?xml version="1.0" encoding="UTF-8"?>
<svg id="Layer_2" data-name="Layer 2" xmlns="http://www.w3.org/2000/svg" viewBox="0 0 56 32">
  <defs>
    <style>
      .cls-1 {
        fill: #010101;
        fill-rule: evenodd;
      }
    </style>
  </defs>
  <g id="Layer_1-2" data-name="Layer 1">
    <path class="cls-1" d="M31.41,12.59c-.78-.78-2.05-.78-2.83,0-.78.78-.78,2.05,0,2.83l6,6c.78.78,2.05.78,2.83,0l6-6c.78-.78.78-2.05,0-2.83-.78-.78-2.05-.78-2.83,0l-4.59,4.59-4.59-4.59ZM0,12C0,5.37,5.37,0,12,0h32c6.63,0,12,5.37,12,12v8c0,6.63-5.37,12-12,12H12c-6.63,0-12-5.37-12-12v-8ZM12,4h32c4.42,0,8,3.58,8,8v8c0,4.42-3.58,8-8,8H12c-4.42,0-8-3.58-8-8v-8c0-4.42,3.58-8,8-8Z"/>
  </g>
</svg>