<?xml version="1.0" encoding="UTF-8"?>
<svg id="Layer_2" data-name="Layer 2" xmlns="http://www.w3.org/2000/svg" viewBox="0 0 44.89 42">
  <defs>
    <style>
      .cls-1 {
        fill: #010101;
        fill-rule: evenodd;
      }
    </style>
  </defs>
  <g id="Layer_1-2" data-name="Layer 1">
    <path class="cls-1" d="M13,0c-3.45,0-6.75,1.37-9.19,3.81C1.37,6.25,0,9.55,0,13s1.37,6.75,3.81,9.19c2.44,2.44,5.74,3.81,9.19,3.81h11v12h-2c-1.1,0-2,.9-2,2s.9,2,2,2h16c1.1,0,2-.9,2-2s-.9-2-2-2h-2V4h6.89c1.1,0,2-.9,2-2s-.9-2-2-2H13ZM32,4h-4v34h4V4ZM24,4h-11c-2.39,0-4.68.95-6.36,2.64s-2.64,3.98-2.64,6.36.95,4.68,2.64,6.36c1.69,1.69,3.98,2.64,6.36,2.64h11V4Z"/>
  </g>
</svg>