<?xml version="1.0" encoding="UTF-8"?>
<svg id="Layer_2" data-name="Layer 2" xmlns="http://www.w3.org/2000/svg" viewBox="0 0 52 44">
  <defs>
    <style>
      .cls-1 {
        fill: #010101;
      }
    </style>
  </defs>
  <g id="Layer_1-2" data-name="Layer 1">
    <path class="cls-1" d="M50.13,12c-.53-.04-1.05.14-1.45.49l-14.78,12.93-14.7-11.03c-.37-.28-.82-.42-1.28-.4-.46.02-.9.19-1.24.49L.68,28.49c-.2.17-.36.38-.48.62s-.19.49-.2.75c-.02.26.02.52.1.77.08.25.22.48.39.68.17.2.38.36.62.48.24.12.49.19.75.2.26.02.53-.02.77-.1.25-.08.48-.22.68-.39l14.78-12.93,14.7,11.03c.37.28.82.42,1.28.4.46-.02.9-.19,1.24-.49l16-14c.2-.17.36-.38.48-.62.12-.24.19-.49.2-.75.02-.26-.02-.53-.1-.77-.08-.25-.22-.48-.39-.68-.17-.2-.38-.36-.62-.48-.24-.12-.49-.19-.75-.2ZM2,0C1.47,0,.96.21.59.59.21.96,0,1.47,0,2v40c0,.53.21,1.04.59,1.41.38.38.88.59,1.41.59h48c.53,0,1.04-.21,1.41-.59.37-.38.59-.88.59-1.41s-.21-1.04-.59-1.41c-.38-.37-.88-.59-1.41-.59H4V2c0-.53-.21-1.04-.59-1.41-.38-.38-.88-.59-1.41-.59Z"/>
  </g>
</svg>