<?xml version="1.0" encoding="UTF-8"?>
<svg id="Layer_2" data-name="Layer 2" xmlns="http://www.w3.org/2000/svg" viewBox="0 0 52 52">
  <defs>
    <style>
      .cls-1 {
        fill: #010101;
      }
    </style>
  </defs>
  <g id="Layer_1-2" data-name="Layer 1">
    <path class="cls-1" d="M25.82,0C16.48.07,7.66,5.19,3.08,13.71c-5.63,10.49-3.4,23.5,5.41,31.51,8.81,8.02,21.96,9.02,31.88,2.43.22-.15.41-.33.55-.55.15-.22.25-.46.3-.72.05-.26.05-.52,0-.78-.05-.26-.15-.5-.3-.72-.15-.22-.33-.41-.55-.55-.22-.15-.46-.25-.72-.3-.26-.05-.52-.05-.78,0s-.5.15-.72.3c-8.41,5.58-19.51,4.74-26.98-2.06C3.72,35.47,1.84,24.5,6.61,15.6,11.38,6.71,21.56,2.2,31.35,4.66c9.79,2.46,16.64,11.24,16.64,21.33,0,2.52-.49,4.68-1.32,6.02s-1.77,1.98-3.68,1.98-2.85-.65-3.68-1.98-1.32-3.49-1.32-6.02v-10c0-.53-.21-1.04-.59-1.41-.37-.38-.88-.59-1.41-.59s-1.04.21-1.41.59c-.37.38-.59.88-.59,1.41v10c0,3,.51,5.84,1.93,8.13,1.42,2.29,3.98,3.87,7.07,3.87s5.65-1.59,7.07-3.87c1.42-2.29,1.93-5.12,1.93-8.13,0,0,0,0,0,0,0-11.91-8.12-22.31-19.67-25.21C30.16.24,27.98-.01,25.82,0ZM26,13.99c-6.6,0-12,5.4-12,12s5.4,12,12,12,12-5.4,12-12-5.4-12-12-12ZM26,17.99c4.44,0,8,3.56,8,8s-3.56,8-8,8-8-3.56-8-8,3.56-8,8-8Z"/>
  </g>
</svg>