<?xml version="1.0" encoding="UTF-8"?>
<svg id="Layer_2" data-name="Layer 2" xmlns="http://www.w3.org/2000/svg" viewBox="0 0 52 47.68">
  <defs>
    <style>
      .cls-1 {
        fill: #010101;
      }
    </style>
  </defs>
  <g id="Layer_1-2" data-name="Layer 1">
    <path class="cls-1" d="M4,0C1.81,0,0,1.81,0,4v39.72c.01,1.54.92,2.94,2.31,3.59,1.4.65,3.05.44,4.24-.54,0,0,0,0,0,0l8.08-6.75s0,0,.01,0h33.36c2.19,0,4-1.81,4-4V4c0-2.19-1.81-4-4-4H4ZM4,4h44v32H14.62s0,0,0,0c-.95,0-1.87.34-2.58.96l-8.04,6.72V4Z"/>
  </g>
</svg>