<?xml version="1.0" encoding="UTF-8"?>
<svg id="Layer_2" data-name="Layer 2" xmlns="http://www.w3.org/2000/svg" viewBox="0 0 52 44">
  <defs>
    <style>
      .cls-1 {
        fill: #010101;
      }
    </style>
  </defs>
  <g id="Layer_1-2" data-name="Layer 1">
    <path class="cls-1" d="M4,2c0-1.1-.9-2-2-2S0,.9,0,2v40c0,1.1.9,2,2,2h48c1.1,0,2-.9,2-2s-.9-2-2-2H4v-9.09l14.1-12.33,14.7,11.03c.76.57,1.81.53,2.52-.09l16-14c.83-.73.92-1.99.19-2.82s-1.99-.92-2.82-.19l-14.78,12.93-14.7-11.03c-.76-.57-1.81-.53-2.52.09l-12.68,11.1V2Z"/>
  </g>
</svg>