<?xml version="1.0" encoding="UTF-8"?>
<svg id="Layer_2" data-name="Layer 2" xmlns="http://www.w3.org/2000/svg" viewBox="0 0 50 54">
  <defs>
    <style>
      .cls-1 {
        fill: #010101;
      }
    </style>
  </defs>
  <g id="Layer_1-2" data-name="Layer 1">
    <path class="cls-1" d="M47.52.06L15.52,8.06c-.43.11-.82.36-1.09.71-.27.35-.42.78-.42,1.23v35c0,.53.21,1.04.59,1.41.38.37.88.59,1.41.59s1.04-.21,1.41-.59c.38-.38.59-.88.59-1.41V11.56l28-7v32.44c0,.53.21,1.04.59,1.41.38.37.88.59,1.41.59s1.04-.21,1.41-.59c.37-.38.59-.88.59-1.41V2c0-.3-.07-.6-.2-.88-.13-.27-.33-.51-.57-.7-.24-.19-.52-.32-.82-.38-.3-.06-.61-.06-.9.02ZM47.52,12.06L15.52,20.06c-.25.06-.49.18-.71.33-.21.16-.39.35-.52.58-.14.23-.22.47-.26.73-.04.26-.03.52.04.78.06.25.18.49.33.71.16.21.35.39.58.52.23.14.47.22.73.26.26.04.52.03.78-.04l32-8c.25-.06.49-.18.71-.33.21-.16.39-.35.52-.58.14-.23.22-.47.26-.73.04-.26.03-.52-.04-.78-.06-.25-.18-.49-.33-.71-.16-.21-.35-.39-.58-.52-.23-.14-.47-.22-.73-.26-.26-.04-.52-.03-.78.04ZM41,28c-4.95,0-9,4.05-9,9s4.05,9,9,9,9-4.05,9-9-4.05-9-9-9ZM41,32c2.79,0,5,2.21,5,5s-2.21,5-5,5-5-2.21-5-5,2.21-5,5-5ZM9,36c-4.95,0-9,4.05-9,9s4.05,9,9,9,9-4.05,9-9-4.05-9-9-9ZM9,40c2.79,0,5,2.21,5,5s-2.21,5-5,5-5-2.21-5-5,2.21-5,5-5Z"/>
  </g>
</svg>