<?xml version="1.0" encoding="UTF-8"?>
<svg id="Layer_2" data-name="Layer 2" xmlns="http://www.w3.org/2000/svg" viewBox="0 0 56 48">
  <defs>
    <style>
      .cls-1 {
        fill: #010101;
      }
    </style>
  </defs>
  <g id="Layer_1-2" data-name="Layer 1">
    <path class="cls-1" d="M4,0C1.81,0,0,1.81,0,4v32c0,2.19,1.81,4,4,4h16c1.59,0,3.12.63,4.24,1.76,1.13,1.13,1.76,2.65,1.76,4.24,0,.53.22,1.03.6,1.4.37.37.88.58,1.4.58s1.03-.21,1.4-.58c.37-.37.59-.87.6-1.4V10C30,4.5,25.5,0,20,0H4ZM4,4h16c3.34,0,6,2.66,6,6v28.05c-1.72-1.3-3.81-2.05-6-2.05H4V4ZM36,0c-5.5,0-10,4.5-10,10,0,.53.21,1.04.59,1.41.38.38.88.59,1.41.59s1.04-.21,1.41-.59c.38-.38.59-.88.59-1.41,0-3.34,2.66-6,6-6h16v32h-16c-2.65,0-5.2,1.05-7.07,2.93-1.88,1.87-2.93,4.42-2.93,7.07,0,.53.21,1.04.59,1.41.38.37.88.59,1.41.59s1.04-.21,1.41-.59c.38-.38.59-.88.59-1.41,0-1.59.63-3.12,1.76-4.24,1.13-1.13,2.65-1.76,4.24-1.76h16c2.19,0,4-1.81,4-4V4C56,1.81,54.19,0,52,0h-16Z"/>
  </g>
</svg>