<?xml version="1.0" encoding="UTF-8"?>
<svg id="Layer_2" data-name="Layer 2" xmlns="http://www.w3.org/2000/svg" viewBox="0 0 52 44">
  <defs>
    <style>
      .cls-1 {
        fill: #010101;
      }
    </style>
  </defs>
  <g id="Layer_1-2" data-name="Layer 1">
    <path class="cls-1" d="M13,14c-.53,0-1.04.21-1.41.59-.38.38-.59.88-.59,1.41s.21,1.04.59,1.41c.38.38.88.59,1.41.59h26c.53,0,1.04-.21,1.41-.59.37-.38.59-.88.59-1.41s-.21-1.04-.59-1.41c-.38-.38-.88-.59-1.41-.59H13ZM13,22c-.53,0-1.04.21-1.41.59-.38.38-.59.88-.59,1.41s.21,1.04.59,1.41c.38.38.88.59,1.41.59h26c.53,0,1.04-.21,1.41-.59.37-.38.59-.88.59-1.41s-.21-1.04-.59-1.41c-.38-.38-.88-.59-1.41-.59H13ZM4,0C1.81,0,0,1.81,0,4v38c0,.34.09.68.25.97.17.3.41.55.7.73.29.18.62.28.96.3.34.02.68-.06.98-.21l7.11-3.55,7.11,3.55c.28.14.58.21.89.21s.62-.07.89-.21l7.11-3.55,7.11,3.55c.28.14.58.21.89.21s.62-.07.89-.21l7.11-3.55,7.11,3.55c.3.15.64.22.98.21.34-.02.67-.12.96-.3.29-.18.53-.43.7-.73.17-.3.25-.63.25-.97V4c0-2.19-1.81-4-4-4H4ZM4,4h44v34.76l-5.11-2.55c-.28-.14-.58-.21-.89-.21s-.62.07-.89.21l-7.11,3.55-7.11-3.55c-.28-.14-.58-.21-.89-.21s-.62.07-.89.21l-7.11,3.55-7.11-3.55c-.28-.14-.58-.21-.89-.21s-.62.07-.89.21l-5.11,2.55V4Z"/>
  </g>
</svg>