<?xml version="1.0" encoding="UTF-8"?>
<svg id="Layer_2" data-name="Layer 2" xmlns="http://www.w3.org/2000/svg" viewBox="0 0 48 37">
  <defs>
    <style>
      .cls-1 {
        fill: #010101;
      }
    </style>
  </defs>
  <g id="Layer_1-2" data-name="Layer 1">
    <path class="cls-1" d="M9,0c.76,0,1.45.43,1.79,1.11l7,14c.49.99.09,2.19-.89,2.68-.99.49-2.19.09-2.68-.89l-1.52-3.04h-7.39l-1.52,3.04c-.49.99-1.7,1.39-2.68.89-.99-.49-1.39-1.7-.89-2.68L7.21,1.11c.34-.68,1.03-1.11,1.79-1.11ZM7.31,9.86h3.39l-1.69-3.39-1.69,3.39ZM22,3c-1.1,0-2,.9-2,2s.9,2,2,2h24c1.1,0,2-.9,2-2s-.9-2-2-2h-24ZM24,15c0-1.1.9-2,2-2h12c1.1,0,2,.9,2,2s-.9,2-2,2h-12c-1.1,0-2-.9-2-2ZM0,25c0-1.1.9-2,2-2h44c1.1,0,2,.9,2,2s-.9,2-2,2H2C.9,27,0,26.1,0,25ZM0,35c0-1.1.9-2,2-2h36c1.1,0,2,.9,2,2s-.9,2-2,2H2C.9,37,0,36.1,0,35Z"/>
  </g>
</svg>