<?xml version="1.0" encoding="UTF-8"?>
<svg id="Layer_2" data-name="Layer 2" xmlns="http://www.w3.org/2000/svg" viewBox="0 0 50.4 50.86">
  <defs>
    <style>
      .cls-1 {
        fill: #010101;
      }
    </style>
  </defs>
  <g id="Layer_1-2" data-name="Layer 1">
    <path class="cls-1" d="M6.07,8.4c.55-.96,1.78-1.28,2.73-.73l8.95,5.16-.42-10.71c-.07-1.1.77-2.05,1.88-2.12s2.05.77,2.12,1.88c0,.03,0,.05,0,.08l.56,14.34c.04,1.1-.81,2.03-1.92,2.08-.38.02-.75-.08-1.08-.27l-12.09-6.98c-.96-.55-1.28-1.78-.73-2.73ZM30.11.41c1.1,0,2,.9,2,2h0v10.34l9.06-5.72c.91-.63,2.15-.4,2.78.5.63.91.4,2.15-.5,2.78-.05.03-.1.06-.15.09l-12.13,7.66c-.93.59-2.17.31-2.76-.62-.2-.32-.31-.69-.31-1.07V2.42c0-1.1.9-2,2-2h0ZM19.93,50.52c-1.1,0-2-.9-2-2v-10.34l-9.06,5.72c-.92.62-2.16.37-2.78-.54s-.37-2.16.54-2.78c.03-.02.06-.04.1-.06l12.13-7.66c.93-.59,2.17-.31,2.76.62.2.32.31.69.31,1.07v13.96c0,1.1-.9,2-2,2h0ZM41.72,43.28c.96.55,2.18.21,2.73-.75.54-.95.22-2.16-.73-2.71l-12.08-6.98c-.96-.55-2.18-.23-2.73.73-.19.33-.28.7-.27,1.08l.57,14.34c.07,1.1,1.01,1.94,2.12,1.88,1.07-.06,1.9-.96,1.88-2.04l-.42-10.71,8.95,5.17h0ZM48.76,20.28c.96-.55,1.3-1.77.75-2.73-.55-.96-1.77-1.3-2.73-.75,0,0-.02,0-.02.01l-12.1,6.98c-.96.55-1.28,1.78-.73,2.73.19.33.46.59.8.77l12.7,6.68c.97.54,2.18.19,2.72-.78.54-.97.19-2.18-.78-2.72-.03-.02-.05-.03-.08-.04l-9.48-4.99,8.95-5.16h0ZM.83,33.5c-.55-.96-.22-2.18.73-2.73l8.95-5.17L1.03,20.62c-.97-.54-1.31-1.75-.78-2.72.52-.93,1.68-1.29,2.64-.82l12.7,6.68c.98.52,1.35,1.73.84,2.7-.18.33-.44.61-.77.8l-12.09,6.98c-.96.55-2.18.22-2.73-.73ZM27.28,26.18c.39-.39.39-1.02,0-1.41,0,0,0,0,0,0l-1.41-1.41c-.39-.39-1.02-.39-1.41,0,0,0,0,0,0,0l-1.41,1.41c-.39.39-.39,1.02,0,1.41,0,0,0,0,0,0l1.41,1.41c.39.39,1.02.39,1.41,0,0,0,0,0,0,0l1.41-1.41Z"/>
  </g>
</svg>