<?xml version="1.0" encoding="UTF-8"?>
<svg id="Layer_2" data-name="Layer 2" xmlns="http://www.w3.org/2000/svg" viewBox="0 0 45.94 54">
  <defs>
    <style>
      .cls-1 {
        fill: #010101;
      }
    </style>
  </defs>
  <g id="Layer_1-2" data-name="Layer 1">
    <path class="cls-1" d="M23.89,0c-3.51-.04-6.97.87-10.01,2.62-.23.13-.43.31-.59.51-.16.21-.28.45-.35.7-.07.25-.09.52-.05.78.03.26.12.51.25.74.13.23.31.43.51.59.21.16.45.28.7.35.25.07.52.09.78.05.26-.03.51-.12.74-.25,2.43-1.39,5.18-2.11,7.98-2.08h0c8.8.07,15.84,7.36,15.84,16.23v1.77c0,6.88,1.09,11.72,2.39,15.05.19.49.57.89,1.06,1.1.49.21,1.04.22,1.53.03s.89-.57,1.1-1.06c.21-.49.22-1.04.03-1.53-1.1-2.82-2.11-7.13-2.11-13.6v-1.77C43.69,9.24,34.88.09,23.89,0ZM3.84,2c-.53-.03-1.05.16-1.44.52-.39.36-.63.85-.65,1.38-.03.53.16,1.05.52,1.44l40,44c.36.39.85.63,1.38.65.53.03,1.05-.16,1.44-.52s.63-.85.65-1.38c.03-.53-.16-1.05-.52-1.44L5.22,2.66c-.36-.39-.85-.63-1.38-.65ZM8.6,7.78c-.26.05-.5.15-.72.29-.22.14-.41.33-.56.55-2.3,3.35-3.53,7.32-3.53,11.38v2c0,8.67-1.81,13.49-3.26,16C.19,38.61,0,39.3,0,40c0,2.18,1.8,4,3.99,4h34.31c.53,0,1.04-.21,1.41-.59.38-.38.59-.88.59-1.41s-.21-1.04-.59-1.41c-.38-.38-.88-.59-1.41-.59H4c1.85-3.19,3.79-8.77,3.79-18v-2c0-3.25.98-6.43,2.82-9.12.15-.22.25-.46.31-.72.05-.26.06-.52,0-.78-.05-.26-.15-.5-.29-.72-.14-.22-.33-.41-.55-.56-.44-.3-.98-.41-1.5-.32ZM15.74,40c-.53,0-1.04.21-1.41.59-.38.38-.59.88-.59,1.41v2c0,5.5,4.5,10,10,10,2.65,0,5.2-1.05,7.07-2.93,1.87-1.87,2.93-4.42,2.93-7.07v-2c0-.53-.21-1.04-.59-1.41-.38-.37-.88-.59-1.41-.59s-1.04.21-1.41.59c-.38.38-.59.88-.59,1.41v2c0,1.59-.63,3.12-1.76,4.24-1.13,1.13-2.65,1.76-4.24,1.76-3.34,0-6-2.66-6-6v-2c0-.53-.21-1.04-.59-1.41-.38-.37-.88-.59-1.41-.59Z"/>
  </g>
</svg>