<?xml version="1.0" encoding="UTF-8"?>
<svg id="Layer_2" data-name="Layer 2" xmlns="http://www.w3.org/2000/svg" viewBox="0 0 47.63 52">
  <defs>
    <style>
      .cls-1 {
        fill: #010101;
      }
    </style>
  </defs>
  <g id="Layer_1-2" data-name="Layer 1">
    <path class="cls-1" d="M47.09,42c-.71,1.24-2.04,2.01-3.48,2H4.01c-1.43,0-2.76-.76-3.48-2-.73-1.25-.72-2.79.02-4.02,1.48-2.55,3.25-7.4,3.25-15.98v-2C3.8,8.97,12.73.01,23.77,0c.02,0,.03,0,.05,0h.15c10.95.08,19.85,9.15,19.85,20.22v1.78c0,8.58,1.78,13.42,3.25,15.98.74,1.24.75,2.78.02,4.02ZM31.79,48H15.79c-1.1,0-2,.9-2,2s.9,2,2,2h16c1.1,0,2-.9,2-2s-.9-2-2-2Z"/>
  </g>
</svg>