<?xml version="1.0" encoding="UTF-8"?>
<svg id="Layer_2" data-name="Layer 2" xmlns="http://www.w3.org/2000/svg" viewBox="0 0 52 36">
  <defs>
    <style>
      .cls-1 {
        fill: #010101;
      }
    </style>
  </defs>
  <g id="Layer_1-2" data-name="Layer 1">
    <path class="cls-1" d="M10,0c-1.1,0-2,.9-2,2s.9,2,2,2h40c1.1,0,2-.9,2-2s-.9-2-2-2H10ZM10,32c-1.1,0-2,.9-2,2s.9,2,2,2h40c1.1,0,2-.9,2-2s-.9-2-2-2H10ZM33,16c-1.1,0-2,.9-2,2s.9,2,2,2h17c1.1,0,2-.9,2-2s-.9-2-2-2h-17ZM19.41,10.59c-.78-.78-2.05-.78-2.83,0-.78.78-.78,2.05,0,2.83l2.59,2.59H2c-1.1,0-2,.9-2,2s.9,2,2,2h17.17l-2.59,2.59c-.78.78-.78,2.05,0,2.83.78.78,2.05.78,2.83,0l6-6c.19-.19.34-.41.43-.65.1-.23.15-.49.15-.75h0s0-.02,0-.02c0-.27-.06-.52-.15-.75-.1-.24-.24-.46-.43-.65l-6-6Z"/>
  </g>
</svg>