<?xml version="1.0" encoding="UTF-8"?>
<svg id="Layer_2" data-name="Layer 2" xmlns="http://www.w3.org/2000/svg" viewBox="0 0 52 48">
  <defs>
    <style>
      .cls-1 {
        fill: #010101;
      }
    </style>
  </defs>
  <g id="Layer_1-2" data-name="Layer 1">
    <path class="cls-1" d="M23,20c-.53,0-1.04.21-1.41.59-.38.38-.59.88-.59,1.41s.21,1.04.59,1.41c.38.38.88.59,1.41.59h6c.53,0,1.04-.21,1.41-.59.38-.38.59-.88.59-1.41s-.21-1.04-.59-1.41c-.38-.38-.88-.59-1.41-.59h-6ZM20,0c-3.29,0-6,2.71-6,6v2H4C1.81,8,0,9.81,0,12v32C0,46.19,1.81,48,4,48h44c2.19,0,4-1.81,4-4V12c0-2.19-1.81-4-4-4h-10v-2c0-3.29-2.71-6-6-6h-12ZM1.49,21.64c-.51.14-.95.47-1.22.93-.13.23-.22.48-.25.74-.03.26-.02.53.05.78.07.25.18.49.34.7.16.21.36.38.59.52,7.6,4.41,16.23,6.72,25.01,6.69,8.78,0,17.4-2.3,25-6.69.46-.27.79-.7.93-1.22.14-.51.06-1.06-.2-1.52-.13-.23-.31-.43-.52-.59s-.45-.28-.7-.34c-.25-.07-.52-.09-.78-.05-.26.03-.51.12-.74.25-6.99,4.04-14.92,6.17-23,6.16h0c-8.07.02-16.01-2.1-22.99-6.16-.23-.13-.48-.22-.74-.25s-.53-.02-.78.05ZM20,4h12c1.13,0,2,.87,2,2v2h-16v-2c0-1.13.87-2,2-2ZM4,12h44v32H4V12Z"/>
  </g>
</svg>