<?xml version="1.0" encoding="UTF-8"?>
<svg id="Layer_2" data-name="Layer 2" xmlns="http://www.w3.org/2000/svg" viewBox="0 0 60 56">
  <defs>
    <style>
      .cls-1 {
        fill: #010101;
        fill-rule: evenodd;
      }
    </style>
  </defs>
  <g id="Layer_1-2" data-name="Layer 1">
    <path class="cls-1" d="M55.17,30.37c.17-.89-.28-1.77-1.09-2.17-.81-.39-1.79-.19-2.38.49l-11.2,12.86c-.43.49-.59,1.15-.44,1.78.15.63.6,1.15,1.2,1.39l4.88,1.96-1.3,6.96c-.17.89.28,1.77,1.1,2.17s1.79.19,2.38-.49l11.2-12.86c.43-.49.59-1.15.44-1.78-.15-.63-.6-1.15-1.2-1.39l-4.88-1.96,1.3-6.96ZM49.15,43.57l-3.79-1.52,4.53-5.2-.25,1.36c-.17.94.34,1.87,1.22,2.22l3.79,1.52-4.53,5.2.25-1.36c.17-.94-.34-1.87-1.22-2.22ZM6,0C2.69,0,0,2.69,0,6v36c0,3.31,2.69,6,6,6h28c1.1,0,2-.9,2-2s-.9-2-2-2h-4v-12h12c1.1,0,2-.9,2-2s-.9-2-2-2h-12v-12h22v6c0,1.1.9,2,2,2s2-.9,2-2V6c0-3.31-2.69-6-6-6H6ZM26,16v12H4v-12h22ZM26,32v12H6c-1.1,0-2-.9-2-2v-10h22ZM52,6c0-1.1-.9-2-2-2H6c-1.1,0-2,.9-2,2v6h48v-6Z"/>
  </g>
</svg>