<?xml version="1.0" encoding="UTF-8"?>
<svg id="Layer_2" data-name="Layer 2" xmlns="http://www.w3.org/2000/svg" viewBox="0 0 58 48.82">
  <defs>
    <style>
      .cls-1 {
        fill: #010101;
      }
    </style>
  </defs>
  <g id="Layer_1-2" data-name="Layer 1">
    <path class="cls-1" d="M58,21.82c0-3.84-3.16-7-7-7h-22.85l3.02-1.74c2.63-1.52,3.79-4.39,3.45-6.98-.34-2.59-2.2-5.07-5.13-5.86-1.79-.48-3.71-.23-5.32.7l.14-.07C15.67,4.97,9.71,8.28,5.73,12.24,1.76,16.2,0,20.93,0,26.82c0,8.89,5.37,16.92,13.58,20.33h0c2.67,1.11,5.53,1.67,8.42,1.67h10c3.84,0,7-3.16,7-7,0-1.35-.41-2.6-1.07-3.67,2.39-1.12,4.07-3.54,4.07-6.33,0-1.08-.27-2.09-.71-3h9.71c3.84,0,7-3.16,7-7ZM54,21.82c0,1.68-1.32,3-3,3h-16c-.53,0-1.03.22-1.4.6-.37.37-.58.88-.58,1.4s.21,1.03.58,1.4c.37.37.87.59,1.4.6,1.68,0,3,1.32,3,3s-1.32,3-3,3h-3c-.53,0-1.03.22-1.4.6-.37.37-.58.88-.58,1.4s.21,1.03.58,1.4c.37.37.87.59,1.4.6,1.68,0,3,1.32,3,3s-1.32,3-3,3h-10c-2.36,0-4.7-.47-6.89-1.37-6.73-2.79-11.11-9.34-11.11-16.63,0-5.16,1.24-8.43,4.56-11.75,3.32-3.31,8.95-6.55,17.47-10.6.05-.02.1-.05.14-.07.69-.4,1.51-.51,2.28-.3h0c1.38.37,2.05,1.36,2.2,2.51.15,1.15-.25,2.28-1.48,3h0l-9.5,5.48c-.38.22-.68.56-.85.97-.17.41-.2.86-.08,1.28.11.43.36.8.71,1.07.35.27.78.41,1.22.41h30.33c1.68,0,3,1.32,3,3Z"/>
  </g>
</svg>