<?xml version="1.0" encoding="UTF-8"?>
<svg id="Layer_2" data-name="Layer 2" xmlns="http://www.w3.org/2000/svg" viewBox="0 0 57.95 57.95">
  <defs>
    <style>
      .cls-1 {
        fill: #010101;
      }
    </style>
  </defs>
  <g id="Layer_1-2" data-name="Layer 1">
    <path class="cls-1" d="M50,0c-2.04-.01-4.09.75-5.65,2.27-.03.03-.06.06-.09.09l-13.72,15.3-2.3-2.3h-.01c-2.33-2.31-6.13-2.31-8.46-.01L.59,34.54c-.38.38-.59.88-.59,1.41s.21,1.04.59,1.41l20,20c.38.38.88.59,1.41.59s1.04-.21,1.41-.59l19.18-19.18h.01c2.3-2.34,2.3-6.14,0-8.47h-.01s-2.3-2.31-2.3-2.31l15.3-13.72s.06-.06.09-.09c3.06-3.12,3.03-8.18-.06-11.27C54.07.79,52.04.01,50,0ZM49.98,3.98c1.02,0,2.03.4,2.81,1.19,1.56,1.56,1.58,4.03.05,5.62l-15.22,13.65h0c-.81.74-1.29,1.78-1.32,2.87-.03,1.09.4,2.16,1.17,2.93l2.29,2.29c.79.8.79,2.04,0,2.84l-3.75,3.75-17.17-17.17,3.75-3.75c.8-.79,2.04-.79,2.84,0l2.29,2.29c.77.77,1.84,1.2,2.93,1.17,1.1-.03,2.13-.51,2.87-1.32h0s13.66-15.23,13.66-15.23c.79-.76,1.8-1.15,2.81-1.14ZM16,24.78l17.17,17.17-11.17,11.17-3.52-3.52,6.39-6.39c.19-.19.33-.41.43-.65.1-.24.15-.5.15-.77s-.05-.52-.15-.77c-.1-.24-.25-.46-.43-.65-.19-.19-.41-.33-.65-.43-.24-.1-.5-.15-.77-.15s-.52.05-.77.15c-.24.1-.46.25-.65.43l-6.39,6.39-4.17-4.17,6.39-6.39c.19-.19.33-.41.43-.65.1-.24.15-.5.15-.77s-.05-.52-.15-.77c-.1-.24-.25-.46-.43-.65-.19-.19-.41-.33-.65-.43s-.5-.15-.77-.15-.52.05-.77.15c-.24.1-.46.25-.65.43l-6.39,6.39-3.82-3.82,11.17-11.17Z"/>
  </g>
</svg>