<?xml version="1.0" encoding="UTF-8"?>
<svg id="Layer_2" data-name="Layer 2" xmlns="http://www.w3.org/2000/svg" viewBox="0 0 60 48">
  <defs>
    <style>
      .cls-1 {
        fill: #010101;
      }
    </style>
  </defs>
  <g id="Layer_1-2" data-name="Layer 1">
    <path class="cls-1" d="M30,0c-.37,0-.73.1-1.05.3L2.95,16.3c-.37.23-.66.57-.81.98-.16.41-.18.85-.06,1.27.12.42.37.79.72,1.05.35.26.77.4,1.21.41h6v16h-4c-.53,0-1.04.21-1.41.59-.38.38-.59.88-.59,1.41s.21,1.04.59,1.41c.38.37.88.59,1.41.59h48c.53,0,1.04-.21,1.41-.59.37-.38.59-.88.59-1.41s-.21-1.04-.59-1.41c-.38-.38-.88-.59-1.41-.59h-4v-16h6c.44,0,.86-.14,1.21-.41.35-.26.6-.63.72-1.05.12-.42.1-.86-.06-1.27s-.44-.75-.81-.98L31.05.3c-.32-.19-.68-.3-1.05-.3ZM30,4.35l18.93,11.65H11.07L30,4.35ZM14,20h8v16h-8v-16ZM26,20h8v16h-8v-16ZM38,20h8v16h-8v-16ZM2,44c-.53,0-1.04.21-1.41.59-.38.38-.59.88-.59,1.41s.21,1.04.59,1.41c.38.37.88.59,1.41.59h56c.53,0,1.04-.21,1.41-.59.37-.38.59-.88.59-1.41s-.21-1.04-.59-1.41c-.38-.37-.88-.59-1.41-.59H2Z"/>
  </g>
</svg>