<?xml version="1.0" encoding="UTF-8"?>
<svg id="Layer_2" data-name="Layer 2" xmlns="http://www.w3.org/2000/svg" viewBox="0 0 48 48">
  <defs>
    <style>
      .cls-1 {
        fill: #010101;
      }
    </style>
  </defs>
  <g id="Layer_1-2" data-name="Layer 1">
    <path class="cls-1" d="M16,8c-.53,0-1.04.21-1.41.59-.38.38-.59.88-.59,1.41s.21,1.04.59,1.41c.38.38.88.59,1.41.59h14c.53,0,1.04-.21,1.41-.59.38-.38.59-.88.59-1.41s-.21-1.04-.59-1.41c-.38-.38-.88-.59-1.41-.59h-14ZM14,26c-2.19,0-4,1.81-4,4v16c0,.53.21,1.04.59,1.41.38.37.88.59,1.41.59s1.04-.21,1.41-.59c.38-.38.59-.88.59-1.41v-16h20v16c0,.53.21,1.04.59,1.41.38.37.88.59,1.41.59s1.04-.21,1.41-.59c.37-.38.59-.88.59-1.41v-16c0-2.19-1.81-4-4-4H14ZM4,0C1.81,0,0,1.81,0,4v40c0,2.19,1.81,4,4,4h40c2.19,0,4-1.81,4-4V14.83c0-1.05-.41-2.07-1.16-2.82h0S35.99,1.16,35.99,1.16h0C35.24.41,34.22,0,33.17,0H4ZM4,4h29.17l10.83,10.83v29.17H4V4Z"/>
  </g>
</svg>