<?xml version="1.0" encoding="UTF-8"?>
<svg id="Layer_2" data-name="Layer 2" xmlns="http://www.w3.org/2000/svg" viewBox="0 0 58 38.72">
  <defs>
    <style>
      .cls-1 {
        fill: #010101;
        fill-rule: evenodd;
      }
    </style>
  </defs>
  <g id="Layer_1-2" data-name="Layer 1">
    <path class="cls-1" d="M16,0c.81,0,1.54.49,1.85,1.24l14,34c.42,1.02-.07,2.19-1.09,2.61-1.02.42-2.19-.07-2.61-1.09l-3.64-8.83c-.16.04-.34.07-.51.07H8c-.18,0-.35-.02-.52-.07l-3.64,8.83c-.42,1.02-1.59,1.51-2.61,1.09-1.02-.42-1.51-1.59-1.09-2.61L14.15,1.24c.31-.75,1.04-1.24,1.85-1.24ZM16,7.25l6.9,16.75h-13.79l6.9-16.75ZM47,20.72c-5.58,0-11,3.59-11,9s5.42,9,11,9c2.57,0,5.11-.76,7.1-2.11.26.81,1.01,1.39,1.9,1.39,1.1,0,2-.9,2-2v-15.27c0-5.42-5.41-9-10.99-9-2.96-.03-5.86.98-8.06,2.85-.84.72-.94,1.98-.22,2.82.72.84,1.98.94,2.82.22,1.42-1.22,3.37-1.92,5.43-1.9h.02c4.37,0,7,2.67,7,5v2.05c-1.97-1.31-4.47-2.05-7-2.05ZM40,29.72c0-2.32,2.64-5,7-5s7,2.68,7,5-2.64,5-7,5-7-2.68-7-5Z"/>
  </g>
</svg>