<?xml version="1.0" encoding="UTF-8"?>
<svg id="Layer_2" data-name="Layer 2" xmlns="http://www.w3.org/2000/svg" viewBox="0 0 54 50">
  <defs>
    <style>
      .cls-1 {
        fill: #010101;
      }
    </style>
  </defs>
  <g id="Layer_1-2" data-name="Layer 1">
    <path class="cls-1" d="M26,0C11.66,0,0,11.66,0,26c0,13.23,10.77,24,24,24,5.83,0,11.43-2.32,15.56-6.44,4.12-4.13,6.44-9.72,6.44-15.56,0-11.02-8.98-20-20-20,0,0,0,0,0,0-9.91.02-17.98,8.09-18,18,0,0,0,0,0,0,0,8.81,7.19,16,16,16,7.71,0,14-6.29,14-14,0-3.18-1.26-6.24-3.51-8.49-2.25-2.25-5.3-3.51-8.49-3.51-2.65,0-5.2,1.05-7.07,2.93-1.87,1.87-2.93,4.42-2.93,7.07,0,2.12.83,4.17,2.34,5.67,1.5,1.5,3.54,2.34,5.67,2.34,1.59,0,3.11-.63,4.24-1.76,0,0,0,0,0,0,1.12-1.12,1.76-2.65,1.76-4.24,0-2.19-1.81-4-4-4-.53,0-1.04.21-1.41.59-.38.38-.59.88-.59,1.41s.21,1.04.59,1.41c.38.38.88.59,1.41.59,0,.53-.21,1.04-.59,1.41-.38.38-.88.59-1.41.59h0c-1.06,0-2.08-.41-2.83-1.16-.75-.75-1.17-1.77-1.16-2.83h0c0-1.6.63-3.13,1.76-4.25,1.13-1.13,2.65-1.76,4.24-1.76,2.12,0,4.16.84,5.66,2.34,1.5,1.5,2.34,3.53,2.34,5.66,0,5.55-4.45,10-10,10-6.65,0-12-5.35-12-12,0,0,0,0,0,0,.01-7.75,6.25-13.99,14-14,8.86,0,16,7.14,16,16,0,4.77-1.9,9.35-5.27,12.73-3.38,3.38-7.95,5.27-12.73,5.27-11.07,0-20-8.93-20-20C4,13.83,13.83,4,26,4c13.28,0,24,10.72,24,24,0,.53.21,1.04.59,1.41.38.38.88.59,1.41.59s1.04-.21,1.41-.59c.37-.38.59-.88.59-1.41C54,12.56,41.44,0,26,0Z"/>
  </g>
</svg>