<?xml version="1.0" encoding="UTF-8"?>
<svg id="Layer_2" data-name="Layer 2" xmlns="http://www.w3.org/2000/svg" viewBox="0 0 41.94 41.94">
  <defs>
    <style>
      .cls-1 {
        fill: #010101;
        fill-rule: evenodd;
      }
    </style>
  </defs>
  <g id="Layer_1-2" data-name="Layer 1">
    <path class="cls-1" d="M12.65,17.38c.66-.6,1.68-.54,2.28.12l6.07,6.74,6.07-6.74c.57-.69,1.59-.79,2.27-.22.69.57.79,1.59.22,2.27-.03.04-.06.07-.1.11l-7.27,8.08c-.6.66-1.62.72-2.28.12-.04-.04-.08-.08-.12-.12l-7.27-8.08c-.6-.66-.54-1.68.12-2.28h0ZM0,21C.01,9.41,9.41.01,21,0c10.97.01,20.08,8.45,20.94,19.38.05.84-.59,1.56-1.43,1.61-.04,0-.08,0-.13,0-.9-.02-1.63-.72-1.69-1.62-.82-9.15-8.5-16.16-17.7-16.15-9.8-.01-17.75,7.92-17.77,17.72,0,.02,0,.03,0,.05-.01,9.19,7,16.87,16.15,17.7.89.08,1.62.8,1.62,1.69.02.84-.65,1.54-1.49,1.56-.04,0-.08,0-.13,0C8.45,41.08.01,31.97,0,21Z"/>
  </g>
</svg>