<?xml version="1.0" encoding="UTF-8"?>
<svg id="Layer_2" data-name="Layer 2" xmlns="http://www.w3.org/2000/svg" viewBox="0 0 36 50">
  <defs>
    <style>
      .cls-1 {
        fill: #010101;
      }
    </style>
  </defs>
  <g id="Layer_1-2" data-name="Layer 1">
    <path class="cls-1" d="M4,0C1.81,0,0,1.81,0,4v44c0,.36.1.71.28,1.01.18.31.44.56.75.73.31.17.67.26,1.02.25.36,0,.7-.11,1.01-.3l14.94-9.34,14.94,9.34c.3.19.65.29,1.01.3.36,0,.71-.08,1.02-.25.31-.17.57-.43.75-.73.18-.31.28-.66.28-1.01V4c0-2.19-1.81-4-4-4H4ZM4,4h28v40.39l-12.94-8.09c-.32-.2-.69-.3-1.06-.3s-.74.11-1.06.3l-12.94,8.09V4Z"/>
  </g>
</svg>