<?xml version="1.0" encoding="UTF-8"?>
<svg id="Layer_2" data-name="Layer 2" xmlns="http://www.w3.org/2000/svg" viewBox="0 0 52 52">
  <defs>
    <style>
      .cls-1 {
        fill: #010101;
      }
    </style>
  </defs>
  <g id="Layer_1-2" data-name="Layer 1">
    <path class="cls-1" d="M21.74,16.02c-.48.06-.92.3-1.24.66-.32.36-.5.83-.5,1.32v16c0,.36.1.72.28,1.03.19.31.45.56.77.74s.68.25,1.04.23c.36-.02.71-.13,1.01-.33l12-8c.27-.18.5-.43.65-.72.16-.29.24-.61.24-.94s-.08-.65-.24-.94c-.16-.29-.38-.54-.65-.72l-12-8c-.4-.27-.89-.38-1.37-.32ZM24,21.74l6.39,4.26-6.39,4.26v-8.53ZM26,0C11.66,0,0,11.66,0,26s11.66,26,26,26,26-11.66,26-26S40.34,0,26,0ZM26,4c12.17,0,22,9.83,22,22s-9.83,22-22,22S4,38.17,4,26,13.83,4,26,4Z"/>
  </g>
</svg>