<?xml version="1.0" encoding="UTF-8"?>
<svg id="Layer_2" data-name="Layer 2" xmlns="http://www.w3.org/2000/svg" viewBox="0 0 48 48">
  <defs>
    <style>
      .cls-1 {
        fill: #010101;
      }
    </style>
  </defs>
  <g id="Layer_1-2" data-name="Layer 1">
    <path class="cls-1" d="M17,18c1.66,0,3-1.34,3-3s-1.34-3-3-3-3,1.34-3,3,1.34,3,3,3ZM33.62,18.85c-.39.04-.78.13-1.16.29,0,0,0,0,0,0-.49.2-.93.51-1.31.88l-11.14,11.14s0,0-.01.01c0,0,0,0,0,0,0,0,0,0-.01-.01l-5.14-5.14c-1.55-1.57-4.15-1.57-5.7,0L.59,34.59c-.19.19-.33.41-.43.65C.05,35.48,0,35.74,0,36s.05.52.15.77c.1.24.25.46.43.65.38.38.88.59,1.41.59s1.04-.21,1.41-.59l8.58-8.58s0,0,.01-.01c-.02-.02.02-.02,0,0,0,0,0,0,.01.01l5.14,5.14c.37.38.82.68,1.3.88,0,0,0,0,0,0,1.5.63,3.25.28,4.4-.88l11.14-11.14s0,0,.01-.01c0,0,0,0,0,0,0,0,0,0,.01.01l10.58,10.58c.38.38.88.59,1.41.59s1.04-.21,1.41-.59c.19-.19.33-.41.43-.65.1-.24.15-.5.15-.77s-.05-.52-.15-.77c-.1-.24-.25-.46-.43-.65l-10.56-10.56c-.86-.87-2.06-1.28-3.23-1.17ZM4,0C1.81,0,0,1.81,0,4v40c0,2.19,1.81,4,4,4h40c2.19,0,4-1.81,4-4V4c0-2.19-1.81-4-4-4H4ZM4,4h40v40H4V4Z"/>
  </g>
</svg>