<?xml version="1.0" encoding="UTF-8"?>
<svg id="Layer_2" data-name="Layer 2" xmlns="http://www.w3.org/2000/svg" viewBox="0 0 55.14 50.32">
  <defs>
    <style>
      .cls-1 {
        fill: #010101;
      }
    </style>
  </defs>
  <g id="Layer_1-2" data-name="Layer 1">
    <path class="cls-1" d="M41.16,0c-1.03,0-2.06.39-2.83,1.16l-10.58,10.58s-.02,0-.02,0c0,0,0,.02,0,.02L1.16,38.34c-1.55,1.55-1.55,4.11,0,5.66l5.17,5.17c1.55,1.55,4.11,1.55,5.66,0L49.16,11.99c1.54-1.55,1.55-4.11,0-5.66l-5.17-5.17c-.77-.77-1.8-1.16-2.83-1.16ZM41.16,3.99l5.17,5.17-9.19,9.19-5.17-5.17,9.19-9.19ZM29.15,16l5.17,5.17-25.16,25.16-5.17-5.17,25.16-25.16ZM14.14,1.17c-.53,0-1.04.21-1.41.59s-.59.88-.59,1.41v3h-3c-.53,0-1.04.21-1.41.59s-.59.88-.59,1.41.21,1.04.59,1.41.88.59,1.41.59h3v3c0,.53.21,1.04.59,1.41s.88.59,1.41.59,1.04-.21,1.41-.59.59-.88.59-1.41v-3h3c.53,0,1.04-.21,1.41-.59s.59-.88.59-1.41-.21-1.04-.59-1.41-.88-.59-1.41-.59h-3v-3c0-.53-.21-1.04-.59-1.41s-.88-.59-1.41-.59ZM47.14,23.17c-.53,0-1.04.21-1.41.59-.38.38-.59.88-.59,1.41v4h-4c-.53,0-1.04.21-1.41.59-.38.38-.59.88-.59,1.41s.21,1.04.59,1.41c.37.38.88.59,1.41.59h4v4c0,.53.21,1.04.59,1.41s.88.59,1.41.59,1.04-.21,1.41-.59c.37-.38.59-.88.59-1.41v-4h4c.53,0,1.04-.21,1.41-.59.37-.38.59-.88.59-1.41s-.21-1.04-.59-1.41c-.38-.38-.88-.59-1.41-.59h-4v-4c0-.53-.21-1.04-.59-1.41-.38-.38-.88-.59-1.41-.59ZM35.14,37.17c-.53,0-1.04.21-1.41.59-.38.37-.59.88-.59,1.41v2h-2c-.53,0-1.04.21-1.41.59-.38.37-.59.88-.59,1.41s.21,1.04.59,1.41c.38.37.88.59,1.41.59h2v2c0,.53.21,1.04.59,1.41s.88.59,1.41.59,1.04-.21,1.41-.59c.37-.38.59-.88.59-1.41v-2h2c.53,0,1.04-.21,1.41-.59.37-.38.59-.88.59-1.41s-.21-1.04-.59-1.41-.88-.59-1.41-.59h-2v-2c0-.53-.21-1.04-.59-1.41s-.88-.59-1.41-.59Z"/>
  </g>
</svg>