<?xml version="1.0" encoding="UTF-8"?>
<svg id="Layer_2" data-name="Layer 2" xmlns="http://www.w3.org/2000/svg" viewBox="0 0 49.92 49.92">
  <defs>
    <style>
      .cls-1 {
        fill: #010101;
      }
    </style>
  </defs>
  <g id="Layer_1-2" data-name="Layer 1">
    <path class="cls-1" d="M12.22.03C5.25.93,0,6.89,0,13.92h0c0,19.86,16.14,36,36,36,7.03,0,12.99-5.25,13.88-12.22.23-1.77-.77-3.49-2.42-4.18l-11.67-5.01h0c-1.25-.55-2.7-.41-3.82.35h0l-6.24,4.17h0c-3.84-1.85-6.94-4.94-8.8-8.78l4.17-6.34s0-.01.01-.02c.72-1.12.83-2.53.3-3.75l-5.01-11.7C15.71.8,13.99-.19,12.22.03ZM12.71,4l5.02,11.73h0s-4.16,6.34-4.16,6.34h0c-.75,1.18-.85,2.66-.25,3.91h0c2.25,4.66,6.02,8.42,10.68,10.66h.01c1.27.61,2.78.49,3.95-.29l6.24-4.17h0l11.7,5.02h0c-.65,5-4.87,8.71-9.91,8.71-17.7,0-32-14.3-32-32,0-5.04,3.72-9.26,8.71-9.91Z"/>
  </g>
</svg>