<?xml version="1.0" encoding="UTF-8"?>
<svg id="Layer_2" data-name="Layer 2" xmlns="http://www.w3.org/2000/svg" viewBox="0 0 60.02 44.08">
  <defs>
    <style>
      .cls-1 {
        fill: #010101;
      }
    </style>
  </defs>
  <g id="Layer_1-2" data-name="Layer 1">
    <path class="cls-1" d="M20.01,9.08c-.53,0-1.04.21-1.41.59-.38.38-.59.88-.59,1.41v2h-2c-.53,0-1.04.21-1.41.59-.38.38-.59.88-.59,1.41s.21,1.04.59,1.41c.38.38.88.59,1.41.59h2v2c0,.53.21,1.04.59,1.41.38.38.88.59,1.41.59s1.04-.21,1.41-.59c.38-.38.59-.88.59-1.41v-2h2c.53,0,1.04-.21,1.41-.59.38-.38.59-.88.59-1.41s-.21-1.04-.59-1.41c-.38-.38-.88-.59-1.41-.59h-2v-2c0-.53-.21-1.04-.59-1.41-.38-.38-.88-.59-1.41-.59ZM36.01,13.08c-.53,0-1.04.21-1.41.59-.38.38-.59.88-.59,1.41s.21,1.04.59,1.41c.38.38.88.59,1.41.59h8c.53,0,1.04-.21,1.41-.59.38-.38.59-.88.59-1.41s-.21-1.04-.59-1.41c-.37-.38-.88-.59-1.41-.59h-8ZM41,0l-22,.08c-7.26.01-13.5,5.25-14.77,12.4v-.03S.15,33.47.15,33.47c0,.01,0,.02,0,.03-.69,3.87,1.22,7.76,4.7,9.57,3.48,1.82,7.76,1.15,10.54-1.63.02-.02.04-.05.07-.07l10.21-11.29,15.36-.07c8.26,0,15-6.74,15-15S49.27,0,41.01,0h-.01s0,0,0,0ZM53.43,10.79c-.52.1-.98.41-1.28.84-.3.44-.41.98-.31,1.5l4.09,21.07c.39,2.16-.66,4.3-2.61,5.32-1.94,1.01-4.29.65-5.84-.89l-10.75-11.94c-.18-.2-.39-.35-.63-.47-.24-.11-.49-.18-.76-.19-.26-.01-.52.02-.77.11-.25.09-.48.22-.67.4-.39.35-.63.85-.66,1.38-.03.53.16,1.05.51,1.44l10.8,12s.05.05.07.07c2.77,2.78,7.05,3.45,10.54,1.63,3.48-1.82,5.39-5.7,4.7-9.57,0,0,0-.02,0-.03l-4.1-21.1c-.1-.52-.41-.98-.84-1.28-.44-.3-.98-.41-1.5-.31ZM41.01,4c6.1,0,11,4.9,11,11s-4.9,11-11,11h0l-16.25.08c-.28,0-.55.06-.81.17-.25.11-.48.28-.67.48l-10.75,11.89c-1.55,1.55-3.9,1.91-5.84.9-1.95-1.01-3-3.15-2.61-5.31l4.1-21s0-.02,0-.03c.93-5.27,5.48-9.09,10.83-9.1h0l22-.08Z"/>
  </g>
</svg>