<?xml version="1.0" encoding="UTF-8"?>
<svg id="Layer_2" data-name="Layer 2" xmlns="http://www.w3.org/2000/svg" viewBox="0 0 56.01 54">
  <defs>
    <style>
      .cls-1 {
        fill: #010101;
      }
    </style>
  </defs>
  <g id="Layer_1-2" data-name="Layer 1">
    <path class="cls-1" d="M55.81,20.35c-.25-.79-.73-1.48-1.38-1.99-.65-.51-1.44-.81-2.27-.86l-14.85-1.02-5.5-13.88c-.3-.76-.82-1.42-1.5-1.88-.68-.46-1.48-.71-2.3-.72-.82,0-1.62.25-2.3.72-.68.46-1.2,1.12-1.5,1.88l-5.6,13.95-14.75.95c-.82.06-1.61.36-2.26.86-.65.51-1.13,1.2-1.39,1.99-.26.8-.28,1.66-.04,2.46.23.81.7,1.53,1.34,2.06l11.35,9.6-3.37,13.28c-.23.9-.19,1.85.12,2.72.31.87.88,1.63,1.63,2.18.73.52,1.59.82,2.49.84.9.03,1.78-.21,2.54-.69l11.72-7.42h.05l12.63,7.97c.65.42,1.4.65,2.17.65.63,0,1.25-.15,1.82-.44.56-.28,1.06-.69,1.44-1.19.38-.5.64-1.09.76-1.7.12-.62.1-1.26-.07-1.87l-3.57-14.52,11.3-9.4c.64-.54,1.11-1.26,1.34-2.06.23-.81.22-1.66-.04-2.46Z"/>
  </g>
</svg>