<?xml version="1.0" encoding="UTF-8"?>
<svg id="Layer_2" data-name="Layer 2" xmlns="http://www.w3.org/2000/svg" viewBox="0 0 56 48">
  <defs>
    <style>
      .cls-1 {
        fill: #010101;
        fill-rule: evenodd;
      }
    </style>
  </defs>
  <g id="Layer_1-2" data-name="Layer 1">
    <path class="cls-1" d="M6,0C2.69,0,0,2.69,0,6v36c0,3.31,2.69,6,6,6h44c3.31,0,6-2.69,6-6V6c0-3.31-2.69-6-6-6H6ZM4,6c0-1.1.9-2,2-2h26v40H6c-1.1,0-2-.9-2-2V6ZM36,44h14c1.1,0,2-.9,2-2V6c0-1.1-.9-2-2-2h-14v40Z"/>
  </g>
</svg>