<?xml version="1.0" encoding="UTF-8"?>
<svg id="Layer_2" data-name="Layer 2" xmlns="http://www.w3.org/2000/svg" viewBox="0 0 40 46">
  <defs>
    <style>
      .cls-1 {
        fill: #010101;
      }
    </style>
  </defs>
  <g id="Layer_1-2" data-name="Layer 1">
    <path class="cls-1" d="M2.2,0c-.26-.03-.53,0-.78.08-.25.08-.49.2-.69.37-.2.17-.37.37-.5.6-.12.23-.2.49-.23.75-.03.26,0,.53.08.78.08.25.2.49.37.69l15.33,18.73h-7.78c-.53,0-1.04.21-1.41.59s-.59.88-.59,1.41.21,1.04.59,1.41c.38.38.88.59,1.41.59h10v4h-10c-.53,0-1.04.21-1.41.59-.38.37-.59.88-.59,1.41s.21,1.04.59,1.41c.38.37.88.59,1.41.59h10v10c0,.53.21,1.04.59,1.41.38.37.88.59,1.41.59s1.04-.21,1.41-.59c.38-.38.59-.88.59-1.41v-10h10c.53,0,1.04-.21,1.41-.59.37-.38.59-.88.59-1.41s-.21-1.04-.59-1.41-.88-.59-1.41-.59h-10v-4h10c.53,0,1.04-.21,1.41-.59.37-.38.59-.88.59-1.41s-.21-1.04-.59-1.41c-.38-.38-.88-.59-1.41-.59h-7.78L39.55,3.27c.17-.2.29-.44.37-.69.08-.25.1-.52.08-.78-.03-.26-.1-.51-.23-.75-.12-.23-.29-.44-.5-.6-.2-.17-.44-.29-.69-.37-.25-.08-.52-.1-.78-.08s-.52.1-.75.23c-.23.12-.44.29-.6.5l-16.45,20.11L3.55.73C3.21.32,2.73.06,2.2,0Z"/>
  </g>
</svg>