<?xml version="1.0" encoding="UTF-8"?>
<svg id="Layer_2" data-name="Layer 2" xmlns="http://www.w3.org/2000/svg" viewBox="0 0 54 42">
  <defs>
    <style>
      .cls-1 {
        fill: #010101;
      }
    </style>
  </defs>
  <g id="Layer_1-2" data-name="Layer 1">
    <path class="cls-1" d="M2,0C.9,0,0,.9,0,2s.9,2,2,2h44c1.1,0,2-.9,2-2s-.9-2-2-2H2ZM2,16c-1.1,0-2,.9-2,2s.9,2,2,2h14c1.1,0,2-.9,2-2s-.9-2-2-2H2ZM2,32c-1.1,0-2,.9-2,2s.9,2,2,2h14c1.1,0,2-.9,2-2s-.9-2-2-2H2ZM36,10c-7.73,0-14,6.27-14,14s6.27,14,14,14c3.15,0,6.06-1.04,8.4-2.8.06.07.12.15.19.21l6,6c.78.78,2.05.78,2.83,0,.78-.78.78-2.05,0-2.83l-6-6c-.07-.07-.14-.13-.21-.19,1.76-2.34,2.8-5.25,2.8-8.4,0-7.73-6.27-14-14-14ZM26,24c0-5.52,4.48-10,10-10s10,4.48,10,10-4.48,10-10,10-10-4.48-10-10Z"/>
  </g>
</svg>