<?xml version="1.0" encoding="UTF-8"?>
<svg id="Layer_2" data-name="Layer 2" xmlns="http://www.w3.org/2000/svg" viewBox="0 0 62 44.92">
  <defs>
    <style>
      .cls-1 {
        fill: #010101;
      }
    </style>
  </defs>
  <g id="Layer_1-2" data-name="Layer 1">
    <path class="cls-1" d="M13.75,0c-2.73.03-5.48,1.15-7.47,3.55-3.61,4.36-2.58,10.36,1.06,13.75-2.72,1.16-5.13,2.99-6.94,5.42-.16.21-.27.45-.34.7-.06.25-.08.52-.04.78.04.26.13.51.26.74.13.23.31.42.52.58.21.16.45.27.7.34.25.06.52.08.78.04.26-.04.51-.13.74-.26.23-.13.42-.31.58-.52,2.45-3.28,6.3-5.2,10.39-5.2,0,0,0,0,0,0h0c.5,0,.99-.21,1.35-.56.03-.03.06-.06.08-.08.35-.36.55-.84.56-1.35,0,0,0,0,0,0,0,0,0,0,0,0,0,0,0,0,0,0,0,0,0,0,0,0,0-.51-.21-.99-.56-1.35-.03-.03-.05-.06-.08-.08-.36-.35-.85-.55-1.35-.56,0,0,0,0,0,0,0,0,0,0,0,0-5.22,0-7.96-5.8-4.63-9.82,3.32-4.02,9.54-2.43,10.52,2.7.05.26.15.5.29.72.14.22.33.41.55.56s.46.25.72.3c.26.05.52.06.78,0,.52-.1.98-.4,1.28-.84.3-.44.41-.98.31-1.5C22.84,2.94,18.31-.05,13.75,0ZM48.25,0c-4.56-.05-9.09,2.94-10.07,8.05-.1.52.01,1.06.31,1.5.3.44.76.74,1.28.84.26.05.52.05.78,0,.26-.05.5-.16.72-.3.22-.15.4-.34.55-.56.14-.22.24-.47.29-.72.98-5.13,7.19-6.72,10.52-2.7,3.32,4.02.59,9.83-4.63,9.82,0,0,0,0,0,0h0c-.25.05-.48.15-.7.29-.26.05-.5.15-.71.3-.15.22-.25.46-.3.72-.14.21-.24.45-.29.69,0,0,0,0,0,0,0,0,0,0,0,0,.05.25.15.48.29.7.05.26.15.5.3.71.22.15.46.25.72.3.21.14.45.24.69.29,0,0,0,0,0,0,0,0,0,0,0,0,4.09,0,7.95,1.92,10.4,5.2.16.21.35.39.58.52.23.13.48.22.74.26.26.04.52.02.78-.04.25-.06.49-.18.7-.34.21-.16.39-.35.52-.58.13-.23.22-.48.26-.74.04-.26.02-.52-.04-.78-.06-.25-.18-.49-.34-.7-1.81-2.43-4.23-4.26-6.94-5.42,3.64-3.39,4.66-9.39,1.06-13.75C53.73,1.15,50.98.03,48.25,0ZM31,11.92c-6.6,0-12,5.4-12,12,0,3.89,1.9,7.33,4.79,9.52-3.85,1.68-7.08,4.69-8.99,8.6-.12.24-.18.49-.2.75-.02.26.02.53.1.77.09.25.22.48.39.67.17.2.39.36.62.47.48.23,1.03.27,1.53.09.5-.17.91-.54,1.15-1.01,2.35-4.82,7.24-7.87,12.6-7.87s10.25,3.05,12.6,7.87c.23.48.64.84,1.15,1.01.5.17,1.05.14,1.53-.09.24-.12.45-.28.62-.47s.31-.43.39-.67c.09-.25.12-.51.11-.77-.02-.26-.08-.52-.2-.75-1.91-3.91-5.14-6.92-8.99-8.6,2.89-2.2,4.79-5.63,4.79-9.52,0-6.6-5.4-12-12-12ZM31,15.92c4.44,0,8,3.56,8,8s-3.56,8-8,8-8-3.56-8-8,3.56-8,8-8Z"/>
  </g>
</svg>