<?xml version="1.0" encoding="UTF-8"?>
<svg id="Layer_2" data-name="Layer 2" xmlns="http://www.w3.org/2000/svg" viewBox="0 0 40 48">
  <defs>
    <style>
      .cls-1 {
        fill: #010101;
      }
    </style>
  </defs>
  <g id="Layer_1-2" data-name="Layer 1">
    <path class="cls-1" d="M30.67,0c-4.82.01-8.97,3.48-9.84,8.21,0,0,0,0,0,0l-2.5,13.78H6c-.53,0-1.04.21-1.41.59-.38.38-.59.88-.59,1.41s.21,1.04.59,1.41c.38.38.88.59,1.41.59h11.6l-2.37,13.07c-.53,2.86-3,4.93-5.91,4.93H2c-.53,0-1.04.21-1.41.59-.38.38-.59.88-.59,1.41s.21,1.04.59,1.41c.38.37.88.59,1.41.59h7.33c4.82-.01,8.97-3.48,9.84-8.21,0,0,0,0,0,0l2.5-13.78h12.33c.53,0,1.04-.21,1.41-.59.37-.38.59-.88.59-1.41s-.21-1.04-.59-1.41c-.38-.38-.88-.59-1.41-.59h-11.6l2.37-13.06h0c.53-2.87,3-4.93,5.91-4.94h7.32c.53,0,1.04-.21,1.41-.59.37-.38.59-.88.59-1.41s-.21-1.04-.59-1.41c-.38-.38-.88-.59-1.41-.59h-7.33Z"/>
  </g>
</svg>