<?xml version="1.0" encoding="UTF-8"?>
<svg id="Layer_2" data-name="Layer 2" xmlns="http://www.w3.org/2000/svg" viewBox="0 0 44 44">
  <defs>
    <style>
      .cls-1 {
        fill: #010101;
      }
    </style>
  </defs>
  <g id="Layer_1-2" data-name="Layer 1">
    <path class="cls-1" d="M2,0C1.47,0,.96.21.59.59.21.96,0,1.47,0,2v16c0,.53.21,1.04.59,1.41.38.38.88.59,1.41.59h16c.53,0,1.04-.21,1.41-.59.38-.38.59-.88.59-1.41V2c0-.53-.21-1.04-.59-1.41-.38-.38-.88-.59-1.41-.59H2ZM26,0c-.53,0-1.04.21-1.41.59-.38.38-.59.88-.59,1.41v16c0,.53.21,1.04.59,1.41.38.38.88.59,1.41.59h16c.53,0,1.04-.21,1.41-.59.38-.38.59-.88.59-1.41V2c0-.53-.21-1.04-.59-1.41-.37-.38-.88-.59-1.41-.59h-16ZM4,4h12v12H4V4ZM28,4h12v12h-12V4ZM2,24c-.53,0-1.04.21-1.41.59-.38.38-.59.88-.59,1.41v16c0,.53.21,1.04.59,1.41.38.38.88.59,1.41.59h16c.53,0,1.04-.21,1.41-.59.38-.37.59-.88.59-1.41v-16c0-.53-.21-1.04-.59-1.41-.38-.38-.88-.59-1.41-.59H2ZM26,24c-.53,0-1.04.21-1.41.59-.38.38-.59.88-.59,1.41v16c0,.53.21,1.04.59,1.41.38.38.88.59,1.41.59h16c.53,0,1.04-.21,1.41-.59.38-.37.59-.88.59-1.41v-16c0-.53-.21-1.04-.59-1.41-.37-.38-.88-.59-1.41-.59h-16ZM4,28h12v12H4v-12ZM28,28h12v12h-12v-12Z"/>
  </g>
</svg>