<?xml version="1.0" encoding="UTF-8"?>
<svg id="Layer_2" data-name="Layer 2" xmlns="http://www.w3.org/2000/svg" viewBox="0 0 64 53.54">
  <defs>
    <style>
      .cls-1 {
        fill: #010101;
      }
    </style>
  </defs>
  <g id="Layer_1-2" data-name="Layer 1">
    <path class="cls-1" d="M28.58.68L4.72,10.55c-1.33.55-1.31,2.43.02,2.96l23.96,9.5c2.11.83,4.45.83,6.55,0l23.96-9.5c1.33-.53,1.35-2.41.02-2.96L35.38.68c-2.18-.9-4.62-.9-6.8,0ZM34.1,28.2v23.74c0,1.13,1.14,1.9,2.19,1.49l26.7-10.36c.61-.24,1.01-.83,1.01-1.49v-23.74c0-1.13-1.14-1.9-2.19-1.49l-26.7,10.36c-.61.24-1.01.83-1.01,1.49ZM27.87,29.43l-8.73,4.21L2.41,41.66c-1.06.51-2.41-.26-2.41-1.44v-22.28c0-.43.22-.79.51-1.07.12-.12.26-.22.4-.3.4-.24.97-.3,1.45-.11l25.36,10.05c1.29.51,1.39,2.32.13,2.93Z"/>
  </g>
</svg>