<?xml version="1.0" encoding="UTF-8"?>
<svg id="Layer_2" data-name="Layer 2" xmlns="http://www.w3.org/2000/svg" viewBox="0 0 52.01 52.01">
  <defs>
    <style>
      .cls-1 {
        fill: #010101;
        fill-rule: evenodd;
      }
    </style>
  </defs>
  <g id="Layer_1-2" data-name="Layer 1">
    <path class="cls-1" d="M16.91,5.97c.68-.31,1.37-.58,2.07-.82-.39.58-.75,1.19-1.08,1.81-.51.98-.14,2.19.84,2.7.98.51,2.19.14,2.7-.84,1.64-3.11,3.32-4.17,4.54-4.17,1.35,0,3.24,1.3,4.97,5.04.82,1.76,1.51,3.9,2.03,6.32h-3c-1.1,0-2,.9-2,2s.9,2,2,2h3.66c.16,1.31.26,2.67.31,4.07.04,1.1.97,1.97,2.07,1.93,1.1-.04,1.97-.97,1.93-2.07h0c-.05-1.31-.14-2.62-.29-3.93h9.49c1.11,3.92,1.11,8.08,0,12h-3.17c-1.1,0-2,.9-2,2s.9,2,2,2h1.82c0,1.1.88,2.01,1.99,2.01.79,0,1.5-.45,1.83-1.16,6-13.05.29-28.49-12.76-34.49-6.85-3.15-14.74-3.17-21.6-.06-1.01.46-1.45,1.64-1,2.65.46,1.01,1.64,1.45,2.65,1ZM45.59,16.01c-2.62-5.13-7.14-9.03-12.6-10.86.6.89,1.13,1.86,1.6,2.86,1.05,2.27,1.9,4.99,2.48,8h8.52ZM7.07,8.18l-2.56-2.82c-.72-.84-.62-2.1.22-2.82.8-.69,2.01-.63,2.74.13l40,44c.77.8.74,2.06-.06,2.83-.8.77-2.06.74-2.83-.06-.03-.03-.05-.06-.08-.08l-2.56-2.82c-11.34,8.81-27.67,6.76-36.48-4.58C-2.39,31.84-1.71,17.51,7.07,8.18h0ZM28.75,32.01l-10.48-11.51c-.41,3.83-.39,7.69.06,11.51h10.42ZM14.2,16.01l-4.43-4.87c-1.34,1.46-2.48,3.09-3.38,4.87h7.81ZM39.25,43.57l-3.18-3.49c-.78,2.58-1.79,4.85-2.99,6.67l-.08.12c2.25-.76,4.36-1.87,6.25-3.3h0ZM32.38,36.01l.5.54c-.77,3.35-1.87,6.09-3.13,7.98-1.41,2.13-2.74,2.83-3.76,2.83-.7,0-1.54-.32-2.49-1.26-.96-.94-1.91-2.4-2.75-4.37-.77-1.85-1.36-3.77-1.77-5.73h13.39ZM4.82,20.01c-.54,1.91-.83,3.92-.83,6s.29,4.09.83,6h9.49c-.43-3.99-.43-8.01,0-12H4.82ZM18.98,46.87c-5.45-1.84-9.97-5.74-12.59-10.86h8.52c.46,2.5,1.19,4.95,2.17,7.3.56,1.3,1.19,2.5,1.9,3.56h0Z"/>
  </g>
</svg>