<?xml version="1.0" encoding="UTF-8"?>
<svg id="Layer_2" data-name="Layer 2" xmlns="http://www.w3.org/2000/svg" viewBox="0 0 54 46">
  <defs>
    <style>
      .cls-1 {
        fill: #010101;
      }
    </style>
  </defs>
  <g id="Layer_1-2" data-name="Layer 1">
    <path class="cls-1" d="M34,0c-.53,0-1.04.21-1.41.59-.38.38-.59.88-.59,1.41v10h-12c-.53,0-1.04.21-1.41.59-.38.38-.59.88-.59,1.41v10H6c-.53,0-1.04.21-1.41.59-.38.38-.59.88-.59,1.41v16h-2c-.53,0-1.04.21-1.41.59-.38.38-.59.88-.59,1.41s.21,1.04.59,1.41c.38.37.88.59,1.41.59h50c.53,0,1.04-.21,1.41-.59.37-.38.59-.88.59-1.41s-.21-1.04-.59-1.41c-.38-.37-.88-.59-1.41-.59h-2V2c0-.53-.21-1.04-.59-1.41-.37-.38-.88-.59-1.41-.59h-14ZM36,4h10v38h-10V4ZM22,16h10v26h-10v-26ZM8,28h10v14h-10v-14Z"/>
  </g>
</svg>