<?xml version="1.0" encoding="UTF-8"?>
<svg id="Layer_2" data-name="Layer 2" xmlns="http://www.w3.org/2000/svg" viewBox="0 0 49.16 49.16">
  <defs>
    <style>
      .cls-1 {
        fill: #010101;
      }
    </style>
  </defs>
  <g id="Layer_1-2" data-name="Layer 1">
    <path class="cls-1" d="M34,0c-1.04,0-2.07.39-2.85,1.18L1.16,31.17h0C.41,31.92,0,32.93,0,33.99v11.17c0,2.19,1.81,4,4,4h11.17c1.05,0,2.07-.41,2.82-1.16h0s29.99-29.99,29.99-29.99c1.57-1.55,1.57-4.15,0-5.7L36.85,1.18c-.77-.79-1.81-1.18-2.85-1.18ZM34,3.99s.02-.02,0,0h.01s11.15,11.16,11.15,11.16h0s.02.03,0,.01h0s-5.16,5.17-5.16,5.17l-11.17-11.17,5.16-5.16h.01ZM26,11.99l4.17,4.17-21.17,21.17-4.17-4.17L26,11.99ZM33,18.99l4.17,4.17-21.17,21.17-4.17-4.17,21.17-21.17ZM4,37.99l7.17,7.17h-7.17v-7.17Z"/>
  </g>
</svg>