<?xml version="1.0" encoding="UTF-8"?>
<svg id="Layer_2" data-name="Layer 2" xmlns="http://www.w3.org/2000/svg" viewBox="0 0 48 48">
  <defs>
    <style>
      .cls-1 {
        fill: #010101;
      }
    </style>
  </defs>
  <g id="Layer_1-2" data-name="Layer 1">
    <path class="cls-1" d="M45.64.03l-20,3.62c-.46.08-.88.33-1.18.69-.3.36-.46.81-.47,1.28v14.38c0,.53.21,1.04.59,1.41.38.38.88.59,1.41.59h20c.53,0,1.04-.21,1.41-.59.38-.38.59-.88.59-1.41V2c0-.29-.06-.58-.19-.85-.12-.27-.3-.5-.53-.69-.22-.19-.49-.32-.77-.4-.28-.07-.58-.09-.87-.03ZM44,4.39v13.6h-16V7.29l16-2.9ZM17.64,5.13L1.64,8.03c-.46.08-.88.33-1.18.69-.3.36-.46.81-.47,1.28v10c0,.53.21,1.04.59,1.41.38.38.88.59,1.41.59h16c.53,0,1.04-.21,1.41-.59.38-.38.59-.88.59-1.41V7.1c0-.29-.06-.58-.19-.85-.12-.27-.3-.5-.53-.69s-.49-.32-.77-.4c-.28-.07-.58-.09-.87-.03ZM16,9.49v8.5H4v-6.33l12-2.17ZM2,26c-.53,0-1.04.21-1.41.59-.38.38-.59.88-.59,1.41v10c0,.47.16.92.47,1.28.3.36.72.6,1.18.69l16,2.9c.29.05.58.04.87-.03.28-.07.55-.21.77-.4.22-.19.41-.42.53-.69.12-.27.19-.55.19-.85v-12.9c0-.53-.21-1.04-.59-1.41-.38-.38-.88-.59-1.41-.59H2ZM4,30h12v8.5l-12-2.17v-6.33ZM26,26c-.53,0-1.04.21-1.41.59-.38.38-.59.88-.59,1.41v14.37c0,.47.16.92.47,1.28.3.36.72.6,1.18.69l20,3.62c.29.05.58.04.87-.03.28-.07.55-.21.77-.4.22-.19.41-.42.53-.69.12-.27.19-.55.19-.85v-18c0-.53-.21-1.04-.59-1.41-.37-.38-.88-.59-1.41-.59h-20ZM28,30h16v13.6l-16-2.9v-10.7Z"/>
  </g>
</svg>