<?xml version="1.0" encoding="UTF-8"?>
<svg id="Layer_2" data-name="Layer 2" xmlns="http://www.w3.org/2000/svg" viewBox="0 0 56 48">
  <defs>
    <style>
      .cls-1 {
        fill: #010101;
      }
    </style>
  </defs>
  <g id="Layer_1-2" data-name="Layer 1">
    <path class="cls-1" d="M37.67,12.12c1.04.37,1.58,1.52,1.21,2.56l-4.05,11.33h5.16v-4c0-1.1.9-2,2-2s2,.9,2,2v12c0,1.1-.9,2-2,2s-2-.9-2-2v-4h-8c-.65,0-1.26-.32-1.63-.85-.37-.53-.47-1.21-.25-1.82l5-14c.37-1.04,1.52-1.58,2.56-1.21ZM17.6,16.35c.61-.32,1.32-.42,1.99-.29.68.14,1.29.5,1.73,1.04.44.54.68,1.21.68,1.9h0c0,.58-.17,1.15-.49,1.63l-9.12,12.18c-.45.61-.53,1.42-.19,2.09.34.68,1.03,1.1,1.79,1.1h11c1.1,0,2-.9,2-2s-.9-2-2-2h-7l6.75-9.02s.04-.05.05-.07c.79-1.16,1.21-2.52,1.2-3.92,0-1.61-.56-3.18-1.59-4.42-1.02-1.25-2.45-2.1-4.03-2.42-1.58-.32-3.23-.08-4.65.67-1.43.75-2.55,1.98-3.18,3.46-.43,1.02.05,2.19,1.06,2.62,1.02.43,2.19-.05,2.62-1.06.27-.64.75-1.16,1.36-1.48ZM14,0C6.27,0,0,6.27,0,14v20c0,7.73,6.27,14,14,14h28c7.73,0,14-6.27,14-14V14c0-7.73-6.27-14-14-14H14ZM4,14c0-5.52,4.48-10,10-10h28c5.52,0,10,4.48,10,10v20c0,5.52-4.48,10-10,10H14c-5.52,0-10-4.48-10-10V14Z"/>
  </g>
</svg>