<?xml version="1.0" encoding="UTF-8"?>
<svg id="Layer_2" data-name="Layer 2" xmlns="http://www.w3.org/2000/svg" viewBox="0 0 48.05 48.05">
  <defs>
    <style>
      .cls-1 {
        fill: #010101;
      }
    </style>
  </defs>
  <g id="Layer_1-2" data-name="Layer 1">
    <path class="cls-1" d="M24.35,0c-4.74-.07-9.51,1.26-13.68,4.04C1.15,10.41-2.56,22.65,1.83,33.22c4.39,10.58,15.67,16.6,26.9,14.35,11.23-2.24,19.33-12.13,19.32-23.58,0-.53-.21-1.04-.59-1.41-.38-.37-.88-.59-1.41-.59h-22c-.53,0-1.04.21-1.41.59s-.59.88-.59,1.41.21,1.04.59,1.41c.38.38.88.59,1.41.59h19.9c-.85,8.69-7.28,15.92-16,17.66-9.38,1.87-18.75-3.13-22.42-11.96-3.67-8.84-.59-19,7.37-24.32,7.95-5.32,18.52-4.28,25.29,2.49.19.19.41.33.65.43.24.1.5.15.77.15s.52-.05.77-.15c.24-.1.46-.25.65-.43.19-.19.33-.41.43-.65.1-.24.15-.5.15-.77s-.05-.52-.15-.77c-.1-.24-.25-.46-.43-.65C36.46,2.48,30.44.09,24.35,0Z"/>
  </g>
</svg>