<?xml version="1.0" encoding="UTF-8"?>
<svg id="Layer_2" data-name="Layer 2" xmlns="http://www.w3.org/2000/svg" viewBox="0 0 44 44.01">
  <defs>
    <style>
      .cls-1 {
        fill: #010101;
      }
    </style>
  </defs>
  <g id="Layer_1-2" data-name="Layer 1">
    <path class="cls-1" d="M14,0c-.53,0-1.04.21-1.41.59-.38.38-.59.88-.59,1.41v6c0,.53.21,1.04.59,1.41.38.38.88.59,1.41.59s1.04-.21,1.41-.59c.38-.38.59-.88.59-1.41V2c0-.53-.21-1.04-.59-1.41-.38-.38-.88-.59-1.41-.59ZM32,0C28.93,0,25.85,1.17,23.51,3.51l-2.83,2.82c-.19.19-.33.41-.43.65-.1.24-.15.5-.15.77s.05.52.15.77c.1.24.25.46.43.65s.41.33.65.43c.24.1.5.15.77.15s.52-.05.77-.15c.24-.1.46-.25.65-.43l2.83-2.83c3.14-3.14,8.18-3.14,11.32,0,3.14,3.14,3.14,8.18,0,11.32l-2.82,2.82c-.19.19-.33.41-.43.65-.1.24-.15.5-.15.77s.05.52.15.77c.1.24.25.46.43.65.37.38.88.59,1.41.59s1.04-.21,1.41-.59l2.83-2.83c4.67-4.67,4.67-12.31,0-16.98C38.16,1.17,35.08,0,32,0ZM2,12c-.53,0-1.04.21-1.41.59C.21,12.96,0,13.47,0,14s.21,1.04.59,1.41c.38.38.88.59,1.41.59h6c.53,0,1.04-.21,1.41-.59.38-.38.59-.88.59-1.41s-.21-1.04-.59-1.41c-.38-.38-.88-.59-1.41-.59H2ZM7.75,20.1c-.53,0-1.04.21-1.41.59l-2.83,2.83C.09,26.94-.94,32.11.91,36.59c1.86,4.48,6.24,7.41,11.09,7.41,3.18,0,6.24-1.27,8.49-3.52l2.83-2.83c.37-.38.59-.88.59-1.41s-.21-1.04-.59-1.41c-.19-.19-.41-.33-.65-.43-.24-.1-.5-.15-.77-.15s-.52.05-.77.15c-.24.1-.46.25-.65.43l-2.82,2.82c-1.5,1.5-3.54,2.35-5.66,2.35-3.24,0-6.15-1.95-7.4-4.94-1.24-3-.56-6.43,1.73-8.72l2.82-2.83c.19-.19.33-.41.43-.65.1-.24.15-.5.15-.77s-.05-.52-.15-.77c-.1-.24-.25-.46-.43-.65-.38-.37-.88-.59-1.41-.59ZM36,28c-.53,0-1.04.21-1.41.59-.37.38-.59.88-.59,1.41s.21,1.04.59,1.41c.38.37.88.59,1.41.59h6c.53,0,1.04-.21,1.41-.59s.59-.88.59-1.41-.21-1.04-.59-1.41c-.37-.38-.88-.59-1.41-.59h-6ZM30,34c-.53,0-1.04.21-1.41.59-.38.38-.59.88-.59,1.41v6c0,.53.21,1.04.59,1.41.38.37.88.59,1.41.59s1.04-.21,1.41-.59.59-.88.59-1.41v-6c0-.53-.21-1.04-.59-1.41s-.88-.59-1.41-.59Z"/>
  </g>
</svg>