<?xml version="1.0" encoding="UTF-8"?>
<svg id="Layer_2" data-name="Layer 2" xmlns="http://www.w3.org/2000/svg" viewBox="0 0 52 52">
  <defs>
    <style>
      .cls-1 {
        fill: #010101;
      }
    </style>
  </defs>
  <g id="Layer_1-2" data-name="Layer 1">
    <path class="cls-1" d="M17.1,21c-.53-.03-1.05.16-1.44.51-.2.18-.35.39-.47.63-.11.24-.18.49-.19.76-.01.26.02.52.11.77.09.25.22.48.4.67l9,10c.19.21.42.37.67.49.26.11.53.17.81.17s.56-.06.81-.17c.26-.11.49-.28.67-.49l9-10c.18-.2.31-.42.4-.67s.13-.51.11-.77c-.01-.26-.08-.52-.19-.76-.11-.24-.27-.45-.47-.63-.2-.18-.42-.31-.67-.4-.25-.09-.51-.13-.77-.11-.26.01-.52.08-.76.19-.24.11-.45.27-.63.47l-7.51,8.35-7.51-8.35c-.18-.2-.39-.35-.63-.47-.24-.11-.49-.18-.76-.19ZM26,0C11.66,0,0,11.66,0,26s11.66,26,26,26,26-11.66,26-26S40.34,0,26,0ZM26,4c12.17,0,22,9.83,22,22s-9.83,22-22,22S4,38.17,4,26,13.83,4,26,4Z"/>
  </g>
</svg>