<?xml version="1.0" encoding="UTF-8"?>
<svg id="Layer_2" data-name="Layer 2" xmlns="http://www.w3.org/2000/svg" viewBox="0 0 56 48">
  <defs>
    <style>
      .cls-1 {
        fill: #010101;
      }
    </style>
  </defs>
  <g id="Layer_1-2" data-name="Layer 1">
    <path class="cls-1" d="M32,14c0-1.1.9-2,2-2h10c1.1,0,2,.89,2,2,0,1.1-.89,2-2,2h-10c-1.1,0-2-.89-2-2ZM32,24c0-1.1.9-2,2-2h10c1.1,0,2,.9,2,2s-.9,2-2,2h-10c-1.1,0-2-.9-2-2ZM10,34c0-1.1.9-2,2-2h32c1.1,0,2,.9,2,2s-.9,2-2,2H12c-1.1,0-2-.9-2-2ZM10,14c0-1.1.9-2,2-2h12c1.1,0,2,.9,2,2v10c0,1.1-.9,2-2,2h-12c-1.1,0-2-.9-2-2v-10ZM14,16v6h8v-6h-8ZM0,6C0,2.69,2.69,0,6,0h44c3.31,0,6,2.69,6,6v36c0,3.31-2.69,6-6,6H6c-3.31,0-6-2.69-6-6V6ZM6,4c-1.1,0-2,.9-2,2v36c0,1.1.9,2,2,2h44c1.1,0,2-.9,2-2V6c0-1.1-.9-2-2-2H6Z"/>
  </g>
</svg>