<?xml version="1.0" encoding="UTF-8"?>
<svg id="Layer_2" data-name="Layer 2" xmlns="http://www.w3.org/2000/svg" viewBox="0 0 64 38.4">
  <defs>
    <style>
      .cls-1 {
        fill: #010101;
      }
    </style>
  </defs>
  <g id="Layer_1-2" data-name="Layer 1">
    <path class="cls-1" d="M20.75,38.16c-3.87-.98-6.03-4.1-6.04-8.74,0-1.48.11-2.19.47-3.14.89-2.34,3.26-4.1,6.37-4.75,1.55-.32,2.03-.67,2.03-1.47,0-.25.19-1,.41-1.66,1.02-3.02,2.92-5.54,4.94-6.56,2.12-1.08,3.19-1.32,5.75-1.31,3.64.02,5.46.82,8,3.53l1.4,1.49,1.25-.44c6.06-2.12,12.1,1.49,12.59,7.55l.13,1.65,1.19.43c3.41,1.24,5.01,3.84,4.72,7.66-.19,2.5-1.34,4.5-3.17,5.49l-.86.46-19.07.04c-14.66.03-19.31-.03-20.12-.23ZM6.45,35.49c-2.26-.54-4.66-2.57-5.78-4.89-.64-1.31-.67-1.5-.67-3.83s.05-2.57.56-3.66c1.07-2.31,3.12-3.98,5.69-4.64.54-.14,1.06-.36,1.14-.49.08-.13.17-.85.2-1.6.18-4.63,3.17-8.71,7.36-10.02,2.26-.71,5.1-.53,7.55.46.78.32.69.38,2.34-1.81.98-1.3,2.94-2.91,4.56-3.73C31.13.4,32.94,0,35.1,0c6.05.02,11.26,3.85,13.19,9.71.61,1.87.58,2.4-.14,2.41-.32,0-1.23.18-2.02.39l-1.44.38-1.32-1.33c-3.71-3.76-9.77-4.58-14.91-2-2.02,1-3.74,2.53-4.96,4.43-.89,1.37-2.02,3.93-2.02,4.56,0,.45-.36.68-1.89,1.19-4.76,1.58-7.53,5.24-7.53,9.91,0,1.7.43,3.78,1.03,4.98.23.45.35.88.28.95-.19.19-6.1.12-6.92-.07h0Z"/>
  </g>
</svg>