<?xml version="1.0" encoding="UTF-8"?>
<svg id="Layer_2" data-name="Layer 2" xmlns="http://www.w3.org/2000/svg" viewBox="0 0 59.98 44.01">
  <defs>
    <style>
      .cls-1 {
        fill: #010101;
      }
    </style>
  </defs>
  <g id="Layer_1-2" data-name="Layer 1">
    <path class="cls-1" d="M36,20.01c-.53,0-1.04.21-1.41.59l-8.48,8.47c-.19.19-.33.41-.43.65-.1.24-.15.5-.15.77s.05.52.15.77c.1.24.25.46.43.65.19.19.41.33.65.43s.5.15.77.15.52-.05.77-.15c.24-.1.46-.25.65-.43l5.06-5.06v15.17c0,.53.21,1.04.59,1.41.38.38.88.59,1.41.59s1.04-.21,1.41-.59c.38-.37.59-.88.59-1.41v-15.17l5.06,5.06c.19.19.41.33.65.43.24.1.5.15.77.15s.52-.05.77-.15c.24-.1.46-.25.65-.43.19-.19.33-.41.43-.65.1-.24.15-.5.15-.77s-.05-.52-.15-.77-.25-.46-.43-.65l-8.48-8.47s-.04-.02-.06-.02c-.36-.35-.85-.55-1.36-.56ZM37.02.02c-7.96.37-15.13,5.13-18.68,12.17-.77-.11-1.55-.18-2.34-.18-8.81,0-16,7.19-16,16s7.19,16,16,16h6c.53,0,1.04-.21,1.41-.59.38-.37.59-.88.59-1.41s-.21-1.04-.59-1.41c-.38-.37-.88-.59-1.41-.59h-6c-6.65,0-12-5.35-12-12s5.35-12,12-12c0,0,0,0,0,0,.28,0,.56.03.84.05-.53,1.88-.84,3.87-.84,5.95,0,.53.21,1.04.59,1.41.38.38.88.59,1.41.59s1.04-.21,1.41-.59c.38-.38.59-.88.59-1.41,0-12.34,11.98-20.98,23.69-17.08,11.71,3.9,16.11,18,8.71,27.88-.16.21-.27.45-.34.7-.07.25-.08.52-.04.78.04.26.12.51.26.74.13.23.31.42.52.58.21.16.45.27.7.34.25.07.52.08.78.04.26-.04.51-.12.74-.26.23-.13.42-.31.58-.52,8.97-11.97,3.55-29.34-10.64-34.07C42.3.25,39.62-.1,37.02.02Z"/>
  </g>
</svg>