<?xml version="1.0" encoding="UTF-8"?>
<svg id="Layer_2" data-name="Layer 2" xmlns="http://www.w3.org/2000/svg" viewBox="0 0 58.26 44.36">
  <defs>
    <style>
      .cls-1 {
        fill: #010101;
      }
    </style>
  </defs>
  <g id="Layer_1-2" data-name="Layer 1">
    <path class="cls-1" d="M29.13,29.81c-2.74,0-5.48.15-8.21.44-.53.06-1.01.32-1.34.73-.33.41-.49.94-.43,1.47.06.53.32,1.01.73,1.34.41.33.94.49,1.47.43,5.17-.56,10.4-.56,15.57,0,.53.06,1.06-.1,1.47-.43.41-.33.68-.82.73-1.34.06-.53-.1-1.06-.43-1.47-.33-.41-.82-.68-1.34-.73-2.73-.3-5.47-.44-8.22-.44ZM29.13,0c-1.38,0-2.76.66-3.5,1.99l-7.34,13.23s0,0,0,0c-.01.02,0,.02-.03.01l-12.64-5.62s0,0,0,0C2.69,8.32-.64,11.11.11,14.21c0,0,0,0,0,0l6.35,27.06s0,.01,0,.02c.53,2.18,2.81,3.52,4.97,2.93,0,0,0,0,0,0,11.57-3.2,23.79-3.2,35.36,0,0,0,0,0,0,0,1.05.28,2.17.13,3.1-.42,0,0,0,0,0,0,.94-.55,1.61-1.46,1.87-2.52,0,0,0,0,0-.01l6.38-27.08h0c.36-1.46-.16-3.02-1.32-4-1.16-.97-2.79-1.2-4.18-.59,0,0,0,0,0,0l-12.64,5.62s-.02.01-.03-.01l-7.34-13.23c-.74-1.33-2.12-1.99-3.5-1.99ZM29.13,3.86s-.02.02,0,.07c0,0,0,0,0,0l7.35,13.25s0,.01.01.02c1.01,1.78,3.25,2.51,5.12,1.69,0,0,0,0,0,0l12.64-5.62s0,0,0,0c0,0,0,0,0,.01l-6.37,27.06s0,.01-.01.01c0,0-.01,0-.02,0-12.26-3.39-25.21-3.39-37.48,0-.04.01-.02.02-.03-.02L4,13.28s0,0,0-.01l12.64,5.62s0,0,0,0c1.87.82,4.11.09,5.12-1.69,0,0,0-.01.01-.02l7.35-13.25s0,0,0,0c.03-.05.01-.07,0-.07Z"/>
  </g>
</svg>