<?xml version="1.0" encoding="UTF-8"?>
<svg id="Layer_2" data-name="Layer 2" xmlns="http://www.w3.org/2000/svg" viewBox="0 0 54 44">
  <defs>
    <style>
      .cls-1 {
        fill: #010101;
      }
    </style>
  </defs>
  <g id="Layer_1-2" data-name="Layer 1">
    <path class="cls-1" d="M9,0C4.05,0,0,4.05,0,9s4.05,9,9,9c2.35,0,4.47-.93,6.08-2.42l9.38,6.42-9.38,6.42c-1.61-1.49-3.73-2.42-6.08-2.42-4.95,0-9,4.05-9,9s4.05,9,9,9,9-4.05,9-9c0-1.16-.24-2.27-.65-3.29l10.65-7.29,22.87,15.65c.44.3.98.41,1.5.32.52-.1.98-.4,1.28-.84.3-.44.41-.98.32-1.5-.1-.52-.4-.98-.84-1.28L17.35,12.29c.41-1.02.65-2.13.65-3.29C18,4.05,13.95,0,9,0ZM9,4c2.79,0,5,2.21,5,5,0,1.04-.31,2-.84,2.8-.01,0-.02.01-.03.02,0,0,0,.02,0,.03-.9,1.3-2.4,2.15-4.12,2.15-2.79,0-5-2.21-5-5s2.21-5,5-5ZM9,30c1.72,0,3.22.85,4.12,2.15,0,0,0,.02,0,.03.01,0,.02.01.03.02.53.8.84,1.76.84,2.8,0,2.79-2.21,5-5,5s-5-2.21-5-5,2.21-5,5-5ZM52.37,3.61c-.26-.05-.52-.05-.78,0-.26.05-.5.16-.72.31l-16.92,11.58c-.44.3-.74.76-.84,1.28-.1.52.02,1.06.31,1.5s.76.74,1.28.84c.52.1,1.06-.02,1.5-.31l16.93-11.58c.22-.15.4-.34.55-.56.14-.22.24-.47.29-.72.05-.26.05-.52,0-.78-.05-.26-.16-.5-.31-.72-.3-.44-.76-.74-1.28-.84Z"/>
  </g>
</svg>