<?xml version="1.0" encoding="UTF-8"?>
<svg id="Layer_2" data-name="Layer 2" xmlns="http://www.w3.org/2000/svg" viewBox="0 0 50 48">
  <defs>
    <style>
      .cls-1 {
        fill: #010101;
      }
    </style>
  </defs>
  <g id="Layer_1-2" data-name="Layer 1">
    <path class="cls-1" d="M7,0c-.53,0-1.04.21-1.41.59s-.59.88-.59,1.41v17.33c-2.87.87-5,3.53-5,6.67s2.13,5.8,5,6.67v13.33c0,.53.21,1.04.59,1.41.38.37.88.59,1.41.59s1.04-.21,1.41-.59c.38-.38.59-.88.59-1.41v-13.33c2.87-.87,5-3.53,5-6.67s-2.13-5.8-5-6.67V2c0-.53-.21-1.04-.59-1.41-.38-.38-.88-.59-1.41-.59ZM25,0c-.53,0-1.04.21-1.41.59-.38.38-.59.88-.59,1.41v5.33c-2.87.87-5,3.53-5,6.67s2.13,5.8,5,6.67v25.33c0,.53.21,1.04.59,1.41.38.37.88.59,1.41.59s1.04-.21,1.41-.59c.38-.38.59-.88.59-1.41v-25.33c2.87-.87,5-3.53,5-6.67s-2.13-5.8-5-6.67V2c0-.53-.21-1.04-.59-1.41-.38-.38-.88-.59-1.41-.59ZM43,0c-.53,0-1.04.21-1.41.59-.38.38-.59.88-.59,1.41v25.33c-2.87.87-5,3.53-5,6.67s2.13,5.8,5,6.67v5.33c0,.53.21,1.04.59,1.41.38.37.88.59,1.41.59s1.04-.21,1.41-.59c.38-.38.59-.88.59-1.41v-5.33c2.87-.87,5-3.53,5-6.67s-2.13-5.8-5-6.67V2c0-.53-.21-1.04-.59-1.41-.38-.38-.88-.59-1.41-.59ZM25,11c1.68,0,3,1.32,3,3s-1.32,3-3,3-3-1.32-3-3,1.32-3,3-3ZM7,23c1.68,0,3,1.32,3,3s-1.32,3-3,3-3-1.32-3-3,1.32-3,3-3ZM43,31c1.68,0,3,1.32,3,3s-1.32,3-3,3-3-1.32-3-3,1.32-3,3-3Z"/>
  </g>
</svg>