<?xml version="1.0" encoding="UTF-8"?>
<svg id="Layer_2" data-name="Layer 2" xmlns="http://www.w3.org/2000/svg" viewBox="0 0 44 54">
  <defs>
    <style>
      .cls-1 {
        fill: #010101;
      }
    </style>
  </defs>
  <g id="Layer_1-2" data-name="Layer 1">
    <path class="cls-1" d="M32.76,5.02c2.1,2.9,3.62,6.89,3.18,10.94-.3,2.74-1.9,5.14-3.43,7.15-.48.64-.96,1.24-1.42,1.82-1.12,1.41-2.15,2.71-2.96,4.12-1.08,1.88-1.53,3.61-1.05,5.47.5,1.94,2.11,4.42,6.09,7.52.64.5.91,1.33.7,2.11s-.88,1.35-1.69,1.45c-13.36,1.62-22.07-1.81-26.6-7.43-4.5-5.59-4.52-12.95-1.25-18.18,3.84-6.15,8.84-7.76,12.51-8.95.45-.14.88-.28,1.28-.42,1.9-.66,3.01-1.24,3.71-2.22.69-.96,1.23-2.68.94-6.22-.04-.53.13-1.06.47-1.47.35-.41.84-.66,1.38-.69,1.61-.11,3.18.51,4.5,1.39,1.35.89,2.61,2.15,3.67,3.62ZM26.82,4.69c-.08,2.53-.65,4.5-1.76,6.04-1.48,2.07-3.68,2.98-5.66,3.66-.46.16-.91.31-1.37.46-3.61,1.18-7.28,2.39-10.33,7.25-2.4,3.84-2.42,9.33.98,13.55,2.93,3.64,8.69,6.63,18.43,6.33-2.09-2.19-3.36-4.33-3.91-6.46-.84-3.24.08-6.06,1.45-8.46.97-1.69,2.29-3.36,3.48-4.85.42-.53.82-1.04,1.19-1.52,1.52-2,2.47-3.62,2.64-5.17.31-2.82-.76-5.84-2.44-8.16-.83-1.15-1.76-2.05-2.64-2.63l-.07-.04ZM0,52c0-1.1.9-2,2-2h40c1.1,0,2,.9,2,2s-.9,2-2,2H2c-1.1,0-2-.9-2-2Z"/>
  </g>
</svg>