<?xml version="1.0" encoding="UTF-8"?>
<svg id="Layer_2" data-name="Layer 2" xmlns="http://www.w3.org/2000/svg" viewBox="0 0 44 40">
  <defs>
    <style>
      .cls-1 {
        fill: #010101;
      }
    </style>
  </defs>
  <g id="Layer_1-2" data-name="Layer 1">
    <path class="cls-1" d="M4,2c0-1.1-.9-2-2-2S0,.9,0,2v36c0,1.1.9,2,2,2s2-.9,2-2V2ZM44,2c0-1.1-.9-2-2-2s-2,.9-2,2v36c0,1.1.9,2,2,2s2-.9,2-2V2ZM8,.24c.55,0,1,.45,1,1v37.64c0,.55-.45,1-1,1s-1-.45-1-1V1.24c0-.55.45-1,1-1ZM28,.24c.55,0,1,.45,1,1v37.64c0,.55-.45,1-1,1s-1-.45-1-1V1.24c0-.55.45-1,1-1ZM14,0c1.1,0,2,.9,2,2v36c0,1.1-.9,2-2,2s-2-.9-2-2V2c0-1.1.9-2,2-2ZM34,0c1.1,0,2,.9,2,2v36c0,1.1-.9,2-2,2s-2-.9-2-2V2c0-1.1.9-2,2-2ZM24,2c0-1.1-.9-2-2-2s-2,.9-2,2v36c0,1.1.9,2,2,2s2-.9,2-2V2Z"/>
  </g>
</svg>