<?xml version="1.0" encoding="UTF-8"?>
<svg id="Layer_2" data-name="Layer 2" xmlns="http://www.w3.org/2000/svg" viewBox="0 0 51.21 51.17">
  <defs>
    <style>
      .cls-1 {
        fill: #010101;
        fill-rule: evenodd;
      }
    </style>
  </defs>
  <g id="Layer_1-2" data-name="Layer 1">
    <path class="cls-1" d="M5.41,25.21l-4.24,4.24c-1.56,1.56-1.56,4.09,0,5.66l8.49,8.49c1.56,1.56,4.09,1.56,5.66,0l4.24-4.24c1.13-1.13,1.44-2.76.94-4.17l2.83-2.83s.06.07.09.11l14.03,16.25s.07.07.1.11c1.5,1.5,3.54,2.35,5.66,2.35s4.16-.84,5.66-2.35c1.5-1.5,2.35-3.54,2.35-5.66s-.84-4.16-2.35-5.66c-.03-.03-.07-.07-.11-.1l-16.25-14.03s-.07-.06-.11-.09l2.78-2.78c1.41.5,3.04.19,4.17-.94l4.24-4.24c1.56-1.56,1.56-4.09,0-5.66L35.11,1.17c-1.56-1.56-4.09-1.56-5.66,0l-4.24,4.24c-1.13,1.13-1.44,2.76-.94,4.17l-14.69,14.69c-1.41-.5-3.04-.19-4.17.94ZM4,32.28l4.24-4.24,8.49,8.49-4.24,4.24-8.49-8.49ZM29.6,26.08l-3.47,3.47c.11.09.22.18.32.3l13.97,16.19c.75.72,1.75,1.13,2.79,1.13s2.08-.42,2.84-1.17c.75-.75,1.17-1.77,1.17-2.84s-.41-2.04-1.13-2.79l-16.19-13.97c-.11-.1-.21-.2-.3-.32ZM32.08,17.94l-14.14,14.14-5.25-5.25,14.14-14.14,5.25,5.25ZM28.04,8.24l4.24-4.24,8.49,8.49-4.24,4.24-8.49-8.49Z"/>
  </g>
</svg>