<?xml version="1.0" encoding="UTF-8"?>
<svg id="Layer_2" data-name="Layer 2" xmlns="http://www.w3.org/2000/svg" viewBox="0 0 44 52">
  <defs>
    <style>
      .cls-1 {
        fill: #010101;
      }
    </style>
  </defs>
  <g id="Layer_1-2" data-name="Layer 1">
    <path class="cls-1" d="M8.01,0C3.6-.02-.02,3.6,0,8.01v41.99c0,.53.21,1.04.59,1.41.38.38.88.59,1.41.59h36c.53,0,1.04-.21,1.41-.59s.59-.88.59-1.41-.21-1.04-.59-1.41-.88-.59-1.41-.59H4c0-2.24,1.76-4.01,3.99-4h34.01c.53,0,1.04-.21,1.41-.59.38-.37.59-.88.59-1.41V2c0-.53-.21-1.04-.59-1.41C43.04.21,42.53,0,42,0H8.01ZM7.99,4h32.01v36H8.01c-1.46,0-2.82.42-4.01,1.11V7.99c0-2.23,1.76-4,3.99-3.99Z"/>
  </g>
</svg>