<?xml version="1.0" encoding="UTF-8"?>
<svg id="Layer_2" data-name="Layer 2" xmlns="http://www.w3.org/2000/svg" viewBox="0 0 48 48">
  <defs>
    <style>
      .cls-1 {
        fill: #010101;
      }
    </style>
  </defs>
  <g id="Layer_1-2" data-name="Layer 1">
    <path class="cls-1" d="M4,0C1.81,0,0,1.81,0,4v40c0,2.19,1.81,4,4,4,0,0,0,0,0,0h14c.53,0,1.04-.21,1.41-.59.38-.38.59-.88.59-1.41s-.21-1.04-.59-1.41c-.38-.37-.88-.59-1.41-.59H4V4s14,0,14,0c.53,0,1.04-.21,1.41-.59.38-.38.59-.88.59-1.41s-.21-1.04-.59-1.41c-.38-.38-.88-.59-1.41-.59H4ZM35.5,11.5c-.53,0-1.04.21-1.41.59-.38.38-.59.88-.59,1.41s.21,1.04.59,1.41l7.09,7.09h-23.17c-.53,0-1.04.21-1.41.59-.38.38-.59.88-.59,1.41s.21,1.04.59,1.41c.38.38.88.59,1.41.59h23.17l-7.09,7.09c-.38.37-.59.88-.59,1.41s.21,1.04.59,1.41c.37.38.88.59,1.41.59s1.04-.21,1.41-.59l10.5-10.5c.35-.36.55-.85.56-1.35,0-.02.02-.04.02-.06,0-.05-.01-.11-.02-.16,0-.1-.02-.2-.05-.3-.02-.1-.06-.2-.1-.3-.04-.09-.09-.19-.14-.27-.06-.09-.12-.18-.19-.26-.03-.04-.06-.08-.09-.12l-10.5-10.5c-.37-.38-.88-.59-1.41-.59Z"/>
  </g>
</svg>