<?xml version="1.0" encoding="UTF-8"?>
<svg id="Layer_2" data-name="Layer 2" xmlns="http://www.w3.org/2000/svg" viewBox="0 0 52.09 52.08">
  <defs>
    <style>
      .cls-1 {
        fill: #010101;
      }
    </style>
  </defs>
  <g id="Layer_1-2" data-name="Layer 1">
    <path class="cls-1" d="M24.98,12.12c-2.38.19-4.74.99-6.81,2.42,0,0,0,0,0,0-8.71,6.02-7.71,19.4,1.8,24.05,9.51,4.65,20.69-2.77,20.09-13.35-.01-.26-.08-.52-.2-.76-.11-.24-.27-.45-.47-.62-.2-.17-.42-.31-.67-.4-.25-.09-.51-.12-.77-.11-.53.03-1.03.27-1.38.66-.35.4-.53.92-.5,1.44.44,7.71-7.41,12.92-14.34,9.53-6.93-3.39-7.64-12.78-1.29-17.17,3.97-2.74,9.3-2.26,12.71,1.15.19.19.41.33.65.43.24.1.5.15.77.15.26,0,.52-.05.77-.15.24-.1.46-.25.65-.43.37-.38.58-.88.58-1.41,0-.53-.21-1.04-.59-1.41-2.98-2.97-7.03-4.35-11-4.03ZM27.17.03c-6.32-.28-12.73,1.73-17.9,6.08C-1.07,14.8-3.03,30.01,4.76,41.05c7.79,11.04,22.78,14.29,34.44,7.47,11.66-6.83,16.16-21.49,10.34-33.69-.23-.48-.64-.85-1.14-1.02-.5-.18-1.05-.15-1.53.08-.48.23-.85.64-1.02,1.14-.18.5-.15,1.05.08,1.53,4.94,10.35,1.14,22.72-8.76,28.52-9.9,5.8-22.53,3.05-29.15-6.32C1.41,29.37,3.07,16.55,11.84,9.16c8.26-6.95,20.2-6.85,28.33-.04l-15.5,15.5c-.38.38-.59.88-.59,1.41s.21,1.04.59,1.41c.38.38.88.59,1.41.59s1.04-.21,1.41-.59L51.5,3.45c.37-.38.59-.88.59-1.41s-.21-1.04-.59-1.41c-.38-.38-.88-.59-1.41-.59s-1.04.21-1.41.59l-5.68,5.68C38.45,2.39,32.86.27,27.17.03Z"/>
  </g>
</svg>