<?xml version="1.0" encoding="UTF-8"?>
<svg id="Layer_2" data-name="Layer 2" xmlns="http://www.w3.org/2000/svg" viewBox="0 0 52.98 28.98">
  <defs>
    <style>
      .cls-1 {
        fill: #010101;
      }
    </style>
  </defs>
  <g id="Layer_1-2" data-name="Layer 1">
    <path class="cls-1" d="M27.55.97c-6.96-.15-13.85,2.5-18.96,7.61L.59,16.59c-.19.19-.33.41-.43.65C.05,17.48,0,17.74,0,18s.05.52.15.77c.1.24.25.46.43.65.19.19.41.33.65.43.24.1.5.15.77.15s.52-.05.77-.15c.24-.1.46-.25.65-.43l8-8s0,0,0,0c6.3-6.3,15.75-8.18,23.98-4.77,8.23,3.41,13.58,11.43,13.58,20.33,0,.26.05.52.15.77.1.24.25.46.43.65.19.19.41.33.65.43.24.1.5.15.77.15s.52-.05.77-.15c.24-.1.46-.25.65-.43.19-.19.33-.41.43-.65.1-.24.15-.5.15-.77,0-10.51-6.34-20.01-16.05-24.03-3.04-1.26-6.22-1.9-9.38-1.97ZM2,0C1.47,0,.96.21.59.59s-.59.88-.59,1.41v16c0,.53.21,1.04.59,1.41.38.38.88.59,1.41.59h16c.26,0,.52-.05.77-.15.24-.1.46-.25.65-.43.19-.19.33-.41.43-.65.1-.24.15-.5.15-.77s-.05-.52-.15-.77c-.1-.24-.25-.46-.43-.65-.19-.19-.41-.33-.65-.43-.24-.1-.5-.15-.77-.15H4V2c0-.53-.21-1.04-.59-1.41s-.88-.59-1.41-.59Z"/>
  </g>
</svg>