<?xml version="1.0" encoding="UTF-8"?>
<svg id="Layer_2" data-name="Layer 2" xmlns="http://www.w3.org/2000/svg" viewBox="0 0 52 52">
  <defs>
    <style>
      .cls-1 {
        fill: #010101;
      }
    </style>
  </defs>
  <g id="Layer_1-2" data-name="Layer 1">
    <path class="cls-1" d="M23,0C10.32,0,0,10.32,0,23s10.32,23,23,23c5.62,0,10.77-2.04,14.77-5.4l10.81,10.81c.37.37.88.59,1.41.59s1.04-.21,1.41-.59c.38-.38.59-.88.59-1.41s-.21-1.04-.59-1.41l-10.81-10.81c3.36-4,5.4-9.15,5.4-14.77C46,10.32,35.68,0,23,0ZM23,4c10.52,0,19,8.48,19,19,0,5.25-2.11,9.99-5.54,13.42,0,0-.02,0-.03.01,0,0,0,.02-.01.03-3.43,3.42-8.18,5.54-13.42,5.54-10.52,0-19-8.48-19-19S12.48,4,23,4Z"/>
  </g>
</svg>