<?xml version="1.0" encoding="UTF-8"?>
<svg id="Layer_2" data-name="Layer 2" xmlns="http://www.w3.org/2000/svg" viewBox="0 0 35.99 56">
  <defs>
    <style>
      .cls-1 {
        fill: #010101;
      }
    </style>
  </defs>
  <g id="Layer_1-2" data-name="Layer 1">
    <path class="cls-1" d="M18,0c-.53,0-1.04.21-1.41.59-.38.38-.59.88-.59,1.41v4h-3C6.4,6,1,11.4,1,18s5.4,12,12,12h3v16h-4c-4.44,0-8-3.56-8-8,0-.53-.21-1.04-.59-1.41-.38-.37-.88-.59-1.41-.59s-1.04.21-1.41.59C.21,36.96,0,37.47,0,38c0,6.6,5.4,12,12,12h4v4c0,.53.21,1.04.59,1.41.38.37.88.59,1.41.59s1.04-.21,1.41-.59c.38-.38.59-.88.59-1.41v-4h4c3.18,0,6.24-1.26,8.48-3.51,4.67-4.67,4.67-12.3,0-16.97-2.25-2.25-5.3-3.51-8.48-3.51h-4V10h2c4.44,0,8,3.56,8,8,0,.53.21,1.04.59,1.41.38.38.88.59,1.41.59s1.04-.21,1.41-.59c.37-.38.59-.88.59-1.41,0-6.6-5.4-12-12-12h-2V2c0-.53-.21-1.04-.59-1.41-.38-.38-.88-.59-1.41-.59ZM13,10h3v16h-3c-4.44,0-8-3.56-8-8s3.56-8,8-8ZM20,30h4c2.12,0,4.16.84,5.66,2.34,3.14,3.14,3.14,8.17,0,11.31-1.5,1.5-3.53,2.34-5.66,2.34h-4v-16Z"/>
  </g>
</svg>