<?xml version="1.0" encoding="UTF-8"?>
<svg id="Layer_2" data-name="Layer 2" xmlns="http://www.w3.org/2000/svg" viewBox="0 0 52.02 52.02">
  <defs>
    <style>
      .cls-1 {
        fill: #010101;
      }
    </style>
  </defs>
  <g id="Layer_1-2" data-name="Layer 1">
    <path class="cls-1" d="M19.18.04c4.58.29,9,2.33,12.22,5.9,4.77,5.29,5.88,12.84,3.05,19.27l15.12,13.05s.07.07.11.1c1.5,1.5,2.35,3.54,2.35,5.66,0,3.48-2.18,6.25-4.95,7.4-2.76,1.15-6.27.73-8.73-1.74-.03-.03-.07-.07-.1-.11l-13.05-15.12c-6.42,2.83-13.98,1.72-19.27-3.05C.23,26.26-1.57,18.04,1.45,10.98c.13-.3.33-.57.58-.77.25-.21.56-.34.88-.41.32-.06.65-.04.97.05.31.1.6.27.83.5l9.72,9.74,4.72-.95.95-4.72L10.35,4.7c-.23-.23-.4-.52-.5-.83-.1-.31-.11-.64-.05-.97.06-.32.2-.62.41-.88.21-.25.47-.46.77-.58C13.62.32,16.43-.14,19.18.04ZM18.94,4.02c-1.12-.07-2.25.03-3.37.24l8.11,8.09c.23.23.41.52.5.84s.11.65.05.97l-1.43,7.07c-.08.39-.27.74-.55,1.02-.28.28-.63.47-1.02.55l-7.08,1.42c-.32.07-.66.05-.97-.05s-.6-.27-.84-.5L4.26,15.57c-.85,4.69.7,9.57,4.35,12.86,4.44,4.01,10.92,4.75,16.15,1.84.4-.22.87-.3,1.32-.22.45.08.86.31,1.16.66l13.94,16.16c1.32,1.31,2.94,1.44,4.35.85,1.42-.59,2.48-1.83,2.48-3.7,0-1.05-.42-2.06-1.15-2.81l-16.16-13.95c-.35-.3-.58-.71-.66-1.16-.08-.45,0-.92.22-1.32,2.91-5.23,2.17-11.71-1.84-16.15-2.51-2.78-5.93-4.36-9.49-4.59Z"/>
  </g>
</svg>