<?xml version="1.0" encoding="UTF-8"?>
<svg id="Layer_2" data-name="Layer 2" xmlns="http://www.w3.org/2000/svg" viewBox="0 0 48.14 48.14">
  <defs>
    <style>
      .cls-1 {
        fill: #010101;
      }
    </style>
  </defs>
  <g id="Layer_1-2" data-name="Layer 1">
    <path class="cls-1" d="M42.9.02C27.09-.3,15.14,4.17,8.29,11.53,1.29,19.04.05,29.62,5.52,39.79l-4.94,4.94c-.38.37-.59.88-.59,1.41s.21,1.04.59,1.41c.38.37.88.59,1.41.59s1.04-.21,1.41-.59l4.94-4.94c10.17,5.47,20.75,4.23,28.26-2.77,7.85-7.31,12.41-20.42,11.38-37.83-.03-.49-.24-.95-.58-1.3-.35-.35-.81-.55-1.3-.58-1.09-.06-2.16-.11-3.21-.13ZM39.88,4.02c1.33-.03,2.75.03,4.16.08.54,15.61-3.76,26.87-10.15,32.83-6.11,5.69-14.03,6.94-22.58,2.73l22.1-22.1c.37-.38.59-.88.59-1.41s-.21-1.04-.59-1.41c-.38-.38-.88-.59-1.41-.59s-1.04.21-1.41.59l-22.1,22.1c-4.21-8.54-2.96-16.47,2.73-22.58,5.42-5.82,15.19-9.95,28.67-10.23Z"/>
  </g>
</svg>