<?xml version="1.0" encoding="UTF-8"?>
<svg id="Layer_2" data-name="Layer 2" xmlns="http://www.w3.org/2000/svg" viewBox="0 0 60 44">
  <defs>
    <style>
      .cls-1 {
        fill: #010101;
        fill-rule: evenodd;
      }
    </style>
  </defs>
  <g id="Layer_1-2" data-name="Layer 1">
    <path class="cls-1" d="M6,4c-1.2,0-2,.8-2,2v8c0,1.2.8,2,2,2h24c1.2,0,2-.8,2-2V6c0-1.2-.8-2-2-2H6ZM0,6C0,2.8,2.8,0,6,0h24c3.2,0,6,2.8,6,6v8c0,3.2-2.8,6-6,6H6c-3.2,0-6-2.8-6-6V6ZM30,28c-1.2,0-2,.8-2,2v8c0,1.2.8,2,2,2h24c1.2,0,2-.8,2-2v-8c0-1.2-.8-2-2-2h-24ZM24,30c0-3.2,2.8-6,6-6h24c3.2,0,6,2.8,6,6v8c0,3.2-2.8,6-6,6h-24c-3.2,0-6-2.8-6-6v-8ZM46,4c-1.2,0-2,.8-2,2v8c0,1.2.8,2,2,2h8c1.2,0,2-.8,2-2V6c0-1.2-.8-2-2-2h-8ZM40,6c0-3.2,2.8-6,6-6h8c3.2,0,6,2.8,6,6v8c0,3.2-2.8,6-6,6h-8c-3.2,0-6-2.8-6-6V6ZM6,28c-1.2,0-2,.8-2,2v8c0,1.2.8,2,2,2h8c1.2,0,2-.8,2-2v-8c0-1.2-.8-2-2-2H6ZM0,30c0-3.2,2.8-6,6-6h8c3.2,0,6,2.8,6,6v8c0,3.2-2.8,6-6,6H6c-3.2,0-6-2.8-6-6v-8Z"/>
  </g>
</svg>