<?xml version="1.0" encoding="UTF-8"?>
<svg id="Layer_2" data-name="Layer 2" xmlns="http://www.w3.org/2000/svg" viewBox="0 0 48 52">
  <defs>
    <style>
      .cls-1 {
        fill: #010101;
      }
    </style>
  </defs>
  <g id="Layer_1-2" data-name="Layer 1">
    <path class="cls-1" d="M2,24c-.53,0-1.04.21-1.41.59-.38.38-.59.88-.59,1.41v12c0,4.3,3.13,7.86,7.49,10.24,4.36,2.38,10.14,3.76,16.51,3.76s12.16-1.38,16.51-3.76c4.36-2.38,7.49-5.94,7.49-10.24v-12c0-.53-.21-1.04-.59-1.41-.38-.38-.88-.59-1.41-.59s-1.04.21-1.41.59c-.37.38-.59.88-.59,1.41v12c0,2.32-1.8,4.76-5.4,6.73-3.61,1.97-8.82,3.27-14.6,3.27s-10.99-1.3-14.6-3.27c-3.61-1.97-5.4-4.41-5.4-6.73v-12c0-.53-.21-1.04-.59-1.41-.38-.38-.88-.59-1.41-.59ZM24,0c-6.37,0-12.16,1.38-16.51,3.76C3.13,6.14,0,9.7,0,14s3.13,7.86,7.49,10.24c4.36,2.38,10.14,3.76,16.51,3.76s12.16-1.38,16.51-3.76c4.36-2.38,7.49-5.94,7.49-10.24s-3.13-7.86-7.49-10.24C36.16,1.38,30.37,0,24,0ZM2,12c-.53,0-1.04.21-1.41.59-.38.38-.59.88-.59,1.41v12c0,4.3,3.13,7.86,7.49,10.24,4.36,2.38,10.14,3.76,16.51,3.76s12.16-1.38,16.51-3.76c4.36-2.38,7.49-5.94,7.49-10.24v-12c0-.53-.21-1.04-.59-1.41-.38-.38-.88-.59-1.41-.59s-1.04.21-1.41.59c-.37.38-.59.88-.59,1.41v12c0,2.32-1.8,4.76-5.4,6.73-3.61,1.97-8.82,3.27-14.6,3.27s-10.99-1.3-14.6-3.27c-3.61-1.97-5.4-4.41-5.4-6.73v-12c0-.53-.21-1.04-.59-1.41-.38-.38-.88-.59-1.41-.59ZM24,4c5.78,0,10.99,1.3,14.6,3.27,3.61,1.97,5.4,4.41,5.4,6.73s-1.8,4.76-5.4,6.73c-3.61,1.97-8.82,3.27-14.6,3.27s-10.99-1.3-14.6-3.27c-3.61-1.97-5.4-4.41-5.4-6.73s1.8-4.76,5.4-6.73c3.61-1.97,8.82-3.27,14.6-3.27Z"/>
  </g>
</svg>