<?xml version="1.0" encoding="UTF-8"?>
<svg id="Layer_2" data-name="Layer 2" xmlns="http://www.w3.org/2000/svg" viewBox="0 0 52 38">
  <defs>
    <style>
      .cls-1 {
        fill: #010101;
      }
    </style>
  </defs>
  <g id="Layer_1-2" data-name="Layer 1">
    <path class="cls-1" d="M4,0C1.81,0,0,1.81,0,4v16c0,2.19,1.81,4,4,4h15v2c0,4.44-3.56,8-8,8-.53,0-1.04.21-1.41.59-.38.38-.59.88-.59,1.41s.21,1.04.59,1.41c.38.37.88.59,1.41.59,6.6,0,12-5.4,12-12V4c0-2.19-1.81-4-4-4H4ZM4,4h15v16H4V4ZM33,0c-2.19,0-4,1.81-4,4v16c0,2.19,1.81,4,4,4h15v2c0,2.12-.84,4.16-2.34,5.66s-3.53,2.34-5.66,2.34c-.53,0-1.04.21-1.41.59-.37.38-.59.88-.59,1.41s.21,1.04.59,1.41c.38.37.88.59,1.41.59,3.18,0,6.24-1.26,8.49-3.51,2.25-2.25,3.51-5.3,3.51-8.49V4c0-2.19-1.81-4-4-4h-15ZM33,4h15v16h-15V4Z"/>
  </g>
</svg>