<?xml version="1.0" encoding="UTF-8"?>
<svg id="Layer_2" data-name="Layer 2" xmlns="http://www.w3.org/2000/svg" viewBox="0 0 35.99 54">
  <defs>
    <style>
      .cls-1 {
        fill: #010101;
      }
    </style>
  </defs>
  <g id="Layer_1-2" data-name="Layer 1">
    <path class="cls-1" d="M12,0c-.53,0-1.04.21-1.41.59-.38.38-.59.88-.59,1.41v4H2c-.53,0-1.04.21-1.41.59-.38.38-.59.88-.59,1.41s.21,1.04.59,1.41c.38.38.88.59,1.41.59h2v34h-2c-.53,0-1.04.21-1.41.59-.38.38-.59.88-.59,1.41s.21,1.04.59,1.41c.38.37.88.59,1.41.59h8v4c0,.53.21,1.04.59,1.41.38.37.88.59,1.41.59s1.04-.21,1.41-.59c.38-.38.59-.88.59-1.41v-4h4v4c0,.53.21,1.04.59,1.41.38.37.88.59,1.41.59s1.04-.21,1.41-.59c.38-.38.59-.88.59-1.41v-4h2c3.18,0,6.24-1.26,8.48-3.51,4.67-4.67,4.67-12.3,0-16.97-1.12-1.12-2.45-2-3.89-2.6,2.09-2.01,3.41-4.81,3.41-7.91,0-5.71-4.42-10.38-10-10.9V2c0-.53-.21-1.04-.59-1.41-.38-.38-.88-.59-1.41-.59s-1.04.21-1.41.59c-.38.38-.59.88-.59,1.41v4h-4V2c0-.53-.21-1.04-.59-1.41-.38-.38-.88-.59-1.41-.59ZM8,10h13c3.89,0,7,3.11,7,7s-3.11,7-7,7h-13v-14ZM8,28h16c2.12,0,4.16.84,5.66,2.34,3.14,3.14,3.14,8.17,0,11.31-1.5,1.5-3.53,2.34-5.66,2.34H8v-16Z"/>
  </g>
</svg>