<?xml version="1.0" encoding="UTF-8"?>
<svg id="Layer_2" data-name="Layer 2" xmlns="http://www.w3.org/2000/svg" viewBox="0 0 44 44">
  <defs>
    <style>
      .cls-1 {
        fill: #010101;
      }
    </style>
  </defs>
  <g id="Layer_1-2" data-name="Layer 1">
    <path class="cls-1" d="M3,44c1.66,0,3-1.34,3-3s-1.34-3-3-3S0,39.34,0,41s1.34,3,3,3ZM2,0c-.26,0-.52.05-.77.15-.24.1-.46.25-.65.43s-.33.41-.43.65C.05,1.48,0,1.74,0,2c0,.26.05.52.15.77.1.24.25.46.43.65s.41.33.65.43c.24.1.5.15.77.15,10.08-.02,19.75,3.99,26.85,11.14h0c3.54,3.53,6.34,7.71,8.25,12.32,1.91,4.61,2.89,9.55,2.88,14.54,0,.26.05.52.15.77.1.24.25.46.43.65.19.19.41.33.65.43.24.1.5.15.76.15.26,0,.52-.05.77-.15.24-.1.46-.25.65-.43.19-.19.33-.41.43-.65.1-.24.15-.5.15-.77.01-5.52-1.07-10.98-3.19-16.08-2.11-5.1-5.21-9.72-9.12-13.61C23.83,4.41,13.14-.02,2,0ZM2,12c-.53,0-1.04.21-1.41.59C.21,12.96,0,13.47,0,14s.21,1.04.59,1.41.88.59,1.41.59c14.38,0,26,11.62,26,26,0,.53.21,1.04.59,1.41.38.37.88.59,1.41.59s1.04-.21,1.41-.59c.37-.38.59-.88.59-1.41,0-16.54-13.46-30-30-30ZM1.99,24c-.26,0-.52.05-.76.15-.24.1-.46.25-.65.44-.19.19-.33.41-.43.65C.05,25.48,0,25.74,0,26.01c0,.26.05.52.15.76.1.24.25.46.44.65.19.19.41.33.65.43.24.1.5.15.77.15,3.72-.01,7.28,1.46,9.91,4.09,2.63,2.63,4.1,6.19,4.09,9.91,0,.26.05.52.15.77.1.24.25.46.43.65.19.19.41.33.65.44.24.1.5.15.76.15.26,0,.52-.05.77-.15.24-.1.46-.25.65-.43.19-.19.33-.41.44-.65.1-.24.15-.5.15-.76.01-4.78-1.88-9.37-5.26-12.75h0c-3.38-3.38-7.97-5.27-12.75-5.26Z"/>
  </g>
</svg>