<?xml version="1.0" encoding="UTF-8"?>
<svg id="Layer_2" data-name="Layer 2" xmlns="http://www.w3.org/2000/svg" viewBox="0 0 58.01 38.01">
  <defs>
    <style>
      .cls-1 {
        fill: #010101;
      }
    </style>
  </defs>
  <g id="Layer_1-2" data-name="Layer 1">
    <path class="cls-1" d="M58.01,3v16c0,1.66-1.34,3-3,3s-3-1.34-3-3v-8.75l-18.88,18.88c-1.17,1.17-3.07,1.17-4.25,0l-7.87-7.88-15.88,15.88c-1.17,1.17-3.08,1.17-4.25,0-1.17-1.17-1.17-3.08,0-4.25L18.88,14.88c1.17-1.17,3.07-1.18,4.24,0,0,0,0,0,0,0l7.88,7.88L47.76,6h-8.75c-1.66,0-3-1.34-3-3s1.34-3,3-3h16c1.66,0,3,1.34,3,3Z"/>
  </g>
</svg>