<?xml version="1.0" encoding="UTF-8"?>
<svg id="Layer_2" data-name="Layer 2" xmlns="http://www.w3.org/2000/svg" viewBox="0 0 60 44">
  <defs>
    <style>
      .cls-1 {
        fill: #010101;
      }
    </style>
  </defs>
  <g id="Layer_1-2" data-name="Layer 1">
    <path class="cls-1" d="M46,17c-.53,0-1.04.21-1.41.59l-10.59,10.59-4.59-4.59c-.38-.37-.88-.59-1.41-.59s-1.04.21-1.41.59c-.37.38-.59.88-.59,1.41s.21,1.04.59,1.41l6,6c.38.37.88.59,1.41.59s1.04-.21,1.41-.59l12-12c.38-.38.59-.88.59-1.41s-.21-1.04-.59-1.41c-.37-.38-.88-.59-1.41-.59ZM37.94,0c-.69,0-1.39.04-2.1.11-7.75.76-14.23,5.5-17.52,12.07-.77-.11-1.54-.18-2.32-.18-8.81,0-16,7.19-16,16s7.19,16,16,16h22c13.83,0,24.28-12.73,21.58-26.29C57.51,7.32,48.34-.03,37.94,0ZM37.96,4c8.53-.03,16,5.96,17.7,14.49,2.22,11.17-6.26,21.51-17.65,21.51h-22c-6.65,0-12-5.35-12-12s5.35-12,12-12c0,0,0,0,0,0,.28,0,.55.03.83.05-.53,1.9-.83,3.89-.83,5.95,0,.53.21,1.04.59,1.41.38.38.88.59,1.41.59s1.04-.21,1.41-.59c.38-.38.59-.88.59-1.41,0-9.27,7.01-17,16.24-17.91.58-.06,1.15-.09,1.72-.09Z"/>
  </g>
</svg>