<?xml version="1.0" encoding="UTF-8"?>
<svg id="Layer_2" data-name="Layer 2" xmlns="http://www.w3.org/2000/svg" viewBox="0 0 44 48">
  <defs>
    <style>
      .cls-1 {
        fill: #010101;
      }
    </style>
  </defs>
  <g id="Layer_1-2" data-name="Layer 1">
    <path class="cls-1" d="M42,0c1.1,0,2,.9,2,2v44c0,1.1-.9,2-2,2s-2-.9-2-2V2c0-1.1.9-2,2-2ZM32,6c1.1,0,2,.9,2,2v38c0,1.1-.9,2-2,2s-2-.9-2-2V8c0-1.1.9-2,2-2ZM24,18c0-1.1-.9-2-2-2s-2,.9-2,2v28c0,1.1.9,2,2,2s2-.9,2-2v-28ZM14,28c0-1.1-.9-2-2-2s-2,.9-2,2v18c0,1.1.9,2,2,2s2-.9,2-2v-18ZM2,34c1.1,0,2,.9,2,2v10c0,1.1-.9,2-2,2s-2-.9-2-2v-10c0-1.1.9-2,2-2Z"/>
  </g>
</svg>