<?xml version="1.0" encoding="UTF-8"?>
<svg id="Layer_2" data-name="Layer 2" xmlns="http://www.w3.org/2000/svg" viewBox="0 0 40.73 47.96">
  <defs>
    <style>
      .cls-1 {
        fill: #010101;
      }
    </style>
  </defs>
  <g id="Layer_1-2" data-name="Layer 1">
    <path class="cls-1" d="M27.02.03c-2.91-.15-5.87.34-8.67,1.49-6.84,2.83-11.46,9.21-12.2,16.47H2c-.53,0-1.04.21-1.41.59-.38.38-.59.88-.59,1.41s.21,1.04.59,1.41c.38.38.88.59,1.41.59h4v4H2c-.53,0-1.04.21-1.41.59-.38.38-.59.88-.59,1.41s.21,1.04.59,1.41c.38.38.88.59,1.41.59h4.15c.33,3.25,1.4,6.38,3.22,9.11h0c6.98,10.45,21.88,11.91,30.77,3.03.19-.19.33-.41.43-.65.1-.24.15-.5.15-.77,0-.26-.05-.52-.15-.77-.1-.24-.25-.46-.43-.65-.19-.19-.41-.33-.65-.43-.24-.1-.5-.15-.77-.15s-.52.05-.77.15c-.24.1-.46.25-.65.43-7.16,7.16-18.98,6-24.61-2.42-1.38-2.07-2.24-4.43-2.55-6.89h11.85c.53,0,1.04-.21,1.41-.59.38-.38.59-.88.59-1.41s-.21-1.04-.59-1.41c-.38-.38-.88-.59-1.41-.59h-12v-4h16c.53,0,1.04-.21,1.41-.59.38-.38.59-.88.59-1.41s-.21-1.04-.59-1.41c-.38-.38-.88-.59-1.41-.59h-15.85c.71-5.65,4.37-10.56,9.73-12.78,5.98-2.48,12.85-1.11,17.43,3.47.19.19.41.33.65.43.24.1.5.15.77.15.26,0,.52-.05.77-.15.24-.1.46-.25.65-.43.19-.19.33-.41.43-.65.1-.24.15-.5.15-.77,0-.26-.05-.52-.15-.77-.1-.24-.25-.46-.43-.65C36.57,2.28,31.86.27,27.02.03Z"/>
  </g>
</svg>