<?xml version="1.0" encoding="UTF-8"?>
<svg id="Layer_2" data-name="Layer 2" xmlns="http://www.w3.org/2000/svg" viewBox="0 0 56 56">
  <defs>
    <style>
      .cls-1 {
        fill: #010101;
        fill-rule: evenodd;
      }
    </style>
  </defs>
  <g id="Layer_1-2" data-name="Layer 1">
    <path class="cls-1" d="M6,22c-3.31,0-6,2.69-6,6v22c0,3.31,2.69,6,6,6h8c3.31,0,6-2.69,6-6v-22c0-3.31-2.69-6-6-6H6ZM6,26c-1.1,0-2,.9-2,2v22c0,1.1.9,2,2,2h8c1.1,0,2-.9,2-2v-22c0-1.1-.9-2-2-2H6ZM28,0c-3.31,0-6,2.69-6,6v8c0,3.31,2.69,6,6,6h22c3.31,0,6-2.69,6-6V6c0-3.31-2.69-6-6-6h-22ZM28,4c-1.1,0-2,.9-2,2v8c0,1.1.9,2,2,2h22c1.1,0,2-.9,2-2V6c0-1.1-.9-2-2-2h-22ZM40.1,23.28l7.31,7.31c.78.78.78,2.05,0,2.83s-2.05.78-2.83,0l-2.71-2.72c-.23,3.38-.9,6.72-1.98,9.93-1.23,3.7-3.77,5.6-6.51,6.52-2.56.85-5.33.85-7.28.85h-.11c-1.1,0-2-.9-2-2s.9-2,2-2c2.06,0,4.22-.02,6.12-.65,1.76-.58,3.22-1.68,3.98-3.98,1.14-3.43,1.6-6.38,1.78-8.92l-3.58,3.07c-.84.72-2.1.62-2.82-.22-.72-.84-.62-2.1.22-2.82l8.4-7.2Z"/>
  </g>
</svg>