<?xml version="1.0" encoding="UTF-8"?>
<svg id="Layer_2" data-name="Layer 2" xmlns="http://www.w3.org/2000/svg" viewBox="0 0 43 52">
  <defs>
    <style>
      .cls-1 {
        fill: #010101;
      }
    </style>
  </defs>
  <g id="Layer_1-2" data-name="Layer 1">
    <path class="cls-1" d="M11,0c-.53,0-1.04.21-1.41.59-.38.38-.59.88-.59,1.41v10c0,.53.21,1.04.59,1.41.38.38.88.59,1.41.59s1.04-.21,1.41-.59c.38-.38.59-.88.59-1.41V2c0-.53-.21-1.04-.59-1.41-.38-.38-.88-.59-1.41-.59ZM4.33.03c-.52-.09-1.06.04-1.49.35-.43.31-.72.78-.81,1.3L.03,13.67c-.02.11-.03.22-.03.33,0,5.37,3.9,9.85,9,10.8v25.2c0,.53.21,1.04.59,1.41.38.37.88.59,1.41.59s1.04-.21,1.41-.59c.38-.38.59-.88.59-1.41v-25.2c5.1-.95,9-5.43,9-10.8,0-.11,0-.22-.03-.33l-2-12c-.09-.52-.38-.99-.81-1.3-.43-.31-.97-.43-1.49-.35-.52.09-.99.38-1.3.81-.31.43-.43.97-.35,1.49l1.96,11.77c-.06,3.84-3.14,6.9-6.99,6.9-3.85,0-6.93-3.06-6.99-6.9l1.96-11.77c.09-.52-.04-1.06-.35-1.49-.31-.43-.78-.72-1.3-.81ZM40.32.12c-3.43,1.25-5.92,4.16-7.88,7.57-1.96,3.41-3.4,7.41-4.49,11.26-2.18,7.7-2.94,14.83-2.94,14.83-.03.28,0,.56.09.83.09.27.23.51.42.72.19.21.42.38.67.49.26.11.53.17.81.17h12v14c0,.53.21,1.04.59,1.41.38.37.88.59,1.41.59s1.04-.21,1.41-.59c.37-.38.59-.88.59-1.41V2c0-.32-.08-.64-.23-.92-.15-.29-.36-.53-.63-.71-.26-.18-.57-.3-.89-.34-.32-.04-.64,0-.94.1ZM39,5.66v26.34h-9.69c.31-2.29.95-6.51,2.49-11.95,1.03-3.65,2.41-7.4,4.11-10.36.95-1.65,2-3,3.09-4.02Z"/>
  </g>
</svg>