<?xml version="1.0" encoding="UTF-8"?>
<svg id="Layer_2" data-name="Layer 2" xmlns="http://www.w3.org/2000/svg" viewBox="0 0 56 49.6">
  <defs>
    <style>
      .cls-1 {
        fill: #010101;
        fill-rule: evenodd;
      }
    </style>
  </defs>
  <g id="Layer_1-2" data-name="Layer 1">
    <path class="cls-1" d="M48,4c0-2.5-2.26-4.38-4.72-3.94l-8.57,1.56s-.01,0-.04,0c-.43.06-2.41.35-4.34,1.27-.75.36-1.59.87-2.33,1.56-.74-.69-1.58-1.2-2.33-1.56-1.93-.93-3.92-1.22-4.34-1.27-.03,0-.04,0-.04,0L12.72.07c-2.46-.45-4.72,1.44-4.72,3.94v1.6h-4c-1.06,0-2.08.42-2.83,1.17-.75.75-1.17,1.77-1.17,2.83v30c0,1.06.42,2.08,1.17,2.83.75.75,1.77,1.17,2.83,1.17h9c5.51,0,9.99,1.81,13.59,5.41.78.78,2.05.78,2.83,0,3.6-3.6,8.08-5.41,13.59-5.41h9c1.06,0,2.08-.42,2.83-1.17s1.17-1.77,1.17-2.83V9.6c0-1.06-.42-2.08-1.17-2.83-.75-.75-1.77-1.17-2.83-1.17h-4v-1.6ZM8,9.6h-4v30h9c5.82,0,10.85,1.75,15,5.28,4.15-3.53,9.18-5.28,15-5.28h9V9.6h-4v21.6c0,2.03-1.51,3.73-3.52,3.98-2.61.33-7.33.97-10.03,1.6-1.78.41-3.1,1.02-3.95,1.51-.43.25-.73.46-.92.6-.1.07-.16.13-.2.16h-.02s-.02.03-.02.03c-.21.19-.46.33-.72.42-.4.13-.84.14-1.25,0-.26-.09-.51-.23-.72-.42h-.02s-.02-.03-.02-.03c-.04-.03-.1-.08-.2-.16-.19-.14-.5-.36-.92-.6-.85-.49-2.17-1.1-3.95-1.51-2.71-.63-7.43-1.27-10.03-1.6-2-.25-3.52-1.95-3.52-3.98V9.6ZM26,34.07V8.99c0-1.01-.67-1.81-2.06-2.48-1.35-.65-2.84-.87-3.13-.91-.07,0-.15-.02-.24-.04l-8.57-1.56v27.21h0s0,.01,0,.01h0c2.57.33,7.49.99,10.43,1.67,1.39.32,2.58.75,3.55,1.18ZM30,34.07c.97-.44,2.16-.86,3.55-1.18,2.94-.68,7.86-1.34,10.43-1.67h0s0,0,0,0h0s0,0,0,0V4l-8.57,1.56c-.09.02-.17.03-.24.04-.29.04-1.77.26-3.13.91-1.4.67-2.06,1.47-2.06,2.48v25.08Z"/>
  </g>
</svg>