<?xml version="1.0" encoding="UTF-8"?>
<svg id="Layer_2" data-name="Layer 2" xmlns="http://www.w3.org/2000/svg" viewBox="0 0 50.21 55.28">
  <defs>
    <style>
      .cls-1 {
        fill: #010101;
      }
    </style>
  </defs>
  <g id="Layer_1-2" data-name="Layer 1">
    <path class="cls-1" d="M3.53.03c-.8.1-1.55.42-2.12.91C.25,1.93-.36,3.69.23,5.34l7.95,22.3s0,0,0,0c0,0,0,0,0,0L.23,49.94c-.59,1.64.02,3.41,1.17,4.39,1.16.98,3,1.3,4.53.45,0,0,0,0,.01,0l42.23-23.65h-.01c1.95-1.07,2.64-3.61,1.51-5.53-.36-.61-.88-1.11-1.49-1.46,0,0,0,0,0,0h0S5.94.49,5.94.49c0,0,0,0-.01,0C5.16.07,4.32-.07,3.53.03ZM3.99,3.99l42.21,23.65h0s0,0,0,0c0,0,0,0,0,0,0,0,0,0,0,0L3.99,51.29l7.72-21.65h14.6c.53,0,1.04-.21,1.41-.59s.59-.88.59-1.41-.21-1.04-.59-1.41-.88-.59-1.41-.59h-14.6L3.99,3.99s0,0,0,0Z"/>
  </g>
</svg>