<?xml version="1.0" encoding="UTF-8"?>
<svg id="Layer_2" data-name="Layer 2" xmlns="http://www.w3.org/2000/svg" viewBox="0 0 52.1 47.98">
  <defs>
    <style>
      .cls-1 {
        fill: #010101;
      }
    </style>
  </defs>
  <g id="Layer_1-2" data-name="Layer 1">
    <path class="cls-1" d="M2,29.06c-.53,0-1.04.21-1.41.59-.19.19-.33.41-.43.65C.05,30.54,0,30.8,0,31.06s.05.52.15.77c.1.24.25.46.43.65l8.5,8.47c4.5,4.5,10.6,7.03,16.96,7.03,6.36,0,12.47-2.53,16.96-7.03.19-.19.33-.41.43-.65.1-.24.15-.5.15-.77,0-.26-.05-.52-.15-.77-.1-.24-.25-.46-.43-.65-.19-.19-.41-.33-.65-.43-.24-.1-.5-.15-.77-.15-.26,0-.52.05-.77.15-.24.1-.46.25-.65.43-3.75,3.75-8.83,5.86-14.13,5.86,0,0,0,0,0,0-5.3,0-10.39-2.11-14.13-5.86,0,0,0,0,0,0L3.41,29.64c-.19-.19-.41-.33-.65-.43-.24-.1-.5-.15-.77-.15ZM26.05,0c-6.15,0-12.29,2.34-16.97,7.02-.19.19-.33.41-.43.65-.1.24-.15.5-.15.77,0,.26.05.52.15.77.1.24.25.46.43.65.19.19.41.33.65.43.24.1.5.15.77.15.26,0,.52-.05.77-.15.24-.1.46-.25.65-.43,7.82-7.83,20.45-7.83,28.27,0,0,0,0,0,0,0l8.5,8.48c.38.37.88.58,1.41.58.53,0,1.04-.21,1.41-.59.37-.38.58-.88.58-1.41,0-.53-.21-1.04-.59-1.41l-8.5-8.47h0C38.34,2.34,32.19,0,26.05,0ZM2,29.06c-.53,0-1.04.21-1.41.59C.21,30.02,0,30.53,0,31.06v12c0,.53.21,1.04.59,1.41.38.37.88.59,1.41.59s1.04-.21,1.41-.59c.38-.38.59-.88.59-1.41v-10h10c.53,0,1.04-.21,1.41-.59.38-.38.59-.88.59-1.41s-.21-1.04-.59-1.41c-.38-.38-.88-.59-1.41-.59H2ZM50.1,2.91c-.53,0-1.04.21-1.41.59-.38.38-.59.88-.59,1.41v10h-10c-.53,0-1.04.21-1.41.59-.38.38-.59.88-.59,1.41,0,.26.05.52.15.77.1.24.25.46.43.65.19.19.41.33.65.43.24.1.5.15.77.15h12c.53,0,1.04-.21,1.41-.59.37-.38.58-.88.58-1.41V4.91c0-.53-.21-1.04-.59-1.41-.38-.38-.88-.59-1.41-.59Z"/>
  </g>
</svg>