<?xml version="1.0" encoding="UTF-8"?>
<svg id="Layer_2" data-name="Layer 2" xmlns="http://www.w3.org/2000/svg" viewBox="0 0 50.7 56">
  <defs>
    <style>
      .cls-1 {
        fill: #010101;
      }
    </style>
  </defs>
  <g id="Layer_1-2" data-name="Layer 1">
    <path class="cls-1" d="M11.94.05c-.52-.12-1.06-.02-1.51.26C6.05,3.07,2.51,6.99.21,11.64c-.12.24-.19.49-.2.75s.02.53.1.77c.08.25.22.48.39.68.17.2.38.36.62.48.48.24,1.02.27,1.53.1.5-.17.92-.53,1.15-1.01,1.98-3.98,5.01-7.35,8.78-9.72.45-.28.77-.73.88-1.25.12-.52.02-1.06-.26-1.51-.14-.22-.32-.41-.54-.57-.21-.15-.46-.26-.71-.32ZM38.76.05c-.26.06-.5.17-.71.32-.21.15-.4.34-.54.57-.28.45-.38.99-.26,1.51.12.52.43.97.88,1.25,3.76,2.37,6.8,5.74,8.78,9.72.12.24.28.45.48.62.2.17.43.3.68.39.25.08.51.12.77.1.26-.02.52-.09.75-.2s.45-.28.62-.48c.17-.2.3-.43.39-.68.08-.25.12-.51.1-.77-.02-.26-.09-.52-.2-.75-2.3-4.64-5.84-8.56-10.22-11.33-.45-.28-.99-.38-1.51-.26ZM26.36,4.08c-2.9-.15-5.86.33-8.65,1.49-7.45,3.09-12.32,10.37-12.32,18.43,0,0,0,0,0,0,0,8.67-1.81,13.49-3.26,16,0,0,0,0,0,0-.35.61-.54,1.3-.54,2,0,0,0,0,0,0,0,2.18,1.8,4,3.99,4h9.76c0,5.5,4.5,10,10,10,2.65,0,5.2-1.05,7.07-2.93,1.87-1.87,2.93-4.42,2.93-7.07h9.75s0,0,0,0c.7,0,1.39-.19,1.99-.54,1.89-1.1,2.55-3.57,1.46-5.46,0,0,0,0,0,0-1.45-2.51-3.26-7.33-3.26-16,0-5.29-2.1-10.37-5.84-14.11-3.56-3.56-8.26-5.57-13.09-5.82ZM26.16,8.07c3.86.2,7.61,1.8,10.46,4.65,2.99,2.99,4.67,7.05,4.67,11.28,0,9.23,1.94,14.8,3.79,18H5.61c1.85-3.19,3.79-8.77,3.79-18,0-6.46,3.88-12.26,9.85-14.74,2.24-.93,4.6-1.31,6.92-1.2ZM19.35,46h12c0,1.59-.63,3.12-1.76,4.24-1.13,1.13-2.65,1.76-4.24,1.76-3.34,0-6-2.66-6-6Z"/>
  </g>
</svg>