<?xml version="1.0" encoding="UTF-8"?>
<svg id="Layer_2" data-name="Layer 2" xmlns="http://www.w3.org/2000/svg" viewBox="0 0 64 26.33">
  <defs>
    <style>
      .cls-1 {
        fill: #010101;
        fill-rule: evenodd;
      }
    </style>
  </defs>
  <g id="Layer_1-2" data-name="Layer 1">
    <path class="cls-1" d="M0,2C0,.9.9,0,2,0h12c1.1,0,2,.9,2,2s-.9,2-2,2H2c-1.1,0-2-.9-2-2ZM0,13c0-2.21,1.79-4,4-4h21.33c2.21,0,4,1.79,4,4v9.33c0,2.21-1.79,4-4,4H4c-2.21,0-4-1.79-4-4v-9.33ZM4,13h21.33v9.33H4v-9.33ZM34.66,13c0-2.21,1.79-4,4-4h21.33c2.21,0,4,1.79,4,4v9.33c0,2.21-1.79,4-4,4h-21.33c-2.21,0-4-1.79-4-4v-9.33ZM38.66,13h21.33v9.33h-21.33v-9.33ZM38,0c-1.1,0-2,.9-2,2s.9,2,2,2h12c1.1,0,2-.9,2-2s-.9-2-2-2h-12Z"/>
  </g>
</svg>