<?xml version="1.0" encoding="UTF-8"?>
<svg id="Layer_2" data-name="Layer 2" xmlns="http://www.w3.org/2000/svg" viewBox="0 0 44 48">
  <defs>
    <style>
      .cls-1 {
        fill: #010101;
      }
    </style>
  </defs>
  <g id="Layer_1-2" data-name="Layer 1">
    <path class="cls-1" d="M4,0C1.81,0,0,1.81,0,4v22c0,12.19,9.97,22.09,22.17,22,12.12-.08,21.83-10.16,21.83-22.25V4c0-2.19-1.81-4-4-4h-10c-2.19,0-4,1.81-4,4v22c0,1.06-.42,2.08-1.17,2.83-1.58,1.58-4.08,1.58-5.66,0-.75-.75-1.17-1.77-1.17-2.83V4c0-2.19-1.81-4-4-4H4ZM4,4h10v8H4V4ZM30,4h10v8h-10V4ZM4,16h10v10c0,2.12.84,4.16,2.34,5.66,3.11,3.11,8.21,3.11,11.31,0,1.5-1.5,2.34-3.54,2.34-5.66v-10h10v9.75c0,9.96-7.94,18.18-17.86,18.25-10.02.08-18.14-7.98-18.14-18v-10Z"/>
  </g>
</svg>