<?xml version="1.0" encoding="UTF-8"?>
<svg id="Layer_2" data-name="Layer 2" xmlns="http://www.w3.org/2000/svg" viewBox="0 0 52 52">
  <defs>
    <style>
      .cls-1 {
        fill: #010101;
      }
    </style>
  </defs>
  <g id="Layer_1-2" data-name="Layer 1">
    <path class="cls-1" d="M26,4c12.17,0,22,9.83,22,22s-9.83,22-22,22S4,38.17,4,26,13.83,4,26,4ZM26,4.65c.75,0,1.55.33,2.49,1.26.94.93,1.91,2.43,2.75,4.37,1.66,3.89,2.77,9.51,2.77,15.72s-1.1,11.84-2.77,15.72c-.83,1.94-1.81,3.44-2.75,4.37-.94.93-1.74,1.26-2.49,1.26s-1.55-.33-2.49-1.26c-.94-.93-1.91-2.43-2.75-4.37-1.66-3.89-2.77-9.51-2.77-15.72s1.1-11.84,2.77-15.72c.83-1.94,1.81-3.44,2.75-4.37.94-.93,1.74-1.26,2.49-1.26ZM26,0C11.66,0,0,11.66,0,26s11.66,26,26,26,26-11.66,26-26S40.34,0,26,0ZM26,.65c-2.01,0-3.84.97-5.3,2.41-1.46,1.44-2.63,3.36-3.61,5.64-1.95,4.56-3.09,10.62-3.09,17.3s1.14,12.73,3.09,17.3c.98,2.28,2.16,4.2,3.61,5.64,1.46,1.44,3.29,2.41,5.3,2.41s3.84-.97,5.3-2.41c1.46-1.44,2.63-3.36,3.61-5.64,1.95-4.56,3.09-10.62,3.09-17.3s-1.14-12.73-3.09-17.3c-.98-2.28-2.16-4.2-3.61-5.64-1.46-1.44-3.29-2.41-5.3-2.41ZM3.38,16c-.53,0-1.04.21-1.41.59-.38.38-.59.88-.59,1.41s.21,1.04.59,1.41c.38.38.88.59,1.41.59h45.25c.53,0,1.04-.21,1.41-.59.38-.38.59-.88.59-1.41s-.21-1.04-.59-1.41c-.38-.38-.88-.59-1.41-.59H3.38ZM3.38,32c-.53,0-1.04.21-1.41.59-.38.38-.59.88-.59,1.41s.21,1.04.59,1.41c.38.37.88.59,1.41.59h45.25c.53,0,1.04-.21,1.41-.59.38-.38.59-.88.59-1.41s-.21-1.04-.59-1.41c-.38-.38-.88-.59-1.41-.59H3.38Z"/>
  </g>
</svg>