<?xml version="1.0" encoding="UTF-8"?>
<svg id="Layer_2" data-name="Layer 2" xmlns="http://www.w3.org/2000/svg" viewBox="0 0 48 52">
  <defs>
    <style>
      .cls-1 {
        fill: #010101;
      }
    </style>
  </defs>
  <g id="Layer_1-2" data-name="Layer 1">
    <path class="cls-1" d="M16,8c0-4.42,3.58-8,8-8s8,3.58,8,8v3.57l3.76-2.35c3.75-2.34,8.68-1.2,11.02,2.54,2.34,3.75,1.2,8.68-2.54,11.02l-5.15,3.22,5.15,3.22c3.75,2.34,4.89,7.28,2.54,11.02-2.34,3.75-7.28,4.89-11.02,2.54l-3.76-2.35v3.57c0,4.42-3.58,8-8,8s-8-3.58-8-8v-3.57l-3.76,2.35c-3.75,2.34-8.68,1.2-11.02-2.54C-1.12,36.49.01,31.56,3.76,29.22l5.15-3.22-5.15-3.22C.01,20.44-1.12,15.51,1.22,11.76c2.34-3.75,7.28-4.89,11.02-2.54l3.76,2.35v-3.57ZM24,4c-2.21,0-4,1.79-4,4v7.17c0,.73-.39,1.4-1.03,1.75-.64.35-1.41.33-2.03-.05l-6.82-4.26c-1.87-1.17-4.34-.6-5.51,1.27-1.17,1.87-.6,4.34,1.27,5.51l7.86,4.91c.58.37.94,1.01.94,1.7s-.36,1.33-.94,1.7l-7.86,4.91c-1.87,1.17-2.44,3.64-1.27,5.51,1.17,1.87,3.64,2.44,5.51,1.27l6.82-4.26c.62-.39,1.39-.41,2.03-.05.64.35,1.03,1.02,1.03,1.75v7.17c0,2.21,1.79,4,4,4s4-1.79,4-4v-7.17c0-.73.39-1.4,1.03-1.75.64-.35,1.41-.33,2.03.05l6.82,4.26c1.87,1.17,4.34.6,5.51-1.27,1.17-1.87.6-4.34-1.27-5.51l-7.86-4.91c-.58-.37-.94-1.01-.94-1.7s.36-1.33.94-1.7l7.86-4.91c1.87-1.17,2.44-3.64,1.27-5.51-1.17-1.87-3.64-2.44-5.51-1.27l-6.82,4.26c-.62.39-1.39.41-2.03.05-.64-.35-1.03-1.02-1.03-1.75v-7.17c0-2.21-1.79-4-4-4Z"/>
  </g>
</svg>