<?xml version="1.0" encoding="UTF-8"?>
<svg id="Layer_2" data-name="Layer 2" xmlns="http://www.w3.org/2000/svg" viewBox="0 0 44 60">
  <defs>
    <style>
      .cls-1 {
        fill: #010101;
      }
    </style>
  </defs>
  <g id="Layer_1-2" data-name="Layer 1">
    <path class="cls-1" d="M29.66.03c-.43.07-.82.29-1.12.6l-11.48,12.27c-.36.39-.56.9-.54,1.43.02.53.25,1.03.63,1.39.39.36.9.56,1.43.54.53-.02,1.03-.25,1.39-.63l6.67-7.14-2.62,13.11c-.09.47-.02.95.21,1.36.23.41.6.73,1.05.9l13.2,4.95-3.53,3.79c-.18.19-.32.42-.41.66-.09.25-.14.51-.13.77,0,.26.07.52.18.76.11.24.26.45.46.63.39.36.9.55,1.43.54.53-.02,1.03-.25,1.39-.63l5.58-5.98c.22-.24.39-.53.47-.85.08-.32.09-.65.01-.97-.08-.32-.23-.62-.45-.86-.22-.25-.49-.44-.8-.55l-14.41-5.4,3.67-18.33c.06-.32.05-.65-.04-.96-.09-.31-.26-.6-.49-.83-.23-.23-.51-.41-.82-.51-.31-.1-.64-.12-.96-.07ZM2.1,6c-.53-.03-1.05.16-1.44.52C.26,6.88.03,7.37,0,7.9c-.03.53.16,1.05.52,1.44l9.81,10.79L.54,30.64c-.22.24-.39.53-.47.85-.08.32-.09.65-.01.97.08.32.23.62.45.86.22.25.49.44.8.55l14.41,5.4-3.67,18.33c-.09.43-.03.87.16,1.26.19.39.5.71.89.91.39.2.83.27,1.26.19.43-.07.82-.29,1.12-.6l15.47-16.57,9.59,10.55c.36.39.85.63,1.38.65.53.03,1.05-.16,1.44-.52s.63-.85.65-1.38c.03-.53-.16-1.05-.52-1.44L3.48,6.65c-.36-.39-.85-.63-1.38-.65ZM13.03,23.11l15.2,16.72-10.89,11.66,2.62-13.1c.09-.47.02-.95-.21-1.36-.23-.41-.6-.73-1.05-.9l-13.2-4.95,7.53-8.07Z"/>
  </g>
</svg>