<?xml version="1.0" encoding="UTF-8"?>
<svg id="Layer_2" data-name="Layer 2" xmlns="http://www.w3.org/2000/svg" viewBox="0 0 56.24 40.24">
  <defs>
    <style>
      .cls-1 {
        fill: #010101;
      }
    </style>
  </defs>
  <g id="Layer_1-2" data-name="Layer 1">
    <path class="cls-1" d="M8.12,12.12c0-1.1.9-2,2-2h2c1.1,0,2,.9,2,2s-.9,2-2,2h-2c-1.1,0-2-.9-2-2ZM8.12,20.12c0-1.1.9-2,2-2h2c1.1,0,2,.9,2,2s-.9,2-2,2h-2c-1.1,0-2-.9-2-2ZM37.62,30.12h-19c-1.1,0-2-.9-2-2s.9-2,2-2h19c1.1,0,2,.9,2,2s-.9,2-2,2ZM8.12,28.12c0-1.1.9-2,2-2h2c1.1,0,2,.9,2,2s-.9,2-2,2h-2c-1.1,0-2-.9-2-2ZM16.62,20.12c0-1.1.9-2,2-2h2c1.1,0,2,.9,2,2s-.9,2-2,2h-2c-1.1,0-2-.9-2-2ZM16.62,12.12c0-1.1.9-2,2-2h2c1.1,0,2,.9,2,2s-.9,2-2,2h-2c-1.1,0-2-.9-2-2ZM27.12,18.12c-1.1,0-2,.9-2,2s.9,2,2,2h2c1.1,0,2-.9,2-2s-.9-2-2-2h-2ZM27.12,10.12c-1.1,0-2,.9-2,2s.9,2,2,2h2c1.1,0,2-.9,2-2s-.9-2-2-2h-2ZM33.62,20.12c0-1.1.9-2,2-2h2c1.1,0,2,.9,2,2s-.9,2-2,2h-2c-1.1,0-2-.9-2-2ZM33.62,12.12c0-1.1.9-2,2-2h2c1.1,0,2,.9,2,2s-.9,2-2,2h-2c-1.1,0-2-.9-2-2ZM44.12,18.12c-1.1,0-2,.9-2,2s.9,2,2,2h2c1.1,0,2-.9,2-2s-.9-2-2-2h-2ZM44.12,10.12c-1.1,0-2,.9-2,2s.9,2,2,2h2c1.1,0,2-.9,2-2s-.9-2-2-2h-2ZM44.12,26.12c-1.1,0-2,.9-2,2s.9,2,2,2h2c1.1,0,2-.9,2-2s-.9-2-2-2h-2ZM4.25,0C1.9,0,0,1.9,0,4.25v31.75c0,2.35,1.9,4.25,4.25,4.25h47.75c2.35,0,4.25-1.9,4.25-4.25V4.25c0-2.35-1.9-4.25-4.25-4.25H4.25ZM4.24,36V4.25h0s47.75,0,47.75,0h0v31.75h0s-47.75,0-47.75,0h0Z"/>
  </g>
</svg>