<?xml version="1.0" encoding="UTF-8"?>
<svg id="Layer_2" data-name="Layer 2" xmlns="http://www.w3.org/2000/svg" viewBox="0 0 47.48 54">
  <defs>
    <style>
      .cls-1 {
        fill: #010101;
      }
    </style>
  </defs>
  <g id="Layer_1-2" data-name="Layer 1">
    <path class="cls-1" d="M15.74,40c-.53,0-1.04.21-1.41.59-.38.38-.59.88-.59,1.41v2c0,5.5,4.5,10,10,10,2.65,0,5.2-1.05,7.07-2.93,1.87-1.87,2.93-4.42,2.93-7.07v-2c0-.53-.21-1.04-.59-1.41-.38-.37-.88-.59-1.41-.59s-1.04.21-1.41.59c-.38.38-.59.88-.59,1.41v2c0,1.59-.63,3.12-1.76,4.24-1.13,1.13-2.65,1.76-4.24,1.76-3.34,0-6-2.66-6-6v-2c0-.53-.21-1.04-.59-1.41-.38-.37-.88-.59-1.41-.59ZM23.88,0C12.82-.06,3.78,8.94,3.79,20v2c0,8.67-1.81,13.49-3.26,16h0C.19,38.61,0,39.3,0,40c0,2.18,1.8,4,3.99,4h0s39.5,0,39.5,0h0c.7,0,1.39-.19,1.99-.54,1.89-1.1,2.55-3.57,1.46-5.46h0c-1.45-2.51-3.26-7.33-3.26-16v-1.78C43.69,9.24,34.88.08,23.88,0h0ZM23.85,4h0c8.8.07,15.84,7.37,15.84,16.23v1.78c0,9.23,1.94,14.8,3.79,18,0,0,.01,0,0,0H4c1.85-3.19,3.79-8.77,3.79-18v-2h0c-.01-8.89,7.17-16.05,16.06-16Z"/>
  </g>
</svg>