<?xml version="1.0" encoding="UTF-8"?>
<svg id="Layer_2" data-name="Layer 2" xmlns="http://www.w3.org/2000/svg" viewBox="0 0 55.46 50">
  <defs>
    <style>
      .cls-1 {
        fill: #010101;
      }
    </style>
  </defs>
  <g id="Layer_1-2" data-name="Layer 1">
    <path class="cls-1" d="M26,0c-.37,0-.74.1-1.05.3-.32.2-.57.47-.74.81l-9.45,18.89H4c-2.19,0-4,1.81-4,4v22c0,2.19,1.81,4,4,4h42.48c3-.01,5.55-2.28,5.92-5.25l3-23.99c.47-3.55-2.35-6.77-5.94-6.76h-13.47v-4C36,4.5,31.5,0,26,0ZM27.18,4.12c2.76.54,4.82,2.95,4.82,5.88v6c0,.53.21,1.04.59,1.41.38.38.88.59,1.41.59h15.48c1.23,0,2.13,1.01,1.96,2.24l-3,24.01c-.13,1.01-.95,1.75-1.97,1.75h-28.47v-23.53L27.18,4.12ZM4,24h10v22H4v-22Z"/>
  </g>
</svg>