<?xml version="1.0" encoding="UTF-8"?>
<svg id="Layer_2" data-name="Layer 2" xmlns="http://www.w3.org/2000/svg" viewBox="0 0 46 48">
  <defs>
    <style>
      .cls-1 {
        fill: #010101;
      }
    </style>
  </defs>
  <g id="Layer_1-2" data-name="Layer 1">
    <path class="cls-1" d="M30.67,0h7.33c1.1,0,2,.9,2,2s-.9,2-2,2h-7.32c-1.41,0-2.77.5-3.85,1.4-1.08.9-1.81,2.15-2.06,3.53l-2.37,13.07h11.6c1.1,0,2,.9,2,2s-.9,2-2,2h-12.33l-2.5,13.78h0c-.42,2.31-1.64,4.39-3.43,5.89-1.8,1.5-4.06,2.32-6.4,2.33H2c-1.1,0-2-.9-2-2s.9-2,2-2h7.32c1.41,0,2.77-.5,3.85-1.4,1.08-.9,1.81-2.15,2.06-3.53l2.37-13.07H6c-1.1,0-2-.9-2-2s.9-2,2-2h12.33l2.5-13.79c.42-2.3,1.64-4.38,3.43-5.88C26.06.83,28.33,0,30.67,0ZM45.41,35.41c.78-.78.78-2.05,0-2.83-.78-.78-2.05-.78-2.83,0l-4.59,4.59-4.59-4.59c-.78-.78-2.05-.78-2.83,0-.78.78-.78,2.05,0,2.83l4.59,4.59-4.59,4.59c-.78.78-.78,2.05,0,2.83.78.78,2.05.78,2.83,0l4.59-4.59,4.59,4.59c.78.78,2.05.78,2.83,0,.78-.78.78-2.05,0-2.83l-4.59-4.59,4.59-4.59Z"/>
  </g>
</svg>