<?xml version="1.0" encoding="UTF-8"?>
<svg id="Layer_2" data-name="Layer 2" xmlns="http://www.w3.org/2000/svg" viewBox="0 0 64 37.5">
  <defs>
    <style>
      .cls-1 {
        fill: #010101;
      }
    </style>
  </defs>
  <g id="Layer_1-2" data-name="Layer 1">
    <path class="cls-1" d="M23.37,18.43c2.21-4.09,6.4-6.9,11.07-6.9,6.89,0,12.3,5.87,12.3,13.05s-5.41,12.8-12.3,12.8c-4.92,0-8.86-2.83-11.07-6.93-2.21,4.09-6.4,6.93-11.07,6.93-6.64,0-12.3-5.9-12.3-12.8V2.57C0,1.02.99,0,2.46,0,3.69,0,4.92,1.29,4.92,2.57v11.51c1.97-1.54,4.68-2.55,7.37-2.55,4.92,0,9.1,2.81,11.07,6.9ZM4.92,24.58c0,4.1,3.19,7.68,7.37,7.68s7.63-3.58,7.38-7.68c0-4.09-3.45-7.69-7.38-7.69s-7.37,3.35-7.37,7.69ZM27.05,24.58c0,4.1,3.2,7.68,7.38,7.68,3.93,0,7.37-3.58,7.37-7.68,0-4.09-3.19-7.69-7.37-7.69-3.93,0-7.38,3.35-7.38,7.69ZM57.1,24.51l6.47,8.96c.75,1,.5,2.81-.5,3.58-.99.77-2.73.52-3.48-.51l-5.47-7.67-5.48,7.67c-.74,1.03-2.49,1.29-3.48.51-1-.77-1.25-2.57-.5-3.58l6.47-8.96-6.47-8.96c-.75-1.03-.5-2.83.5-3.58.99-.77,2.74-.51,3.48.49l5.48,7.7,5.47-7.7c.75-1.01,2.49-1.26,3.48-.49,1,.75,1.25,2.55.5,3.58l-6.47,8.96Z"/>
  </g>
</svg>