<?xml version="1.0" encoding="UTF-8"?>
<svg id="Layer_2" data-name="Layer 2" xmlns="http://www.w3.org/2000/svg" viewBox="0 0 55.95 49.99">
  <defs>
    <style>
      .cls-1 {
        fill: #010101;
      }
    </style>
  </defs>
  <g id="Layer_1-2" data-name="Layer 1">
    <path class="cls-1" d="M27.96,41.99c1.66,0,3-1.34,3-3s-1.34-3-3-3-3,1.34-3,3,1.34,3,3,3ZM27.96,17.99c-.53,0-1.04.21-1.41.59-.38.38-.59.88-.59,1.41v10c0,.53.21,1.04.59,1.41.38.38.88.59,1.41.59s1.04-.21,1.41-.59c.38-.38.59-.88.59-1.41v-10c0-.53-.21-1.04-.59-1.41-.38-.38-.88-.59-1.41-.59ZM28.37.02c-1.15-.08-2.34.16-3.41.78-.91.53-1.66,1.28-2.18,2.19,0,0,0,0,0,0h0S.78,40.99.78,40.99c0,0,0,0,0,0-2.26,3.91.66,8.99,5.17,9h44.01c2.14,0,4.12-1.16,5.18-3.01,1.06-1.85,1.06-4.14,0-5.99,0,0,0,0,0,0L33.15,3C32.13,1.21,30.3.16,28.37.02ZM27.72,4c.77-.1,1.53.26,1.95.99,0,0,0,0,0,0l22,38c.36.62.36,1.38,0,2,0,0,0,0,0,0-.36.62-1.01,1-1.72,1H5.96c-1.63,0-2.54-1.59-1.72-3L26.24,4.99h0s0,0,.01,0c.17-.3.42-.55.72-.73.24-.14.5-.23.75-.26Z"/>
  </g>
</svg>