<?xml version="1.0" encoding="UTF-8"?>
<svg id="Layer_2" data-name="Layer 2" xmlns="http://www.w3.org/2000/svg" viewBox="0 0 52.1 47.98">
  <defs>
    <style>
      .cls-1 {
        fill: #010101;
      }
    </style>
  </defs>
  <g id="Layer_1-2" data-name="Layer 1">
    <path class="cls-1" d="M50.1,29.06c-.26,0-.52.05-.77.15-.24.1-.46.25-.65.43l-8.5,8.47s0,0,0,0c-3.75,3.75-8.83,5.86-14.13,5.86h0c-5.3,0-10.39-2.11-14.13-5.86-.37-.38-.88-.59-1.41-.59-.53,0-1.04.21-1.41.58-.19.19-.33.41-.43.65-.1.24-.15.5-.15.77,0,.26.05.52.15.77.1.24.25.46.43.65,4.5,4.5,10.6,7.03,16.97,7.03,6.36,0,12.47-2.53,16.96-7.03h0s8.5-8.47,8.5-8.47c.19-.19.33-.41.43-.65.1-.24.15-.5.15-.77,0-.26-.05-.52-.15-.77-.1-.24-.25-.46-.43-.65-.37-.38-.88-.59-1.41-.59h0ZM26.05,0c-6.15,0-12.29,2.34-16.97,7.02L.59,15.49C.21,15.87,0,16.38,0,16.91c0,.53.21,1.04.58,1.41.37.38.88.59,1.41.59.53,0,1.04-.21,1.41-.58l8.5-8.48s0,0,0,0c7.82-7.83,20.45-7.83,28.27,0,.37.38.88.59,1.41.59.53,0,1.04-.21,1.41-.58.19-.19.33-.41.43-.65.1-.24.15-.5.15-.77,0-.26-.05-.52-.15-.77-.1-.24-.25-.46-.43-.65C38.34,2.34,32.2,0,26.05,0ZM38.1,29.06c-.53,0-1.04.21-1.41.59-.38.38-.59.88-.59,1.41s.21,1.04.59,1.41c.38.37.88.59,1.41.59h10v10c0,.53.21,1.04.59,1.41.38.37.88.59,1.41.59s1.04-.21,1.41-.59c.38-.38.59-.88.59-1.41v-12c0-.53-.21-1.04-.59-1.41-.38-.38-.88-.59-1.41-.59h-12ZM2,2.91c-.53,0-1.04.21-1.41.59-.38.38-.59.88-.59,1.41v12c0,.53.21,1.04.59,1.41.38.38.88.59,1.41.59h12c.26,0,.52-.05.77-.15.24-.1.46-.25.65-.43.19-.19.33-.41.43-.65.1-.24.15-.5.15-.77,0-.53-.21-1.04-.59-1.41-.38-.38-.88-.59-1.41-.59H4V4.91c0-.53-.21-1.04-.59-1.41s-.88-.59-1.41-.59Z"/>
  </g>
</svg>