<?xml version="1.0" encoding="UTF-8"?>
<svg id="Layer_2" data-name="Layer 2" xmlns="http://www.w3.org/2000/svg" viewBox="0 0 48 48">
  <defs>
    <style>
      .cls-1 {
        fill: #010101;
      }
    </style>
  </defs>
  <g id="Layer_1-2" data-name="Layer 1">
    <path class="cls-1" d="M19,15c-.53,0-1.04.21-1.41.59-.38.38-.59.88-.59,1.41s.21,1.04.59,1.41c.38.38.88.59,1.41.59h7.17l-10.59,10.59c-.37.38-.59.88-.59,1.41s.21,1.04.59,1.41c.38.38.88.59,1.41.59s1.04-.21,1.41-.59l10.59-10.59v7.17c0,.53.21,1.04.59,1.41.38.38.88.59,1.41.59s1.04-.21,1.41-.59c.37-.38.59-.88.59-1.41v-12s-.02-.04-.02-.06c0-.51-.21-.99-.56-1.35-.37-.38-.88-.59-1.41-.59h-12ZM4,0C1.81,0,0,1.81,0,4v40c0,2.19,1.81,4,4,4h40c2.19,0,4-1.81,4-4V4c0-2.19-1.81-4-4-4H4ZM4,4h40v40H4V4Z"/>
  </g>
</svg>