<?xml version="1.0" encoding="UTF-8"?>
<svg id="Layer_2" data-name="Layer 2" xmlns="http://www.w3.org/2000/svg" viewBox="0 0 42 42">
  <defs>
    <style>
      .cls-1 {
        fill: #010101;
      }
    </style>
  </defs>
  <g id="Layer_1-2" data-name="Layer 1">
    <path class="cls-1" d="M32,2c0-1.1-.9-2-2-2s-2,.9-2,2v33.17l-6.59-6.59c-.78-.78-2.05-.78-2.83,0-.78.78-.78,2.05,0,2.83l10,10c.19.19.41.34.65.43.23.1.49.15.75.15h.02c.55,0,1.04-.23,1.4-.59l10-10c.78-.78.78-2.05,0-2.83-.78-.78-2.05-.78-2.83,0l-6.59,6.59V2ZM8,3c0-.69-.36-1.34-.95-1.7-.59-.36-1.33-.4-1.95-.09L1.11,3.21C.12,3.71-.28,4.91.21,5.89c.49.99,1.7,1.39,2.68.89l1.11-.55v10.76c0,1.1.9,2,2,2s2-.9,2-2V3ZM5.63,27.96c-.21-.02-.42.01-.62.08-.2.07-.38.18-.53.33-.15.15-.27.32-.35.52-.41,1.02-1.58,1.52-2.6,1.11-1.02-.41-1.52-1.58-1.11-2.6.29-.72.73-1.37,1.28-1.9.56-.54,1.22-.95,1.95-1.21.73-.26,1.5-.37,2.27-.31.77.06,1.52.28,2.2.64.68.37,1.28.87,1.75,1.49.47.61.81,1.32.99,2.07.18.75.2,1.53.06,2.29-.14.76-.44,1.48-.88,2.12-.01.02-.03.04-.04.06l-4.01,5.35h3c1.1,0,2,.9,2,2s-.9,2-2,2H2c-.76,0-1.45-.43-1.79-1.1-.34-.68-.27-1.49.19-2.09l6.37-8.51c.11-.17.19-.36.22-.55.04-.21.03-.42-.02-.63-.05-.21-.14-.4-.27-.56-.13-.17-.29-.31-.48-.41-.19-.1-.39-.16-.6-.18Z"/>
  </g>
</svg>