<?xml version="1.0" encoding="UTF-8"?>
<svg id="Layer_2" data-name="Layer 2" xmlns="http://www.w3.org/2000/svg" viewBox="0 0 54.98 52.98">
  <defs>
    <style>
      .cls-1 {
        fill: #010101;
      }
    </style>
  </defs>
  <g id="Layer_1-2" data-name="Layer 1">
    <path class="cls-1" d="M34.98,0c-.53,0-1.04.21-1.41.59-.37.38-.59.88-.59,1.41v2h-2c-.53,0-1.04.21-1.41.59-.38.38-.59.88-.59,1.41s.21,1.04.59,1.41c.38.38.88.59,1.41.59h2v2c0,.53.21,1.04.59,1.41.38.38.88.59,1.41.59s1.04-.21,1.41-.59c.38-.38.59-.88.59-1.41v-2h2c.53,0,1.04-.21,1.41-.59.38-.38.59-.88.59-1.41s-.21-1.04-.59-1.41c-.37-.38-.88-.59-1.41-.59h-2v-2c0-.53-.21-1.04-.59-1.41-.37-.38-.88-.59-1.41-.59ZM19.13,3.85c-.28-.04-.57-.03-.84.05C9.74,6.28,3.08,13.04.82,21.63c-2.26,8.59.22,17.75,6.5,24.03,6.28,6.28,15.44,8.76,24.03,6.5,8.59-2.26,15.35-8.92,17.73-17.48.09-.34.1-.7,0-1.05-.09-.34-.27-.66-.52-.91-.25-.25-.56-.43-.91-.52-.34-.09-.7-.09-1.05,0-11.32,3.17-22.98-3.52-25.95-14.88h0c-.94-3.6-.91-7.39.1-10.97.08-.27.09-.56.05-.84-.04-.28-.14-.55-.3-.79-.15-.24-.36-.44-.59-.59-.24-.15-.51-.26-.79-.3ZM16.19,8.95c-.39,3.13-.21,6.32.6,9.4,3.21,12.26,15.03,19.95,27.24,18.43-2.6,5.63-7.58,9.9-13.7,11.51-7.22,1.9-14.9-.18-20.19-5.46-5.28-5.28-7.36-12.96-5.46-20.19,1.61-6.12,5.87-11.09,11.5-13.69ZM46.98,10c-.53,0-1.04.21-1.41.59-.37.38-.59.88-.59,1.41v4h-4c-.53,0-1.04.21-1.41.59-.37.38-.59.88-.59,1.41s.21,1.04.59,1.41c.38.38.88.59,1.41.59h4v4c0,.53.21,1.04.59,1.41.38.38.88.59,1.41.59s1.04-.21,1.41-.59c.38-.38.59-.88.59-1.41v-4h4c.53,0,1.04-.21,1.41-.59.38-.38.59-.88.59-1.41s-.21-1.04-.59-1.41c-.37-.38-.88-.59-1.41-.59h-4v-4c0-.53-.21-1.04-.59-1.41-.37-.38-.88-.59-1.41-.59Z"/>
  </g>
</svg>