<?xml version="1.0" encoding="UTF-8"?>
<svg id="Layer_2" data-name="Layer 2" xmlns="http://www.w3.org/2000/svg" viewBox="0 0 49 48.17">
  <defs>
    <style>
      .cls-1 {
        fill: #010101;
      }
    </style>
  </defs>
  <g id="Layer_1-2" data-name="Layer 1">
    <path class="cls-1" d="M37.02,0c1.13,0,1.96.68,2.43,1.42l9.06,14.31c.47.73.78,1.91.07,3.01-.65,1.01-1.75,1.27-2.52,1.27h-18.13c-.79,0-1.91-.27-2.55-1.3-.68-1.09-.36-2.25.1-2.97L34.55,1.42C35.03.67,35.88,0,37.02,0ZM37,5.03l-6.95,10.97h13.9l-6.95-10.97ZM11,0C4.93,0,0,4.93,0,11s4.93,11,11,11,11-4.93,11-11S17.08,0,11,0ZM4,11c0-3.86,3.14-7,7-7s7,3.14,7,7-3.13,7-7,7-7-3.14-7-7ZM4.31,28c-1.85,0-3.31,1.52-3.31,3.31v13.38c0,1.85,1.52,3.31,3.31,3.31h13.38c1.85,0,3.31-1.52,3.31-3.31v-13.38c0-1.85-1.52-3.31-3.31-3.31H4.31ZM5,44v-12h12v12H5ZM27,39.83c-1.56-1.56-1.56-4.09,0-5.66l7.18-7.18c1.56-1.56,4.09-1.56,5.66,0l7.17,7.17c1.56,1.56,1.56,4.09,0,5.66l-7.18,7.18c-1.56,1.56-4.09,1.56-5.66,0l-7.17-7.17ZM37.01,29.82l-7.18,7.18,7.17,7.17,7.18-7.18-7.17-7.17Z"/>
  </g>
</svg>