<?xml version="1.0" encoding="UTF-8"?>
<svg id="Layer_2" data-name="Layer 2" xmlns="http://www.w3.org/2000/svg" viewBox="0 0 56 48">
  <defs>
    <style>
      .cls-1 {
        fill: #010101;
      }
    </style>
  </defs>
  <g id="Layer_1-2" data-name="Layer 1">
    <path class="cls-1" d="M0,6C0,2.69,2.69,0,6,0h44c3.31,0,6,2.69,6,6v24c0,3.31-2.69,6-6,6h-8c-.7,0-1.37-.12-2-.34v6.34c0,3.31-2.69,6-6,6h-12c-3.31,0-6-2.69-6-6v-18.34c-.63.22-1.3.34-2,.34H6c-3.31,0-6-2.69-6-6V6ZM20,42c0,1.1.9,2,2,2h12c1.1,0,2-.9,2-2V4h-16v38ZM16,4H6c-1.1,0-2,.9-2,2v12c0,1.1.9,2,2,2h8c1.1,0,2-.9,2-2V4ZM40,4v26c0,1.1.9,2,2,2h8c1.1,0,2-.9,2-2V6c0-1.1-.9-2-2-2h-10Z"/>
  </g>
</svg>