<?xml version="1.0" encoding="UTF-8"?>
<svg id="Layer_2" data-name="Layer 2" xmlns="http://www.w3.org/2000/svg" viewBox="0 0 42.33 48">
  <defs>
    <style>
      .cls-1 {
        fill: #010101;
      }
    </style>
  </defs>
  <g id="Layer_1-2" data-name="Layer 1">
    <path class="cls-1" d="M21.16,26.83l7.17,7.17h-14.34l7.17-7.17ZM9.99,38h22.34l5.99,5.99h0s-34.34.01-34.34.01h.01s5.99-6,5.99-6ZM3.98,0C2.28,0,.85,1.11.29,2.49-.28,3.86-.03,5.66,1.18,6.85l18.56,18.56c.38.38.88.59,1.41.59s1.04-.21,1.41-.59L41.14,6.85c1.21-1.19,1.46-2.99.9-4.36-.56-1.37-1.99-2.48-3.7-2.49H3.98ZM21.16,22c-.53,0-1.04.21-1.41.59L1.18,41.15c-1.21,1.19-1.46,2.99-.9,4.36.56,1.37,1.99,2.48,3.7,2.49h34.36c1.62,0,3.08-.99,3.69-2.49.61-1.5.26-3.23-.9-4.36l-18.56-18.56c-.19-.19-.41-.33-.65-.43-.24-.1-.5-.15-.77-.15ZM3.99,4h34.34-.01s-17.16,17.17-17.16,17.17L4,4.01h-.01Z"/>
  </g>
</svg>