<?xml version="1.0" encoding="UTF-8"?>
<svg id="Layer_2" data-name="Layer 2" xmlns="http://www.w3.org/2000/svg" viewBox="0 0 54.59 54.59">
  <defs>
    <style>
      .cls-1 {
        fill: #010101;
      }
    </style>
  </defs>
  <g id="Layer_1-2" data-name="Layer 1">
    <path class="cls-1" d="M50.59,0c-.36,0-.72.05-1.08.15L2.93,13.27h.02C1.24,13.73.13,15.28.01,16.81c-.12,1.53.72,3.23,2.33,3.96l21.37,10.11,10.11,21.37c.69,1.53,2.29,2.47,3.96,2.33,1.67-.13,3.1-1.31,3.54-2.93L54.44,5.08C55.19,2.54,53.08.02,50.59,0ZM50.59,4l-13.12,46.58h0s0,0-.01-.01l-9.83-20.77,10.31-10.31c.19-.19.33-.41.43-.65.1-.24.15-.5.15-.77s-.05-.52-.15-.77c-.1-.24-.25-.46-.43-.65-.19-.19-.41-.33-.65-.43-.24-.1-.5-.15-.77-.15s-.52.05-.77.15c-.24.1-.46.25-.65.43l-10.31,10.31L4.03,17.14s-.02,0-.03-.01h.01S50.59,4,50.59,4Z"/>
  </g>
</svg>