<?xml version="1.0" encoding="UTF-8"?>
<svg id="Layer_2" data-name="Layer 2" xmlns="http://www.w3.org/2000/svg" viewBox="0 0 58.2 58.2">
  <defs>
    <style>
      .cls-1 {
        fill: #010101;
      }
    </style>
  </defs>
  <g id="Layer_1-2" data-name="Layer 1">
    <path class="cls-1" d="M40.2,0c-.53,0-1.04.21-1.41.59-.37.38-.59.88-.59,1.41v4h-4c-.53,0-1.04.21-1.41.59-.38.38-.59.88-.59,1.41s.21,1.04.59,1.41c.38.38.88.59,1.41.59h4v4c0,.53.21,1.04.59,1.41.38.38.88.59,1.41.59s1.04-.21,1.41-.59c.37-.38.59-.88.59-1.41v-4h4c.53,0,1.04-.21,1.41-.59.37-.38.59-.88.59-1.41s-.21-1.04-.59-1.41c-.38-.38-.88-.59-1.41-.59h-4V2c0-.53-.21-1.04-.59-1.41-.38-.38-.88-.59-1.41-.59ZM24.2,9.8c-1.67,0-3.17,1.05-3.75,2.61,0,0,0,0,0,0l-4.8,13.03s0,0,0,0c0,0,0,.01-.01.01,0,0,0,0,0,0l-13.03,4.8s0,0,0,0C1.05,30.83,0,32.33,0,34c0,0,0,0,0,0,0,1.66,1.05,3.17,2.61,3.75,0,0,0,0,0,0l13.03,4.8s0,0,0,0c0,0,.01,0,.01.01,0,0,0,0,0,0l4.8,13.03s0,0,0,0c.58,1.56,2.08,2.61,3.75,2.61,0,0,0,0,0,0,1.66,0,3.17-1.05,3.75-2.61,0,0,0,0,0,0l4.8-13.03s0,0,0,0c0,0,0,0,0,0,0,0,0,0,0,0,0,0,0,0,0,0l13.03-4.8s0,0,0,0c1.65-.61,2.61-2.23,2.61-3.75s-.96-3.14-2.61-3.75c0,0,0,0,0,0l-13.03-4.8s-.01,0-.02-.01l-4.8-13.03s0,0,0,0c-.58-1.56-2.09-2.61-3.75-2.61ZM24.2,13.8l4.8,13.02s0,0,0,0c.41,1.1,1.28,1.98,2.38,2.39,0,0,0,0,0,0l13.02,4.8-13.02,4.8c-.55.2-1.04.52-1.45.93,0,0,0,0,0,0-.41.41-.73.91-.93,1.46l-4.8,13.02s0,0,0,0l-4.8-13.02c-.41-1.1-1.28-1.98-2.39-2.39l-13.02-4.8,13.02-4.8c1.11-.41,1.98-1.28,2.39-2.39l4.8-13.02ZM52.2,14c-.53,0-1.04.21-1.41.59-.37.38-.59.88-.59,1.41v2h-2c-.53,0-1.04.21-1.41.59-.37.38-.59.88-.59,1.41s.21,1.04.59,1.41c.38.38.88.59,1.41.59h2v2c0,.53.21,1.04.59,1.41.38.38.88.59,1.41.59s1.04-.21,1.41-.59c.37-.38.59-.88.59-1.41v-2h2c.53,0,1.04-.21,1.41-.59.37-.38.59-.88.59-1.41s-.21-1.04-.59-1.41c-.38-.38-.88-.59-1.41-.59h-2v-2c0-.53-.21-1.04-.59-1.41-.38-.38-.88-.59-1.41-.59Z"/>
  </g>
</svg>