<?xml version="1.0" encoding="UTF-8"?>
<svg id="Layer_2" data-name="Layer 2" xmlns="http://www.w3.org/2000/svg" viewBox="0 0 56.08 56.08">
  <defs>
    <style>
      .cls-1 {
        fill: #010101;
      }
    </style>
  </defs>
  <g id="Layer_1-2" data-name="Layer 1">
    <path class="cls-1" d="M25.21,16.73c.78-.78,2.05-.78,2.83,0l11.31,11.31c.78.78.78,2.05,0,2.83l-8.49,8.49c-.78.78-2.05.78-2.83,0l-11.31-11.31c-.78-.78-.78-2.05,0-2.83l8.49-8.49ZM35.11,29.46l-8.49-8.49-5.66,5.66,8.49,8.49,5.66-5.66ZM20.97,1.17c1.56-1.56,4.09-1.56,5.66,0l28.28,28.28c1.56,1.56,1.56,4.09,0,5.66l-4.42,4.42c-.65.65-1.65.77-2.43.31-2.3-1.36-5.32-1.05-7.29.93-1.98,1.97-2.29,4.99-.93,7.29.46.79.34,1.79-.31,2.43l-4.42,4.42c-1.56,1.56-4.09,1.56-5.66,0L1.17,26.63c-1.56-1.56-1.56-4.09,0-5.66l4.42-4.42c.65-.65,1.65-.77,2.43-.31,2.3,1.36,5.32,1.05,7.29-.93,1.97-1.97,2.29-4.99.93-7.29-.46-.79-.34-1.79.31-2.43l4.42-4.42ZM52.08,32.28L23.8,4l-3.42,3.42c1.41,3.59.66,7.82-2.24,10.72-2.9,2.9-7.14,3.65-10.72,2.24l-3.42,3.42,28.28,28.28,3.42-3.42c-1.41-3.59-.66-7.82,2.24-10.73,2.9-2.9,7.14-3.65,10.72-2.24l3.42-3.42Z"/>
  </g>
</svg>