<?xml version="1.0" encoding="UTF-8"?>
<svg id="Layer_2" data-name="Layer 2" xmlns="http://www.w3.org/2000/svg" viewBox="0 0 44 52">
  <defs>
    <style>
      .cls-1 {
        fill: #010101;
      }
    </style>
  </defs>
  <g id="Layer_1-2" data-name="Layer 1">
    <path class="cls-1" d="M12,34c1.66,0,3-1.34,3-3s-1.34-3-3-3-3,1.34-3,3,1.34,3,3,3ZM22,34c1.66,0,3-1.34,3-3s-1.34-3-3-3-3,1.34-3,3,1.34,3,3,3ZM32,34c1.66,0,3-1.34,3-3s-1.34-3-3-3-3,1.34-3,3,1.34,3,3,3ZM12,44c1.66,0,3-1.34,3-3s-1.34-3-3-3-3,1.34-3,3,1.34,3,3,3ZM22,44c1.66,0,3-1.34,3-3s-1.34-3-3-3-3,1.34-3,3,1.34,3,3,3ZM32,44c1.66,0,3-1.34,3-3s-1.34-3-3-3-3,1.34-3,3,1.34,3,3,3ZM10,8c-.53,0-1.04.21-1.41.59-.38.38-.59.88-.59,1.41v12c0,.53.21,1.04.59,1.41.38.38.88.59,1.41.59h24c.53,0,1.04-.21,1.41-.59.38-.38.59-.88.59-1.41v-12c0-.53-.21-1.04-.59-1.41-.37-.38-.88-.59-1.41-.59H10ZM12,12h20v8H12v-8ZM4,0C1.81,0,0,1.81,0,4v44c0,2.19,1.81,4,4,4h36c2.19,0,4-1.81,4-4V4c0-2.19-1.81-4-4-4H4ZM4,4h36v44H4V4Z"/>
  </g>
</svg>