<?xml version="1.0" encoding="UTF-8"?>
<svg id="Layer_2" data-name="Layer 2" xmlns="http://www.w3.org/2000/svg" viewBox="0 0 64 24">
  <defs>
    <style>
      .cls-1 {
        fill: #010101;
      }
    </style>
  </defs>
  <g id="Layer_1-2" data-name="Layer 1">
    <path class="cls-1" d="M9.51,0c-1.76,0-3.34,1.16-3.85,2.85,0,0,0,0,0,0L.08,21.43c0,.1.01.2.03.3-.05.09-.08.18-.11.28.04.16.11.31.19.46.05.24.15.47.28.68.16.19.35.35.57.47.11.12.24.22.38.31.1,0,.2-.01.3-.03.09.05.18.08.28.11h60c.1-.03.19-.07.28-.11.1.02.2.03.3.03.29-.1.56-.26.78-.48.03-.03.06-.05.08-.08.35-.36.55-.84.56-1.35,0,0,0,0,0-.01,0-.1-.02-.2-.05-.29,0-.09-.02-.19-.04-.28v-.04s-5.57-18.53-5.57-18.53C57.83,1.16,56.26,0,54.49,0h-2.49c-.53,0-1.04.21-1.41.59-.37.38-.59.88-.59,1.41s.21,1.04.59,1.41c.38.38.88.59,1.41.59h2.51l4.8,16h-7.82l-5.15-17.15C45.83,1.16,44.26,0,42.49,0h-2.49c-.53,0-1.04.21-1.41.59-.38.38-.59.88-.59,1.41s.21,1.04.59,1.41c.38.38.88.59,1.41.59h2.51l4.8,16h-7.82l-5.15-17.15s0,0,0,0C33.83,1.16,32.26,0,30.49,0H9.51ZM9.49,4h21.02l4.8,16H4.69l4.8-16Z"/>
  </g>
</svg>