<?xml version="1.0" encoding="UTF-8"?>
<svg id="Layer_2" data-name="Layer 2" xmlns="http://www.w3.org/2000/svg" viewBox="0 0 38.17 38.1">
  <defs>
    <style>
      .cls-1 {
        fill: #010101;
        fill-rule: evenodd;
      }
    </style>
  </defs>
  <g id="Layer_1-2" data-name="Layer 1">
    <path class="cls-1" d="M8.18,0C3.67.02.02,3.67,0,8.18c0,4.5,3.68,8.18,8.18,8.18,4.51-.01,8.17-3.67,8.18-8.18C16.35,3.67,12.69.01,8.18,0ZM8.18,3.64c2.5-.02,4.53,2,4.55,4.49,0,.02,0,.03,0,.05.02,2.5-2,4.53-4.49,4.55-.02,0-.04,0-.06,0-2.5.01-4.53-2-4.54-4.5,0-.02,0-.03,0-.05-.01-2.5,2-4.53,4.5-4.54.01,0,.03,0,.04,0ZM36.36,1.82c-.48,0-.94.19-1.28.53L2.35,35.08c-.66.76-.58,1.91.17,2.57.69.6,1.71.6,2.39,0L37.65,4.92c.71-.71.7-1.87-.01-2.57-.34-.33-.79-.52-1.27-.53Z"/>
  </g>
</svg>