<?xml version="1.0" encoding="UTF-8"?>
<svg id="Layer_2" data-name="Layer 2" xmlns="http://www.w3.org/2000/svg" viewBox="0 0 51.32 45.65">
  <defs>
    <style>
      .cls-1 {
        fill: #010101;
        fill-rule: evenodd;
      }
    </style>
  </defs>
  <g id="Layer_1-2" data-name="Layer 1">
    <path class="cls-1" d="M24,2c0-.81-.49-1.54-1.23-1.85-.75-.31-1.61-.14-2.18.43L.59,20.59c-.78.78-.78,2.05,0,2.83l20,20c.57.57,1.43.74,2.18.43.75-.31,1.23-1.04,1.23-1.85v-11.98c10.5.35,19.41,6.25,23.53,14.53.44.89,1.46,1.32,2.41,1.01.94-.3,1.52-1.25,1.36-2.23-2.75-16.66-13.5-30.05-27.3-31.24V2ZM22,16c-1.1,0-2-.9-2-2v-7.17l-15.17,15.17,15.17,15.17v-9.17c0-1.1.9-2,2-2,.07,0,.13,0,.2,0,.27,0,.53,0,.8,0,8.37,0,16,3.11,21.59,8.19-4.57-11.07-13.18-18.19-22.59-18.19Z"/>
  </g>
</svg>