<?xml version="1.0" encoding="UTF-8"?>
<svg id="Layer_2" data-name="Layer 2" xmlns="http://www.w3.org/2000/svg" viewBox="0 0 49.11 49">
  <defs>
    <style>
      .cls-1 {
        fill: #010101;
        fill-rule: evenodd;
      }
    </style>
  </defs>
  <g id="Layer_1-2" data-name="Layer 1">
    <path class="cls-1" d="M38.46.05c1.07.26,1.74,1.33,1.48,2.41l-1.54,6.47c1.41-.65,2.99-.87,4.63-.5h0c2.39.56,4.11,2.29,5.08,4.38.97,2.08,1.25,4.62.75,7.15v.02s-.01.04-.01.04c-1.12,4.91-5.39,9.03-10.26,7.92-1.72-.39-3.1-1.34-4.1-2.63l-.22.91c-.26,1.07-1.34,1.74-2.41,1.48-1.07-.26-1.74-1.33-1.48-2.41L36.05,1.54c.26-1.07,1.33-1.74,2.41-1.48ZM36.68,17.24c.84-3.71,3.6-5.33,5.46-4.91.92.21,1.78.92,2.35,2.16.57,1.24.8,2.9.46,4.66-.85,3.69-3.6,5.3-5.46,4.88-1.86-.42-3.65-3.08-2.81-6.79ZM15.81,2.06c-.35-.65-1.03-1.06-1.77-1.06s-1.42.41-1.77,1.06L.23,24.82c-.52.98-.14,2.19.83,2.7.98.52,2.19.14,2.7-.83l2.98-5.63h14.6l2.98,5.63c.52.98,1.73,1.35,2.7.83.98-.52,1.35-1.73.83-2.7L15.81,2.06ZM14.05,7.27l5.18,9.79h-10.36l5.18-9.79ZM2,35C.9,35,0,35.9,0,37s.9,2,2,2h44c1.1,0,2-.9,2-2s-.9-2-2-2H2ZM0,47c0-1.1.9-2,2-2h36c1.1,0,2,.9,2,2s-.9,2-2,2H2C.9,49,0,48.11,0,47Z"/>
  </g>
</svg>