<?xml version="1.0" encoding="UTF-8"?>
<svg id="Layer_2" data-name="Layer 2" xmlns="http://www.w3.org/2000/svg" viewBox="0 0 60 40">
  <defs>
    <style>
      .cls-1 {
        fill: #010101;
      }
    </style>
  </defs>
  <g id="Layer_1-2" data-name="Layer 1">
    <path class="cls-1" d="M30,8c-6.6,0-12,5.4-12,12s5.4,12,12,12,12-5.4,12-12-5.4-12-12-12ZM30,12c4.44,0,8,3.56,8,8s-3.56,8-8,8-8-3.56-8-8,3.56-8,8-8ZM30,0C8.8,0,.17,19.19.17,19.19c-.11.26-.17.53-.17.81s.06.56.17.81c0,0,8.63,19.19,29.83,19.19s29.83-19.19,29.83-19.19c.11-.26.17-.53.17-.81s-.06-.56-.17-.81c0,0-8.63-19.19-29.83-19.19ZM30,4c16.34,0,24.03,12.68,25.77,16-1.74,3.32-9.43,16-25.77,16S5.97,23.32,4.23,20c1.74-3.32,9.43-16,25.77-16Z"/>
  </g>
</svg>