<?xml version="1.0" encoding="UTF-8"?>
<svg id="Layer_2" data-name="Layer 2" xmlns="http://www.w3.org/2000/svg" viewBox="0 0 64 64">
  <defs>
    <style>
      .cls-1 {
        fill: #010101;
      }
    </style>
  </defs>
  <g id="Layer_1-2" data-name="Layer 1">
    <path class="cls-1" d="M48.84,64l15.16-15.16h-15.16v15.16ZM64,16.25h-15.16v31.87h15.16v-31.87ZM47.75,48.84H15.88v15.16h31.88v-15.16ZM0,48.84v10.11c0,2.79,2.26,5.05,5.05,5.05h10.11v-15.16H0ZM64,15.16V5.05c0-2.79-2.26-5.05-5.05-5.05h-10.11v15.16h15.16ZM47.75,0H4.94C2.21,0,0,2.23,0,4.98v43.15h14.82V14.94h32.93V0ZM22.07,41.29c-1.26-.85-2.13-2.09-2.61-3.73l2.92-1.2c.27,1.01.73,1.79,1.39,2.35.66.56,1.46.83,2.39.83s1.78-.29,2.46-.87c.69-.58,1.03-1.32,1.03-2.22s-.36-1.67-1.09-2.25c-.72-.58-1.63-.87-2.72-.87h-1.69v-2.89h1.52c.93,0,1.72-.25,2.36-.76.64-.51.96-1.2.96-2.08,0-.78-.29-1.41-.86-1.87s-1.3-.7-2.18-.7-1.54.23-2.05.69c-.5.46-.88,1.04-1.1,1.69l-2.89-1.2c.38-1.09,1.09-2.05,2.12-2.88,1.03-.83,2.35-1.25,3.95-1.25,1.18,0,2.25.23,3.19.69.94.46,1.68,1.09,2.22,1.9.53.81.8,1.72.8,2.73s-.25,1.9-.75,2.62c-.5.72-1.11,1.26-1.83,1.65v.17c.94.39,1.75,1.02,2.35,1.83.61.82.92,1.8.92,2.95s-.29,2.17-.87,3.07c-.58.9-1.39,1.6-2.4,2.12-1.02.51-2.17.77-3.45.77-1.48,0-2.84-.42-4.1-1.27ZM40.02,26.79l-3.21,2.32-1.6-2.43,5.76-4.15h2.21v19.58h-3.15v-15.32Z"/>
  </g>
</svg>