<?xml version="1.0" encoding="UTF-8"?>
<svg id="Layer_2" data-name="Layer 2" xmlns="http://www.w3.org/2000/svg" viewBox="0 0 52 52">
  <defs>
    <style>
      .cls-1 {
        fill: #010101;
      }
    </style>
  </defs>
  <g id="Layer_1-2" data-name="Layer 1">
    <path class="cls-1" d="M25.62,30.02c-2.26.06-4.53.66-6.62,1.86-2.13,1.23-3.9,2.99-5.13,5.11-.27.46-.34,1-.2,1.52.14.51.47.95.93,1.22.46.27,1,.34,1.52.2.51-.14.95-.47,1.22-.93.88-1.52,2.15-2.78,3.67-3.65h0c4.81-2.77,10.89-1.14,13.67,3.65.27.46.7.79,1.22.93.51.14,1.06.06,1.52-.2.23-.13.43-.31.59-.52.16-.21.28-.45.34-.7.07-.25.08-.52.05-.78-.03-.26-.12-.51-.25-.74-2.66-4.58-7.55-7.1-12.51-6.97ZM17,24c1.66,0,3-1.34,3-3s-1.34-3-3-3-3,1.34-3,3,1.34,3,3,3ZM17,24c1.66,0,3-1.34,3-3s-1.34-3-3-3-3,1.34-3,3,1.34,3,3,3ZM35,24c1.66,0,3-1.34,3-3s-1.34-3-3-3-3,1.34-3,3,1.34,3,3,3ZM35,24c1.66,0,3-1.34,3-3s-1.34-3-3-3-3,1.34-3,3,1.34,3,3,3ZM26,0C11.66,0,0,11.66,0,26s11.66,26,26,26,26-11.66,26-26S40.34,0,26,0ZM26,4c12.17,0,22,9.83,22,22s-9.83,22-22,22S4,38.17,4,26,13.83,4,26,4Z"/>
  </g>
</svg>