<?xml version="1.0" encoding="UTF-8"?>
<svg id="Layer_2" data-name="Layer 2" xmlns="http://www.w3.org/2000/svg" viewBox="0 0 40 48">
  <defs>
    <style>
      .cls-1 {
        fill: #010101;
      }
    </style>
  </defs>
  <g id="Layer_1-2" data-name="Layer 1">
    <path class="cls-1" d="M20,0c-.53,0-1.04.21-1.41.59L.59,18.59c-.38.38-.59.88-.59,1.41s.21,1.04.59,1.41c.38.37.88.59,1.41.59s1.04-.21,1.41-.59l14.59-14.59v39.17c0,.53.21,1.04.59,1.41.38.37.88.59,1.41.59s1.04-.21,1.41-.59c.38-.38.59-.88.59-1.41V6.83l14.59,14.59c.37.37.88.59,1.41.59s1.04-.21,1.41-.59c.37-.38.59-.88.59-1.41s-.21-1.04-.59-1.41L21.41.59s-.04-.02-.06-.02c-.36-.35-.85-.55-1.36-.56Z"/>
  </g>
</svg>