<?xml version="1.0" encoding="UTF-8"?>
<svg id="Layer_2" data-name="Layer 2" xmlns="http://www.w3.org/2000/svg" viewBox="0 0 60 38">
  <defs>
    <style>
      .cls-1 {
        fill: #010101;
      }
    </style>
  </defs>
  <g id="Layer_1-2" data-name="Layer 1">
    <path class="cls-1" d="M58.35,5.03c-.46-.08-.94,0-1.35.23l-14,8c-.46.26-.8.7-.94,1.21-.14.51-.07,1.06.19,1.52.26.46.7.8,1.21.94.51.14,1.06.07,1.52-.19l11.01-6.29v17.11l-11.01-6.29c-.46-.26-1.01-.33-1.52-.19-.51.14-.95.48-1.21.94-.26.46-.33,1.01-.19,1.52.14.51.48.95.94,1.21l14,8c.3.17.65.26,1,.26.35,0,.69-.09,1-.27.3-.18.55-.43.73-.73.18-.3.27-.65.27-1V7c0-.47-.17-.92-.47-1.28-.3-.36-.72-.6-1.18-.69ZM4,0C1.81,0,0,1.81,0,4v24c0,5.5,4.5,10,10,10h32c2.19,0,4-1.81,4-4V10C46,4.5,41.5,0,36,0H4ZM4,4h32c3.34,0,6,2.66,6,6v24H10c-3.34,0-6-2.66-6-6V4Z"/>
  </g>
</svg>