<?xml version="1.0" encoding="UTF-8"?>
<svg id="Layer_2" data-name="Layer 2" xmlns="http://www.w3.org/2000/svg" viewBox="0 0 50.44 64">
  <defs>
    <style>
      .cls-1 {
        fill: #010101;
      }
    </style>
  </defs>
  <g id="Layer_1-2" data-name="Layer 1">
    <path class="cls-1" d="M38.97,37.6h-15.38v3.86h15.38v-3.86ZM38.97,31.04h-15.38v3.86h15.38v-3.86ZM50.44,18.52l-.05.05-3.94-.05L31.81,3.99l-.07-3.93.06-.06,9.32,9.26,9.32,9.26ZM31.81,18.52V0H3.99C1.79,0,0,1.79,0,3.99v56.02c0,2.2,1.79,3.99,3.99,3.99h42.46c2.2,0,3.99-1.79,3.99-3.99V18.52s-18.63,0-18.63,0ZM41.78,51.65H9.09v-23.59h32.69v23.59ZM38.97,44.16h-15.38v3.85h15.38v-3.85ZM20.61,37.6h-8.76v3.86h8.76v-3.86ZM20.62,31.04h-8.77v3.86h8.77v-3.86ZM20.61,44.16h-8.76v3.85h8.76v-3.85ZM11.85,31.04v3.86h8.76v-3.86h-8.76Z"/>
  </g>
</svg>