<?xml version="1.0" encoding="UTF-8"?>
<svg id="Layer_2" data-name="Layer 2" xmlns="http://www.w3.org/2000/svg" viewBox="0 0 35.99 42">
  <defs>
    <style>
      .cls-1 {
        fill: #010101;
      }
    </style>
  </defs>
  <g id="Layer_1-2" data-name="Layer 1">
    <path class="cls-1" d="M2,0C1.47,0,.96.21.59.59.21.96,0,1.47,0,2v38c0,.53.21,1.04.59,1.41.38.38.88.59,1.41.59h22c3.18,0,6.24-1.26,8.48-3.51,4.67-4.67,4.67-12.3,0-16.97-1.12-1.12-2.45-2-3.89-2.6,2.09-2.01,3.41-4.81,3.41-7.91,0-6.05-4.95-11-11-11H2ZM4,4h17c3.89,0,7,3.11,7,7s-3.11,7-7,7H4V4ZM4,22h20c2.12,0,4.16.84,5.66,2.34,3.14,3.14,3.14,8.17,0,11.31-1.5,1.5-3.53,2.34-5.66,2.34H4v-16Z"/>
  </g>
</svg>