<?xml version="1.0" encoding="UTF-8"?>
<svg id="Layer_2" data-name="Layer 2" xmlns="http://www.w3.org/2000/svg" viewBox="0 0 52 52">
  <defs>
    <style>
      .cls-1 {
        fill: #010101;
      }
    </style>
  </defs>
  <g id="Layer_1-2" data-name="Layer 1">
    <path class="cls-1" d="M25.99,0C15.49,0,6,6.34,1.98,16.05h0C-2.04,25.76.18,36.95,7.61,44.38c7.43,7.43,18.62,9.66,28.33,5.64,9.71-4.02,16.05-13.51,16.05-24.02h0c0-1.37-.11-2.74-.33-4.1-.08-.52-.37-.99-.8-1.3-.43-.31-.97-.44-1.49-.35-.26.04-.51.13-.73.27-.22.14-.42.32-.57.53-.15.21-.26.45-.32.71-.06.26-.07.52-.03.78.18,1.14.28,2.3.27,3.45h0c0,8.91-5.35,16.92-13.58,20.33-8.23,3.41-17.68,1.53-23.97-4.77-6.3-6.3-8.18-15.75-4.77-23.97,3.41-8.23,11.42-13.58,20.33-13.58h0c1.16,0,2.31.09,3.45.27.26.04.52.03.78-.03.26-.06.5-.17.71-.32.21-.15.39-.35.53-.57.14-.22.23-.47.27-.73.04-.26.03-.52-.03-.78-.06-.26-.17-.5-.32-.71-.15-.21-.35-.39-.57-.53-.22-.14-.47-.23-.73-.27C28.74.11,27.37,0,26,0h0ZM44,0c-.53,0-1.04.21-1.41.59-.37.38-.59.88-.59,1.41v4h-4c-.53,0-1.04.21-1.41.59-.37.38-.59.88-.59,1.41s.21,1.04.59,1.41c.38.38.88.59,1.41.59h4v4c0,.53.21,1.04.59,1.41.38.38.88.59,1.41.59s1.04-.21,1.41-.59c.38-.38.59-.88.59-1.41v-4h4c.53,0,1.04-.21,1.41-.59.38-.38.59-.88.59-1.41s-.21-1.04-.59-1.41c-.37-.38-.88-.59-1.41-.59h-4V2c0-.53-.21-1.04-.59-1.41C45.04.21,44.53,0,44,0ZM26,32c-7.53,0-14.43,4.23-17.83,10.95-.24.47-.28,1.02-.12,1.53.16.5.52.92,1,1.16.23.12.49.19.75.21.26.02.53-.01.77-.09.25-.08.48-.21.68-.38.2-.17.36-.38.48-.61,2.73-5.38,8.24-8.76,14.27-8.76s11.54,3.38,14.27,8.76c.24.47.66.83,1.16,1,.5.16,1.05.12,1.53-.12.47-.24.83-.66,1-1.16.16-.5.12-1.05-.12-1.53-3.41-6.71-10.31-10.95-17.83-10.95ZM26,12c-6.6,0-12,5.4-12,12s5.4,12,12,12,12-5.4,12-12-5.4-12-12-12ZM26,16c4.44,0,8,3.56,8,8s-3.56,8-8,8-8-3.56-8-8,3.56-8,8-8Z"/>
  </g>
</svg>