<?xml version="1.0" encoding="UTF-8"?>
<svg id="Layer_2" data-name="Layer 2" xmlns="http://www.w3.org/2000/svg" viewBox="0 0 56 44">
  <defs>
    <style>
      .cls-1 {
        fill: #010101;
      }
    </style>
  </defs>
  <g id="Layer_1-2" data-name="Layer 1">
    <path class="cls-1" d="M48.59.59l-4,4c-.78.78-.78,2.05,0,2.83.78.78,2.05.78,2.83,0l.59-.59v30.34l-.59-.59c-.78-.78-2.05-.78-2.83,0-.78.78-.78,2.05,0,2.83l4,4c.38.37.88.59,1.41.59s1.04-.21,1.41-.59l4-4c.78-.78.78-2.05,0-2.83-.78-.78-2.05-.78-2.83,0l-.59.59V6.83l.59.59c.78.78,2.05.78,2.83,0,.78-.78.78-2.05,0-2.83l-4-4c-.78-.78-2.05-.78-2.83,0ZM2,2c-1.1,0-2,.9-2,2s.9,2,2,2h32c1.1,0,2-.9,2-2s-.9-2-2-2H2ZM2,14c-1.1,0-2,.9-2,2s.9,2,2,2h32c1.1,0,2-.9,2-2s-.9-2-2-2H2ZM0,28c0-1.1.9-2,2-2h32c1.1,0,2,.9,2,2s-.9,2-2,2H2c-1.1,0-2-.9-2-2ZM2,38c-1.1,0-2,.9-2,2s.9,2,2,2h32c1.1,0,2-.9,2-2s-.9-2-2-2H2Z"/>
  </g>
</svg>