<?xml version="1.0" encoding="UTF-8"?>
<svg id="Layer_2" data-name="Layer 2" xmlns="http://www.w3.org/2000/svg" viewBox="0 0 48.54 48.54">
  <defs>
    <style>
      .cls-1 {
        fill: #010101;
        fill-rule: evenodd;
      }
    </style>
  </defs>
  <g id="Layer_1-2" data-name="Layer 1">
    <path class="cls-1" d="M35.73,1.59C31.42.03,26.32-.39,21.43.36c-5.28.8-10.51,2.99-14.3,6.78C3.35,10.93,1.16,16.15.36,21.43c-.74,4.89-.33,9.99,1.23,14.29-1.73,3.05-1.29,6.99,1.31,9.59,2.56,2.56,6.41,3.02,9.44,1.39,8.65,3.43,20.83,2.28,28.74-5.64,7.91-7.91,9.06-20.09,5.64-28.74,1.63-3.03,1.16-6.88-1.39-9.44-2.6-2.6-6.54-3.04-9.59-1.31ZM22.04,4.31c-4.66.71-9.02,2.61-12.07,5.65-3.05,3.05-4.94,7.41-5.65,12.07-.71,4.66-.2,9.43,1.36,13.16l.45,1.08-.72.92c-1.23,1.57-1.12,3.85.32,5.29,1.43,1.43,3.66,1.55,5.23.37l.95-.71,1.08.49c7.39,3.35,18.39,2.49,25.27-4.39,6.88-6.88,7.74-17.88,4.39-25.27l-.49-1.08.71-.95c1.18-1.57,1.05-3.8-.37-5.23-1.44-1.44-3.72-1.55-5.29-.32l-.92.72-1.08-.45c-3.73-1.56-8.5-2.07-13.16-1.36Z"/>
  </g>
</svg>