<?xml version="1.0" encoding="UTF-8"?>
<svg id="Layer_2" data-name="Layer 2" xmlns="http://www.w3.org/2000/svg" viewBox="0 0 44 54">
  <defs>
    <style>
      .cls-1 {
        fill: #010101;
      }
    </style>
  </defs>
  <g id="Layer_1-2" data-name="Layer 1">
    <path class="cls-1" d="M22,0c-6.6,0-12,5.4-12,12v2c0,.53.21,1.04.59,1.41.38.38.88.59,1.41.59h20c.53,0,1.04-.21,1.41-.59.38-.38.59-.88.59-1.41v-2c0-6.6-5.4-12-12-12ZM22,4c4.44,0,8,3.56,8,8H14c0-4.44,3.56-8,8-8ZM4,4C1.81,4,0,5.81,0,8v42c0,2.19,1.81,4,4,4,0,0,0,0,0,0h36c2.19,0,4-1.81,4-4V8c0-2.19-1.81-4-4-4h-10c-.53,0-1.04.21-1.41.59-.38.38-.59.88-.59,1.41s.21,1.04.59,1.41c.38.38.88.59,1.41.59h10v42H4V8s10,0,10,0c.53,0,1.04-.21,1.41-.59.38-.38.59-.88.59-1.41s-.21-1.04-.59-1.41c-.38-.38-.88-.59-1.41-.59H4ZM14,24c-.53,0-1.04.21-1.41.59-.38.38-.59.88-.59,1.41s.21,1.04.59,1.41c.38.38.88.59,1.41.59h16c.53,0,1.04-.21,1.41-.59.37-.38.59-.88.59-1.41s-.21-1.04-.59-1.41c-.38-.38-.88-.59-1.41-.59H14ZM14,32c-.53,0-1.04.21-1.41.59-.38.38-.59.88-.59,1.41s.21,1.04.59,1.41c.38.38.88.59,1.41.59h16c.53,0,1.04-.21,1.41-.59.37-.38.59-.88.59-1.41s-.21-1.04-.59-1.41c-.38-.38-.88-.59-1.41-.59H14Z"/>
  </g>
</svg>