<?xml version="1.0" encoding="UTF-8"?>
<svg id="Layer_2" data-name="Layer 2" xmlns="http://www.w3.org/2000/svg" viewBox="0 0 48 48">
  <defs>
    <style>
      .cls-1 {
        fill: #010101;
      }
    </style>
  </defs>
  <g id="Layer_1-2" data-name="Layer 1">
    <path class="cls-1" d="M24,12c-.53,0-1.04.21-1.41.59-.38.38-.59.88-.59,1.41v15.17l-5.06-5.06c-.19-.19-.41-.33-.65-.43-.24-.1-.5-.15-.77-.15s-.52.05-.77.15c-.24.1-.46.25-.65.43-.19.19-.33.41-.43.65-.1.24-.15.5-.15.77s.05.52.15.77c.1.24.25.46.43.65l8.48,8.47c.38.37.88.59,1.41.59s1.04-.21,1.41-.59l8.48-8.47c.19-.19.33-.41.43-.65.1-.24.15-.5.15-.77s-.05-.52-.15-.77-.25-.46-.43-.65c-.19-.19-.41-.33-.65-.43-.24-.1-.5-.15-.77-.15s-.52.05-.77.15c-.24.1-.46.25-.65.43l-5.06,5.06v-15.17c0-.53-.21-1.04-.59-1.41-.38-.38-.88-.59-1.41-.59ZM4,0C1.81,0,0,1.81,0,4v40c0,2.19,1.81,4,4,4h40c2.19,0,4-1.81,4-4V4c0-2.19-1.81-4-4-4H4ZM4,4h40v40H4V4Z"/>
  </g>
</svg>