<?xml version="1.0" encoding="UTF-8"?>
<svg id="Layer_2" data-name="Layer 2" xmlns="http://www.w3.org/2000/svg" viewBox="0 0 52 54">
  <defs>
    <style>
      .cls-1 {
        fill: #010101;
      }
    </style>
  </defs>
  <g id="Layer_1-2" data-name="Layer 1">
    <path class="cls-1" d="M26,0c-.53,0-1.04.21-1.41.59-.37.38-.59.88-.59,1.41v4H4C1.81,6,0,7.81,0,10v30c0,2.19,1.81,4,4,4h9.84l-5.4,6.75c-.33.41-.48.94-.43,1.47.06.53.32,1.01.74,1.34.41.33.94.48,1.47.43.53-.06,1.01-.32,1.34-.74l7.4-9.25h14.08l7.4,9.25c.33.41.81.68,1.34.74.53.06,1.06-.09,1.47-.43.41-.33.68-.81.74-1.34.06-.53-.09-1.06-.43-1.47l-5.4-6.75h9.84c2.19,0,4-1.81,4-4V10c0-2.19-1.81-4-4-4h-20V2c0-.53-.21-1.04-.59-1.41-.37-.37-.88-.59-1.41-.59ZM4,10h44v30H4V10Z"/>
  </g>
</svg>