<?xml version="1.0" encoding="UTF-8"?>
<svg id="Layer_2" data-name="Layer 2" xmlns="http://www.w3.org/2000/svg" viewBox="0 0 60 48">
  <defs>
    <style>
      .cls-1 {
        fill: #010101;
      }
    </style>
  </defs>
  <g id="Layer_1-2" data-name="Layer 1">
    <path class="cls-1" d="M38.68.12c-.5-.18-1.05-.16-1.53.07s-.85.63-1.03,1.13l-16,44c-.18.5-.16,1.05.07,1.53.22.48.63.85,1.13,1.03.5.18,1.05.16,1.53-.07.48-.22.85-.63,1.03-1.13L39.88,2.68c.18-.5.16-1.05-.07-1.53-.22-.48-.63-.85-1.13-1.03ZM14.18,12.01c-.53-.05-1.05.12-1.46.46L.72,22.46c-.23.19-.41.42-.53.69-.12.27-.19.56-.19.85s.06.58.19.85c.12.27.31.5.53.69l12,10c.2.17.43.29.69.37.25.08.51.11.78.08.26-.02.52-.1.75-.22.23-.12.44-.29.61-.49.17-.2.29-.43.37-.69.08-.25.11-.51.08-.78s-.1-.52-.22-.75c-.12-.23-.29-.44-.49-.61l-10.16-8.46,10.16-8.46c.2-.17.37-.37.49-.61.12-.23.2-.49.22-.75.02-.26,0-.53-.08-.78-.08-.25-.2-.48-.37-.69-.17-.2-.37-.37-.61-.49-.23-.12-.49-.2-.75-.22ZM45.82,12.01c-.26.02-.52.1-.75.22-.23.12-.44.29-.61.49-.17.2-.29.43-.37.69-.08.25-.11.51-.08.78.02.26.1.52.22.75.12.23.29.44.49.61l10.16,8.46-10.16,8.46c-.2.17-.37.37-.49.61-.12.23-.2.49-.22.75-.02.26,0,.53.08.78.08.25.2.48.37.69.17.2.37.37.61.49.23.12.49.2.75.22.26.02.53,0,.78-.08.25-.08.48-.21.69-.37l12-10c.23-.19.41-.42.53-.69.12-.27.19-.56.19-.85s-.06-.58-.19-.85c-.12-.27-.31-.5-.53-.69l-12-10c-.41-.34-.93-.5-1.46-.46Z"/>
  </g>
</svg>