<?xml version="1.0" encoding="UTF-8"?>
<svg id="Layer_2" data-name="Layer 2" xmlns="http://www.w3.org/2000/svg" viewBox="0 0 48 48">
  <defs>
    <style>
      .cls-1 {
        fill: #010101;
      }
    </style>
  </defs>
  <g id="Layer_1-2" data-name="Layer 1">
    <path class="cls-1" d="M9,0C4.05,0,0,4.05,0,9c0,4.26,3.01,7.84,7,8.76v12.49c-3.99.92-7,4.5-7,8.76,0,4.95,4.05,9,9,9s9-4.05,9-9c0-4.26-3.01-7.84-7-8.76v-.25c0-2.23,1.76-4,3.99-3.99h18c2.13,0,4.17-.83,5.67-2.34,1.5-1.5,2.35-3.55,2.34-5.67v-.24c3.99-.92,7-4.5,7-8.76,0-4.95-4.05-9-9-9s-9,4.05-9,9c0,4.26,3.01,7.84,7,8.76v.25c0,1.06-.41,2.08-1.16,2.83-.75.75-1.77,1.17-2.83,1.16H15.01c-1.46,0-2.82.42-4.01,1.11v-5.35c3.99-.92,7-4.5,7-8.76C18,4.05,13.95,0,9,0ZM9,4c2.79,0,5,2.21,5,5s-2.21,5-5,5-5-2.21-5-5,2.21-5,5-5ZM39,4c2.79,0,5,2.21,5,5s-2.21,5-5,5-5-2.21-5-5,2.21-5,5-5ZM9,34c2.79,0,5,2.21,5,5s-2.21,5-5,5-5-2.21-5-5,2.21-5,5-5Z"/>
  </g>
</svg>