<?xml version="1.0" encoding="UTF-8"?>
<svg id="Layer_2" data-name="Layer 2" xmlns="http://www.w3.org/2000/svg" viewBox="0 0 44 52">
  <defs>
    <style>
      .cls-1 {
        fill: #010101;
      }
    </style>
  </defs>
  <g id="Layer_1-2" data-name="Layer 1">
    <path class="cls-1" d="M22,24c-.53,0-1.04.21-1.41.59-.38.38-.59.88-.59,1.41v4h-4c-.53,0-1.04.21-1.41.59-.38.38-.59.88-.59,1.41s.21,1.04.59,1.41c.38.38.88.59,1.41.59h4v4c0,.53.21,1.04.59,1.41.38.37.88.59,1.41.59s1.04-.21,1.41-.59c.38-.38.59-.88.59-1.41v-4h4c.53,0,1.04-.21,1.41-.59.38-.38.59-.88.59-1.41s-.21-1.04-.59-1.41c-.38-.38-.88-.59-1.41-.59h-4v-4c0-.53-.21-1.04-.59-1.41-.38-.38-.88-.59-1.41-.59ZM4,0C1.81,0,0,1.81,0,4v44c0,2.19,1.81,4,4,4h36c2.19,0,4-1.81,4-4V16c0-.53-.21-1.04-.59-1.41L29.41.59c-.38-.38-.88-.59-1.41-.59H4ZM28,0c-.53,0-1.04.21-1.41.59-.38.38-.59.88-.59,1.41v14c0,.53.21,1.04.59,1.41.38.38.88.59,1.41.59h14c.53,0,1.04-.21,1.41-.59.37-.38.59-.88.59-1.41s-.21-1.04-.59-1.41c-.38-.38-.88-.59-1.41-.59h-12V2c0-.53-.21-1.04-.59-1.41-.38-.38-.88-.59-1.41-.59ZM4,4h23.17l12.83,12.83v31.17H4V4Z"/>
  </g>
</svg>