<?xml version="1.0" encoding="UTF-8"?>
<svg id="Layer_2" data-name="Layer 2" xmlns="http://www.w3.org/2000/svg" viewBox="0 0 52 50">
  <defs>
    <style>
      .cls-1 {
        fill: #010101;
        fill-rule: evenodd;
      }
    </style>
  </defs>
  <g id="Layer_1-2" data-name="Layer 1">
    <path class="cls-1" d="M8,2c0-1.1.9-2,2-2h36c1.1,0,2,.9,2,2v24c0,1.1-.9,2-2,2s-2-.9-2-2V4H10c-1.1,0-2-.9-2-2ZM14.27,21.27c1.36,0,2.45-1.1,2.45-2.45s-1.1-2.45-2.45-2.45-2.45,1.1-2.45,2.45,1.1,2.45,2.45,2.45ZM0,12c0-2.21,1.79-4,4-4h32c2.21,0,4,1.79,4,4v19.73c0,3.39-3.96,5.24-6.56,3.07l-7.15-5.96-5.33,6.66c-1.49,1.86-4.27,2.02-5.95.33l-3.01-3.01-8,8v3.17h18c1.1,0,2,.9,2,2s-.9,2-2,2H4c-2.21,0-4-1.79-4-4V12ZM4,35.17l5.17-5.17c1.56-1.56,4.09-1.56,5.66,0l3.01,3.01,5.33-6.66c1.4-1.75,3.96-2.01,5.68-.57l7.15,5.96V12H4v23.17ZM51.41,34.59c.78.78.78,2.05,0,2.83l-12.01,12c-.38.38-.88.59-1.41.59-.53,0-1.04-.21-1.41-.59l-5.99-6c-.78-.78-.78-2.05,0-2.83.78-.78,2.05-.78,2.83,0l4.58,4.58,10.6-10.59c.78-.78,2.05-.78,2.83,0Z"/>
  </g>
</svg>