<?xml version="1.0" encoding="UTF-8"?>
<svg id="Layer_2" data-name="Layer 2" xmlns="http://www.w3.org/2000/svg" viewBox="0 0 52 40">
  <defs>
    <style>
      .cls-1 {
        fill: #010101;
      }
    </style>
  </defs>
  <g id="Layer_1-2" data-name="Layer 1">
    <path class="cls-1" d="M19.54.02c-.28.05-.54.19-.74.4L.35,20.42c-.15.16-.25.35-.31.57-.06.21-.06.43,0,.65.05.21.15.41.29.58.14.16.32.29.53.37l9.49,3.6-2.42,12.22c-.06.28-.02.58.11.84.12.26.33.47.58.61.25.13.55.18.83.13.28-.05.54-.19.74-.4l18.45-20c.15-.16.25-.35.31-.57.06-.21.06-.43,0-.65-.05-.21-.15-.41-.29-.58s-.32-.29-.53-.37l-9.49-3.6,2.42-12.22c.04-.21.03-.43-.03-.64-.06-.21-.17-.4-.32-.55-.15-.16-.33-.27-.54-.34-.2-.07-.42-.08-.63-.04ZM16.21,8.78l-1.29,6.29c-.06.31-.01.63.14.91.15.28.4.49.69.6l7.69,3-10.8,12.05,1.29-6.2c.06-.31.01-.63-.14-.91-.15-.28-.4-.49-.69-.6l-7.72-2.93,10.83-12.21ZM27.08,2.54c-1.06,0-1.92.87-1.92,1.94s.86,1.94,1.92,1.94h23c1.06,0,1.92-.87,1.92-1.94s-.86-1.94-1.92-1.94h-23ZM19.42,35.52c0-1.07.86-1.94,1.92-1.94h28.75c1.06,0,1.92.87,1.92,1.94s-.86,1.94-1.92,1.94h-28.75c-1.06,0-1.92-.87-1.92-1.94ZM33.79,18.06c-1.06,0-1.92.87-1.92,1.94s.86,1.94,1.92,1.94h16.29c1.06,0,1.92-.87,1.92-1.94s-.86-1.94-1.92-1.94h-16.29Z"/>
  </g>
</svg>