<?xml version="1.0" encoding="UTF-8"?>
<svg id="Layer_2" data-name="Layer 2" xmlns="http://www.w3.org/2000/svg" viewBox="0 0 48 52">
  <defs>
    <style>
      .cls-1 {
        fill: #010101;
      }
    </style>
  </defs>
  <g id="Layer_1-2" data-name="Layer 1">
    <path class="cls-1" d="M33.06,26c-.26,0-.52.04-.77.13-.25.09-.47.23-.66.41l-10.3,9.7-4.95-4.7c-.19-.18-.41-.32-.66-.42-.25-.09-.51-.14-.77-.13-.26,0-.52.07-.76.17-.24.11-.46.26-.64.45-.18.19-.32.41-.42.66-.09.25-.14.51-.13.77,0,.26.07.52.17.76.11.24.26.46.45.64l6.33,6c.37.35.86.55,1.37.55.51,0,1-.19,1.37-.54l11.68-11c.39-.36.61-.87.63-1.4.02-.53-.18-1.04-.54-1.43-.36-.39-.87-.61-1.4-.63ZM12,0c-.53,0-1.04.21-1.41.59-.38.38-.59.88-.59,1.41v2h-6C1.81,4,0,5.81,0,8v40c0,2.19,1.81,4,4,4h40c2.19,0,4-1.81,4-4V8c0-2.19-1.81-4-4-4h-6v-2c0-.53-.21-1.04-.59-1.41-.38-.38-.88-.59-1.41-.59s-1.04.21-1.41.59c-.37.38-.59.88-.59,1.41v2H14v-2c0-.53-.21-1.04-.59-1.41-.38-.38-.88-.59-1.41-.59ZM4,8h6v2c0,.53.21,1.04.59,1.41.38.38.88.59,1.41.59s1.04-.21,1.41-.59c.38-.38.59-.88.59-1.41v-2h20v2c0,.53.21,1.04.59,1.41.38.38.88.59,1.41.59s1.04-.21,1.41-.59c.37-.38.59-.88.59-1.41v-2h6v8H4v-8ZM4,20h40v28H4v-28Z"/>
  </g>
</svg>