<?xml version="1.0" encoding="UTF-8"?>
<svg id="Layer_2" data-name="Layer 2" xmlns="http://www.w3.org/2000/svg" viewBox="0 0 48 48">
  <defs>
    <style>
      .cls-1 {
        fill: #010101;
        fill-rule: evenodd;
      }
    </style>
  </defs>
  <g id="Layer_1-2" data-name="Layer 1">
    <path class="cls-1" d="M42.03,0H6C2.69,0,0,2.69,0,6v36c0,3.31,2.69,6,6,6h36.02c3.3-.02,5.97-2.7,5.97-6V6c0-3.3-2.67-5.98-5.97-6ZM10,6h8c2.21,0,4,1.79,4,4v28c0,2.21-1.79,4-4,4h-8c-2.21,0-4-1.79-4-4V10c0-2.21,1.79-4,4-4ZM38,6h-8c-2.21,0-4,1.79-4,4v14c0,2.21,1.79,4,4,4h8c2.21,0,4-1.79,4-4v-14c0-2.21-1.79-4-4-4Z"/>
  </g>
</svg>