<?xml version="1.0" encoding="UTF-8"?>
<svg id="Layer_2" data-name="Layer 2" xmlns="http://www.w3.org/2000/svg" viewBox="0 0 52 52">
  <defs>
    <style>
      .cls-1 {
        fill: #010101;
      }
    </style>
  </defs>
  <g id="Layer_1-2" data-name="Layer 1">
    <path class="cls-1" d="M30.91,10.22c.8.41,1.22,1.29,1.05,2.17l-1.67,8.33,6.41,2.4c.63.23,1.09.77,1.24,1.42.15.65-.03,1.33-.49,1.82l-14,15c-.61.65-1.58.82-2.38.41-.8-.41-1.22-1.3-1.05-2.17l1.67-8.33-6.41-2.4c-.63-.23-1.09-.77-1.24-1.42-.15-.65.03-1.33.48-1.82l14-15c.61-.65,1.58-.82,2.38-.41ZM19.5,26.18l5.2,1.95c.92.34,1.45,1.3,1.26,2.26l-.62,3.1,7.15-7.67-5.2-1.95c-.92-.34-1.45-1.3-1.26-2.26l.62-3.1-7.15,7.67ZM0,26C0,11.64,11.64,0,26,0s26,11.64,26,26-11.64,26-26,26S0,40.36,0,26ZM26,4C13.85,4,4,13.85,4,26s9.85,22,22,22,22-9.85,22-22S38.15,4,26,4Z"/>
  </g>
</svg>