<?xml version="1.0" encoding="UTF-8"?>
<svg id="Layer_2" data-name="Layer 2" xmlns="http://www.w3.org/2000/svg" viewBox="0 0 52 52">
  <defs>
    <style>
      .cls-1 {
        fill: #010101;
      }
    </style>
  </defs>
  <g id="Layer_1-2" data-name="Layer 1">
    <path class="cls-1" d="M38,0c-5.5,0-10,4.5-10,10,0,2.93,1.31,5.56,3.34,7.39-1.98.85-3.8,2.05-5.34,3.59-1.29-1.28-2.76-2.37-4.4-3.19,0,0,0,0,0,0-7.34-3.67-16.28-1.56-21.2,5-.16.21-.27.45-.34.7-.07.25-.08.52-.04.78.04.26.13.51.26.74.13.23.31.42.52.58.21.16.45.27.7.34.25.07.52.08.78.04.26-.04.51-.13.74-.26.23-.13.42-.31.58-.52,3.78-5.04,10.58-6.64,16.21-3.83,1.81.9,3.37,2.21,4.59,3.83.08.06.16.11.25.15.04.09.09.17.15.25.16.06.32.1.49.12.22.1.47.17.71.18.25-.02.49-.08.71-.18.17-.02.33-.06.49-.12.14-.11.27-.24.37-.38,0,0,.02-.01.03-.02,2.46-3.27,6.31-5.2,10.4-5.2,4.09,0,7.94,1.93,10.4,5.2.16.21.36.39.58.52.23.13.48.22.74.26.26.04.52.02.78-.04.25-.07.49-.18.7-.34.21-.16.39-.36.52-.58.13-.23.22-.48.26-.74.04-.26.02-.52-.04-.78-.07-.25-.18-.49-.34-.7-1.81-2.42-4.23-4.25-6.94-5.41,2.03-1.83,3.34-4.46,3.34-7.39,0-5.5-4.5-10-10-10ZM38,4c3.34,0,6,2.66,6,6s-2.66,6-6,6-6-2.66-6-6,2.66-6,6-6ZM38,26c-5.5,0-10,4.5-10,10,0,2.93,1.31,5.56,3.34,7.39-2.71,1.16-5.12,2.99-6.94,5.41-.16.21-.27.45-.34.7-.07.25-.08.52-.04.78.04.26.13.51.26.74.13.23.31.42.52.58.21.16.45.27.7.34s.52.08.78.04c.26-.04.51-.12.74-.26.23-.13.42-.31.58-.52,2.46-3.27,6.31-5.2,10.4-5.2,4.09,0,7.94,1.93,10.4,5.2.16.21.36.39.58.52.23.13.48.22.74.26.26.04.52.02.78-.04.25-.07.49-.18.7-.34.21-.16.39-.35.52-.58.13-.23.22-.48.26-.74.04-.26.02-.52-.04-.78-.07-.25-.18-.49-.34-.7-1.81-2.42-4.23-4.25-6.94-5.41,2.03-1.83,3.34-4.46,3.34-7.39,0-5.5-4.5-10-10-10ZM38,30c3.34,0,6,2.66,6,6s-2.66,6-6,6-6-2.66-6-6,2.66-6,6-6ZM14,0C8.5,0,4,4.5,4,10s4.5,10,10,10,10-4.5,10-10S19.5,0,14,0ZM14,4c3.34,0,6,2.66,6,6s-2.66,6-6,6-6-2.66-6-6,2.66-6,6-6ZM14,26c-5.5,0-10,4.5-10,10s4.5,10,10,10,10-4.5,10-10-4.5-10-10-10ZM14.43,42.01c-5.36-.13-10.64,2.28-14.03,6.79-.16.21-.27.45-.34.7-.07.25-.08.52-.04.78.04.26.13.51.26.74.13.23.31.42.52.58.21.16.45.27.7.34.25.07.52.08.78.04.26-.04.51-.12.74-.26.23-.13.42-.31.58-.52,3.78-5.04,10.58-6.64,16.21-3.83,1.81.9,3.37,2.21,4.59,3.83.16.21.36.39.58.52.23.13.48.22.74.26.26.04.52.02.78-.04.25-.07.49-.18.7-.34.21-.16.39-.35.52-.58.13-.23.22-.48.26-.74.04-.26.02-.52-.04-.78-.07-.25-.18-.49-.34-.7-1.58-2.11-3.64-3.82-6-5.01-2.29-1.15-4.74-1.73-7.18-1.79ZM14,30c3.34,0,6,2.66,6,6s-2.66,6-6,6-6-2.66-6-6,2.66-6,6-6Z"/>
  </g>
</svg>