<?xml version="1.0" encoding="UTF-8"?>
<svg id="Layer_2" data-name="Layer 2" xmlns="http://www.w3.org/2000/svg" viewBox="0 0 48 52">
  <defs>
    <style>
      .cls-1 {
        fill: #010101;
      }
    </style>
  </defs>
  <g id="Layer_1-2" data-name="Layer 1">
    <path class="cls-1" d="M12,0c-.53,0-1.04.21-1.41.59-.38.38-.59.88-.59,1.41v2h-6C1.81,4,0,5.81,0,8v40c0,2.19,1.81,4,4,4h40c2.19,0,4-1.81,4-4V8c0-2.19-1.81-4-4-4h-6v-2c0-.53-.21-1.04-.59-1.41-.38-.38-.88-.59-1.41-.59s-1.04.21-1.41.59c-.37.38-.59.88-.59,1.41v2H14v-2c0-.53-.21-1.04-.59-1.41-.38-.38-.88-.59-1.41-.59ZM4,8h6v2c0,.53.21,1.04.59,1.41.38.38.88.59,1.41.59s1.04-.21,1.41-.59c.38-.38.59-.88.59-1.41v-2h20v2c0,.53.21,1.04.59,1.41.38.38.88.59,1.41.59s1.04-.21,1.41-.59c.37-.38.59-.88.59-1.41v-2h6v8H4v-8ZM4,20h40v28H4v-28Z"/>
  </g>
</svg>