<?xml version="1.0" encoding="UTF-8"?>
<svg id="Layer_2" data-name="Layer 2" xmlns="http://www.w3.org/2000/svg" viewBox="0 0 20 28">
  <defs>
    <style>
      .cls-1 {
        fill: #010101;
      }
    </style>
  </defs>
  <g id="Layer_1-2" data-name="Layer 1">
    <path class="cls-1" d="M14.07.2c.81.39,1.26,1.28,1.1,2.17l-1.3,6.96,4.88,1.96c.6.24,1.05.76,1.2,1.39.15.63-.01,1.29-.44,1.78l-11.2,12.86c-.59.68-1.57.88-2.38.49-.81-.39-1.26-1.28-1.1-2.17l1.3-6.96-4.88-1.96c-.6-.24-1.05-.76-1.2-1.39-.15-.63.01-1.29.44-1.78L11.69.69C12.28,0,13.26-.19,14.07.2ZM5.36,14.05l3.79,1.52c.88.36,1.4,1.29,1.22,2.22l-.25,1.36,4.53-5.2-3.79-1.52c-.88-.36-1.4-1.29-1.22-2.22l.25-1.36-4.53,5.2Z"/>
  </g>
</svg>