<?xml version="1.0" encoding="UTF-8"?>
<svg id="Layer_2" data-name="Layer 2" xmlns="http://www.w3.org/2000/svg" viewBox="0 0 44 44">
  <defs>
    <style>
      .cls-1 {
        fill: #010101;
      }
    </style>
  </defs>
  <g id="Layer_1-2" data-name="Layer 1">
    <path class="cls-1" d="M30,0c-.53,0-1.04.21-1.41.59-.38.38-.59.88-.59,1.41s.21,1.04.59,1.41c.38.38.88.59,1.41.59h7.17l-10.59,10.59c-.37.38-.59.88-.59,1.41s.21,1.04.59,1.41c.38.37.88.59,1.41.59s1.04-.21,1.41-.59l10.59-10.59v7.17c0,.53.21,1.04.59,1.41.38.38.88.59,1.41.59s1.04-.21,1.41-.59c.37-.38.59-.88.59-1.41V2s-.02-.04-.02-.06c0-.51-.21-.99-.56-1.35-.37-.38-.88-.59-1.41-.59h-12ZM16,26c-.53,0-1.04.21-1.41.59l-10.59,10.59v-7.17c0-.53-.21-1.04-.59-1.41-.38-.38-.88-.59-1.41-.59s-1.04.21-1.41.59c-.38.38-.59.88-.59,1.41v12c0,.53.21,1.04.59,1.41.38.38.88.59,1.41.59h12c.53,0,1.04-.21,1.41-.59.38-.38.59-.88.59-1.41s-.21-1.04-.59-1.41c-.38-.37-.88-.59-1.41-.59h-7.17l10.59-10.59c.37-.38.59-.88.59-1.41s-.21-1.04-.59-1.41c-.38-.38-.88-.59-1.41-.59Z"/>
  </g>
</svg>