<?xml version="1.0" encoding="UTF-8"?>
<svg id="Layer_2" data-name="Layer 2" xmlns="http://www.w3.org/2000/svg" viewBox="0 0 52 57.42">
  <defs>
    <style>
      .cls-1 {
        fill: #010101;
      }
    </style>
  </defs>
  <g id="Layer_1-2" data-name="Layer 1">
    <path class="cls-1" d="M26,0c-.68,0-1.37.18-1.98.53L2.04,12.89s0,0,0,0C.79,13.61,0,14.94,0,16.37h0v24.66h0c0,1.45.79,2.78,2.04,3.49,0,0,0,0,0,0l21.98,12.36c1.22.7,2.73.7,3.95,0l21.98-12.36s0,0,0,0c1.25-.71,2.03-2.04,2.04-3.48h0v-24.66h0c0-1.45-.79-2.78-2.04-3.49,0,0,0,0,0,0L27.98.53c-.61-.35-1.29-.53-1.98-.53ZM50.26,13.43c-.51-.14-1.06-.07-1.52.19l-22.52,12.79L3.25,13.61c-.23-.13-.48-.21-.74-.24-.26-.03-.53,0-.78.06-.25.07-.49.19-.69.36-.21.16-.38.37-.51.59-.13.23-.21.48-.24.74-.03.26,0,.53.06.78.07.25.19.49.36.69s.37.38.59.51l22.91,12.77-.22,25.51c0,.53.2,1.04.57,1.42.37.38.88.59,1.41.6.26,0,.52-.05.77-.15s.47-.24.65-.43c.19-.18.34-.4.44-.65.1-.24.16-.5.16-.76l.22-25.55,22.5-12.78c.23-.13.43-.3.59-.51.16-.21.28-.44.35-.7.07-.25.09-.52.06-.78-.03-.26-.12-.51-.25-.74-.13-.23-.3-.43-.51-.59-.21-.16-.44-.28-.7-.35ZM26,4.01l21.99,12.37s.01,0,.01.02v24.63s0,.02-.01.02l-21.99,12.37-21.99-12.37s-.01,0-.01-.02v-24.63s0-.02.01-.02L26,4.01Z"/>
  </g>
</svg>