<?xml version="1.0" encoding="UTF-8"?>
<svg id="Layer_2" data-name="Layer 2" xmlns="http://www.w3.org/2000/svg" viewBox="0 0 42 32.38">
  <defs>
    <style>
      .cls-1 {
        fill: #010101;
        fill-rule: evenodd;
      }
    </style>
  </defs>
  <g id="Layer_1-2" data-name="Layer 1">
    <path class="cls-1" d="M7.88,0c.66,0,1.27.37,1.57.97l6.12,12.25c.43.86.08,1.92-.78,2.35-.86.43-1.92.08-2.35-.78l-1.33-2.66h-6.46l-1.33,2.66c-.43.86-1.48,1.21-2.35.78-.86-.43-1.21-1.48-.78-2.35L6.31.97c.3-.59.9-.97,1.57-.97ZM6.39,8.63h2.96l-1.48-2.96-1.48,2.96ZM19.25,2.62c-.97,0-1.75.78-1.75,1.75s.78,1.75,1.75,1.75h21c.97,0,1.75-.78,1.75-1.75s-.78-1.75-1.75-1.75h-21ZM21,13.12c0-.97.78-1.75,1.75-1.75h10.5c.97,0,1.75.78,1.75,1.75s-.78,1.75-1.75,1.75h-10.5c-.97,0-1.75-.78-1.75-1.75ZM0,21.88c0-.97.78-1.75,1.75-1.75h24.6c.97,0,1.75.78,1.75,1.75s-.78,1.75-1.75,1.75H1.75C.78,23.62,0,22.84,0,21.88ZM0,30.62c0-.97.78-1.75,1.75-1.75h13.44c.97,0,1.75.78,1.75,1.75s-.78,1.75-1.75,1.75H1.75C.78,32.38,0,31.59,0,30.62Z"/>
  </g>
</svg>