<?xml version="1.0" encoding="UTF-8"?>
<svg id="Layer_2" data-name="Layer 2" xmlns="http://www.w3.org/2000/svg" viewBox="0 0 43.99 51.93">
  <defs>
    <style>
      .cls-1 {
        fill: #010101;
      }
    </style>
  </defs>
  <g id="Layer_1-2" data-name="Layer 1">
    <path class="cls-1" d="M4.06,0C1.98.02,0,1.7,0,3.97c0,0,0,0,0,0v44s0,0,0,0c0,3.02,3.52,4.99,6.1,3.4l35.94-21.98c1.21-.71,1.95-2.02,1.95-3.42,0-1.4-.74-2.71-1.95-3.42L6.1.57C5.46.17,4.75,0,4.06,0ZM4,3.97s0,0,0,0l35.97,21.99L4.01,47.96s0,0,0,0c0,0,0,0,0,0,0,.1-.08.05,0,0V3.97Z"/>
  </g>
</svg>