<?xml version="1.0" encoding="UTF-8"?>
<svg id="Layer_2" data-name="Layer 2" xmlns="http://www.w3.org/2000/svg" viewBox="0 0 50.82 48.91">
  <defs>
    <style>
      .cls-1 {
        fill: #010101;
      }
    </style>
  </defs>
  <g id="Layer_1-2" data-name="Layer 1">
    <path class="cls-1" d="M36.16,0c-.27.02-.53.06-.8.13l-7.76,2.08s0,0,0,0c-2.12.57-3.41,2.8-2.84,4.92,0,0,0,0,0,0l10.4,38.8c.57,2.12,2.8,3.41,4.92,2.84l7.76-2.08c2.12-.57,3.41-2.8,2.84-4.92L40.28,2.97c-.5-1.85-2.27-3.07-4.12-2.97ZM39.68,9.3l-11.6,3.1c-.51.14-.95.47-1.21.93-.27.46-.34,1-.2,1.52.14.51.47.95.93,1.22.46.27,1,.34,1.52.2l11.6-3.1c.25-.07.49-.18.7-.34.21-.16.38-.36.52-.59.13-.23.22-.48.25-.74.03-.26.02-.53-.05-.78-.07-.25-.19-.49-.34-.7-.16-.21-.36-.38-.59-.51-.23-.13-.48-.22-.74-.25-.26-.03-.53-.02-.78.05ZM45.88,32.47l-11.6,3.13c-.51.14-.95.47-1.21.93-.26.46-.34,1.01-.2,1.52.14.51.47.95.93,1.21.46.26,1.01.34,1.52.2l11.6-3.12c.25-.07.49-.19.7-.35.21-.16.38-.36.51-.59.13-.23.22-.48.25-.74.03-.26.02-.53-.05-.78s-.19-.49-.35-.7c-.16-.21-.36-.38-.59-.51-.23-.13-.48-.22-.74-.25-.26-.03-.53-.02-.78.05ZM36.4,4.01l10.4,38.8-7.76,2.08L28.64,6.09l7.76-2.08ZM4,.73C1.81.73,0,2.54,0,4.73v40c0,2.19,1.81,4,4,4h8c.73,0,1.41-.22,2-.57.59.35,1.27.57,2,.57h8c2.19,0,4-1.81,4-4V4.73c0-2.19-1.81-4-4-4h-8c-.73,0-1.41.22-2,.57-.59-.35-1.27-.57-2-.57H4ZM4,4.73h8v6H4v-6ZM16,4.73h8v30h-8V4.73ZM4,14.73h8v30H4V14.73ZM16,38.73h8v6h-8v-6Z"/>
  </g>
</svg>