<?xml version="1.0" encoding="UTF-8"?>
<svg id="Layer_2" data-name="Layer 2" xmlns="http://www.w3.org/2000/svg" viewBox="0 0 48 44">
  <defs>
    <style>
      .cls-1 {
        fill: #010101;
      }
    </style>
  </defs>
  <g id="Layer_1-2" data-name="Layer 1">
    <path class="cls-1" d="M24,0c-4.25,0-7.99,1.22-10.73,3.35-2.74,2.12-4.49,5.22-4.49,8.64,0,.89.12,1.77.39,2.62.08.25.21.48.38.68.17.2.38.37.61.49.23.12.49.19.75.22.26.02.53,0,.78-.09.51-.16.93-.52,1.17-.99.24-.47.29-1.02.13-1.53-.14-.44-.21-.9-.21-1.37v-.02c0-2.1,1-3.99,2.94-5.49,1.94-1.5,4.81-2.51,8.29-2.51,5.36,0,9.2,2.39,10.57,5.25.11.24.27.45.47.62.2.17.42.31.67.4.25.09.51.12.77.11.26-.02.52-.08.76-.2.48-.23.84-.64,1.02-1.14.17-.5.14-1.05-.09-1.53-2.22-4.6-7.63-7.5-14.18-7.5ZM2,20c-.53,0-1.04.21-1.41.59-.38.38-.59.88-.59,1.41s.21,1.04.59,1.41c.38.38.88.59,1.41.59h24.27c2.83.84,5.4,1.8,7.09,3.04,1.74,1.28,2.63,2.59,2.63,4.96,0,2.01-1.12,3.91-3.27,5.44-2.14,1.53-5.26,2.56-8.73,2.56s-6.59-1.03-8.73-2.56c-2.14-1.53-3.27-3.44-3.27-5.44,0-.53-.21-1.04-.59-1.41-.38-.37-.88-.59-1.41-.59s-1.04.21-1.41.59c-.38.38-.59.88-.59,1.41,0,3.52,2.02,6.61,4.94,8.7,2.93,2.09,6.81,3.3,11.06,3.3s8.13-1.21,11.06-3.3c2.93-2.09,4.94-5.18,4.94-8.7s-1.72-6.2-4.06-8h10.06c.53,0,1.04-.21,1.41-.59.37-.38.59-.88.59-1.41s-.21-1.04-.59-1.41c-.38-.38-.88-.59-1.41-.59H2Z"/>
  </g>
</svg>