<?xml version="1.0" encoding="UTF-8"?>
<svg id="Layer_2" data-name="Layer 2" xmlns="http://www.w3.org/2000/svg" viewBox="0 0 44 60">
  <defs>
    <style>
      .cls-1 {
        fill: #010101;
      }
    </style>
  </defs>
  <g id="Layer_1-2" data-name="Layer 1">
    <path class="cls-1" d="M29.66.03c-.43.07-.82.29-1.12.6L.54,30.63c-.22.24-.39.53-.47.85-.08.32-.09.65-.01.97s.23.62.45.86c.22.25.49.44.8.55l14.41,5.4-3.67,18.33c-.09.43-.03.87.16,1.26.19.39.5.71.89.91.39.2.83.27,1.26.19.43-.07.82-.29,1.12-.6l28-30c.22-.24.39-.53.47-.85.08-.32.09-.65.01-.97-.08-.32-.23-.62-.45-.86-.22-.25-.49-.44-.8-.55l-14.41-5.4,3.67-18.33c.06-.32.05-.65-.04-.96-.09-.31-.26-.6-.49-.83-.23-.23-.51-.41-.82-.51-.31-.1-.64-.12-.96-.07ZM26.66,8.51l-2.62,13.1c-.09.47-.02.95.21,1.36.23.41.6.73,1.05.9l13.2,4.95-21.16,22.67,2.62-13.1c.09-.47.02-.95-.21-1.36-.23-.41-.6-.73-1.05-.9l-13.2-4.95L26.66,8.51Z"/>
  </g>
</svg>