<?xml version="1.0" encoding="UTF-8"?>
<svg id="Layer_2" data-name="Layer 2" xmlns="http://www.w3.org/2000/svg" viewBox="0 0 48 55.42">
  <defs>
    <style>
      .cls-1 {
        fill: #010101;
        fill-rule: evenodd;
      }
    </style>
  </defs>
  <g id="Layer_1-2" data-name="Layer 1">
    <path class="cls-1" d="M0,15c0-1.78,1.16-3.28,2.76-3.84C10.21,8.57,18.53,2.95,21.63.75c1.42-1.01,3.32-1.01,4.74,0,3.1,2.2,11.42,7.82,18.87,10.41,1.6.55,2.76,2.06,2.76,3.84v10.51h-.02c-.73,21.34-19.05,28.48-22.7,29.69-.83.3-1.73.3-2.56,0C19.07,53.98.75,46.85.02,25.51h-.02v-10.51ZM23.95,4.02s.03-.02.05-.02.04,0,.05.02c3.11,2.21,11.84,8.13,19.88,10.92.03.01.05.03.06.04,0,0,0,.01,0,.01v9.19c0,19.57-16.55,26.08-20,27.23-3.45-1.14-20-7.66-20-27.23v-9.19s0,0,0-.01c.01-.01.03-.03.06-.04,8.04-2.79,16.77-8.72,19.88-10.92Z"/>
  </g>
</svg>