<?xml version="1.0" encoding="UTF-8"?>
<svg id="Layer_2" data-name="Layer 2" xmlns="http://www.w3.org/2000/svg" viewBox="0 0 39.8 56">
  <defs>
    <style>
      .cls-1 {
        fill: #010101;
      }
    </style>
  </defs>
  <g id="Layer_1-2" data-name="Layer 1">
    <path class="cls-1" d="M1.76,28.01c-.26.03-.51.11-.74.24-.23.13-.43.3-.59.51-.16.21-.28.44-.35.7-.07.25-.09.52-.06.78.58,4.87,2.92,9.36,6.58,12.61,5.57,4.95,13.45,6.4,20.42,3.75,6.97-2.65,11.89-8.96,12.77-16.36.06-.53-.09-1.06-.42-1.47-.33-.42-.81-.69-1.34-.75-.26-.03-.53-.01-.78.06s-.49.19-.7.35c-.21.16-.38.36-.51.59-.13.23-.21.48-.24.74-.7,5.93-4.64,10.97-10.22,13.1-5.58,2.12-11.87.97-16.34-3-2.93-2.61-4.81-6.2-5.27-10.1-.06-.53-.33-1.01-.75-1.34-.42-.33-.95-.48-1.47-.42ZM19.9,44c-.53,0-1.04.21-1.41.59-.38.38-.59.88-.59,1.41v8c0,.53.21,1.04.59,1.41.38.37.88.59,1.41.59s1.04-.21,1.41-.59c.38-.38.59-.88.59-1.41v-8c0-.53-.21-1.04-.59-1.41-.38-.37-.88-.59-1.41-.59ZM19.9,0C13.3,0,7.9,5.4,7.9,12v16c0,6.6,5.4,12,12,12s12-5.4,12-12V12c0-6.6-5.4-12-12-12ZM19.9,4c4.44,0,8,3.56,8,8v16c0,4.44-3.56,8-8,8s-8-3.56-8-8V12c0-4.44,3.56-8,8-8Z"/>
  </g>
</svg>