<?xml version="1.0" encoding="UTF-8"?>
<svg id="Layer_2" data-name="Layer 2" xmlns="http://www.w3.org/2000/svg" viewBox="0 0 61.85 47">
  <defs>
    <style>
      .cls-1 {
        fill: #010101;
        fill-rule: evenodd;
      }
    </style>
  </defs>
  <g id="Layer_1-2" data-name="Layer 1">
    <path class="cls-1" d="M8.18,21.37c1.8-.9,3.8-1.37,5.81-1.37.07,0,.14,0,.2,0,.07,0,.14-.02.21-.03.91-.19,1.59-1,1.59-1.96,0-1.1-.9-2-2-2-1.14,0-2.25-.32-3.22-.93-.96-.61-1.73-1.48-2.22-2.51-.49-1.03-.67-2.18-.53-3.31.14-1.13.6-2.2,1.33-3.07s1.69-1.53,2.77-1.88c1.08-.35,2.24-.39,3.35-.11,1.1.28,2.1.87,2.88,1.7.78.83,1.31,1.86,1.52,2.98.21,1.08,1.25,1.8,2.34,1.59,1.08-.21,1.8-1.25,1.59-2.34-.36-1.86-1.23-3.59-2.53-4.97-1.3-1.38-2.97-2.37-4.8-2.84-1.84-.47-3.77-.41-5.58.18-1.8.59-3.41,1.68-4.61,3.14-1.21,1.46-1.98,3.24-2.21,5.12-.24,1.88.07,3.79.88,5.51.56,1.19,1.35,2.25,2.31,3.12-.29.13-.58.26-.86.4-2.36,1.18-4.42,2.9-6,5.01-.66.88-.48,2.14.4,2.8.88.66,2.14.48,2.8-.4,1.21-1.62,2.78-2.93,4.58-3.83ZM46.37,4.19c1.1-.28,2.26-.25,3.35.11,1.08.35,2.04,1.01,2.77,1.88.73.88,1.19,1.94,1.33,3.07.14,1.13-.04,2.28-.53,3.31s-1.25,1.9-2.22,2.51c-.96.61-2.08.93-3.22.93-.28,0-.54.06-.78.16-.52.22-.93.65-1.11,1.19-.07.21-.11.43-.11.66,0,1.1.9,2,2,2,2.02,0,4.01.46,5.81,1.37,1.8.9,3.37,2.21,4.58,3.83.66.88,1.91,1.07,2.8.4.88-.66,1.07-1.91.4-2.8-1.58-2.12-3.63-3.83-6-5.01-.28-.14-.57-.27-.86-.4.96-.88,1.75-1.94,2.31-3.12.81-1.72,1.11-3.63.88-5.51-.24-1.88-1-3.66-2.21-5.12-1.21-1.46-2.81-2.55-4.61-3.14-1.8-.59-3.74-.65-5.58-.18-1.84.47-3.51,1.46-4.8,2.84-1.3,1.38-2.18,3.11-2.53,4.97-.21,1.08.5,2.13,1.59,2.34,1.08.21,2.13-.5,2.34-1.59.21-1.12.74-2.15,1.52-2.98.78-.83,1.78-1.42,2.88-1.7ZM20.85,21.67v3.33h-2c-2.21,0-4,1.79-4,4v14c0,2.21,1.79,4,4,4h24c2.21,0,4-1.79,4-4v-14c0-2.21-1.79-4-4-4h-2v-3.33c0-2.43-1.16-4.67-3.06-6.25-1.89-1.58-4.39-2.42-6.94-2.42s-5.05.84-6.94,2.42c-1.9,1.59-3.06,3.82-3.06,6.25ZM30.85,17c-1.7,0-3.27.57-4.38,1.49-1.1.92-1.62,2.07-1.62,3.18v3.33h12v-3.33c0-1.11-.53-2.26-1.62-3.18-1.11-.92-2.68-1.49-4.38-1.49ZM18.85,43v-14h24v14h-24Z"/>
  </g>
</svg>