<?xml version="1.0" encoding="UTF-8"?>
<svg id="Layer_2" data-name="Layer 2" xmlns="http://www.w3.org/2000/svg" viewBox="0 0 56 38">
  <defs>
    <style>
      .cls-1 {
        fill: #010101;
      }
    </style>
  </defs>
  <g id="Layer_1-2" data-name="Layer 1">
    <path class="cls-1" d="M28,0h-.01s-.06,0-.09,0C15.12.05,4.41,8.8,1.09,20.57c-.05.06-.1.12-.15.19,0,.09.02.17.03.25-.62,2.33-.98,4.75-.98,7.26v5.72c0,2.19,1.81,4,4,4h48c2.19,0,4-1.81,4-4v-6c0-2.41-.34-4.74-.92-6.98,0-.09-.01-.18-.03-.27-.02-.03-.04-.05-.06-.08C51.77,8.8,40.92.03,28.05,0c-.02,0-.03,0-.05,0ZM30,4.1c9.54.78,17.46,7.12,20.57,15.79l-5.71,1.53c-.25.07-.49.19-.7.34-.21.16-.38.36-.51.59-.13.23-.22.48-.25.74-.03.26-.02.53.05.78.14.51.47.95.93,1.21.46.27,1.01.34,1.52.2l5.71-1.53c.25,1.38.4,2.79.4,4.25v6h-26.09l14.63-19.06c.32-.42.47-.95.4-1.48-.07-.53-.34-1-.77-1.33s-.95-.47-1.48-.4c-.53.07-1,.34-1.33.77l-16.5,21.49H4v-5.72c0-1.54.16-3.05.43-4.51l5.68,1.52c.51.14,1.06.07,1.52-.2.46-.27.79-.7.93-1.21.07-.25.09-.52.05-.78-.03-.26-.12-.51-.25-.74-.13-.23-.31-.43-.51-.59-.21-.16-.45-.28-.7-.34l-5.64-1.51c3.15-8.65,11.02-15.01,20.5-15.8v5.9c0,.53.21,1.04.59,1.41.38.38.88.59,1.41.59s1.04-.21,1.41-.59c.38-.38.59-.88.59-1.41v-5.9Z"/>
  </g>
</svg>