<?xml version="1.0" encoding="UTF-8"?>
<svg id="Layer_2" data-name="Layer 2" xmlns="http://www.w3.org/2000/svg" viewBox="0 0 52 52">
  <defs>
    <style>
      .cls-1 {
        fill: #010101;
      }
    </style>
  </defs>
  <g id="Layer_1-2" data-name="Layer 1">
    <path class="cls-1" d="M37.05,18c-.53-.01-1.04.19-1.43.55l-13.29,12.68-5.94-5.68c-.38-.37-.9-.57-1.43-.55-.53.01-1.03.23-1.4.62-.37.38-.57.9-.55,1.43.01.53.23,1.03.62,1.4l7.33,7c.37.36.87.55,1.38.55.51,0,1.01-.2,1.38-.55l14.67-14c.19-.18.34-.4.45-.64.11-.24.16-.5.17-.76,0-.26-.04-.52-.13-.77-.09-.24-.24-.47-.42-.66-.18-.19-.4-.34-.64-.45-.24-.11-.5-.16-.76-.17ZM26,0C11.66,0,0,11.66,0,26s11.66,26,26,26,26-11.66,26-26S40.34,0,26,0ZM26,4c12.17,0,22,9.83,22,22s-9.83,22-22,22S4,38.17,4,26,13.83,4,26,4Z"/>
  </g>
</svg>