<?xml version="1.0" encoding="UTF-8"?>
<svg id="Layer_2" data-name="Layer 2" xmlns="http://www.w3.org/2000/svg" viewBox="0 0 30.01 30">
  <defs>
    <style>
      .cls-1 {
        fill: #aa2284;
        fill-rule: evenodd;
      }
    </style>
  </defs>
  <g id="Layer_1-2" data-name="Layer 1">
    <path class="cls-1" d="M12.68,1.88c.27-1.28,1.53-2.1,2.81-1.83.92.19,1.63.91,1.83,1.83h0s.24,1.11.24,1.11c1.01,4.74,4.71,8.44,9.45,9.45l1.12.24c1.28.27,2.1,1.53,1.83,2.81-.19.92-.91,1.63-1.83,1.83h-.01l-1.1.24c-4.73,1.02-8.43,4.71-9.45,9.45l-.24,1.12c-.27,1.28-1.53,2.1-2.81,1.83-.92-.19-1.63-.91-1.83-1.83h0s-.24-1.12-.24-1.12c-1.02-4.73-4.71-8.43-9.45-9.45l-1.12-.24c-1.28-.27-2.1-1.53-1.83-2.81.19-.92.91-1.63,1.83-1.83h.01l1.1-.24c4.74-1.01,8.44-4.71,9.45-9.45l.24-1.12h0ZM15,7.76c-1.58,3.12-4.11,5.66-7.23,7.24,3.12,1.58,5.65,4.11,7.23,7.23,1.58-3.12,4.11-5.65,7.23-7.23-3.12-1.58-5.65-4.11-7.23-7.23h0Z"/>
  </g>
</svg>