<?xml version="1.0" encoding="UTF-8"?>
<svg id="Layer_2" data-name="Layer 2" xmlns="http://www.w3.org/2000/svg" viewBox="0 0 64 26">
  <defs>
    <style>
      .cls-1 {
        fill: #010101;
        fill-rule: evenodd;
      }
    </style>
  </defs>
  <g id="Layer_1-2" data-name="Layer 1">
    <path class="cls-1" d="M4,0c-1.1,0-2,.9-2,2s.9,2,2,2h16c1.1,0,2-.9,2-2s-.9-2-2-2H4ZM0,19c0-3.87,3.13-7,7-7h4c3.87,0,7,3.13,7,7s-3.13,7-7,7h-4c-3.87,0-7-3.13-7-7ZM7,16h4c1.66,0,3,1.34,3,3s-1.34,3-3,3h-4c-1.66,0-3-1.34-3-3s1.34-3,3-3ZM23,19c0-3.87,3.13-7,7-7h4c3.87,0,7,3.13,7,7s-3.13,7-7,7h-4c-3.87,0-7-3.13-7-7ZM30,16h4c1.66,0,3,1.34,3,3s-1.34,3-3,3h-4c-1.66,0-3-1.34-3-3s1.34-3,3-3ZM53,12c-3.87,0-7,3.13-7,7s3.13,7,7,7h4c3.87,0,7-3.13,7-7s-3.13-7-7-7h-4ZM57,16h-4c-1.66,0-3,1.34-3,3s1.34,3,3,3h4c1.66,0,3-1.34,3-3s-1.34-3-3-3Z"/>
  </g>
</svg>