<?xml version="1.0" encoding="UTF-8"?>
<svg id="Layer_2" data-name="Layer 2" xmlns="http://www.w3.org/2000/svg" viewBox="0 0 48 49.91">
  <defs>
    <style>
      .cls-1 {
        fill: #010101;
      }
    </style>
  </defs>
  <g id="Layer_1-2" data-name="Layer 1">
    <path class="cls-1" d="M35.05,14c-.53-.01-1.04.19-1.43.55l-13.29,12.68-5.94-5.68c-.38-.37-.9-.57-1.43-.55-.53.01-1.03.23-1.4.62-.37.38-.57.9-.55,1.43.01.53.23,1.03.62,1.4l7.33,7c.37.36.87.55,1.38.55.51,0,1.01-.2,1.38-.55l14.67-14c.19-.18.34-.4.45-.64.11-.24.16-.5.17-.76,0-.26-.04-.52-.13-.77-.09-.24-.24-.47-.42-.66-.18-.19-.4-.34-.64-.45-.24-.11-.5-.16-.76-.17ZM4,0C1.81,0,0,1.81,0,4v14.67c0,11.07,4.79,18.67,10,23.47,5.18,4.76,10.71,6.87,12.69,7.53.85.31,1.78.31,2.62,0,1.98-.66,7.51-2.77,12.69-7.53,5.21-4.8,10-12.4,10-23.47V4c0-2.19-1.81-4-4-4H4ZM4,4h40v14.67c0,9.93-4.12,16.3-8.71,20.53-4.58,4.22-9.68,6.17-11.29,6.7-1.61-.53-6.7-2.48-11.29-6.7-4.59-4.22-8.71-10.59-8.71-20.53V4Z"/>
  </g>
</svg>