<?xml version="1.0" encoding="UTF-8"?>
<svg id="Layer_2" data-name="Layer 2" xmlns="http://www.w3.org/2000/svg" viewBox="0 0 52 42">
  <defs>
    <style>
      .cls-1 {
        fill: #010101;
      }
    </style>
  </defs>
  <g id="Layer_1-2" data-name="Layer 1">
    <path class="cls-1" d="M4,0C1.81,0,0,1.81,0,4v10c0,.53.21,1.04.59,1.41.38.38.88.59,1.41.59h15.33c.86,0,1.7-.28,2.39-.79h0s7.48-5.6,7.48-5.6c.25-.19.45-.43.59-.71.14-.28.21-.58.21-.89s-.07-.62-.21-.89c-.14-.28-.34-.52-.59-.71L19.72.8h0c-.69-.52-1.53-.8-2.39-.8H4ZM4,4h13.33s5.33,4,5.33,4l-5.33,4h-.01s-13.32,0-13.32,0V4ZM26,6c-.53,0-1.04.21-1.41.59s-.59.88-.59,1.41.21,1.04.59,1.41c.38.38.88.59,1.41.59h22v28H4V14c0-.53-.21-1.04-.59-1.41-.38-.38-.88-.59-1.41-.59s-1.04.21-1.41.59c-.38.38-.59.88-.59,1.41v24c0,2.19,1.81,4,4,4h44c2.19,0,4-1.81,4-4V10c0-2.19-1.81-4-4-4h-22Z"/>
  </g>
</svg>