<?xml version="1.0" encoding="UTF-8"?>
<svg id="Layer_2" data-name="Layer 2" xmlns="http://www.w3.org/2000/svg" viewBox="0 0 54 48">
  <defs>
    <style>
      .cls-1 {
        fill: #010101;
      }
    </style>
  </defs>
  <g id="Layer_1-2" data-name="Layer 1">
    <path class="cls-1" d="M14.68,0c-.87.02-1.74.11-2.62.29C5.06,1.69,0,7.86,0,15c0,9.48,6.73,17.57,13.16,23.36,6.44,5.79,12.86,9.38,12.86,9.38.3.17.63.25.98.25s.68-.09.98-.25c0,0,6.42-3.59,12.86-9.38,6.44-5.79,13.16-13.88,13.16-23.36,0-7.14-5.06-13.31-12.06-14.71,0,0,0,0,0,0-5.78-1.16-11.55,1.23-14.94,5.8C24.12,2.22,19.54-.1,14.68,0ZM14.77,4c4.46-.1,8.62,2.52,10.39,6.77.15.36.41.68.74.89.33.22.71.34,1.11.34.39,0,.78-.12,1.11-.34.33-.22.58-.53.74-.89,2.02-4.85,7.16-7.59,12.31-6.56,5.15,1.03,8.84,5.53,8.84,10.79,0,7.52-5.77,14.93-11.84,20.39-4.64,4.18-9.24,7.12-11.16,8.29-1.92-1.17-6.52-4.11-11.16-8.29-6.06-5.46-11.84-12.87-11.84-20.39,0-5.26,3.69-9.76,8.84-10.79.64-.13,1.29-.2,1.93-.21Z"/>
  </g>
</svg>