<?xml version="1.0" encoding="UTF-8"?>
<svg id="Layer_2" data-name="Layer 2" xmlns="http://www.w3.org/2000/svg" viewBox="0 0 64.01 64">
  <defs>
    <style>
      .cls-1 {
        fill: #010101;
      }
    </style>
  </defs>
  <g id="Layer_1-2" data-name="Layer 1">
    <path class="cls-1" d="M36.89.03L1.04,6.83c-.61.12-1.04.67-1.04,1.28v47.77c0,.61.44,1.16,1.04,1.28l35.85,6.8c.08.01.16.04.24.04.29,0,.57-.09.8-.28.29-.24.48-.62.48-1V1.27c0-.38-.19-.76-.48-1-.29-.25-.67-.31-1.04-.24h0ZM46.93,8.95c-2.05,0-4.05.11-5.96.32v8.24c2.15.26,4.32.4,6.48.4,10.72,0,16.56-2.77,16.56-4.2v-.48c-.08-1.53-6.56-4.28-17.08-4.28ZM64.01,17.27c-3.49,2.12-10.05,3.2-16.56,3.2-2.23,0-4.43-.12-6.48-.36v10.6c2.05.25,4.25.36,6.48.36,10.72,0,16.56-2.77,16.56-4.2v-9.6ZM20.96,18.99c2.5,8.36,4.89,16.76,7.36,25.13-1.73-.12-3.45-.25-5.16-.4-.46-1.87-.94-3.74-1.44-5.6-2.29-.01-4.6-.09-6.88-.2-.44,1.77-.87,3.52-1.32,5.28-1.46-.12-2.95-.19-4.4-.28,2.18-7.86,4.48-15.71,6.64-23.56,1.74-.13,3.46-.23,5.2-.36ZM18.16,23.43c-.5,3.55-1.6,6.95-2.36,10.44,1.64.01,3.27.03,4.92.04-.85-3.49-1.89-6.95-2.56-10.48h0ZM64.01,30.43c-3.49,2.12-10.05,3.2-16.56,3.2-2.23,0-4.43-.12-6.48-.36v9.84c2.15.26,4.32.4,6.48.4,10.72,0,16.56-2.77,16.56-4.2v-8.88ZM64.01,42.87c-3.49,2.12-10.05,3.2-16.56,3.2-2.23,0-4.42-.12-6.48-.36v9c1.91.21,3.9.32,5.96.32,10.59,0,17.08-2.8,17.08-4.32v-7.84Z"/>
  </g>
</svg>