<?xml version="1.0" encoding="UTF-8"?>
<svg id="Layer_2" data-name="Layer 2" xmlns="http://www.w3.org/2000/svg" viewBox="0 0 52 40">
  <defs>
    <style>
      .cls-1 {
        fill: #010101;
      }
    </style>
  </defs>
  <g id="Layer_1-2" data-name="Layer 1">
    <path class="cls-1" d="M2,0C1.47,0,.96.21.59.59.21.96,0,1.47,0,2v34c0,2.19,1.81,4,4,4,0,0,0,0,0,0h44c2.19,0,4-1.81,4-4V2c0-.53-.21-1.04-.59-1.41-.37-.38-.88-.59-1.41-.59H2ZM4,4h44v8H4V4ZM4,16h10v8H4v-8ZM18,16h30v8h-30v-8ZM4,28h10v8H4v-8ZM18,28h30v8h-30v-8Z"/>
  </g>
</svg>