<?xml version="1.0" encoding="UTF-8"?>
<svg id="Layer_2" data-name="Layer 2" xmlns="http://www.w3.org/2000/svg" viewBox="0 0 52 52">
  <defs>
    <style>
      .cls-1 {
        fill: #010101;
      }
    </style>
  </defs>
  <g id="Layer_1-2" data-name="Layer 1">
    <path class="cls-1" d="M0,26C0,11.64,11.64,0,26,0s26,11.64,26,26-11.64,26-26,26S0,40.36,0,26ZM26,4c-5.35,0-10.26,1.91-14.08,5.09l8.56,8.56c1.58-1.05,3.48-1.66,5.51-1.66,5.52,0,10,4.48,10,10,0,2.04-.61,3.93-1.66,5.51l8.56,8.56c3.18-3.81,5.09-8.72,5.09-14.08,0-12.15-9.85-22-22-22ZM31.51,34.34c-1.58,1.05-3.48,1.66-5.51,1.66-3.15,0-5.96-1.46-7.79-3.73l-10,6.67c4,5.49,10.48,9.06,17.8,9.06,5.35,0,10.26-1.91,14.08-5.09l-8.56-8.56ZM16.36,28.69c-.24-.85-.36-1.76-.36-2.69,0-2.04.61-3.93,1.66-5.51l-8.56-8.56c-3.18,3.81-5.09,8.72-5.09,14.08,0,3.4.77,6.62,2.15,9.5l10.22-6.81ZM32,26c0,3.31-2.69,6-6,6s-6-2.69-6-6,2.69-6,6-6,6,2.69,6,6Z"/>
  </g>
</svg>