<?xml version="1.0" encoding="UTF-8"?>
<svg id="Layer_2" data-name="Layer 2" xmlns="http://www.w3.org/2000/svg" viewBox="0 0 52.98 28.98">
  <defs>
    <style>
      .cls-1 {
        fill: #010101;
      }
    </style>
  </defs>
  <g id="Layer_1-2" data-name="Layer 1">
    <path class="cls-1" d="M25.43.97c-3.16.07-6.35.72-9.38,1.97C6.34,6.97,0,16.46,0,26.98c0,.53.21,1.04.59,1.41.38.37.88.59,1.41.59.26,0,.52-.05.77-.15.24-.1.46-.25.65-.43.19-.19.33-.41.43-.65.1-.24.15-.5.15-.77,0-8.91,5.35-16.92,13.58-20.33,8.23-3.41,17.68-1.53,23.98,4.77,0,0,0,0,0,0l8,8c.19.19.41.33.65.43.24.1.5.15.77.15s.52-.05.77-.15c.24-.1.46-.25.65-.43.19-.19.33-.41.43-.65.1-.24.15-.5.15-.77s-.05-.52-.15-.77c-.1-.24-.25-.46-.43-.65l-8-8C39.28,3.47,32.39.82,25.43.97ZM50.98,0c-.53,0-1.04.21-1.41.59-.37.38-.59.88-.59,1.41v14h-14c-.53,0-1.04.21-1.41.59s-.59.88-.59,1.41.21,1.04.59,1.41.88.59,1.41.59h16c.53,0,1.04-.21,1.41-.59.38-.38.59-.88.59-1.41V2c0-.53-.21-1.04-.59-1.41-.37-.38-.88-.59-1.41-.59Z"/>
  </g>
</svg>