<?xml version="1.0" encoding="UTF-8"?>
<svg id="Layer_2" data-name="Layer 2" xmlns="http://www.w3.org/2000/svg" viewBox="0 0 60 26">
  <defs>
    <style>
      .cls-1 {
        fill: #010101;
      }
    </style>
  </defs>
  <g id="Layer_1-2" data-name="Layer 1">
    <path class="cls-1" d="M35,0c-.53,0-1.04.21-1.41.59L13,21.17,3.41,11.59c-.38-.37-.88-.59-1.41-.59s-1.04.21-1.41.59c-.37.38-.59.88-.59,1.41s.21,1.04.59,1.41l11,11c.38.37.88.59,1.41.59s1.04-.21,1.41-.59L36.41,3.41c.38-.38.59-.88.59-1.41s-.21-1.04-.59-1.41S35.53,0,35,0ZM58,0c-.53,0-1.04.21-1.41.59l-20.59,20.59-4.44-4.44c-.19-.19-.41-.33-.65-.43-.24-.1-.5-.15-.77-.15s-.52.05-.77.15c-.24.1-.46.25-.65.43-.19.19-.33.41-.43.65-.1.24-.15.5-.15.77s.05.52.15.77c.1.24.25.46.43.65l5.85,5.85c.38.37.88.59,1.41.59s1.04-.21,1.41-.59L59.41,3.41c.37-.38.59-.88.59-1.41s-.21-1.04-.59-1.41c-.38-.38-.88-.59-1.41-.59Z"/>
  </g>
</svg>