<?xml version="1.0" encoding="UTF-8"?>
<svg id="Layer_2" data-name="Layer 2" xmlns="http://www.w3.org/2000/svg" viewBox="0 0 60 45">
  <defs>
    <style>
      .cls-1 {
        fill: #010101;
      }
    </style>
  </defs>
  <g id="Layer_1-2" data-name="Layer 1">
    <path class="cls-1" d="M42,10c-7.71,0-14,6.29-14,14,0,5.55-4.45,10-10,10h-2c-.53,0-1.04.21-1.41.59-.38.38-.59.88-.59,1.41s.21,1.04.59,1.41c.38.37.88.59,1.41.59h2c7.71,0,14-6.29,14-14,0-5.55,4.45-10,10-10h16c.53,0,1.04-.21,1.41-.59.37-.38.59-.88.59-1.41s-.21-1.04-.59-1.41c-.38-.38-.88-.59-1.41-.59h-16ZM48,0c-.53,0-1.04.21-1.41.59-.38.38-.59.88-.59,1.41s.21,1.04.59,1.41l8.59,8.59-8.59,8.59c-.38.38-.59.88-.59,1.41s.21,1.04.59,1.41c.37.37.88.59,1.41.59s1.04-.21,1.41-.59l10-10c.37-.38.59-.88.59-1.41s-.21-1.04-.59-1.41L49.41.59c-.37-.38-.88-.59-1.41-.59ZM9,27c-4.95,0-9,4.05-9,9s4.05,9,9,9,9-4.05,9-9-4.05-9-9-9ZM9,31c2.79,0,5,2.21,5,5s-2.21,5-5,5-5-2.21-5-5,2.21-5,5-5Z"/>
  </g>
</svg>