<?xml version="1.0" encoding="UTF-8"?>
<svg id="Layer_2" data-name="Layer 2" xmlns="http://www.w3.org/2000/svg" viewBox="0 0 53.33 53.34">
  <defs>
    <style>
      .cls-1 {
        fill: #010101;
      }
    </style>
  </defs>
  <g id="Layer_1-2" data-name="Layer 1">
    <path class="cls-1" d="M32,12h19.38c1.08,0,1.96.88,1.96,1.96v25.42c0,1.08-.88,1.96-1.96,1.96h-19.38V12ZM32,18.61h18.67v20.72h-18.67v-20.72ZM30.67,53.34L0,47.34V6L30.67,0v53.34ZM15,16.67c-4.24,0-7.67,4.48-7.67,10s3.43,10,7.67,10,7.67-4.48,7.67-10-3.43-10-7.67-10ZM14.67,32.67c-2.21,0-4-2.69-4-6s1.79-6,4-6,4,2.69,4,6-1.79,6-4,6ZM32.06,34.32h3.6v3.87h-3.6v-3.87ZM36.6,34.32h3.6v3.87h-3.6v-3.87ZM41.14,34.32h3.6v3.87h-3.6v-3.87ZM32.07,29.54h3.6v3.87h-3.6v-3.87ZM36.6,29.54h3.6v3.87h-3.6v-3.87ZM41.14,29.54h3.6v3.87h-3.6v-3.87ZM45.68,29.54h3.6v3.87h-3.6v-3.87ZM32.07,24.94h3.6v3.87h-3.6v-3.87ZM36.61,24.94h3.6v3.87h-3.6v-3.87ZM41.14,24.94h3.6v3.87h-3.6v-3.87ZM45.68,24.94h3.6v3.87h-3.6v-3.87ZM36.61,20.15h3.6v3.87h-3.6v-3.87ZM41.15,20.15h3.6v3.87h-3.6v-3.87ZM45.68,20.15h3.6v3.87h-3.6v-3.87Z"/>
  </g>
</svg>