<?xml version="1.0" encoding="UTF-8"?>
<svg id="Layer_2" data-name="Layer 2" xmlns="http://www.w3.org/2000/svg" viewBox="0 0 52 52">
  <defs>
    <style>
      .cls-1 {
        fill: #010101;
      }
    </style>
  </defs>
  <g id="Layer_1-2" data-name="Layer 1">
    <path class="cls-1" d="M26,0c-5.14,0-10.17,1.52-14.44,4.38C7.28,7.24,3.95,11.3,1.98,16.05.01,20.8-.5,26.03.5,31.07c1,5.04,3.48,9.68,7.12,13.31s8.27,6.11,13.31,7.12c5.04,1,10.27.49,15.02-1.48,4.75-1.97,8.81-5.3,11.67-9.58,2.86-4.28,4.38-9.3,4.38-14.44-.01-6.89-2.76-13.5-7.63-18.37C39.5,2.76,32.89.01,26,0h0ZM34.35,27.47l-10,9c-.37.33-.85.52-1.35.53-.28,0-.55-.06-.81-.17s-.48-.28-.67-.48c-.36-.39-.55-.91-.52-1.44.02-.53.26-1.03.65-1.39l8.35-7.53-8.35-7.52c-.38-.36-.6-.86-.62-1.38-.02-.52.17-1.03.52-1.42.35-.39.84-.62,1.37-.65.52-.03,1.03.15,1.43.49l10,9c.2.19.37.42.48.67.11.25.17.53.17.81s-.06.55-.17.81c-.11.25-.28.48-.48.67h0Z"/>
  </g>
</svg>