<?xml version="1.0" encoding="UTF-8"?>
<svg id="Layer_2" data-name="Layer 2" xmlns="http://www.w3.org/2000/svg" viewBox="0 0 44 56">
  <defs>
    <style>
      .cls-1 {
        fill: #010101;
      }
    </style>
  </defs>
  <g id="Layer_1-2" data-name="Layer 1">
    <path class="cls-1" d="M34.16,34.05c-.52-.09-1.06.03-1.49.34s-.73.77-.82,1.29c-.72,4.18-3.98,7.43-8.16,8.14-.26.04-.51.14-.73.28-.22.14-.42.32-.57.54-.15.21-.26.46-.32.71-.06.26-.07.52-.02.78.04.26.14.51.28.73.14.22.32.42.54.57.21.15.46.26.71.32.26.06.52.07.78.02,5.84-.99,10.43-5.57,11.44-11.41.09-.52-.03-1.06-.34-1.49-.31-.43-.77-.73-1.29-.82ZM22,0c-.41,0-.81.13-1.15.36C20.85.36,0,14.52,0,34c0,8.89,5.37,16.92,13.58,20.33,8.22,3.4,17.69,1.52,23.98-4.77,4.12-4.13,6.44-9.72,6.44-15.56C44,14.52,23.15.36,23.15.36,22.81.13,22.41,0,22,0ZM22,4.57c3,2.31,18,14.5,18,29.43,0,4.77-1.9,9.35-5.27,12.73-5.15,5.15-12.88,6.69-19.62,3.9-6.73-2.79-11.11-9.34-11.11-16.63,0-14.94,15-27.13,18-29.43Z"/>
  </g>
</svg>