<?xml version="1.0" encoding="UTF-8"?>
<svg id="Layer_2" data-name="Layer 2" xmlns="http://www.w3.org/2000/svg" viewBox="0 0 48 48">
  <defs>
    <style>
      .cls-1 {
        fill: #010101;
      }
    </style>
  </defs>
  <g id="Layer_1-2" data-name="Layer 1">
    <path class="cls-1" d="M30,8c-.53,0-1.04.21-1.41.59-.37.38-.59.88-.59,1.41s.21,1.04.59,1.41l4.59,4.59-4.59,4.59c-.37.38-.59.88-.59,1.41s.21,1.04.59,1.41c.38.37.88.59,1.41.59s1.04-.21,1.41-.59l6-6c.37-.38.59-.88.59-1.41s-.21-1.04-.59-1.41l-6-6c-.38-.38-.88-.59-1.41-.59ZM4,14c-2.19,0-4,1.81-4,4v26c0,2.19,1.81,4,4,4h28c2.19,0,4-1.81,4-4v-2c0-.53-.21-1.04-.59-1.41-.38-.37-.88-.59-1.41-.59s-1.04.21-1.41.59c-.37.38-.59.88-.59,1.41v2H4v-26h32c.53,0,1.04-.21,1.41-.59.37-.38.59-.88.59-1.41s-.21-1.04-.59-1.41c-.38-.38-.88-.59-1.41-.59H4ZM18,24c-.53,0-1.04.21-1.41.59l-6,6c-.37.38-.59.88-.59,1.41s.21,1.04.59,1.41l6,6c.38.38.88.59,1.41.59s1.04-.21,1.41-.59c.37-.37.59-.88.59-1.41s-.21-1.04-.59-1.41l-4.59-4.59,4.59-4.59c.37-.38.59-.88.59-1.41s-.21-1.04-.59-1.41c-.38-.38-.88-.59-1.41-.59ZM16,0c-2.19,0-4,1.81-4,4v2c0,.53.21,1.04.59,1.41.38.38.88.59,1.41.59s1.04-.21,1.41-.59c.38-.38.59-.88.59-1.41v-2h28v26H12c-.53,0-1.04.21-1.41.59-.37.38-.59.88-.59,1.41s.21,1.04.59,1.41c.38.37.88.59,1.41.59h32c2.19,0,4-1.81,4-4V4h0c0-2.19-1.81-4-4-4h-28Z"/>
  </g>
</svg>