<?xml version="1.0" encoding="UTF-8"?>
<svg id="Layer_2" data-name="Layer 2" xmlns="http://www.w3.org/2000/svg" viewBox="0 0 64 63.15">
  <defs>
    <style>
      .cls-1 {
        fill: #010101;
      }
    </style>
  </defs>
  <g id="Layer_1-2" data-name="Layer 1">
    <path class="cls-1" d="M30.25,42.67h3.5v-9.55h8.81v-3.4h-8.81v-9.55h-3.5v9.55h-8.7v3.4h8.7v9.55ZM14.01,56.46h2.97v-8.49h7.85v-2.65h-7.85v-8.6h-2.97v8.6h-7.85v2.65h7.85v8.49ZM47.02,25.79h2.97v-8.49h7.96v-2.55h-7.96V6.16h-2.97v8.6h-7.85v2.55h7.85v8.49ZM30.78,63.15h2.55v-6.05h5.41v-2.23h-5.41v-6.05h-2.55v6.05h-5.31v2.23h5.31v6.05ZM14.12,25.79h2.76v-8.6h7.96v-2.44h-7.96V6.16h-2.76v8.6h-7.96v2.44h7.96v8.6ZM56.04,38.53h2.55v-5.94h5.41v-2.33h-5.41v-5.94h-2.55v5.94h-5.31v2.33h5.31v5.94ZM47.02,56.46h2.97v-8.49h7.96v-2.65h-7.96v-8.6h-2.97v8.6h-7.85v2.65h7.85v8.49ZM38.32,7.64v-1.8h-5.31V0h-1.91v5.84h-5.31v1.8h5.31v5.84h1.91v-5.84h5.31ZM5.31,38.1h1.91v-5.84h5.31v-1.8h-5.31v-5.73h-1.91v5.73H0v1.91l5.31-.11v5.84Z"/>
  </g>
</svg>