<?xml version="1.0" encoding="UTF-8"?>
<svg id="Layer_2" data-name="Layer 2" xmlns="http://www.w3.org/2000/svg" viewBox="0 0 56.03 53.55">
  <defs>
    <style>
      .cls-1 {
        fill: #010101;
      }
    </style>
  </defs>
  <g id="Layer_1-2" data-name="Layer 1">
    <path class="cls-1" d="M18.01,26.78c0-5.52,4.48-10,10-10s10,4.48,10,10-4.48,10-10,10-10-4.48-10-10ZM28.01,20.78c-3.31,0-6,2.69-6,6s2.69,6,6,6,6-2.69,6-6-2.69-6-6-6ZM19.45.1c.81-.26,1.7.02,2.21.7l3.75,4.99c1.45-.03,3.75-.03,5.2,0l3.72-4.97c.51-.68,1.39-.96,2.2-.71,3.82,1.21,7.33,3.23,10.29,5.93.63.57.83,1.48.49,2.26l-2.44,5.73c.39.64.87,1.46,1.33,2.24.45.78.92,1.61,1.28,2.27l6.16.74c.84.1,1.53.72,1.71,1.55.87,3.91.88,7.95.03,11.86-.18.83-.87,1.46-1.72,1.56l-6.19.74c-.36.66-.83,1.48-1.28,2.27-.45.78-.93,1.6-1.33,2.24l2.44,5.73c.33.78.14,1.69-.49,2.26-2.96,2.69-6.45,4.72-10.26,5.95-.81.26-1.7-.02-2.21-.7l-3.75-4.99c-1.45.03-3.75.03-5.2,0l-3.72,4.97c-.51.68-1.39.96-2.2.71-3.82-1.21-7.33-3.23-10.29-5.93-.63-.57-.83-1.48-.49-2.27l2.44-5.71c-.39-.64-.87-1.46-1.32-2.25-.45-.79-.92-1.62-1.28-2.28l-6.16-.74c-.84-.1-1.53-.72-1.71-1.55-.87-3.91-.88-7.95-.03-11.86.18-.83.87-1.46,1.72-1.56l6.19-.74c.36-.66.83-1.48,1.28-2.27.45-.78.93-1.6,1.33-2.24l-2.44-5.73c-.33-.78-.14-1.69.49-2.26C12.15,3.35,15.64,1.33,19.45.1ZM12.95,8.09l2.28,5.35c.27.63.2,1.36-.2,1.93-.24.34-.98,1.57-1.75,2.92-.78,1.35-1.47,2.6-1.65,2.98-.29.62-.89,1.05-1.57,1.14l-5.78.69c-.38,2.44-.38,4.93.02,7.38l5.76.69c.68.08,1.28.51,1.57,1.13.18.39.88,1.64,1.66,2.99.78,1.35,1.51,2.59,1.76,2.95.39.56.46,1.29.19,1.92l-2.28,5.32c1.93,1.56,4.09,2.8,6.41,3.69l3.47-4.63c.41-.54,1.06-.84,1.74-.79.95.07,5.91.07,6.86,0,.68-.05,1.33.25,1.74.79l3.49,4.65c2.31-.9,4.47-2.15,6.39-3.71l-2.28-5.35c-.27-.64-.2-1.36.2-1.93.24-.34.98-1.57,1.75-2.92.78-1.35,1.47-2.6,1.65-2.98.29-.62.89-1.05,1.57-1.14l5.78-.69c.38-2.44.38-4.93-.02-7.38l-5.76-.69c-.68-.08-1.28-.51-1.57-1.14-.18-.38-.87-1.63-1.65-2.98-.78-1.35-1.51-2.57-1.75-2.92-.4-.57-.47-1.3-.2-1.93l2.28-5.35c-1.93-1.56-4.09-2.81-6.41-3.69l-3.47,4.63c-.41.54-1.06.84-1.74.79-.95-.07-5.91-.07-6.86,0-.68.05-1.33-.25-1.74-.79l-3.49-4.65c-2.31.9-4.47,2.15-6.39,3.71Z"/>
  </g>
</svg>