<?xml version="1.0" encoding="UTF-8"?>
<svg id="Layer_2" data-name="Layer 2" xmlns="http://www.w3.org/2000/svg" viewBox="0 0 57.43 52">
  <defs>
    <style>
      .cls-1 {
        fill: #010101;
      }
    </style>
  </defs>
  <g id="Layer_1-2" data-name="Layer 1">
    <path class="cls-1" d="M2,0C1.47,0,.96.21.59.59c-.38.38-.59.88-.59,1.41s.21,1.04.59,1.41c.38.38.88.59,1.41.59h4.2l9.05,31.64c.72,2.58,3.11,4.37,5.79,4.36h23.93c2.68.02,5.06-1.78,5.79-4.36l6.6-23.09c.09-.3.1-.61.04-.92-.06-.3-.18-.59-.37-.84-.19-.25-.43-.45-.7-.59-.28-.14-.58-.21-.89-.21H12.08l-2.03-7.1C9.56,1.19,7.98,0,6.2,0H2ZM13.22,14h39.55l-5.87,20.55h0c-.24.87-1.01,1.45-1.91,1.45h-23.97c-.9,0-1.67-.58-1.91-1.44h0s-5.88-20.56-5.88-20.56ZM20,52c2.21,0,4-1.79,4-4s-1.79-4-4-4-4,1.79-4,4,1.79,4,4,4ZM46,52c2.21,0,4-1.79,4-4s-1.79-4-4-4-4,1.79-4,4,1.79,4,4,4Z"/>
  </g>
</svg>