<?xml version="1.0" encoding="UTF-8"?>
<svg id="Layer_2" data-name="Layer 2" xmlns="http://www.w3.org/2000/svg" viewBox="0 0 54.65 54.65">
  <defs>
    <style>
      .cls-1 {
        fill: #010101;
      }
    </style>
  </defs>
  <g id="Layer_1-2" data-name="Layer 1">
    <path class="cls-1" d="M28.65,0c-.53,0-1.04.21-1.41.59-.38.38-.59.88-.59,1.41v6c0,.53.21,1.04.59,1.41.38.38.88.59,1.41.59s1.04-.21,1.41-.59c.38-.38.59-.88.59-1.41V2c0-.53-.21-1.04-.59-1.41-.38-.38-.88-.59-1.41-.59ZM46.65,2c-.53,0-1.04.21-1.41.59-.37.38-.59.88-.59,1.41,0,0-.03,1.08-.54,2.11-.51,1.02-1.13,1.89-3.46,1.89-3.67,0-6.05,2.13-7.04,4.11-.99,1.98-.96,3.89-.96,3.89,0,.53.21,1.04.59,1.41.38.38.88.59,1.41.59s1.04-.21,1.41-.59c.37-.38.59-.88.59-1.41,0,0,.03-1.08.54-2.11.51-1.02,1.13-1.89,3.46-1.89,3.67,0,6.05-2.13,7.04-4.11.99-1.98.96-3.89.96-3.89,0-.53-.21-1.04-.59-1.41-.38-.38-.88-.59-1.41-.59ZM17.58,9.68c-1.64-.03-3.28.91-3.89,2.59,0,0,0,0,0,0L.26,49.26c-.56,1.46-.2,3.12.9,4.23,0,0,0,0,0,0,1.11,1.1,2.77,1.46,4.23.9h-.03s37.02-13.44,37.02-13.44c0,0,0,0,0,0,1.97-.72,3.06-2.88,2.47-4.89,0,0,0,0,0,0-.19-.65-.54-1.24-1.02-1.71L20.3,10.82c-.75-.76-1.73-1.12-2.71-1.14ZM17.46,13.63s0,0,0,0l23.55,23.55s0,0,0,0c.01,0,0,0,0,0l-9.05,3.29L14.17,22.69l3.29-9.05ZM12.66,26.84l15.15,15.15-9.05,3.29-9.39-9.39,3.29-9.05ZM7.87,40.04l6.75,6.75-10.6,3.85,3.85-10.6ZM52.02,14.1l-6,2c-.25.08-.48.21-.68.39-.2.17-.36.38-.48.62s-.19.49-.21.75c-.02.26.01.53.1.77.08.25.21.48.39.68.17.2.38.36.62.48.24.12.49.19.75.21.26.02.53-.01.77-.1l6-2c.25-.08.48-.21.68-.39.2-.17.36-.38.48-.62s.19-.49.21-.75c.02-.26-.01-.53-.1-.77-.08-.25-.21-.48-.39-.68-.17-.2-.38-.36-.62-.48-.23-.12-.49-.19-.75-.21-.26-.02-.53.01-.77.1ZM46.65,24c-.53,0-1.04.21-1.41.59-.38.38-.59.88-.59,1.41s.21,1.04.59,1.41l4,4c.37.37.88.59,1.41.59s1.04-.21,1.41-.59c.38-.38.59-.88.59-1.41s-.21-1.04-.59-1.41l-4-4c-.37-.38-.88-.59-1.41-.59Z"/>
  </g>
</svg>