<?xml version="1.0" encoding="UTF-8"?>
<svg id="Layer_2" data-name="Layer 2" xmlns="http://www.w3.org/2000/svg" viewBox="0 0 48 40">
  <defs>
    <style>
      .cls-1 {
        fill: #010101;
      }
    </style>
  </defs>
  <g id="Layer_1-2" data-name="Layer 1">
    <path class="cls-1" d="M34.44.75c.69-.86,1.95-1,2.81-.31l3.75,3,3.75-3c.86-.69,2.12-.55,2.81.31.69.86.55,2.12-.31,2.81l-5,4c-.73.58-1.77.58-2.5,0l-5-4c-.86-.69-1-1.95-.31-2.81ZM0,4c0-1.1.9-2,2-2h22c1.1,0,2,.9,2,2s-.9,2-2,2H2c-1.1,0-2-.9-2-2ZM2,18c-1.1,0-2,.9-2,2s.9,2,2,2h22c1.1,0,2-.9,2-2s-.9-2-2-2H2ZM2,34c-1.1,0-2,.9-2,2s.9,2,2,2h22c1.1,0,2-.9,2-2s-.9-2-2-2H2ZM34.44,16.75c.69-.86,1.95-1,2.81-.31l3.75,3,3.75-3c.86-.69,2.12-.55,2.81.31.69.86.55,2.12-.31,2.81l-5,4c-.73.58-1.77.58-2.5,0l-5-4c-.86-.69-1-1.95-.31-2.81ZM34.44,32.75c.69-.86,1.95-1,2.81-.31l3.75,3,3.75-3c.86-.69,2.12-.55,2.81.31.69.86.55,2.12-.31,2.81l-5,4c-.73.58-1.77.58-2.5,0l-5-4c-.86-.69-1-1.95-.31-2.81Z"/>
  </g>
</svg>