<?xml version="1.0" encoding="UTF-8"?>
<svg id="Layer_2" data-name="Layer 2" xmlns="http://www.w3.org/2000/svg" viewBox="0 0 48 40">
  <defs>
    <style>
      .cls-1 {
        fill: #010101;
      }
    </style>
  </defs>
  <g id="Layer_1-2" data-name="Layer 1">
    <path class="cls-1" d="M28,0c-.53,0-1.04.21-1.41.59-.37.38-.59.88-.59,1.41s.21,1.04.59,1.41l14.59,14.59H2c-.53,0-1.04.21-1.41.59-.38.38-.59.88-.59,1.41s.21,1.04.59,1.41c.38.38.88.59,1.41.59h39.17l-14.59,14.59c-.37.37-.59.88-.59,1.41s.21,1.04.59,1.41c.38.38.88.59,1.41.59s1.04-.21,1.41-.59l18-18c.35-.36.55-.85.56-1.35,0-.02.02-.04.02-.06,0-.05-.01-.11-.02-.16,0-.1-.02-.2-.05-.3-.02-.1-.06-.2-.1-.3-.04-.09-.09-.19-.14-.27-.06-.09-.12-.18-.19-.26-.03-.04-.06-.08-.09-.12L29.41.59c-.38-.38-.88-.59-1.41-.59Z"/>
  </g>
</svg>