<?xml version="1.0" encoding="UTF-8"?>
<svg id="Layer_2" data-name="Layer 2" xmlns="http://www.w3.org/2000/svg" viewBox="0 0 55.99 54">
  <defs>
    <style>
      .cls-1 {
        fill: #010101;
      }
    </style>
  </defs>
  <g id="Layer_1-2" data-name="Layer 1">
    <path class="cls-1" d="M27.99,0c-1.71,0-3.25,1.08-3.83,2.68l.02-.05-5.5,13.85s-.01.03-.02.04c-.01.03-.03.05-.07.05h-.01s-14.75.95-14.75.95h0c-1.8.12-3.2,1.43-3.66,2.9-.46,1.48-.07,3.31,1.3,4.45l11.3,9.42h0c.06.05.08.11.06.18h0l-3.37,13.29c-.48,1.9.31,3.78,1.67,4.82,1.36,1.03,3.44,1.27,5.1.22l11.72-7.42h0s.04-.01.06,0h0l12.6,8h0c1.5.95,3.4.74,4.64-.19,1.23-.93,1.95-2.65,1.52-4.36h0l-3.65-14.34c-.02-.07,0-.13.06-.18h0s11.3-9.43,11.3-9.43c1.37-1.14,1.76-2.98,1.31-4.45-.46-1.48-1.86-2.79-3.66-2.9h0l-14.75-.95h-.01s-.05-.02-.07-.05c0-.01-.01-.03-.02-.04l-5.5-13.85.02.06C31.24,1.08,29.7,0,27.99,0ZM27.99,4h0s.06.01.07.05c0,.02.01.04.02.06l5.5,13.85-.02-.04c.56,1.51,1.97,2.56,3.58,2.65l14.74.95c.13,0,.06,0,.09.1.03.1.06.11-.04.2h0s-11.29,9.42-11.29,9.42c-1.23,1.02-1.78,2.67-1.39,4.22h0s3.65,14.36,3.65,14.36c.04.16,0,.15-.06.19-.05.04.03.08-.09,0l-12.6-8c-1.32-.84-3.02-.84-4.34,0h0l-11.72,7.42h0c-.27.17-.35.11-.53-.02-.18-.14-.3-.29-.21-.64h0l3.38-13.3h0c.39-1.56-.16-3.21-1.39-4.23l-11.29-9.42h0c-.1-.09-.07-.1-.04-.2.03-.1-.03-.09.09-.1l14.75-.95h-.01c1.61-.09,3.02-1.14,3.58-2.65l5.48-13.81s.01-.04.02-.06c.01-.04.03-.05.07-.05Z"/>
  </g>
</svg>